<?xml version="1.0" encoding="utf-8"?>
<!-- Generator: Adobe Illustrator 22.1.0, SVG Export Plug-In . SVG Version: 6.00 Build 0)  -->
<svg version="1.1" id="Layer_1" xmlns="http://www.w3.org/2000/svg" xmlns:xlink="http://www.w3.org/1999/xlink" x="0px" y="0px"
	 viewBox="0 0 340.2 340.2" style="enable-background:new 0 0 340.2 340.2;" xml:space="preserve">
<style type="text/css">
	.st0{fill:#4D5C5D;}
	.st1{fill:#697E80;}
	.st2{fill:#778F91;}
</style>
<path class="st0" d="M24.3,2.2h291.6c6.9,0,12.8,2.4,17.6,7.2c4.5,4.4,6.7,10,6.7,16.8v288.1c0,6.8-2.2,12.6-6.7,17.4
	c-4.9,4.4-10.7,6.6-17.6,6.6H24.3c-6.9,0-12.6-2.2-17-6.6C2.4,326.9,0,321.1,0,314.3V26.2c0-6.8,2.4-12.4,7.3-16.8
	C11.7,4.6,17.4,2.2,24.3,2.2 M170.1,122.2l-24.3-24l-24.3-24h97.2L170.1,122.2 M97.2,146.2l24.3,24l-48.6,48v-96L97.2,146.2
	 M218.7,170.3l48.6-48v96l-24.3-24L218.7,170.3 M194.4,242.3l24.3,24h-97.2l48.6-48L194.4,242.3 M24.3,26.2v288.1h291.6V26.2H24.3"
	/>
<path class="st1" d="M145.8,98.2l24.3,24l-48.6,48l-24.3-24L145.8,98.2 M72.9,122.2v-48h48.6L72.9,122.2 M218.7,170.3l24.3,24
	l-48.6,48l-24.3-24L218.7,170.3 M218.7,266.3l48.6-48v48H218.7 M121.5,266.3H72.9v-48L121.5,266.3 M267.3,122.2l-48.6-48h48.6V122.2
	"/>
<path class="st2" d="M267.3,122.2l-48.6,48l-48.6,48l-48.6,48l-48.6-48l48.6-48l48.6-48l48.6-48h-97.2l24.3,24l-48.6,48l-24.3-24
	l48.6-48H72.9v48v96v48h48.6h97.2l-24.3-24l48.6-48l24.3,24V122.2v-48h-48.6L267.3,122.2 M218.7,266.3h48.6v-48L218.7,266.3
	 M24.3,26.2h291.6v288.1H24.3V26.2"/>
</svg>
