<?xml version="1.0" encoding="utf-8"?>
<!-- Generator: Adobe Illustrator 22.1.0, SVG Export Plug-In . SVG Version: 6.00 Build 0)  -->
<svg version="1.1" id="Layer_1" xmlns="http://www.w3.org/2000/svg" xmlns:xlink="http://www.w3.org/1999/xlink" x="0px" y="0px"
	 viewBox="0 0 340.2 340.2" style="enable-background:new 0 0 340.2 340.2;" xml:space="preserve">
<style type="text/css">
	.st0{fill:#6C8587;}
	.st1{fill:#90ADAF;}
	.st2{fill:#87A6A8;}
	.st3{fill:#A7C9CB;}
	.st4{fill:#9AB9BB;}
</style>
<g transform="matrix( 1, 0, 0, 1, 0,0) ">
	<g>
		<g id="Layer0_225_FILL">
			<path class="st0" d="M0.1,75.5C0.3,78.3,1,80.8,2.2,83l45.2,71.8l-19.6,84c-0.6,3.1-0.3,6.3,0.9,9.6c1,2.9,2.9,5.1,5.6,6.8
				l81.9,49.3c0.8,0.5,1.7,0.8,2.5,1.1l111.2,33.9c1.9,0.7,3.7,0.8,5.6,0.4c1.9-0.5,3.6-1.2,5.3-2.1l84.4-74.7
				c1.5-1.4,2.6-3.1,3.4-5c0.8-1.4,1.3-3.1,1.6-5l10-105.4c0.2-3.8-0.4-7.1-1.9-10l-47.3-75.4c-1-1.9-2.5-3.3-4.4-4.3
				c-2.1-1.2-4-1.7-5.9-1.4l-68.2,1.1L115,1.5c-1.9-1.2-3.8-1.7-5.9-1.4c-2.1-0.2-3.8,0.4-5.3,1.8l-97.5,60c-2.1,1.4-3.7,3.3-5,5.7
				C0.3,69.7-0.2,72.4,0.1,75.5 M12.5,74.4l96.9-60l100.3,57.5l71-1.4l47,75.8l-10,105.1l-84.4,74.3l-111.2-33.9l-82.5-49l21.2-90.4
				L12.5,74.4z"/>
			<path class="st1" d="M280.6,70.5L242.3,123l21.2,34.3l-4.4,47.5l58.5,46.5l10-105.1L280.6,70.5 M170.7,223L134,200.5l9.3-40.7
				l-82.5-7.5l-21.2,90.4l82.5,49L170.7,223z"/>
			<path class="st2" d="M170.7,223l-48.6,68.6l111.2,33.9l84.4-74.3l-58.5-46.5l-38.3,33.6L170.7,223z"/>
			<path class="st3" d="M165.1,98l-43.6,27.2l21.8,34.7l-9.3,40.7l36.7,22.5l50.1,15.4l38.3-33.6l4.4-47.5L242.3,123l-32.1,0.7
				L165.1,98z"/>
			<path class="st4" d="M121.5,125.1L165.1,98l45.2,25.7l32.1-0.7l38.3-52.5l-71,1.4L109.4,14.4l-96.9,60l48.3,77.9l82.5,7.5
				L121.5,125.1z"/>
		</g>
	</g>
</g>
</svg>
