<?xml version="1.0" encoding="utf-8"?>
<!-- Generator: Adobe Illustrator 22.1.0, SVG Export Plug-In . SVG Version: 6.00 Build 0)  -->
<svg version="1.1" id="Layer_1" xmlns="http://www.w3.org/2000/svg" xmlns:xlink="http://www.w3.org/1999/xlink" x="0px" y="0px"
	 viewBox="0 0 340.2 340.2" style="enable-background:new 0 0 340.2 340.2;" xml:space="preserve">
<style type="text/css">
	.st0{fill:#6C8587;}
	.st1{fill:#90ADAF;}
	.st2{fill:#89A4A6;}
	.st3{fill:#A7C9CB;}
	.st4{fill:#9BBBBD;}
</style>
<g transform="matrix( 1, 0, 0, 1, 0,0) ">
	<g>
		<g id="Layer0_224_FILL">
			<path class="st0" d="M8.8,103.3c-2.8,1.4-5,3.6-6.7,6.6c-1.7,2.8-2.4,5.8-2.1,9.1l9.6,155c0.3,3.3,1.5,6.5,3.8,9.5
				c2.2,2.5,5.1,4.3,8.8,5.4l191.1,50.8c3.3,0.8,6.8,0.7,10.4-0.4c3.3-1.4,6-3.6,7.9-6.6l106-164.9c1.9-3,2.8-6.3,2.5-9.9
				c-0.3-3.6-1.5-6.7-3.8-9.5L221.2,6.2c-2.5-3-5.7-5-9.6-5.8c-3.9-0.8-7.6-0.3-11.3,1.7L8.8,103.3 M16.7,117.7L208.3,16.5
				l115.2,142.1l-106,164.9L26.3,272.7L16.7,117.7z"/>
			<path class="st1" d="M26.3,272.7l77.6-60.3l2.9-50l-90.1-44.6L26.3,272.7 M208.3,16.5l-28.4,104.1l40.1,40.9l-39.2,71.1
				l36.7,90.9l106-164.9L208.3,16.5z"/>
			<path class="st2" d="M217.4,323.5l-36.7-90.9L104,212.4l-77.6,60.3L217.4,323.5z"/>
			<path class="st3" d="M180.7,232.6l39.2-71.1l-40.1-40.9l-73,41.7l-2.9,50L180.7,232.6z"/>
			<path class="st4" d="M179.9,120.6l28.4-104.1L16.7,117.7l90.1,44.6L179.9,120.6z"/>
		</g>
	</g>
</g>
</svg>
