<?xml version="1.0" encoding="utf-8"?>
<!-- Generator: Adobe Illustrator 22.1.0, SVG Export Plug-In . SVG Version: 6.00 Build 0)  -->
<svg version="1.1" id="Layer_1" xmlns="http://www.w3.org/2000/svg" xmlns:xlink="http://www.w3.org/1999/xlink" x="0px" y="0px"
	 viewBox="0 0 340.2 340.2" style="enable-background:new 0 0 340.2 340.2;" xml:space="preserve">
<style type="text/css">
	.st0{fill:#875C30;}
	.st1{fill:#AF783F;}
	.st2{fill:#BB8044;}
	.st3{fill:#85592E;}
</style>
<path class="st0" d="M25.2,5H315c6.8,0,12.7,2.4,17.5,7.3c4.4,4.5,6.6,10.1,6.6,17v291.6c0,6.9-2.2,12.8-6.6,17.6
	c-4.8,4.5-10.7,6.7-17.5,6.7H25.2c-6.8,0-12.5-2.2-16.9-6.7c-4.8-4.9-7.2-10.7-7.2-17.6V29.3c0-6.9,2.4-12.6,7.2-17
	C12.7,7.4,18.4,5,25.2,5 M25.2,29.3v291.6H315V29.3H25.2"/>
<path class="st1" d="M73.5,126.5V77.9h48.3L73.5,126.5 M218.4,272.2l48.3-48.6v48.6H218.4"/>
<path class="st2" d="M218.4,272.2L73.5,126.5l48.3-48.6H73.5v48.6v145.8H218.4h48.3v-48.6L218.4,272.2 M266.7,223.7V77.9H121.8
	L266.7,223.7 M25.2,29.3H315v291.6H25.2V29.3"/>
<path class="st3" d="M73.5,126.5l144.9,145.8H73.5V126.5 M266.7,223.7L121.8,77.9h144.9V223.7"/>
</svg>
