<?xml version="1.0" encoding="utf-8"?>
<!-- Generator: Adobe Illustrator 22.1.0, SVG Export Plug-In . SVG Version: 6.00 Build 0)  -->
<svg version="1.1" id="Layer_1" xmlns="http://www.w3.org/2000/svg" xmlns:xlink="http://www.w3.org/1999/xlink" x="0px" y="0px"
	 viewBox="0 0 340.2 340.2" style="enable-background:new 0 0 340.2 340.2;" xml:space="preserve">
<style type="text/css">
	.st0{fill:#5D5B5B;}
	.st1{fill:#FFFFFF;}
	.st2{fill:#3A3535;}
	.st3{fill:#4F4C4C;}
	.st4{fill:#706E6E;}
	.st5{fill:#3C3939;}
</style>
<path class="st0" d="M135,43.6l1.1-5.1l-0.9-4.7l5.1-0.7l8.7-0.7l29.5-1.3l29.5,1.3l8.7,0.7l5.1,0.7l-0.9,4.5l1.1,5.1l0.2,0.2
	l-18.3-4l-25.4-1.3l-25.4,1.3L135,43.6 M115.8,43.3l2,2.7c2.1,2.1,4.6,3.1,7.6,3.1h0.7c-2.1,3.1-3.1,7.7-2.9,13.6l3.3,33.5l0.9-0.2
	l15.6-5.1c11.6-3,23.4-4.5,35.5-4.7c12.4,0.1,24.2,1.7,35.5,4.7c5.4,1.3,10.6,3.1,15.8,5.1l0.7,0.2l3.3-33.5
	c0.1-6.1-0.8-10.7-2.9-13.8h0.7c3,0,5.5-1,7.6-3.1l2-2.5c4.2,6.4,6.3,17,6.5,31.7v1.3v227.7h-17.9v-8.9V192.4H127.4v5.4v1.8
	l-0.2,95.5v8.9h-17.9l0.2-227.7V75C109.6,60.4,111.7,49.9,115.8,43.3 M228.8,104.3c0.1-1.8-0.4-2.7-1.8-2.7
	c-16.1-4.9-32.2-7.4-48.4-7.4c-16.2,0-32.4,2.5-48.4,7.4c-1.3,0-1.9,0.9-1.8,2.7l2.9,20.3c14.9-3.6,30.7-5.6,47.3-6
	c16.7,0.4,32.4,2.5,47.3,6L228.8,104.3 M225.7,146.2c0-7-3.4-11.4-10.3-13.2c-11.5-3-23.7-4.5-36.8-4.5c-13.2,0-25.4,1.5-36.4,4.5
	c-7.3,1.8-10.9,6.2-10.9,13.2V165c0,7.3,3.6,10.9,10.9,10.9h72.6c7.3,0,10.9-3.6,10.9-10.9V146.2"/>
<path class="st1" d="M135.2,33.7l0.9,4.7l-1.1,5.1l-2,2.5c-1.9,1.9-4.2,3-6.9,3.1h-0.7c-3,0-5.5-1-7.6-3.1l-2-2.7l0.2-0.4
	c3.3-4.8,7.6-7.6,12.9-8.5L135.2,33.7 M222.3,43.6l-0.2-0.2l-1.1-5.1l0.9-4.5l6.5,0.7c5.4,0.9,9.6,3.7,12.7,8.5l0.2,0.4l-2,2.5
	c-2.1,2.1-4.6,3.1-7.6,3.1H231c-2.7-0.1-5-1.2-6.9-3.1L222.3,43.6 M228.8,104.3l-2.9,20.3c-14.9-3.6-30.7-5.6-47.3-6
	c-16.7,0.4-32.4,2.5-47.3,6l-2.9-20.3c-0.1-1.8,0.4-2.7,1.8-2.7c16.1-4.9,32.2-7.4,48.4-7.4c16.2,0,32.4,2.5,48.4,7.4
	C228.3,101.6,228.9,102.5,228.8,104.3"/>
<path class="st2" d="M221.9,33.7l-5.1-0.7l-8.7-0.7L178.5,31l-29.5,1.3l-8.7,0.7l-5.1,0.7l-6.3,0.7c-5.4,0.9-9.7,3.7-12.9,8.5
	l-0.2,0.4c-4.2,6.5-6.3,17.1-6.3,31.7v1.3l-0.2,227.7h17.9v-8.9h102.7v8.9h17.9V76.4V75c-0.1-14.7-2.3-25.3-6.5-31.7l-0.2-0.4
	c-3.1-4.8-7.4-7.6-12.7-8.5L221.9,33.7 M139.9,24.1l8.3-0.7h0.2l30.1-1.3l30.4,1.3l8.3,0.7h0.4l4.9,0.7l7.1,0.9h0.2
	c7.9,1.2,14.1,5.3,18.8,12.3l0.4,0.9c4.9,7.3,7.4,19.3,7.6,36.2v1.3v227.7c0,2.5-0.8,4.7-2.5,6.5c-1.8,1.6-3.9,2.5-6.5,2.5h-17.9
	c-2.5,0-4.6-0.8-6.3-2.5c-1.8-1.8-2.7-3.9-2.7-6.5h-84.8c0,2.5-0.8,4.7-2.5,6.5c-1.8,1.6-3.9,2.5-6.5,2.5h-17.9
	c-2.5,0-4.6-0.9-6.3-2.7c-1.8-1.8-2.7-3.9-2.7-6.3l0.2-227.7V75c0-15.5,2.2-27,6.5-34.6l2.5-3.6c4.6-6.4,10.6-10.1,18.1-11.2
	l6.5-0.9l5.6-0.7H139.9"/>
<path class="st3" d="M135,43.6l18.1-4l25.4-1.3l25.4,1.3l18.3,4l1.8,2.2c1.9,1.9,4.2,3,6.9,3.1c2.1,3.1,3.1,7.7,2.9,13.8l-3.3,33.5
	l-0.7-0.2c-5.2-2.1-10.5-3.8-15.8-5.1c-11.3-3-23.1-4.5-35.5-4.7c-12.1,0.1-23.9,1.7-35.5,4.7L127.4,96l-0.9,0.2l-3.3-33.5
	c-0.1-6,0.8-10.5,2.9-13.6c2.7-0.1,5-1.2,6.9-3.1L135,43.6"/>
<path class="st4" d="M225.7,146.2V165c0,7.3-3.6,10.9-10.9,10.9h-72.6c-7.3,0-10.9-3.6-10.9-10.9v-18.8c0-7,3.6-11.4,10.9-13.2
	c11-3,23.1-4.5,36.4-4.5c13.1,0,25.4,1.5,36.8,4.5C222.2,134.9,225.7,139.2,225.7,146.2"/>
<path class="st5" d="M229.9,295.1H127.2l0.2-95.5v-1.8v-5.4h102.5V295.1"/>
</svg>
