<?xml version="1.0" encoding="utf-8"?>
<!-- Generator: Adobe Illustrator 22.1.0, SVG Export Plug-In . SVG Version: 6.00 Build 0)  -->
<svg version="1.1" id="Layer_1" xmlns="http://www.w3.org/2000/svg" xmlns:xlink="http://www.w3.org/1999/xlink" x="0px" y="0px"
	 viewBox="0 0 340.2 340.2" style="enable-background:new 0 0 340.2 340.2;" xml:space="preserve">
<style type="text/css">
	.st0{fill:#16628E;}
	.st1{fill:#FFFFFF;}
	.st2{fill:#2F95D0;}
	.st3{fill:#298DC6;}
	.st4{fill:#EEEEEE;}
</style>
<path class="st0" d="M212,15.2l0.7,0.2l12.1,1.4h0.5c8.2,1.2,14.7,5.5,19.5,12.8c5.4,7.7,8.2,20.6,8.4,38.6l-1.4,24.6V93l-2.3,22.1
	v0.7l-0.7,10.2l-0.7,20l-0.2,5.6v0.2v7.9v0.2c-0.3,17.8,0.5,35.8,2.6,53.9l3.3,21.6c1.9,13.3,0.4,23.5-4.4,30.7
	c-4.8,8.2-13.1,12.9-24.9,14.2l-2.3,0.2l-50.2,2.1l-48.8-2.1h-0.7l-2.6-0.2c-13.8-1.5-22.8-7.4-26.9-17.4c-3.6-6.8-4.4-16-2.6-27.4
	l2.8-21.4c2-18.1,3-36.1,3-53.9l-0.2-8.4v-0.2V146l-0.9-19.7l-0.7-10.5v-0.7l-2.1-22.3c-0.9-9.1-1.4-17.3-1.4-24.6
	c0-18,2.8-30.8,8.4-38.6c5-7.3,11.5-11.5,19.7-12.8h0.2l12.1-1.4l0.5-0.2l8.6-0.7h0.2l31.4-1.4l31.6,1.4L212,15.2 M236.9,34.7
	c-3.3-5-7.7-7.9-13.2-8.8l-12.1-1.4l-9.1-0.7l-30.7-1.4l-30.7,1.4l-9.1,0.7l-11.8,1.4c-5.6,0.9-10.1,3.9-13.5,8.8
	c-4.5,6.8-6.7,18-6.7,33.5c0,7,0.5,14.9,1.4,23.7l2.1,22.5v0.7l0.7,10.5l0.9,20.2v5.8l0.2,8.1c0,18.3-1,36.7-3,55.3l-3,21.8
	c-1.4,9.1-0.8,16.4,1.9,21.8c3.1,7.1,9.6,11.2,19.5,12.3l1.6,0.2h1.4l48.1,2.1l49.3-2.1l1.9-0.2c17.3-1.7,24.5-13.1,21.4-34.2
	L241,215c-2-18.6-2.9-37-2.6-55.3v-8.1l0.2-5.8l0.7-20.2l0.7-10.5v-0.7l2.3-22.5l1.4-23.7C243.7,52.7,241.3,41.5,236.9,34.7"/>
<path class="st1" d="M236.9,34.7l-6.7,4.9l-27.6-15.8l9.1,0.7l12.1,1.4C229.2,26.8,233.6,29.8,236.9,34.7 M106.8,34.7
	c3.4-5,7.9-7.9,13.5-8.8l11.8-1.4l9.1-0.7l-27.6,15.8L106.8,34.7 M119.5,133.5l0.2-1.9c0.3-0.6,0.9-0.9,1.6-0.9
	c16.7-5.1,33.5-7.7,50.4-7.7c16.9,0,33.7,2.6,50.4,7.7c0.8,0,1.3,0.3,1.6,0.9l0.2,1.9l-3,21.1c-15.5-3.7-31.9-5.8-49.3-6.3
	c-17.3,0.5-33.8,2.6-49.3,6.3L119.5,133.5"/>
<path class="st2" d="M119.5,133.5l3,21.1l3,21.1c0.3,1.4,1.2,2.1,2.6,2.1l43.7-3.9l44.1,3.9l2.1-2.1l3-21.1l3-21.1l5.3-78.1
	c0.2-10.5-2.9-16.9-9.1-19c-7-2.3-14.3-4-22.1-5.1l-26.5-1.4l-26.5,1.4c-7.4,1.1-14.8,2.8-22.1,5.1c-6.2,2.2-9.2,8.5-9.1,19
	L119.5,133.5 M236.9,34.7c4.5,6.8,6.8,18,7,33.5l-1.4,23.7l-2.3,22.5v0.7l-3.7,10.5l-1.6,5.3l-3.7,14.9l-0.9,5.8
	c-0.6,2.6-1,5.3-1.2,8.1c-1.7,16.3,1.2,32.5,8.8,48.8l3.3,6.5l3.3,21.8c3.1,21.1-4,32.4-21.4,34.2l-1.9,0.2l-49.3,2.1l-48.1-2.1
	h-1.4l-1.6-0.2c-9.9-1.1-16.4-5.2-19.5-12.3c-2.6-5.4-3.3-12.7-1.9-21.8l3-21.8l3.5-6.5c7.6-16.3,10.6-32.5,9.1-48.8l-1.2-8.1
	l-0.9-5.8l-3.7-14.9l-1.6-5.3l-3.9-10.5v-0.7l-2.1-22.5c-0.9-8.8-1.4-16.7-1.4-23.7c0-15.5,2.2-26.6,6.7-33.5l6.7,4.9l27.6-15.8
	l30.7-1.4l30.7,1.4l27.6,15.8L236.9,34.7 M122.6,199.2l-6,42.3l0.2,1.9c0.3,0.6,0.9,0.9,1.6,0.9c16.7,5.1,33.5,7.7,50.4,7.7
	c16.9,0,33.7-2.6,50.4-7.7l1.6-0.9l0.2-1.9l-6-42.3c0-1.4-0.7-2.1-2.1-2.1l-44.1,3.9l-43.7-3.9C123.7,197.1,122.9,197.8,122.6,199.2
	"/>
<path class="st3" d="M122.6,199.2c0.3-1.4,1.2-2.1,2.6-2.1l43.7,3.9l44.1-3.9c1.4,0,2.1,0.7,2.1,2.1l6,42.3l-0.2,1.9l-1.6,0.9
	c-16.7,5.1-33.5,7.7-50.4,7.7c-16.9,0-33.7-2.6-50.4-7.7c-0.8,0-1.3-0.3-1.6-0.9l-0.2-1.9L122.6,199.2 M240.1,115.1l-0.7,10.5
	l-0.7,20.2l-0.2,5.8v8.1c-0.3,18.3,0.5,36.7,2.6,55.3l-3.3-6.5c-7.6-16.3-10.5-32.5-8.8-48.8c0.2-2.8,0.5-5.5,1.2-8.1l0.9-5.8
	l3.7-14.9l1.6-5.3L240.1,115.1 M102.3,215c2-18.6,3-37,3-55.3l-0.2-8.1v-5.8l-0.9-20.2l-0.7-10.5l3.9,10.5l1.6,5.3l3.7,14.9l0.9,5.8
	l1.2,8.1c1.5,16.3-1.5,32.5-9.1,48.8L102.3,215 M119.5,133.5l-5.3-78.1c-0.2-10.5,2.9-16.9,9.1-19c7.3-2.3,14.6-4,22.1-5.1l26.5-1.4
	l26.5,1.4c7.7,1.1,15.1,2.8,22.1,5.1c6.2,2.2,9.2,8.5,9.1,19l-5.3,78.1l-0.2-1.9c-0.3-0.6-0.9-0.9-1.6-0.9
	c-16.7-5.1-33.5-7.7-50.4-7.7c-16.9,0-33.7,2.6-50.4,7.7c-0.8,0-1.3,0.3-1.6,0.9L119.5,133.5"/>
<path class="st4" d="M221.1,154.6l-3,21.1l-2.1,2.1l-44.1-3.9l-43.7,3.9c-1.4,0-2.2-0.7-2.6-2.1l-3-21.1c15.5-3.7,31.9-5.8,49.3-6.3
	C189.2,148.8,205.6,150.9,221.1,154.6"/>
</svg>
