<?xml version="1.0" encoding="utf-8"?>
<!-- Generator: Adobe Illustrator 22.1.0, SVG Export Plug-In . SVG Version: 6.00 Build 0)  -->
<svg version="1.1" id="Layer_1" xmlns="http://www.w3.org/2000/svg" xmlns:xlink="http://www.w3.org/1999/xlink" x="0px" y="0px"
	 viewBox="0 0 340.2 340.2" style="enable-background:new 0 0 340.2 340.2;" xml:space="preserve">
<style type="text/css">
	.st0{fill:#9F4910;}
	.st1{fill:#FFFFFF;}
	.st2{fill:#E86A17;}
	.st3{fill:#D96417;}
	.st4{fill:#EEEEEE;}
</style>
<path class="st0" d="M140.9,35.8l-8.8,0.7l-11.5,1.4c-5.4,0.9-9.8,3.8-13.1,8.6c-4.4,6.6-6.5,17.4-6.5,32.5c0,6.8,0.5,14.4,1.4,23
	l2,21.9v0.7c2.6,37.3,2.2,75.2-1.1,113.6l-2.9,27.1c-1.4,11.3-0.8,20.3,1.8,27.1c3,8.9,9.3,13.9,18.9,15.1l2.9,0.5l46.7,2.5
	l49.6-2.9c16.8-2.1,23.7-16.2,20.7-42.2l-3.2-27.1c-3.2-38.5-3.5-76.4-0.9-113.6v-0.7l2.3-21.9l1.4-23c-0.2-15-2.4-25.9-6.8-32.5
	c-3.2-4.8-7.4-7.7-12.9-8.6l-11.7-1.4l-8.8-0.7l-29.8-1.4L140.9,35.8 M131.6,27.5l8.3-0.7h0.2l30.4-1.4l30.7,1.4l8.3,0.7l0.7,0.2
	L222,29h0.5c8,1.2,14.3,5.3,18.9,12.4c5.3,7.5,8,20,8.1,37.4l-1.4,23.9v0.2l-2.3,21.4v0.7c-2.6,36.7-2.3,74,0.9,112.1L250,264v0.2
	c3.8,32.8-5.8,50.1-28.6,52.1l-50.7,2.9l-46.7-2.5l-3.8-0.5h-0.2c-15-1.4-24.3-9.4-27.7-24.1c-1.8-7.5-2-16.8-0.7-28V264l2.7-26.6
	c3.3-38,3.7-75.5,1.1-112.3v-0.7l-2-21.6c-0.9-8.9-1.4-16.8-1.4-23.9c0-17.4,2.7-29.9,8.1-37.4c4.8-7.1,11.2-11.2,19.2-12.4h0.2
	l11.7-1.4L131.6,27.5"/>
<path class="st1" d="M107.5,46.4c3.3-4.8,7.7-7.7,13.1-8.6l11.5-1.4l8.8-0.7L114,51.1L107.5,46.4 M200.4,35.8l8.8,0.7l11.7,1.4
	c5.4,0.9,9.7,3.8,12.9,8.6l-6.5,4.7L200.4,35.8 M122.8,128.9l-2.9-20.5c-0.2-1.8,0.5-2.7,1.8-2.7c16.2-5,32.5-7.4,48.9-7.4
	c16.4,0,32.7,2.5,48.9,7.4c1.4,0,2,0.9,1.8,2.7l-2.9,20.5c-15-3.6-31-5.6-47.8-6.1C153.8,123.3,137.9,125.3,122.8,128.9
	 M126.9,240.3l2.5-18.9c0.3-1.2,1-1.8,2-1.8l39.2,3.8l39.2-3.8c1.4,0,2.1,0.6,2.3,1.8l2.7,18.9c-13.8,4.2-28.6,6.2-44.2,5.9
	C155,246.5,140.4,244.5,126.9,240.3"/>
<path class="st2" d="M126.9,240.3l-2.9,18.9v32.9c30.8,5.1,61.9,5.1,93.3,0v-32.9l-2.5-18.9l-2.7-18.9c-0.2-1.2-0.9-1.8-2.3-1.8
	l-39.2,3.8l-39.2-3.8c-1.1,0-1.7,0.6-2,1.8L126.9,240.3 M140.9,35.8l29.8-1.4l29.8,1.4l26.8,15.3l6.5-4.7c4.4,6.6,6.6,17.4,6.8,32.5
	l-1.4,23l-2.3,21.9v0.7c-2,5-3.7,10.1-5.2,15.3c-9.2,30.1-8.2,60.2,2.9,90.4l3.2,7.9l3.2,27.1c3,26-3.9,40.1-20.7,42.2l-49.6,2.9
	l-46.7-2.5l-2.9-0.5c-9.6-1.2-15.9-6.2-18.9-15.1c-2.6-6.8-3.2-15.8-1.8-27.1l2.9-27.1l3.4-7.9c11.1-30.2,12.2-60.3,3.2-90.4
	c-1.5-5.3-3.3-10.4-5.4-15.3v-0.7l-2-21.9c-0.9-8.6-1.4-16.2-1.4-23c0-15,2.2-25.9,6.5-32.5l6.5,4.7L140.9,35.8 M123.5,48
	c-6,2.1-8.9,8.3-8.8,18.5l3.4,33.8c5.4-2.3,11-4.1,16.7-5.4c11.7-3,23.7-4.6,35.8-4.7c12.5,0.2,24.4,1.7,35.8,4.7
	c5.7,1.4,11.3,3.2,16.7,5.4l3.4-33.8c0.2-10.2-2.8-16.4-8.8-18.5l-21.4-5l-25.7-1.4L144.9,43L123.5,48 M122.8,128.9l2.9,20.5
	c0.3,1.4,1.1,2,2.5,2l42.4-3.8l42.8,3.8l2-2l2.9-20.5l2.9-20.5c0.2-1.8-0.5-2.7-1.8-2.7c-16.2-5-32.5-7.4-48.9-7.4
	c-16.4,0-32.7,2.5-48.9,7.4c-1.4,0-2,0.9-1.8,2.7L122.8,128.9 M196.8,163.2c-8.1-2.1-16.8-3.2-26.2-3.2l-25.7,3.2
	c-5.1,1.2-7.7,4.3-7.7,9.2v13.3c0,5.1,2.6,7.7,7.7,7.7h51.4c5.1,0,7.7-2.6,7.7-7.7v-13.3C204,167.5,201.6,164.4,196.8,163.2"/>
<path class="st3" d="M236.9,124.4c-2.6,37.3-2.3,75.2,0.9,113.6l-3.2-7.9c-11.1-30.2-12.1-60.3-2.9-90.4
	C233.2,134.5,235,129.4,236.9,124.4 M103.2,238c3.3-38.5,3.7-76.4,1.1-113.6c2.1,5,3.9,10.1,5.4,15.3c9,30.1,8,60.2-3.2,90.4
	L103.2,238 M123.5,48l21.4-5l25.7-1.4l25.7,1.4l21.4,5c6,2.1,8.9,8.3,8.8,18.5l-3.4,33.8c-5.4-2.3-11-4.1-16.7-5.4
	c-11.4-3-23.4-4.6-35.8-4.7c-12.2,0.2-24.1,1.7-35.8,4.7c-5.7,1.4-11.3,3.2-16.7,5.4l-3.4-33.8C114.6,56.3,117.5,50.1,123.5,48
	 M217.3,259.2v32.9c-31.4,5.1-62.5,5.1-93.3,0v-32.9c16.1,6.2,31.6,9.3,46.7,9.5C185.6,268.6,201.2,265.4,217.3,259.2"/>
<path class="st4" d="M218.4,128.9l-2.9,20.5l-2,2l-42.8-3.8l-42.4,3.8c-1.4,0-2.2-0.7-2.5-2l-2.9-20.5c15-3.6,31-5.6,47.8-6.1
	C187.5,123.3,203.4,125.3,218.4,128.9 M196.8,163.2c4.8,1.2,7.2,4.3,7.2,9.2v13.3c0,5.1-2.6,7.7-7.7,7.7h-51.4
	c-5.1,0-7.7-2.6-7.7-7.7v-13.3c0-5,2.6-8,7.7-9.2l25.7-3.2C179.9,160,188.7,161.1,196.8,163.2 M126.9,240.3
	c13.5,4.2,28.1,6.2,43.7,5.9c15.6,0.3,30.4-1.7,44.2-5.9l2.5,18.9c-16.1,6.2-31.6,9.3-46.7,9.5c-15-0.2-30.6-3.3-46.7-9.5
	L126.9,240.3"/>
</svg>
