<?xml version="1.0" encoding="utf-8"?>
<!-- Generator: Adobe Illustrator 22.1.0, SVG Export Plug-In . SVG Version: 6.00 Build 0)  -->
<svg version="1.1" id="Layer_1" xmlns="http://www.w3.org/2000/svg" xmlns:xlink="http://www.w3.org/1999/xlink" x="0px" y="0px"
	 viewBox="0 0 340.2 340.2" style="enable-background:new 0 0 340.2 340.2;" xml:space="preserve">
<style type="text/css">
	.st0{fill:#1A7B44;}
	.st1{fill:#34B469;}
	.st2{fill:#39C272;}
	.st3{fill:#43CD7D;}
</style>
<path class="st0" d="M169.5,0c17.9,0.2,33.8,5.4,47.8,15.7l18.6-2.1h0.3c24.6,0.2,45.6,9,63,26.6c17.4,17.4,26.1,38.4,26.3,63.2
	l-1.1,15.7l-0.5,2.9l1.1,1.3l0.5,0.5c7.6,11,12.3,23.2,14.1,36.7l0.5,10.1l-1.6,15.9l0.3-0.3c-0.9,5.1-2.4,10.1-4.5,14.9v0.3
	c-2.5,6.4-5.8,12.5-10.1,18.3l1.9,12.2v1.1v4.5c0,24.8-8.7,45.8-26,63h0.3c-17.4,17.4-38.4,26-63,26H237l-18.1-1.9
	c-13.8,10.5-29.9,15.6-48.4,15.4c-18.2-0.2-34.5-5.6-48.6-16.2l-19.1,1.9c-24.3,0-45.3-8.7-63-26c-17.4-17.5-26.1-38.6-26.3-63.2
	v-0.3l0.3-6.4c0.4-4.4,1-8.7,1.9-12.8c-4.6-6-8.1-12.3-10.4-18.9c-1.8-4.3-3-8.7-3.7-13.3v0.3C0.5,180.1,0,174.9,0,169.5
	c0-3.7,0.3-7.3,0.8-10.6C2,146.7,6.1,135.4,13,125.2v-0.3l2.7-3.2l-0.8-3.2v0.3c-1.2-5.3-1.9-10.9-1.9-16.7
	c0-24.6,8.6-45.5,25.8-62.7c17.5-17.4,38.5-26,63-26l19.4,2.1c14-10.3,30-15.4,48.1-15.4H169.5 M24.4,230.9l-0.3,5.3
	c0.2,21.8,7.9,40.4,23.1,55.8c15.6,15.4,34.1,23.1,55.5,23.1l21.5-2.7c13.3,11.2,28.7,16.8,46.2,17c17.7,0.2,33-5.3,45.7-16.5
	l21,2.9c21.6,0,40-7.7,55.3-23.1c15.2-15.1,22.9-33.5,22.9-55.3v-4.5l-2.9-15.9c5.3-6.2,9.4-12.8,12.2-19.9l3.7-12.8l1.3-13.8
	l-0.5-8.8c-1.4-11.7-5.6-22.3-12.5-31.9l-4.5-5.6l1.6-6.9l1.1-14.1c-0.2-21.8-8-40.4-23.4-55.8c-15.2-15.4-33.8-23.2-55.5-23.4
	l-21,2.9c-13.1-10.8-28.3-16.3-45.7-16.5c-17.4,0-32.6,5.4-45.7,16.2c-6.7-1.9-14-2.9-21.8-2.9c-21.6,0-40.1,7.6-55.5,22.9
	C31.2,62,23.7,80.4,23.7,102c0,5,0.5,9.7,1.6,14.4l1.6,8l-5,6.6c-5.8,8.9-9.3,18.5-10.4,29c-0.5,3-0.8,6.2-0.8,9.6l1.3,13.6
	l3.2,11.4c2.7,7.1,6.6,13.8,12,20.2C25.7,219.9,24.8,225.3,24.4,230.9"/>
<path class="st1" d="M24.4,230.9c0.4-5.7,1.2-11.1,2.7-16.2c-5.3-6.4-9.3-13.1-12-20.2L12,183.1l-1.3-13.6c0-3.4,0.3-6.6,0.8-9.6
	c1.1-10.5,4.5-20.1,10.4-29l5-6.6l-1.6-8c-1.1-4.6-1.6-9.4-1.6-14.4c0-21.6,7.5-40,22.6-55.3c15.4-15.2,33.9-22.9,55.5-22.9
	c7.8,0,15.1,1,21.8,2.9c13.1-10.8,28.3-16.2,45.7-16.2c17.4,0.2,32.6,5.7,45.7,16.5l21-2.9c21.8,0.2,40.3,8,55.5,23.4
	c15.4,15.4,23.2,34,23.4,55.8l-1.1,14.1l-1.6,6.9l4.5,5.6c6.9,9.6,11.1,20.2,12.5,31.9l0.5,8.8l-1.3,13.8l-3.7,12.8
	c-2.8,7.1-6.9,13.7-12.2,19.9l2.9,15.9v4.5c0,21.8-7.6,40.2-22.9,55.3c-15.2,15.4-33.7,23.1-55.3,23.1l-21-2.9
	c-12.8,11.2-28,16.7-45.7,16.5c-17.5-0.2-33-5.8-46.2-17l-21.5,2.7c-21.4,0-40-7.7-55.5-23.1c-15.2-15.4-22.9-34-23.1-55.8
	L24.4,230.9 M221.1,47.6l-10.4,0.5c-3.4-0.9-6.5-2.4-9.3-4.5c-9.2-7.6-19.9-11.5-32.2-11.7H169c-12,0-22.7,3.8-31.9,11.4
	c-2.7,2.1-5.7,3.6-9,4.5l-10.4-0.5l-15.9-2.1c-15.8,0-29.2,5.5-40.4,16.5l-0.3,0.3C50.3,73.1,44.9,86.5,44.9,102l1.1,9.6l0.3,0.8
	l1.6,8l-0.3,9.3l-4.3,8.2l-3.7,4.8l-0.3,0.5c-3.7,5.7-5.9,12-6.6,18.9l-0.3,1.6l-0.5,5.8l1.1,9.6v0.3l2.1,7.7
	c1.9,5,4.8,9.7,8.5,14.1c2.1,2.7,3.5,5.7,4.3,9l-0.3,10.4c-1.1,3.7-1.7,7.6-1.9,11.7v0.8l-0.3,3.2c0.2,15.8,5.8,29.3,16.7,40.7
	l0.3,0.3c11.3,11.2,24.8,16.7,40.4,16.7l15.9-1.9l10.1-0.3c3.4,0.7,6.5,2.2,9.3,4.5c9.4,7.8,20.3,11.8,32.7,12
	c12.2,0.2,22.8-3.5,31.6-11.2c2.7-2.3,5.7-3.9,9-4.8l10.4,0.3l15.9,2.1c15.4-0.2,28.6-5.8,39.6-16.7l0.3-0.3
	c11-11,16.5-24.4,16.5-40.1v-3.7l-2.1-10.9c-0.9-3.5-1-7-0.3-10.4c0.7-3.5,2.3-6.6,4.8-9.3c3.5-4.4,6.4-9,8.5-13.8l0.3-0.8l2.1-7.4
	l0.3-0.8l0.8-9.8l-0.3-6.1c-1.1-8.1-4-15.5-8.8-22.1l-3.7-4.8c-2.3-2.8-3.7-5.9-4.3-9.3c-0.7-3.4-0.5-6.7,0.5-10.1l0.8-4l0.8-10.6
	v-0.3c-0.2-15.9-5.8-29.5-17-40.7l-0.3-0.3c-11.2-11.2-24.6-16.8-40.4-17L221.1,47.6"/>
<path class="st2" d="M221.1,47.6l14.9-2.1c15.8,0.2,29.2,5.8,40.4,17l0.3,0.3c11.2,11.2,16.8,24.7,17,40.7v0.3l-0.8,10.6l-0.8,4
	c-1.1,3.4-1.2,6.7-0.5,10.1c0.5,3.4,1.9,6.5,4.3,9.3l3.7,4.8c4.8,6.6,7.7,13.9,8.8,22.1l0.3,6.1l-0.8,9.8l-0.3,0.8l-2.1,7.4
	l-0.3,0.8c-2.1,4.8-5,9.4-8.5,13.8c-2.5,2.7-4.1,5.8-4.8,9.3c-0.7,3.4-0.6,6.8,0.3,10.4l2.1,10.9v3.7c0,15.8-5.5,29.1-16.5,40.1
	l-0.3,0.3c-11,11-24.2,16.6-39.6,16.7l-15.9-2.1l-10.4-0.3c-3.4,0.9-6.4,2.5-9,4.8c-8.9,7.6-19.4,11.3-31.6,11.2
	c-12.4-0.2-23.3-4.2-32.7-12c-2.8-2.3-5.9-3.8-9.3-4.5l-10.1,0.3l-15.9,1.9c-15.6,0-29.1-5.6-40.4-16.7l-0.3-0.3
	c-11-11.3-16.6-24.9-16.7-40.7l0.3-3.2v-0.8c0.2-4.1,0.8-8,1.9-11.7l0.3-10.4c-0.7-3.4-2.1-6.4-4.3-9c-3.7-4.4-6.6-9.1-8.5-14.1
	l-2.1-7.7v-0.3l-1.1-9.6l0.5-5.8l0.3-1.6c0.7-6.9,2.9-13.2,6.6-18.9l0.3-0.5l3.7-4.8l4.3-8.2l0.3-9.3l-1.6-8l-0.3-0.8l-1.1-9.6
	c0-15.6,5.4-29,16.2-40.1l0.3-0.3c11.2-11,24.6-16.5,40.4-16.5l15.9,2.1l10.4,0.5c3.4-0.9,6.4-2.4,9-4.5
	c9.2-7.6,19.8-11.4,31.9-11.4h0.3c12.2,0.2,22.9,4.1,32.2,11.7c2.8,2.1,5.9,3.6,9.3,4.5L221.1,47.6 M255.6,202.8l-0.3-0.5l-0.3-0.3
	c-2.5-2.1-5.6-3.2-9.3-3.2c-3.7,0-7,1.4-9.8,4.3c-2.8,2.7-4.3,5.9-4.3,9.8c-0.2,3.7,0.9,6.9,3.2,9.6l0.3,0.3l0.5,0.3
	c5.1,5.3,10.6,8.8,16.5,10.4c5.7,1.8,9.7,1.3,12.2-1.3c3.2-2.8,3.8-7.1,1.9-12.8C264.7,213.6,261.1,208.1,255.6,202.8 M231.5,238.4
	l-0.3-0.8c-0.2-4.3-1.8-7.8-4.8-10.6c-3.2-3.2-7-4.9-11.4-5c-4.8,0.2-8.8,1.9-12,5.3c-2.8,2.7-4.4,6-4.8,10.1l0.3,0.5l-0.3,0.8
	c0,8.5,1.5,15.8,4.5,21.8c3.5,6,7.6,9.1,12.2,9.3c4.4,0.2,8.3-2.9,11.7-9.3c3.4-6,5-13.3,4.8-21.8V238.4 M99.7,128.6l-0.8,0.3
	l-0.3,0.3c-6.4,3.5-11.1,8-14.1,13.3c-3.4,5.1-4.1,9.3-2.1,12.5c1.9,3.5,5.9,5.2,12,5c5.8-0.2,12-2.1,18.6-5.8l0.5-0.3l0.3-0.5
	c3-1.8,4.9-4.4,5.6-8c1.1-3.7,0.6-7.4-1.3-10.9c-1.9-3.5-4.8-5.8-8.5-6.6L99.7,128.6 M130.2,69.9c-3.4-3.7-6.7-5.2-10.1-4.5
	c-3.4,1.1-5.6,4.1-6.6,9c-1.2,5.1-1.1,10.9,0.5,17.3v0.3l0.5,0.5c0.9,2.7,2.7,4.9,5.6,6.6l9.3,0.8c3.4-0.7,5.9-2.5,7.7-5.3
	c1.4-3,1.9-5.9,1.3-8.8l-0.3-0.5V85C136.4,78.8,133.8,73.8,130.2,69.9 M94.1,89l-0.8-0.3l-22.1-1.1c-6.7,1.8-10.7,4.9-12,9.3
	c-1.2,4.3,0.7,8.8,5.8,13.6c5,4.8,11.5,8.3,19.7,10.6H85h0.8c4.1,0.7,8,0,11.7-2.1c3.7-2.1,6.3-5.4,7.7-9.8
	c1.1-4.4,0.4-8.7-2.1-12.8c-1.8-3.7-4.6-6.2-8.5-7.4H94.1"/>
<path class="st3" d="M94.1,89h0.5c3.9,1.2,6.7,3.7,8.5,7.4c2.5,4.1,3.2,8.3,2.1,12.8c-1.4,4.4-4,7.7-7.7,9.8
	c-3.7,2.1-7.6,2.8-11.7,2.1H85h-0.3c-8.1-2.3-14.7-5.8-19.7-10.6c-5.1-4.8-7.1-9.3-5.8-13.6c1.2-4.4,5.2-7.5,12-9.3l22.1,1.1
	L94.1,89 M130.2,69.9c3.5,3.9,6.2,8.9,8,15.1v0.3l0.3,0.5c0.5,2.8,0.1,5.8-1.3,8.8c-1.8,2.8-4.3,4.6-7.7,5.3l-9.3-0.8
	c-2.8-1.8-4.7-4-5.6-6.6l-0.5-0.5v-0.3c-1.6-6.4-1.8-12.1-0.5-17.3c1.1-5,3.3-8,6.6-9C123.5,64.7,126.9,66.2,130.2,69.9 M99.7,128.6
	l9.8-0.8c3.7,0.9,6.6,3.1,8.5,6.6c1.9,3.5,2.4,7.2,1.3,10.9c-0.7,3.5-2.6,6.2-5.6,8l-0.3,0.5l-0.5,0.3c-6.6,3.7-12.8,5.7-18.6,5.8
	c-6,0.2-10-1.5-12-5c-1.9-3.2-1.2-7.4,2.1-12.5c3-5.3,7.7-9.7,14.1-13.3l0.3-0.3L99.7,128.6 M231.5,238.4v0.3
	c0.2,8.5-1.4,15.8-4.8,21.8c-3.4,6.4-7.3,9.5-11.7,9.3c-4.6-0.2-8.7-3.3-12.2-9.3c-3-6-4.5-13.3-4.5-21.8l0.3-0.8l-0.3-0.5
	c0.4-4.1,1.9-7.4,4.8-10.1c3.2-3.4,7.2-5.1,12-5.3c4.4,0.2,8.2,1.9,11.4,5c3,2.8,4.6,6.4,4.8,10.6L231.5,238.4 M255.6,202.8
	c5.5,5.3,9,10.8,10.6,16.5c1.9,5.7,1.3,9.9-1.9,12.8c-2.5,2.7-6.6,3.1-12.2,1.3c-5.8-1.6-11.3-5-16.5-10.4l-0.5-0.3l-0.3-0.3
	c-2.3-2.7-3.4-5.8-3.2-9.6c0-3.9,1.4-7.2,4.3-9.8c2.8-2.8,6.1-4.3,9.8-4.3c3.7,0,6.8,1.1,9.3,3.2l0.3,0.3L255.6,202.8"/>
</svg>
