<?xml version="1.0" encoding="utf-8"?>
<!-- Generator: Adobe Illustrator 22.1.0, SVG Export Plug-In . SVG Version: 6.00 Build 0)  -->
<svg version="1.1" id="Layer_1" xmlns="http://www.w3.org/2000/svg" xmlns:xlink="http://www.w3.org/1999/xlink" x="0px" y="0px"
	 viewBox="0 0 340.2 340.2" style="enable-background:new 0 0 340.2 340.2;" xml:space="preserve">
<style type="text/css">
	.st0{fill:#BB8044;}
	.st1{fill:#C48647;}
	.st2{fill:#39C272;}
	.st3{fill:#2ABB67;}
	.st4{fill:#CB8B4A;}
</style>
<g transform="matrix( 1, 0, 0, 1, 0,0) ">
	<g>
		<g id="Layer0_40_FILL">
			<path class="st0" d="M240.1,96.8c-0.9-0.8-1.8-1.4-2.7-1.9c-3.1-1.8-6.6-2.7-10.5-2.6v21.1h21.1c-0.1-2.3-0.4-4.5-1-6.5
				c-0.9-2.7-2.2-5.2-4.1-7.4c-0.2-0.2-0.4-0.5-0.6-0.7C241.5,98.1,240.8,97.4,240.1,96.8 M231.5,110.4l-1.5-9.5l9.5-1.5l1.5,9.5
				L231.5,110.4z"/>
			<path class="st1" d="M230,100.9l1.5,9.5l9.5-1.5l-1.5-9.5L230,100.9z"/>
			<path class="st2" d="M226.8,82.7c2-0.1,4,0.1,5.8,0.4c0.9,0.2,1.9,0.4,2.8,0.6c1.6,0.4,3.1,1,4.6,1.7c1.1,0.5,2.2,1.2,3.4,1.9
				c1.4,0.9,2.7,2,4,3.2c0.9,0.9,1.8,1.8,2.7,2.8c4.7,5.6,7.2,12.3,7.4,20.1h82.7V0H226.8V82.7z"/>
			<path class="st3" d="M226.8,86.8c0.5,0,0.9,0,1.4,0c2.8,0.1,5.5,0.5,8,1.4c1.4,0.5,2.7,1.1,3.9,1.8c2.5,1.5,4.8,3.5,6.9,5.9
				c1.5,1.7,2.7,3.5,3.6,5.4c0.2,0.5,0.5,1.1,0.7,1.6c1.3,3.2,2,6.7,2,10.5h4.1c-0.2-7.9-2.6-14.6-7.4-20.1c-0.8-1-1.7-1.9-2.7-2.8
				c-1.3-1.2-2.6-2.2-4-3.2c-1.1-0.7-2.2-1.3-3.4-1.9c-1.5-0.7-3-1.3-4.6-1.7c-0.9-0.2-1.9-0.4-2.8-0.6c-1.9-0.3-3.8-0.4-5.8-0.4
				V86.8z"/>
			<path class="st4" d="M228.2,86.8c-0.5,0-0.9,0-1.4,0v5.5c4-0.1,7.5,0.7,10.5,2.6c0.9,0.5,1.9,1.2,2.7,1.9c0.7,0.6,1.4,1.3,2.1,2
				c0.2,0.2,0.4,0.5,0.6,0.7c1.8,2.2,3.2,4.6,4.1,7.4c0.6,2,0.9,4.2,1,6.5h5.5c-0.1-3.8-0.7-7.3-2-10.5c-0.2-0.5-0.5-1.1-0.7-1.6
				c-0.9-1.9-2.2-3.8-3.6-5.4c-2.1-2.5-4.4-4.5-6.9-5.9c-1.2-0.7-2.5-1.3-3.9-1.8C233.7,87.3,231,86.9,228.2,86.8z"/>
		</g>
	</g>
</g>
<g transform="matrix( 1, 0, 0, 1, 0,0) ">
	<g>
		<g id="Layer0_41_FILL">
			<path class="st1" d="M130.4,88.4l1,2.9l4.7-1.6C134.1,89.1,132.2,88.6,130.4,88.4 M181.9,113.4h17.2l0.7-6.7l-16.9-1.9
				L181.9,113.4 M210.4,96.5l-0.1,0.9l9.6,1l0.4-3.1C216.9,96.3,213.6,96.7,210.4,96.5 M192.8,89.8l0.5,1.7l2.2-0.6
				C194.6,90.5,193.6,90.1,192.8,89.8 M172.6,90.9l1.6,3.5l8.8-3.9l-1-2.3C178.8,88.5,175.7,89.4,172.6,90.9 M156.9,96.5
				c-4,0.2-7.8-0.5-11.5-2.2l-1,4.3l13.6,3c0.2,0.1,0.4,0.1,0.7,0.2c0.9,0.2,1.9,0.4,2.8,0.6l1.6-7c-1.4,0.4-2.7,0.6-4,0.9
				C158.4,96.3,157.6,96.4,156.9,96.5 M118.1,110.4l9.5-1.5l-1.5-9.5l-9.5,1.5L118.1,110.4z"/>
			<path class="st3" d="M220,88.6c2.2-0.4,4.4-1,6.7-1.8v-4.1c-7.3,4-14.2,5.1-20.7,3.4c-2.6-0.7-5.1-1.8-7.6-3.4
				c-2.3-1.2-4.6-2.2-6.8-2.9c-0.8-0.2-1.5-0.4-2.2-0.6c-3-0.6-5.8-0.8-8.7-0.4c-3.7,0.4-7.2,1.7-10.6,3.9c-1.7,0.9-3.2,1.7-4.8,2.3
				c-6.3,2.4-12.3,2.5-18.1,0.4c-1.1-0.4-2.2-0.9-3.3-1.4c-0.2-0.2-0.4-0.3-0.6-0.4c-0.5-0.4-1.1-0.7-1.6-1
				c-1.7-0.9-3.3-1.7-4.9-2.3h-0.2c-8.2-3.1-16-2.3-23.3,2.3v4.1c0.8-0.3,1.6-0.6,2.4-0.8c2.1-0.6,4.3-1.1,6.5-1.4
				c2.2-0.3,4.5-0.4,6.8-0.3c3.1,0.2,6.3,0.7,9.6,1.6c1,0.2,2,0.5,3.1,0.9c1.6,0.6,3.2,1.1,4.9,1.5c5.8,1.4,11.8,1.4,18.2,0
				c1-0.2,2-0.5,3-0.8c0.6-0.2,1.2-0.4,1.8-0.5c0.2-0.1,0.4-0.1,0.5-0.2c0.2-0.1,0.5-0.1,0.7-0.3c3.1-1.1,6.2-1.8,9.5-2.1
				c0.1,0,0.2,0,0.3,0c0.9-0.1,1.8-0.1,2.7-0.1c2.6-0.1,5.3,0.1,8.1,0.6c2.4,0.4,4.8,1,7.2,1.9c1.6,0.6,3.2,1.1,4.9,1.5
				c2.5,0.6,5.1,0.9,7.8,1.1C214,89.4,217,89.2,220,88.6z"/>
			<path class="st4" d="M224.7,93.4c0.6-0.4,1.3-0.7,2-1.1v-5.5c-2.3,0.8-4.5,1.4-6.7,1.8c-3.1,0.6-6.1,0.9-8.9,0.8
				c-2.7-0.1-5.3-0.5-7.8-1.1c-1.7-0.4-3.3-0.9-4.9-1.5c-2.4-0.8-4.8-1.4-7.2-1.9c-2.8-0.5-5.5-0.7-8.1-0.6c-0.9,0-1.8,0-2.7,0.1
				c-0.1,0-0.1,0-0.3,0c-3.2,0.3-6.4,1-9.5,2.1c-0.2,0.1-0.5,0.2-0.7,0.3c-0.2,0.1-0.4,0.1-0.5,0.2c-0.6,0.2-1.2,0.4-1.8,0.5
				c-1,0.3-2,0.6-3,0.8c-6.3,1.4-12.4,1.4-18.2,0c-1.7-0.4-3.3-0.9-4.9-1.5c-1.1-0.4-2.1-0.6-3.1-0.9c-3.2-0.9-6.4-1.4-9.6-1.6
				c-2.3-0.1-4.6,0-6.8,0.3c-2.2,0.3-4.3,0.8-6.5,1.4c-0.8,0.2-1.6,0.5-2.4,0.8v5.5c3.1-1.9,6.2-3.2,9.5-3.7c2.5-0.5,5-0.5,7.5-0.2
				c1.8,0.2,3.7,0.7,5.7,1.3c1.9,0.6,3.8,1.5,5.7,2.6c1.2,0.8,2.4,1.4,3.6,1.9c3.7,1.7,7.6,2.5,11.5,2.2c0.8-0.1,1.5-0.1,2.3-0.3
				c1.3-0.2,2.6-0.5,4-0.9c0.4-0.2,0.8-0.3,1.2-0.4c1.8-0.6,3.7-1.5,5.7-2.6c0.5-0.4,1.1-0.7,1.7-1c0.3-0.2,0.6-0.3,0.9-0.4
				c3-1.5,6.1-2.4,9.4-2.7c3.4-0.2,7,0.3,10.7,1.6c0.9,0.3,1.8,0.6,2.7,1.1c0.9,0.4,1.9,0.9,2.9,1.4c1.8,1.1,3.6,2,5.4,2.7
				c1.9,0.7,4,1.2,6,1.3c0.2,0,0.4,0,0.5,0.1c3.2,0.2,6.5-0.2,9.8-1.2C221.7,94.7,223.2,94.1,224.7,93.4z"/>
			<path class="st0" d="M226.8,92.3c-0.7,0.4-1.4,0.7-2,1.1c-1.5,0.7-3,1.3-4.5,1.9l-0.4,3.1l-9.6-1l0.1-0.9
				c-0.2-0.1-0.4-0.1-0.5-0.1c-2.1-0.2-4.1-0.6-6-1.3c-1.8-0.7-3.6-1.6-5.4-2.7c-1-0.5-2-1-2.9-1.4l-2.2,0.6l-0.5-1.7
				c-3.7-1.3-7.3-1.8-10.7-1.6l1,2.3l-8.8,3.9l-1.6-3.5c-0.3,0.1-0.6,0.3-0.9,0.4c-0.6,0.3-1.2,0.6-1.7,1c-1.9,1.1-3.8,1.9-5.7,2.6
				c-0.4,0.1-0.8,0.3-1.2,0.4l-1.6,7c-0.9-0.2-1.9-0.4-2.8-0.6c-0.3-0.1-0.5-0.1-0.7-0.2l-13.6-3l1-4.3c-1.2-0.5-2.5-1.2-3.6-1.9
				c-1.9-1.1-3.8-1.9-5.7-2.6l-4.7,1.6l-1-2.9c-2.5-0.4-5-0.3-7.5,0.2c-3.2,0.5-6.4,1.8-9.5,3.7v21.1h68.6l1-8.7l16.9,1.9l-0.7,6.7
				h27.6V92.3 M127.6,108.9l-9.5,1.5l-1.5-9.5l9.5-1.5L127.6,108.9z"/>
			<path class="st2" d="M226.8,0H113.4v82.7c7.3-4.6,15.1-5.4,23.3-2.3h0.2c1.6,0.6,3.2,1.4,4.9,2.3c0.5,0.3,1.1,0.6,1.6,1
				c0.2,0.1,0.4,0.2,0.6,0.4c1.1,0.5,2.2,1,3.3,1.4c5.7,2.1,11.8,1.9,18.1-0.4c1.5-0.6,3.1-1.4,4.8-2.3c3.4-2.2,7-3.5,10.6-3.9
				c2.8-0.4,5.7-0.3,8.7,0.4c0.7,0.2,1.4,0.4,2.2,0.6c2.2,0.7,4.5,1.7,6.8,2.9c2.5,1.5,5,2.7,7.6,3.4c6.6,1.8,13.5,0.6,20.7-3.4V0z"
				/>
		</g>
	</g>
</g>
<g transform="matrix( 1, 0, 0, 1, 0,0) ">
	<g>
		<g id="Layer0_42_FILL">
			<path class="st0" d="M113.4,92.3c-1.5-0.1-2.9,0-4.2,0.3c-0.8,0.1-1.5,0.3-2.1,0.5l-0.6,5.2l-7.3-0.7c-0.4,0.4-0.8,0.7-1.2,1.2
				c-0.2,0.2-0.5,0.5-0.7,0.8c-1.6,1.8-2.8,3.9-3.6,6.1c-0.9,2.4-1.4,4.9-1.4,7.7h21.1V92.3z"/>
			<path class="st1" d="M100.1,96.8c-0.3,0.2-0.6,0.5-0.9,0.8l7.3,0.7l0.6-5.2C104.5,93.8,102.2,95,100.1,96.8z"/>
			<path class="st4" d="M103.8,88.3c-1.3,0.5-2.5,1-3.7,1.7c-0.9,0.5-1.7,1.1-2.6,1.8c-0.9,0.6-1.8,1.4-2.7,2.3
				c-0.6,0.6-1.2,1.2-1.7,1.9c-2.6,3-4.4,6.4-5.4,10.2c-0.6,2.2-0.9,4.7-1,7.3h5.5c0.1-2.8,0.5-5.3,1.4-7.7c0.8-2.2,2-4.3,3.6-6.1
				c0.2-0.3,0.5-0.6,0.7-0.8c0.4-0.4,0.7-0.8,1.2-1.2c0.3-0.3,0.6-0.6,0.9-0.8c2.1-1.8,4.4-3,7-3.7c0.6-0.2,1.4-0.4,2.1-0.5
				c1.3-0.2,2.7-0.3,4.2-0.3v-5.5C109.9,86.8,106.7,87.3,103.8,88.3z"/>
			<path class="st3" d="M100.1,85.4c-3.8,1.8-7.1,4.4-10,7.9c-3.2,3.8-5.4,8.1-6.5,13.1c-0.5,2.2-0.8,4.5-0.9,7h4.1
				c0.1-2.6,0.4-5,1-7.3c1-3.8,2.8-7.2,5.4-10.2c0.5-0.6,1.1-1.3,1.7-1.9c0.8-0.9,1.7-1.7,2.7-2.3c0.8-0.6,1.7-1.2,2.6-1.8
				c1.2-0.6,2.4-1.2,3.7-1.7c2.9-1.1,6.1-1.6,9.6-1.5v-4.1C108.5,82.6,104.1,83.5,100.1,85.4z"/>
			<path class="st2" d="M113.4,0H0v113.4h82.7c0.1-2.5,0.4-4.8,0.9-7c1.1-5,3.2-9.3,6.5-13.1c2.9-3.5,6.2-6.1,10-7.9
				c4-1.9,8.4-2.8,13.3-2.7V0z"/>
		</g>
	</g>
</g>
<g transform="matrix( 1, 0, 0, 1, 0,0) ">
	<g>
		<g id="Layer0_43_FILL">
			<path class="st1" d="M92.3,198.5c-0.5,0.9-1,1.9-1.5,2.9l2.2-0.7L92.3,198.5 M103.2,146.3l10.2-2.3v-14.3l-13.3,3.2L103.2,146.3
				 M113.4,184.1v-9.7l-5.9,0.7l1.2,9.6L113.4,184.1 M94.3,166.9l-1.5,4c1.2,2.3,2.1,4.6,2.7,6.9l4.4,1.7l3.4-9.1L94.3,166.9
				 M89.2,149.2c-1.2,4.4-1.4,8.7-0.4,12.8c0,0.1,0,0.1,0.1,0.2l0.4,0.4l6.6-7L89.2,149.2 M107.5,202.1l-9.7-1l-1,9.7l9.6,1
				L107.5,202.1z"/>
			<path class="st4" d="M86.8,141.7c0,0.1,0,0.1,0,0.2c-0.4,1.1-0.7,2.2-1,3.3c-0.8,2.9-1.2,5.7-1.4,8.5c-0.1,1.4-0.1,2.8-0.1,4.2
				c0.1,1.7,0.2,3.3,0.5,5c0.4,2.5,1.1,4.9,1.9,7.3c0.5,1.6,1,3.2,1.3,4.7c1.1,4.7,1.5,9.3,1.1,13.8c-0.4,3.4-1.2,6.6-2.4,9.8
				c-0.5,1.6-1,3.2-1.3,4.7c-1.4,5.8-1.5,11.4-0.5,16.7c0.2,1.5,0.6,3.1,1.1,4.6c0.2,0.8,0.5,1.5,0.8,2.3h5.5
				c-1.5-2.4-2.6-4.9-3.3-7.4c-0.6-2.1-0.9-4.2-0.9-6.3c0-3.8,0.9-7.7,2.7-11.7c0.5-1,1-2,1.5-2.9v-0.1c0.9-1.4,1.6-2.7,2.2-4.2
				c0.9-2.1,1.5-4.3,1.8-6.4c0.4-3.3,0.1-6.7-0.8-10.1c-0.6-2.3-1.6-4.6-2.7-6.9c-0.1-0.2-0.1-0.4-0.3-0.5c-0.1-0.1-0.1-0.1-0.2-0.3
				c-1.7-2.6-2.8-5.2-3.4-7.9c-0.1-0.1-0.1-0.1-0.1-0.2c-1-4.1-0.9-8.4,0.4-12.8c0.1-0.5,0.3-1,0.4-1.5c0.6-1.9,1.5-3.9,2.7-5.9
				c0.2-0.4,0.5-0.7,0.7-1.1c1.2-2.2,2.2-4.5,2.7-6.8c0.4-1.5,0.6-3,0.7-4.4c0.3-5.1-1.1-10.5-4.2-16h-5.5c0.9,2.9,1.7,5.8,2.1,8.6
				c0.5,3.4,0.5,6.8,0.2,10C88.8,135.4,88,138.6,86.8,141.7z"/>
			<path class="st2" d="M85.1,118.5c-0.6-1.7-1.4-3.4-2.4-5.1H0v113.4h82.7c-1.5-2.5-2.7-5-3.4-7.5c-1.2-4.6-1.1-9.4,0.5-14.4
				c0.7-2.1,1.7-4.3,2.8-6.5c2.1-3.2,3.4-6.6,3.9-10.1c0.7-4.6,0-9.4-2-14.4c-0.5-1.1-1-2.2-1.5-3.4c-0.1-0.2-0.2-0.4-0.4-0.5
				c-0.8-1.2-1.4-2.4-1.9-3.6c-0.4-0.9-0.7-1.7-1-2.6c-2.3-7-1.3-14.4,2.9-22.1c2.1-3.4,3.5-6.8,4-10.4c0.3-2.4,0.3-4.8-0.1-7.2
				C86.3,122.3,85.8,120.4,85.1,118.5z"/>
			<path class="st3" d="M86.8,113.4h-4.1c0.9,1.7,1.7,3.4,2.4,5.1c0.7,1.9,1.2,3.8,1.5,5.7c0.4,2.4,0.4,4.8,0.1,7.2
				c-0.5,3.5-1.9,7-4,10.4c-4.3,7.7-5.2,15.1-2.9,22.1c0.2,0.8,0.6,1.7,1,2.6c0.5,1.2,1.2,2.5,1.9,3.6c0.1,0.2,0.2,0.4,0.4,0.5
				c0.5,1.1,1,2.2,1.5,3.4c2.1,5,2.7,9.7,2,14.4c-0.5,3.5-1.8,6.9-3.9,10.1c-1.2,2.2-2.1,4.3-2.8,6.5c-1.6,5-1.8,9.7-0.5,14.4
				c0.7,2.5,1.8,5,3.4,7.5h4.1c-0.3-0.8-0.6-1.5-0.8-2.3c-0.5-1.5-0.8-3.1-1.1-4.6c-1-5.4-0.8-11,0.5-16.7c0.4-1.5,0.8-3.1,1.3-4.7
				c1.2-3.2,2-6.5,2.4-9.8c0.4-4.5,0.1-9.1-1.1-13.8c-0.4-1.5-0.8-3.1-1.3-4.7c-0.9-2.4-1.5-4.8-1.9-7.3c-0.3-1.7-0.5-3.3-0.5-5
				c-0.1-1.4,0-2.7,0.1-4.2c0.2-2.8,0.6-5.6,1.4-8.5c0.2-1.1,0.6-2.2,1-3.3c0-0.1,0-0.1,0-0.2c1.2-3.1,1.9-6.4,2.3-9.7
				c0.4-3.2,0.3-6.6-0.2-10C88.5,119.1,87.8,116.3,86.8,113.4z"/>
			<path class="st0" d="M113.4,129.8v-16.4H92.3c3.1,5.6,4.5,10.9,4.2,16c-0.1,1.5-0.4,3-0.7,4.4c-0.6,2.3-1.5,4.6-2.7,6.8
				c-0.2,0.4-0.5,0.7-0.7,1.1c-1.1,2-2,4-2.7,5.9c-0.2,0.5-0.3,1-0.4,1.5l6.7,6.4l-6.6,7l-0.4-0.4c0.6,2.7,1.7,5.3,3.4,7.9
				c0.1,0.1,0.1,0.2,0.2,0.3c0.1,0.2,0.2,0.4,0.3,0.5l1.5-4l9,3.5l-3.4,9.1l-4.4-1.7c0.9,3.4,1.2,6.8,0.8,10.1
				c-0.3,2.1-0.9,4.3-1.8,6.4c-0.6,1.4-1.3,2.8-2.2,4.2v0.1l0.7,2.2l-2.2,0.7c-1.8,4-2.7,7.9-2.7,11.7c0,2.1,0.3,4.2,0.9,6.3
				c0.6,2.5,1.7,4.9,3.3,7.4h21.1v-42.7l-4.8,0.5l-1.2-9.6l5.9-0.7V144l-10.2,2.3l-3.1-13.4L113.4,129.8 M97.9,201.1l9.7,1l-1.1,9.7
				l-9.6-1L97.9,201.1z"/>
		</g>
	</g>
</g>
<g transform="matrix( 1, 0, 0, 1, 0,0) ">
	<g>
		<g id="Layer0_44_FILL">
			<path class="st1" d="M182.9,218.1l-1,8.7h17.2l0.7-6.7L182.9,218.1 M118.2,183.5l-1.2-9.6l-3.6,0.4v9.7L118.2,183.5 M113.5,129.8
				L113.5,129.8l-0.1,14.3l3.3-0.8L113.5,129.8 M222,184.6l4.8-0.5v-9.7l-5.9,0.7L222,184.6 M226.8,144v-14.3l-13.3,3.2l3.1,13.4
				L226.8,144 M179,195.1l-8.7,4l3.9,8.8l8.8-3.9L179,195.1 M165.5,198.4l-17.3-3.9l-3.8,17.4l13.6,3c0.2,0.1,0.4,0.1,0.7,0.2
				c0.9,0.2,1.9,0.4,2.8,0.6L165.5,198.4 M206.4,200.7l-4.2-13.1l-13.1,4.2l4.2,13.1L206.4,200.7 M219.9,211.7l1.1-9.7l-9.7-1
				l-1,9.7L219.9,211.7 M136.8,193.7l-8.1,2.8l2.7,8.1l8.1-2.7L136.8,193.7 M127.6,222.3l-1.5-9.5l-9.5,1.5l1.5,9.5L127.6,222.3
				 M132.8,175.7l-5.7,7.7l7.8,5.7l5.6-7.8L132.8,175.7 M122.7,129.1l8.8-4l-3.9-8.7l-8.9,3.9L122.7,129.1 M207.6,166.9l-3.5,9
				l9.1,3.5l3.4-9.1L207.6,166.9 M185,172l6.1,7.4l7.5-6.1l-6.2-7.4L185,172 M209.3,155.6l-7-6.6l-6.6,7l7,6.6L209.3,155.6
				 M145.5,169.5l4.5-17.5l-17.5-4.5l-4.5,17.5L145.5,169.5 M175.9,177.3l-4.2-13.2l-13.2,4.2l4.3,13.2L175.9,177.3 M177.3,157
				l1-9.6l-9.6-1l-1,9.6L177.3,157 M159.8,129.8l-12.2-11.3l-11.3,12.2l12.2,11.3L159.8,129.8 M187.8,128.4l-5.7,7.9l7.9,5.6
				l5.6-7.8L187.8,128.4 M199,113.4h-17.1l-1,8.2l16.9,1.9L199,113.4z"/>
			<path class="st0" d="M199,113.4l-1.2,10.2l-16.9-1.9l1-8.2h-68.6v16.4h0.1l3.2,13.5l-3.3,0.8v30.3l3.6-0.4l1.2,9.6l-4.8,0.6v42.7
				h68.6l1-8.7l16.9,1.9l-0.7,6.7h27.6v-42.7l-4.8,0.5l-1.2-9.6l5.9-0.7V144l-10.2,2.3l-3.1-13.4l13.3-3.2v-16.4H199 M182.1,136.2
				l5.7-7.9l7.8,5.7l-5.6,7.8L182.1,136.2 M147.6,118.5l12.2,11.3L148.6,142l-12.2-11.3L147.6,118.5 M178.2,147.4l-1,9.6l-9.6-1
				l1-9.6L178.2,147.4 M171.8,164.1l4.2,13.2l-13.1,4.2l-4.3-13.2L171.8,164.1 M150.1,152l-4.5,17.5l-17.5-4.6l4.5-17.5L150.1,152
				 M202.3,148.9l7,6.6l-6.6,7l-7-6.6L202.3,148.9 M191.2,179.5L185,172l7.4-6.1l6.2,7.4L191.2,179.5 M204.2,175.9l3.5-9l9,3.5
				l-3.4,9.1L204.2,175.9 M131.5,125.1l-8.8,4l-4-8.8l8.9-3.9L131.5,125.1 M127.1,183.5l5.7-7.7l7.7,5.6l-5.6,7.8L127.1,183.5
				 M126.1,212.8l1.5,9.5l-9.5,1.5l-1.5-9.5L126.1,212.8 M128.6,196.6l8.1-2.8l2.7,8.2l-8.1,2.7L128.6,196.6 M220.9,202.1l-1.1,9.7
				l-9.6-1l1-9.7L220.9,202.1 M202.2,187.6l4.2,13.1l-13.1,4.2l-4.2-13.1L202.2,187.6 M148.2,194.5l17.3,3.9l-3.9,17.3
				c-0.9-0.2-1.9-0.4-2.8-0.6c-0.3-0.1-0.5-0.1-0.7-0.2l-13.6-3L148.2,194.5 M170.3,199l8.7-4l4,8.9l-8.8,3.9L170.3,199z"/>
		</g>
	</g>
</g>
<g transform="matrix( 1, 0, 0, 1, 0,0) ">
	<g>
		<g id="Layer0_45_FILL">
			<path class="st1" d="M244.8,204.7l5.2-1.8c-0.6-1.5-1.3-3-2.1-4.5c-0.6-1.1-1.2-2.2-1.8-3.3l-4.1,1.4L244.8,204.7 M243.8,183.5
				c0.1-1.9,0.4-3.8,0.9-5.7l-4.2,5.7l3.3,2.4C243.7,185,243.7,184.2,243.8,183.5 M226.8,174.3v9.7l4.8-0.6l-1.2-9.6L226.8,174.3
				 M250.9,148.7l-4.9-1.2l-4.5,17.5l8.1,2.1c0.9-1.9,1.5-3.9,1.9-5.9C252.3,157.1,252.1,153,250.9,148.7 M243.9,125.5
				c0.1-0.6,0.1-1.3,0.3-2l-3.2-7.1l-8.9,3.9l4,8.8L243.9,125.5 M226.9,129.8L226.9,129.8l-0.1,14.3l3.3-0.8L226.9,129.8 M230,214.3
				l1.5,9.5l9.5-1.5l-1.5-9.5L230,214.3z"/>
			<path class="st4" d="M247.9,113.4c-0.5,1-1,2-1.5,3c-1.1,2.4-1.8,4.8-2.2,7.1c-0.1,0.7-0.2,1.4-0.3,2c-0.2,1.7-0.2,3.3,0,4.9
				c0.3,3.1,1.2,6.2,2.8,9.3c0.4,0.7,0.7,1.4,1.2,2c0.5,0.8,0.9,1.7,1.2,2.5c0.7,1.5,1.3,3,1.8,4.5c1.2,4.3,1.5,8.4,0.7,12.4
				c-0.4,2-1.1,4-1.9,5.9c-0.4,0.6-0.7,1.3-1.1,1.9c-0.2,0.4-0.5,0.7-0.7,1.1c-1.4,2.6-2.5,5.2-3.2,7.7c-0.5,1.9-0.8,3.8-0.9,5.7
				c-0.1,0.8-0.1,1.6,0,2.4c0,0.8,0.1,1.6,0.2,2.4c0.4,2.4,1.1,4.7,2.1,6.9c0.5,1.1,1.1,2.2,1.8,3.3c0.8,1.5,1.5,3,2.1,4.5
				c1.7,4.2,2.3,8.3,1.9,12.3c0,0.2,0,0.4,0,0.5c-0.5,3.8-1.8,7.4-4.1,11h5.5c1.7-4.4,2.5-8.9,2.6-13.6c0-0.1,0-0.2,0-0.4
				c-0.1-4.7-0.9-9.4-2.6-14.4c-1.6-4.1-2.4-8.4-2.5-12.8c0-1.2,0-2.3,0.1-3.5c-0.1-0.1-0.1-0.1,0-0.2c0.1-0.8,0.1-1.7,0.3-2.6
				c0.4-3,1.1-6.1,2.1-9.3c0.2-0.6,0.5-1.2,0.7-1.9c0.2-0.8,0.5-1.7,0.7-2.5c0.2-0.8,0.3-1.5,0.4-2.3c0.8-4.4,0.9-8.9,0.2-13.5
				c-0.4-2.7-1.1-5.5-2-8.2c-1.2-3.2-2-6.4-2.3-9.7c-0.1-0.8-0.2-1.7-0.2-2.5c-0.2-5.2,0.6-10.6,2.5-16.1H247.9z"/>
			<path class="st0" d="M246.3,116.4c0.5-1,1-2,1.5-3h-21.1v16.4h0.1l3.2,13.5l-3.3,0.8v30.3l3.6-0.4l1.2,9.6l-4.8,0.6v42.7h21.1
				c2.2-3.5,3.6-7.2,4.1-11c0-0.2,0-0.4,0-0.5c0.4-4-0.3-8.1-1.9-12.3l-5.2,1.8l-2.7-8.1l4.1-1.4c-1.1-2.2-1.8-4.5-2.1-6.9
				c-0.1-0.8-0.2-1.6-0.2-2.4l-3.3-2.4l4.2-5.7c0.7-2.5,1.8-5.1,3.2-7.7c0.2-0.4,0.5-0.7,0.7-1.1c0.4-0.6,0.7-1.3,1.1-1.9l-8.1-2.1
				l4.5-17.5l4.9,1.2c-0.5-1.5-1.1-3-1.8-4.5c-0.4-0.8-0.8-1.7-1.2-2.5c-0.4-0.6-0.8-1.3-1.2-2c-1.6-3.1-2.5-6.2-2.8-9.3
				c-0.2-1.6-0.2-3.2,0-4.9l-7.8,3.5l-4-8.8l8.9-3.9l3.2,7.1C244.5,121.2,245.3,118.8,246.3,116.4 M231.5,223.8l-1.5-9.5l9.5-1.5
				l1.5,9.5L231.5,223.8z"/>
			<path class="st2" d="M257.4,113.4c-2.5,4.6-3.9,9.1-4.1,13.5c-0.2,2.8,0.1,5.5,1,8.1c0.2,0.8,0.5,1.5,0.8,2.2
				c0.6,1.5,1.4,3,2.3,4.5c0.2,0.4,0.4,0.7,0.6,1.2c1.5,2.9,2.5,5.7,3.1,8.5c0.6,3.1,0.6,6.2,0.1,9.3l-0.8,3.2
				c-0.6,1.8-1.5,3.6-2.5,5.4c-0.2,0.2-0.4,0.5-0.5,0.8c-2.1,3.8-3.4,7.4-3.9,11c-0.1,0.3-0.1,0.6-0.1,1c-0.6,5.3,0.5,10.3,3.3,15.1
				c0.1,0.1,0.1,0.3,0.3,0.4c0.1,0.3,0.3,0.6,0.4,0.8c0.9,1.6,1.7,3.2,2.3,4.9c1.1,2.8,1.7,5.6,1.9,8.3c0,0.4,0,0.7,0.1,1.2
				c0,2-0.2,4-0.7,6c-0.7,2.7-1.9,5.4-3.5,8h82.7V113.4H257.4z"/>
			<path class="st3" d="M257.4,113.4h-4.1c-1.8,5.6-2.7,10.9-2.5,16.1c0,0.8,0.1,1.7,0.2,2.5c0.3,3.3,1.1,6.6,2.3,9.7
				c0.9,2.8,1.6,5.5,2,8.2c0.7,4.6,0.6,9.1-0.2,13.5c-0.1,0.8-0.3,1.5-0.4,2.3c-0.2,0.8-0.5,1.7-0.7,2.5c-0.2,0.6-0.5,1.3-0.7,1.9
				c-1.1,3.2-1.8,6.3-2.1,9.3c-0.1,0.9-0.2,1.7-0.3,2.6c-0.1,0.1-0.1,0.1,0,0.2c-0.1,1.1-0.1,2.3-0.1,3.5c0.1,4.4,0.9,8.7,2.5,12.8
				c1.7,4.9,2.5,9.7,2.6,14.4c0,0.1,0,0.2,0,0.4c-0.1,4.7-0.9,9.3-2.6,13.6h4.1c1.7-2.6,2.8-5.3,3.5-8c0.5-2,0.7-4,0.7-6
				c-0.1-0.4-0.1-0.8-0.1-1.2c-0.2-2.8-0.8-5.6-1.9-8.3c-0.6-1.7-1.4-3.3-2.3-4.9c-0.2-0.2-0.3-0.5-0.4-0.8
				c-0.1-0.2-0.2-0.3-0.3-0.4c-2.8-4.8-3.9-9.9-3.3-15.1c0-0.4,0-0.7,0.1-1c0.5-3.5,1.8-7.2,3.9-11c0.2-0.3,0.4-0.6,0.5-0.8
				c1-1.8,1.8-3.6,2.5-5.4l0.8-3.2c0.5-3.1,0.5-6.2-0.1-9.3c-0.6-2.8-1.6-5.6-3.1-8.5c-0.2-0.4-0.4-0.8-0.6-1.2
				c-0.9-1.5-1.7-3-2.3-4.5c-0.3-0.7-0.6-1.4-0.8-2.2c-0.8-2.7-1.2-5.4-1-8.1C253.5,122.5,254.9,118,257.4,113.4z"/>
		</g>
	</g>
</g>
<g transform="matrix( 1, 0, 0, 1, 0,0) ">
	<g>
		<g id="Layer0_50_FILL">
			<path class="st2" d="M240.1,254.8c-1.9,0.9-3.9,1.6-5.9,2c-2.3,0.5-4.8,0.7-7.4,0.6v82.7h113.4V226.8h-82.7
				c-0.1,4.1-0.8,7.9-2.1,11.3c-1,2.6-2.4,5.1-4.1,7.4c-0.4,0.4-0.7,0.9-1.2,1.3c-2.3,2.7-4.8,4.9-7.6,6.6c-0.5,0.3-1,0.6-1.5,0.8
				C240.6,254.5,240.4,254.6,240.1,254.8z"/>
			<path class="st1" d="M226.8,243.2v4.7c0.4,0,0.8,0,1.2,0L226.8,243.2L226.8,243.2 M244.2,238.7c0.2-0.2,0.3-0.4,0.4-0.6l-3.7-8.3
				l-8.9,3.9l4,8.8L244.2,238.7z"/>
			<path class="st0" d="M247.7,229.8c0.1-0.9,0.2-1.9,0.2-3h-21.1v16.4h0.1l1.2,4.7c4.7-0.1,8.7-1.6,12-4.5c0.5-0.4,1-0.9,1.5-1.3
				c0.4-0.4,0.8-0.9,1.2-1.4c0.5-0.6,1-1.2,1.4-1.9l-8.1,3.7l-4-8.8l8.9-3.9l3.7,8.3C246.3,235.6,247.3,232.9,247.7,229.8z"/>
			<path class="st4" d="M247.9,226.8c0,1.1-0.1,2.1-0.2,3c-0.4,3.1-1.4,5.8-3,8.3c-0.1,0.2-0.3,0.4-0.4,0.6
				c-0.4,0.6-0.9,1.3-1.4,1.9c-0.4,0.5-0.8,1-1.2,1.4c-0.5,0.5-1,0.9-1.5,1.3c-3.4,2.9-7.4,4.4-12,4.5c-0.4,0-0.8,0-1.2,0v5.5
				c0.8,0.1,1.7,0.1,2.5,0c0.5-0.1,1.1-0.1,1.6-0.2c3.4-0.4,6.4-1.4,9.2-3c2.5-1.5,4.8-3.5,6.9-5.9c4.1-4.8,6.3-10.6,6.4-17.5H247.9
				z"/>
			<path class="st3" d="M257.4,226.8h-4.1c-0.1,6.9-2.2,12.7-6.4,17.5c-2.1,2.5-4.4,4.5-6.9,5.9c-2.8,1.6-5.8,2.6-9.2,3
				c-0.5,0.1-1.1,0.1-1.6,0.2c-0.8,0.1-1.7,0.1-2.5,0v4.1c2.6,0.1,5-0.1,7.4-0.6c2.1-0.5,4-1.2,5.9-2c0.3-0.1,0.6-0.3,0.9-0.4
				c0.5-0.2,1-0.5,1.5-0.8c2.8-1.7,5.3-3.9,7.6-6.6c0.4-0.5,0.8-0.9,1.2-1.3c1.7-2.4,3.1-4.8,4.1-7.4
				C256.6,234.6,257.3,230.8,257.4,226.8z"/>
		</g>
	</g>
</g>
<g transform="matrix( 1, 0, 0, 1, 0,0) ">
	<g>
		<g id="Layer0_51_FILL">
			<path class="st1" d="M189.1,251.5c1.5-0.4,3.1-0.8,4.6-1.4l1.9-2.7l-7.8-5.7l-5.7,7.9l3.4,2.4
				C186.7,251.9,187.9,251.7,189.1,251.5 M199,226.8h-17.1l-1,8.2l16.9,1.9L199,226.8 M226.8,243.2l-7,1.7c2.3,0.7,4.6,1.7,7,3
				V243.2 M114.8,248.7l-1.3-5.6h-0.1v4.7C113.9,248.1,114.3,248.4,114.8,248.7 M136.3,244.1l4.6,4.2c0.2-0.1,0.5-0.3,0.8-0.4
				c5.6-3.5,11.3-4.8,17.4-3.9l0.7-0.8l-12.2-11.3L136.3,244.1 M118.7,233.7l4,8.8l8.8-4l-3.9-8.7L118.7,233.7z"/>
			<path class="st2" d="M121.6,261c-2.8-0.6-5.6-1.8-8.2-3.5v82.7h113.4v-82.7c-1.2-0.6-2.4-1.2-3.5-1.8c-2.8-1.2-5.5-1.9-8.1-2.2
				c-3-0.4-5.9-0.2-8.8,0.5c-2.7,0.6-5.4,1.8-8,3.5c-0.2,0.1-0.3,0.2-0.4,0.3c-5.1,2.7-10,4-14.7,3.9c-1.3,0-2.5-0.1-3.7-0.4
				c-0.5-0.1-0.9-0.1-1.3-0.3c-0.4-0.1-0.7-0.1-1-0.3c-2.5-0.7-4.9-1.8-7.2-3.3c-0.5-0.2-0.9-0.5-1.4-0.7c-0.9-0.5-1.8-0.9-2.7-1.2
				c-3.7-1.5-7.4-2.3-10.9-2.2c-1.8,0-3.5,0.2-5.1,0.7c-0.8,0.1-1.5,0.3-2.3,0.6c-1.1,0.4-2.2,0.8-3.3,1.3c-0.9,0.5-1.8,1-2.7,1.5
				c-2.5,1.4-5,2.4-7.4,3.1c-0.5,0.1-1,0.3-1.4,0.4c-0.1,0-0.2,0-0.3,0.1c-0.1,0-0.1,0-0.2,0C128.7,261.8,125.1,261.8,121.6,261z"/>
			<path class="st3" d="M113.4,253.3v4.1c2.7,1.7,5.4,2.9,8.2,3.5c3.5,0.8,7.1,0.9,10.8,0.1c0.1,0,0.1,0,0.2,0
				c0.1-0.1,0.1-0.1,0.3-0.1c0.4-0.2,0.9-0.3,1.4-0.4c2.4-0.7,4.9-1.7,7.4-3.1c0.9-0.5,1.8-1,2.7-1.5c1.1-0.5,2.2-1,3.3-1.3
				c0.8-0.3,1.5-0.5,2.3-0.6c1.7-0.5,3.4-0.7,5.1-0.7c3.5-0.1,7.2,0.7,10.9,2.2c0.9,0.4,1.8,0.8,2.7,1.2c0.5,0.2,0.9,0.5,1.4,0.7
				c2.3,1.5,4.7,2.6,7.2,3.3c0.3,0.1,0.6,0.2,1,0.3c0.4,0.1,0.9,0.2,1.3,0.3c1.2,0.2,2.4,0.4,3.7,0.4c4.7,0.1,9.6-1.2,14.7-3.9
				c0.1-0.1,0.3-0.1,0.4-0.3c2.6-1.7,5.3-2.8,8-3.5c2.8-0.7,5.8-0.9,8.8-0.5c2.6,0.3,5.3,1,8.1,2.2c1.1,0.5,2.3,1.1,3.5,1.8v-4.1
				c-0.9-0.3-1.7-0.6-2.6-0.8c-3.3-0.9-6.5-1.4-9.7-1.6c-5.6-0.4-11,0.4-16.1,2.4c-4,1.4-7.9,2.2-11.8,2.5c-3.7,0.2-7.2,0-10.6-0.7
				c-2-0.4-4-1-5.9-1.8c-4.8-1.6-9.5-2.4-14.1-2.5c-1.1,0-2.2,0-3.4,0.1c-2.5,0.2-5,0.6-7.4,1.3c-1.1,0.2-2.1,0.6-3.2,1
				c-0.1,0-0.2,0-0.3,0.1c-1.6,0.5-3.2,1-4.7,1.3c-2.8,0.6-5.6,1-8.3,1.2c-3.2,0.1-6.4-0.1-9.6-0.8c-1-0.2-2-0.5-3-0.7
				C115.2,254,114.3,253.7,113.4,253.3z"/>
			<path class="st4" d="M141.7,247.9c-0.3,0.2-0.6,0.3-0.8,0.4c-9.3,4.8-18,5-26.1,0.4c-0.5-0.3-0.9-0.6-1.4-0.9v5.5
				c0.9,0.4,1.8,0.7,2.7,1c1,0.2,2,0.5,3,0.7c3.1,0.6,6.3,0.9,9.6,0.8c2.7-0.1,5.5-0.5,8.3-1.2c1.5-0.4,3.1-0.8,4.7-1.3
				c0.1-0.1,0.1-0.1,0.3-0.1c1.1-0.4,2.1-0.7,3.2-1c2.4-0.7,4.9-1.2,7.4-1.3c1.1-0.1,2.2-0.1,3.4-0.1c4.5,0.1,9.2,0.9,14.1,2.5
				c1.9,0.8,3.9,1.4,5.9,1.8c3.4,0.7,7,0.9,10.6,0.7c3.8-0.3,7.8-1.1,11.8-2.5c5.1-1.9,10.5-2.7,16.1-2.4c3.1,0.2,6.3,0.7,9.7,1.6
				c0.8,0.2,1.7,0.5,2.6,0.8v-5.5c-2.4-1.3-4.7-2.3-7-3c-3.3-1-6.5-1.4-9.7-1.1c-2.5,0.2-4.9,0.8-7.2,1.8c-1.5,0.6-3,1.4-4.5,2.3
				c-1.6,0.9-3.2,1.6-4.7,2.2c-1.5,0.6-3.1,1.1-4.6,1.4c-1.2,0.2-2.5,0.4-3.6,0.5c-4.2,0.2-8.2-0.6-12.1-2.4
				c-1.1-0.5-2.2-1.1-3.3-1.8c-3.8-2.1-7.4-3.4-11-3.9C153.1,243.1,147.3,244.4,141.7,247.9z"/>
			<path class="st0" d="M140.9,248.3l-4.6-4.2l11.3-12.2l12.2,11.3l-0.7,0.8c3.5,0.5,7.2,1.8,11,3.9c1.1,0.6,2.2,1.2,3.3,1.8
				c3.9,1.8,7.9,2.6,12.1,2.4l-3.4-2.4l5.7-7.9l7.8,5.7l-1.9,2.7c1.5-0.6,3.1-1.3,4.7-2.2c1.5-0.9,3-1.7,4.5-2.3
				c2.3-0.9,4.7-1.5,7.2-1.8c3.1-0.3,6.3,0.1,9.7,1.1l7-1.7v-16.4H199l-1.2,10.2L181,235l1-8.2h-68.6v16.4h0.1l1.3,5.6
				C123,253.3,131.7,253.1,140.9,248.3 M122.7,242.5l-4-8.8l8.9-3.9l3.9,8.7L122.7,242.5z"/>
		</g>
	</g>
</g>
<g transform="matrix( 1, 0, 0, 1, 0,0) ">
	<g>
		<g id="Layer0_52_FILL">
			<path class="st1" d="M113.4,247.9v-4.7l-10,2.4c2.7,1.5,5.6,2.2,8.9,2.3c0.1,0,0.3,0,0.4,0C112.9,247.9,113.1,247.9,113.4,247.9z
				"/>
			<path class="st2" d="M85.2,239c-0.3-0.6-0.5-1.3-0.7-2c-1.1-3.1-1.7-6.5-1.8-10.2H0v113.4h113.4v-82.7c-1.4,0.1-2.8,0-4.1-0.1
				c-2.5-0.3-4.8-0.8-7-1.6c-0.8-0.3-1.5-0.6-2.2-1c-3.8-1.8-7.1-4.4-10-7.9c-0.4-0.5-0.8-1-1.2-1.5C87.4,243.4,86.2,241.2,85.2,239
				z"/>
			<path class="st0" d="M100.1,243.3c1,0.9,2.1,1.6,3.3,2.2l10-2.4v-16.4H92.3c0.1,1.7,0.2,3.2,0.5,4.7c0.5,2.1,1.2,4,2.2,5.8
				c0.6,1.2,1.4,2.3,2.3,3.4S99.2,242.6,100.1,243.3z"/>
			<path class="st3" d="M86.8,226.8h-4.1c0.1,3.7,0.7,7.1,1.8,10.2c0.2,0.7,0.4,1.4,0.7,2c0.9,2.2,2.2,4.4,3.6,6.4
				c0.4,0.5,0.8,1,1.2,1.5c2.9,3.5,6.2,6.1,10,7.9c0.7,0.4,1.4,0.7,2.2,1c2.2,0.8,4.5,1.3,7,1.6c1.3,0.1,2.7,0.1,4.1,0.1v-4.1
				c-0.9,0-1.9,0-2.8,0c-3.4-0.2-6.6-1.1-9.4-2.6c-0.4-0.2-0.7-0.4-1.1-0.6c-1.4-0.8-2.6-1.7-3.8-2.7c-1.1-0.9-2.2-2-3.1-3.2
				c-2.2-2.5-3.8-5.3-4.8-8.3C87.4,233.1,86.9,230,86.8,226.8z"/>
			<path class="st4" d="M92.3,226.8h-5.5c0.1,3.2,0.6,6.3,1.6,9.1c1,3.1,2.6,5.8,4.8,8.3c0.9,1.2,2,2.2,3.1,3.2
				c1.2,1.1,2.5,2,3.8,2.7c0.4,0.2,0.7,0.4,1.1,0.6c2.8,1.5,6,2.3,9.4,2.6c0.9,0,1.9,0,2.8,0v-5.5c-0.2,0-0.4,0-0.6,0
				c-0.2,0-0.3,0-0.4,0c-3.3-0.1-6.3-0.8-8.9-2.3c-1.2-0.6-2.3-1.3-3.3-2.2c-0.9-0.8-1.9-1.7-2.7-2.7s-1.7-2.2-2.3-3.4
				c-1-1.8-1.7-3.7-2.2-5.8C92.5,230,92.4,228.4,92.3,226.8z"/>
		</g>
	</g>
</g>
</svg>
