<?xml version="1.0" encoding="utf-8"?>
<!-- Generator: Adobe Illustrator 22.1.0, SVG Export Plug-In . SVG Version: 6.00 Build 0)  -->
<svg version="1.1" id="Layer_1" xmlns="http://www.w3.org/2000/svg" xmlns:xlink="http://www.w3.org/1999/xlink" x="0px" y="0px"
	 viewBox="0 0 340.2 340.2" style="enable-background:new 0 0 340.2 340.2;" xml:space="preserve">
<style type="text/css">
	.st0{fill:#39C272;}
	.st1{fill:#2CC46C;}
	.st2{fill:#31D978;}
	.st3{fill:#2ECC71;}
	.st4{fill:#B17940;}
	.st5{fill:#BB8044;}
</style>
<g transform="matrix( 1, 0, 0, 1, 0,0) ">
	<g>
		<g id="Layer0_40_FILL">
			<path class="st0" d="M340.2,0H226.8"/>
		</g>
	</g>
</g>
<g transform="matrix( 1, 0, 0, 1, 0,0) ">
	<g>
		<g id="Layer0_41_FILL">
			<path class="st0" d="M226.8,0H113.4"/>
		</g>
	</g>
</g>
<g transform="matrix( 1, 0, 0, 1, 0,0) ">
	<g>
		<g id="Layer0_42_FILL">
			<path class="st0" d="M113.4,0H0"/>
		</g>
	</g>
</g>
<g transform="matrix( 1, 0, 0, 1, 0,0) ">
	<g>
		<g id="Layer0_50_FILL">
			<path class="st0" d="M226.8,340.2h113.4"/>
		</g>
	</g>
</g>
<g transform="matrix( 1, 0, 0, 1, 0,0) ">
	<g>
		<g id="Layer0_51_FILL">
			<path class="st0" d="M113.4,340.2h113.4"/>
		</g>
	</g>
</g>
<g transform="matrix( 1, 0, 0, 1, 0,0) ">
	<g>
		<g id="Layer0_52_FILL">
			<path class="st0" d="M0,340.2h113.4"/>
		</g>
	</g>
</g>
<g transform="matrix( 1, 0, 0, 1, 0,0) ">
	<g>
		<g id="Layer0_23_FILL">
			<path class="st1" d="M97.4,99.5c-1.6,1.8-2.8,3.9-3.6,6.1l8.6-0.6l-4.3-6.3C97.8,99,97.6,99.2,97.4,99.5 M109.2,92.6l4.2,1.5
				v-1.9C112,92.2,110.6,92.3,109.2,92.6z"/>
			<path class="st2" d="M109.2,92.6c1.4-0.3,2.7-0.4,4.2-0.4v-5.5c-3.5-0.1-6.7,0.4-9.6,1.5c-1.3,0.5-2.5,1-3.7,1.7
				c-0.9,0.5-1.7,1.1-2.6,1.8c-0.9,0.7-1.7,1.5-2.6,2.3c-0.6,0.6-1.2,1.2-1.8,1.9c-2.6,3-4.4,6.4-5.4,10.2c-0.6,2.2-0.9,4.7-1,7.3
				h5.5c0.1-2.8,0.5-5.3,1.4-7.7c0.8-2.2,2-4.3,3.6-6.1c0.2-0.3,0.5-0.6,0.7-0.8c0.4-0.4,0.7-0.8,1.2-1.2c0.3-0.3,0.6-0.6,0.9-0.8
				c2.1-1.8,4.4-3,7-3.7C107.8,92.8,108.5,92.7,109.2,92.6z"/>
			<path class="st3" d="M113.4,94.1l-4.2-1.5c-0.7,0.1-1.4,0.2-2.1,0.4c-2.6,0.7-4.9,1.9-7,3.7c-0.3,0.2-0.6,0.5-0.9,0.8
				c-0.4,0.4-0.8,0.7-1.2,1.2l4.3,6.3l-8.6,0.6c-0.9,2.4-1.4,4.9-1.4,7.7h21.1V94.1z"/>
			<path class="st4" d="M113.4,82.7c-4.9-0.1-9.3,0.8-13.3,2.7c-3.8,1.8-7.1,4.4-10,7.9c-3.2,3.8-5.4,8.1-6.5,13.1
				c-0.5,2.2-0.8,4.5-0.9,7h4.1c0.1-2.6,0.4-5,1-7.3c1-3.8,2.8-7.2,5.4-10.2c0.5-0.6,1.1-1.3,1.8-1.9c0.8-0.8,1.7-1.6,2.6-2.3
				c0.8-0.6,1.7-1.2,2.6-1.8c1.2-0.6,2.4-1.2,3.7-1.7c2.9-1.1,6.1-1.6,9.6-1.5V82.7z"/>
			<path class="st5" d="M113.4,82.7V0H0v113.3h82.7c0.1-2.5,0.4-4.8,0.9-7c1.1-5,3.2-9.3,6.5-13.1c2.9-3.5,6.2-6.1,10-7.9
				C104.1,83.5,108.5,82.6,113.4,82.7z"/>
		</g>
	</g>
</g>
<g transform="matrix( 1, 0, 0, 1, 0,0) ">
	<g>
		<g id="Layer0_24_FILL">
			<path class="st1" d="M124.5,98.4l-1.6-9.8c-3.2,0.5-6.4,1.8-9.5,3.7v1.9L124.5,98.4 M224.7,93.3l2,0.8v-1.9
				C226.1,92.7,225.4,93,224.7,93.3 M159.2,96.2c-0.8,0.1-1.5,0.2-2.3,0.3l-14.7,2.9l11.6,13L159.2,96.2 M173.7,95.4l-1.9-4
				c-0.6,0.2-1.2,0.5-1.7,0.9c-1.9,1.1-3.8,1.9-5.6,2.6L173.7,95.4 M184,113.3l1.9-5.7l-17.1,3.5l1.9,2.2H184 M130.9,109.1l8.1-7.2
				l-10.3-3.5L130.9,109.1 M190.5,101l0.6-10.8l-9.7,4.9L190.5,101 M209.9,96.4c-2.1-0.2-4.1-0.7-6-1.4l-5.5,11.2l17.4-1.2
				L209.9,96.4z"/>
			<path class="st3" d="M198.3,106.3l5.5-11.2c-1.8-0.7-3.6-1.6-5.4-2.7c-1-0.5-2-1-2.9-1.4c-0.9-0.5-1.9-0.9-2.7-1.2
				c-3.7-1.3-7.3-1.8-10.8-1.5c-3.2,0.2-6.3,1.1-9.3,2.7c-0.3,0.2-0.6,0.4-0.9,0.5l1.9,4l-9.2-0.5c-0.5,0.2-0.9,0.3-1.3,0.4
				c-1.4,0.4-2.7,0.7-4,0.9l-5.4,16.2l-11.6-13l14.7-2.9c-4,0.2-7.8-0.6-11.5-2.2c-1.2-0.5-2.5-1.2-3.6-1.9
				c-1.9-1.1-3.8-1.9-5.7-2.6c-1.9-0.6-3.8-1.1-5.7-1.3c-2.5-0.4-5-0.3-7.5,0.2l1.6,9.8l-11.1-4.3v19.2h57.3l-1.9-2.2l17.1-3.5
				l-1.9,5.7h42.8V94.1l-2-0.8c-1.5,0.8-3,1.4-4.5,1.9c-3.4,1-6.6,1.4-9.8,1.2c-0.2,0-0.4,0-0.5,0l5.8,8.6L198.3,106.3 M191.1,90.2
				l-0.6,10.8l-9.1-5.9L191.1,90.2 M139,101.9l-8.1,7.2l-2.2-10.6L139,101.9z"/>
			<path class="st2" d="M170.8,86.5c-0.2,0.1-0.5,0.2-0.7,0.3c-0.2,0.1-0.4,0.1-0.5,0.2c-0.6,0.2-1.2,0.4-1.8,0.6
				c-1,0.2-2,0.5-3,0.7c-6.3,1.4-12.3,1.4-18.1,0c-1.7-0.4-3.4-0.9-5-1.5c-1.1-0.4-2.1-0.6-3.1-0.9c-3.2-0.9-6.4-1.4-9.6-1.6
				c-2.3-0.1-4.6,0-6.8,0.3c-2.2,0.3-4.4,0.8-6.5,1.4c-0.8,0.2-1.6,0.5-2.4,0.8v5.5c3.1-1.9,6.2-3.2,9.5-3.7c2.5-0.5,5-0.5,7.5-0.2
				c1.9,0.2,3.8,0.7,5.7,1.3c1.9,0.6,3.8,1.5,5.7,2.6c1.2,0.8,2.4,1.4,3.6,1.9c3.7,1.7,7.6,2.4,11.5,2.2c0.8-0.1,1.5-0.1,2.3-0.3
				c1.3-0.2,2.6-0.5,4-0.9c0.4-0.1,0.9-0.3,1.3-0.4c1.8-0.6,3.7-1.5,5.6-2.6c0.5-0.4,1.1-0.6,1.7-0.9c0.3-0.2,0.6-0.4,0.9-0.5
				c3-1.5,6.1-2.4,9.3-2.7c3.5-0.3,7.1,0.2,10.8,1.5c0.9,0.3,1.8,0.7,2.7,1.2c0.9,0.4,1.9,0.9,2.9,1.4c1.8,1.1,3.6,2,5.4,2.7
				c1.9,0.7,4,1.2,6,1.4c0.2,0,0.4,0,0.5,0c3.2,0.2,6.5-0.2,9.8-1.2c1.5-0.5,3-1.1,4.5-1.9c0.6-0.3,1.3-0.6,2-1.1v-5.5
				c-2.3,0.8-4.5,1.4-6.7,1.8c-3.1,0.6-6.1,0.9-8.9,0.8c-2.7-0.1-5.2-0.5-7.7-1.1c-1.7-0.4-3.4-0.9-5-1.5c-2.4-0.8-4.8-1.4-7.2-1.9
				c-2.8-0.5-5.5-0.7-8.1-0.6c-0.9,0-1.8,0-2.7,0.1c-0.1,0-0.2,0-0.3,0C177,84.7,173.9,85.4,170.8,86.5z"/>
			<path class="st4" d="M226.8,86.8v-4.1c-7.3,4-14.2,5.1-20.7,3.4c-2.6-0.7-5.1-1.8-7.6-3.4c-2.3-1.3-4.5-2.3-6.7-2.9
				c-0.8-0.2-1.5-0.4-2.3-0.6c-3-0.6-5.8-0.8-8.7-0.4c-3.7,0.5-7.2,1.8-10.6,3.9c-1.7,0.9-3.2,1.7-4.8,2.3c-6.3,2.4-12.3,2.5-18,0.4
				c-1.1-0.4-2.2-0.9-3.4-1.5c-0.2-0.1-0.4-0.2-0.6-0.4c-0.5-0.3-1.1-0.6-1.6-0.9c-1.7-0.9-3.3-1.7-4.9-2.3c-0.1,0-0.1,0-0.2,0
				c-8.2-3.1-16-2.3-23.3,2.3v4.1c0.8-0.3,1.6-0.6,2.4-0.8c2.1-0.6,4.2-1.1,6.5-1.4c2.2-0.3,4.5-0.4,6.8-0.3
				c3.1,0.2,6.3,0.7,9.6,1.6c1,0.2,2,0.5,3.1,0.9c1.6,0.6,3.2,1.1,5,1.5c5.7,1.4,11.8,1.4,18.1,0c1-0.2,2-0.5,3-0.7
				c0.6-0.2,1.2-0.4,1.8-0.6c0.2-0.1,0.4-0.1,0.5-0.2c0.2-0.1,0.5-0.1,0.7-0.3c3.1-1.1,6.2-1.8,9.5-2.1c0.1,0,0.1,0,0.3,0
				c0.9-0.1,1.8-0.1,2.7-0.1c2.6-0.1,5.3,0.1,8.1,0.6c2.4,0.4,4.8,1,7.2,1.9c1.6,0.6,3.2,1.1,5,1.5c2.5,0.6,5,0.9,7.7,1.1
				c2.9,0.1,5.9-0.2,8.9-0.8C222.2,88.1,224.5,87.5,226.8,86.8z"/>
			<path class="st5" d="M226.8,82.7V0H113.4v82.7c7.3-4.6,15.1-5.4,23.3-2.3c0.1,0,0.1,0,0.2,0c1.6,0.6,3.2,1.4,4.9,2.3
				c0.5,0.3,1.1,0.6,1.6,0.9c0.2,0.1,0.4,0.2,0.6,0.4c1.1,0.6,2.2,1.1,3.4,1.5c5.7,2.1,11.7,1.9,18-0.4c1.5-0.6,3.1-1.4,4.8-2.3
				c3.4-2.1,7-3.4,10.6-3.9c2.8-0.4,5.7-0.3,8.7,0.4c0.8,0.2,1.5,0.4,2.3,0.6c2.2,0.6,4.4,1.6,6.7,2.9c2.5,1.5,5,2.7,7.6,3.4
				C212.6,87.8,219.5,86.7,226.8,82.7z"/>
		</g>
	</g>
</g>
<path class="st1" d="M246.9,106.9c-0.8-2.7-2.2-5.2-4.1-7.3c-0.2-0.2-0.4-0.5-0.6-0.7l2.1,10.3L246.9,106.9 M237.8,98.4l-0.5-3.5
	c-3.1-1.8-6.6-2.7-10.5-2.6v1.9L237.8,98.4z"/>
<path class="st3" d="M237.3,94.8l0.5,3.5l-11.1-4.3v19.2h21.1c-0.1-2.3-0.4-4.5-1-6.5l-2.6,2.2l-2.1-10.3c-0.7-0.8-1.4-1.4-2.1-2
	C239.2,96,238.3,95.4,237.3,94.8z"/>
<path class="st2" d="M228.2,86.8c-0.5,0-0.9,0-1.4,0v5.5c4-0.1,7.5,0.7,10.5,2.6c0.9,0.5,1.9,1.2,2.7,1.9c0.7,0.6,1.4,1.3,2.1,2
	c0.2,0.2,0.4,0.5,0.6,0.7c1.9,2.2,3.2,4.6,4.1,7.3c0.6,2,0.9,4.2,1,6.5h5.5c-0.1-3.8-0.7-7.3-2-10.4c-0.2-0.5-0.5-1.1-0.7-1.6
	c-0.9-1.9-2.2-3.7-3.6-5.4c-2.1-2.5-4.4-4.5-6.9-5.9c-1.2-0.7-2.5-1.3-3.9-1.8C233.7,87.3,231,86.8,228.2,86.8z"/>
<path class="st4" d="M232.6,83.1c-1.9-0.3-3.8-0.4-5.8-0.4v4.1c0.5,0,0.9,0,1.4,0c2.8,0.1,5.5,0.5,8,1.4c1.4,0.5,2.7,1.1,3.9,1.8
	c2.5,1.5,4.8,3.5,6.9,5.9c1.5,1.7,2.7,3.5,3.6,5.4c0.2,0.5,0.5,1.1,0.7,1.6c1.3,3.2,2,6.7,2,10.4h4.1c-0.2-7.9-2.6-14.6-7.4-20.1
	c-0.8-1-1.7-1.9-2.7-2.8c-1.3-1.2-2.6-2.2-4-3.2c-1.1-0.7-2.2-1.3-3.4-1.9c-1.5-0.7-3-1.3-4.6-1.7C234.5,83.4,233.6,83.2,232.6,83.1
	z"/>
<path class="st5" d="M340.2,0H226.8v82.7c2-0.1,4,0.1,5.8,0.4c0.9,0.2,1.9,0.4,2.8,0.6c1.6,0.4,3.1,1,4.6,1.7
	c1.1,0.5,2.2,1.2,3.4,1.9c1.4,0.9,2.7,2,4,3.2c0.9,0.9,1.8,1.8,2.7,2.8c4.7,5.5,7.2,12.2,7.4,20.1h82.7"/>
<path class="st4" d="M229.3,253.2c-0.8,0-1.7,0-2.5,0v4.1c2.6,0.1,5-0.1,7.4-0.6c2.1-0.5,4-1.2,5.9-2c0.3-0.1,0.6-0.3,0.9-0.4
	c0.5-0.2,1-0.5,1.5-0.8c2.8-1.7,5.3-3.9,7.6-6.6c0.4-0.5,0.8-0.9,1.2-1.3c1.7-2.4,3.1-4.8,4.1-7.4c1.3-3.5,2-7.3,2.1-11.3h-4.1
	c-0.1,6.8-2.2,12.7-6.4,17.4c-2.1,2.5-4.4,4.5-6.9,5.9c-2.8,1.7-5.8,2.7-9.1,3.1C230.3,253.1,229.8,253.2,229.3,253.2z"/>
<path class="st3" d="M247.6,229.7c0.2-0.9,0.3-1.9,0.3-3h-21.1v21.1c0.4,0,0.8,0,1.2,0c4.7-0.1,8.7-1.6,12-4.5
	c0.5-0.4,1-0.9,1.5-1.3c0.4-0.4,0.8-0.9,1.2-1.4c0.5-0.6,1-1.2,1.4-1.9c0.2-0.2,0.3-0.4,0.4-0.6
	C246.2,235.5,247.2,232.7,247.6,229.7z"/>
<path class="st2" d="M247.9,226.7c0,1.1-0.1,2.1-0.3,3c-0.4,3.1-1.4,5.8-2.9,8.3c-0.1,0.2-0.3,0.4-0.4,0.6c-0.4,0.6-0.9,1.3-1.4,1.9
	c-0.4,0.5-0.8,1-1.2,1.4c-0.5,0.5-1,0.9-1.5,1.3c-3.4,2.9-7.4,4.4-12,4.5c-0.4,0-0.8,0-1.2,0v5.5c0.8,0,1.7,0,2.5,0
	c0.5-0.1,1.1-0.1,1.7-0.1c3.3-0.4,6.3-1.4,9.1-3.1c2.5-1.5,4.8-3.5,6.9-5.9c4.1-4.8,6.3-10.6,6.4-17.4H247.9z"/>
<path class="st5" d="M340.2,226.7h-82.7c-0.1,4.1-0.8,7.9-2.1,11.3c-1,2.6-2.4,5.1-4.1,7.4c-0.4,0.4-0.7,0.9-1.2,1.3
	c-2.3,2.7-4.8,4.9-7.6,6.6c-0.5,0.3-1,0.6-1.5,0.8c-0.3,0.2-0.6,0.3-0.9,0.4c-1.9,0.9-3.9,1.6-5.9,2c-2.3,0.5-4.8,0.7-7.4,0.6V340"
	/>
<path class="st1" d="M202.9,245.4c2.3-0.9,4.7-1.5,7.2-1.8l-3.4-12.8L194.4,243L202.9,245.4 M189.1,251.4l1.1-1.9h-16.8
	c3.9,1.8,7.9,2.6,12,2.4C186.6,251.8,187.9,251.6,189.1,251.4 M180.3,237.5l3.7-10.8h-13.3L180.3,237.5 M156.7,234.5l-10.3-3.5
	l2.2,10.6L156.7,234.5 M226,235.6l-10.3-3.5l2.2,10.6L226,235.6 M121.1,229.7l8.7,15.1l8.7-15.1H121.1z"/>
<path class="st3" d="M113.4,247.7c0.5,0.3,0.9,0.6,1.4,0.9c8.1,4.5,16.9,4.4,26.1-0.4c0.2-0.1,0.5-0.3,0.8-0.4
	c5.6-3.5,11.3-4.8,17.4-3.9c3.5,0.5,7.2,1.8,11,3.9c1.1,0.6,2.2,1.2,3.3,1.8h16.8l-1.1,1.9c1.5-0.4,3.1-0.8,4.6-1.4
	c1.5-0.6,3.1-1.3,4.7-2.2c1.5-0.9,3-1.7,4.5-2.3l-8.6-2.4l12.4-12.2l3.4,12.8c3.1-0.3,6.3,0.1,9.7,1.1c2.3,0.7,4.6,1.7,7,3v-21.1
	H184l-3.7,10.8l-9.6-10.8h-57.3V247.7 M129.8,244.7l-8.7-15.1h17.4L129.8,244.7 M215.7,232.2l10.3,3.5l-8.1,7.2L215.7,232.2
	 M146.4,231.1l10.3,3.5l-8.1,7.2L146.4,231.1z"/>
<path class="st5" d="M226.8,340v-82.7c-1.2-0.6-2.4-1.2-3.5-1.8c-2.8-1.1-5.5-1.9-8.1-2.2c-3-0.4-5.9-0.2-8.8,0.5
	c-2.7,0.6-5.4,1.8-8,3.5c-0.2,0.1-0.3,0.2-0.4,0.3c-5.1,2.7-10,4-14.7,4c-1.2-0.1-2.5-0.2-3.7-0.4c-0.5-0.1-0.9-0.1-1.3-0.3
	c-0.3-0.1-0.6-0.2-0.8-0.3c-2.5-0.7-5-1.8-7.4-3.3c-0.5-0.2-0.9-0.5-1.4-0.7c-0.9-0.5-1.8-0.9-2.7-1.2c-3.7-1.5-7.4-2.2-10.9-2.1
	c-1.8,0-3.5,0.2-5.1,0.6c-0.8,0.1-1.5,0.3-2.3,0.6c-1.1,0.4-2.2,0.8-3.3,1.3c-0.9,0.5-1.8,1-2.7,1.5c-2.5,1.4-5,2.4-7.4,3.2
	c-0.5,0.1-1,0.2-1.5,0.4c-0.1,0-0.1,0-0.2,0c-0.1,0-0.1,0-0.2,0.1c-3.7,0.8-7.3,0.7-10.8-0.1c-2.8-0.6-5.6-1.8-8.2-3.5V340"/>
<path class="st4" d="M113.4,253.2v4.1c2.7,1.7,5.4,2.9,8.2,3.5c3.5,0.8,7.1,0.9,10.8,0.1c0.1-0.1,0.1-0.1,0.2-0.1c0.1,0,0.1,0,0.2,0
	c0.5-0.1,1-0.2,1.5-0.4c2.5-0.8,5-1.8,7.4-3.2c0.9-0.5,1.8-1,2.7-1.5c1.1-0.5,2.2-1,3.3-1.3c0.8-0.3,1.5-0.5,2.3-0.6
	c1.7-0.4,3.4-0.6,5.1-0.6c3.5-0.1,7.2,0.6,10.9,2.1c0.9,0.4,1.8,0.8,2.7,1.2c0.5,0.2,0.9,0.5,1.4,0.7c2.4,1.5,4.8,2.6,7.4,3.3
	c0.2,0.1,0.5,0.1,0.8,0.3c0.4,0.1,0.9,0.2,1.3,0.3c1.2,0.2,2.5,0.4,3.7,0.4c4.7,0.1,9.6-1.3,14.7-4c0.1-0.1,0.3-0.1,0.4-0.3
	c2.6-1.7,5.3-2.8,8-3.5c2.8-0.7,5.8-0.9,8.8-0.5c2.6,0.4,5.3,1.1,8.1,2.2c1.2,0.5,2.4,1.1,3.5,1.8v-4.1c-0.9-0.3-1.7-0.6-2.6-0.8
	c-3.3-0.9-6.5-1.5-9.7-1.6c-5.6-0.4-11,0.4-16.1,2.4c-4,1.4-7.9,2.2-11.8,2.5c-3.7,0.2-7.2,0-10.6-0.7c-2-0.4-4-1-5.9-1.8
	c-4.9-1.7-9.6-2.5-14.2-2.5c-1.1,0-2.1,0-3.2,0.1c-2.6,0.2-5.1,0.6-7.5,1.3c-1.1,0.3-2.1,0.6-3.2,1c-0.1,0-0.2,0-0.3,0.1
	c-1.6,0.5-3.2,1-4.7,1.3c-2.8,0.6-5.6,1-8.3,1.2c-3.2,0.1-6.4-0.1-9.5-0.7c-1.1-0.2-2.1-0.5-3.1-0.8
	C115.2,253.9,114.3,253.6,113.4,253.2z"/>
<path class="st2" d="M113.4,247.7v5.5c0.9,0.4,1.8,0.7,2.7,1c1,0.3,2,0.6,3.1,0.8c3.1,0.6,6.2,0.8,9.5,0.7c2.7-0.1,5.5-0.5,8.3-1.2
	c1.5-0.4,3.1-0.8,4.7-1.3c0.1-0.1,0.1-0.1,0.3-0.1c1.1-0.4,2.1-0.7,3.2-1c2.4-0.7,4.9-1.2,7.5-1.3c1.1-0.1,2.1-0.1,3.2-0.1
	c4.5,0,9.3,0.8,14.2,2.5c1.9,0.8,3.9,1.4,5.9,1.8c3.4,0.7,7,0.9,10.6,0.7c3.8-0.3,7.8-1.1,11.8-2.5c5.1-1.9,10.5-2.7,16.1-2.4
	c3.1,0.1,6.3,0.6,9.7,1.6c0.8,0.2,1.7,0.5,2.6,0.8v-5.5c-2.4-1.3-4.7-2.3-7-3c-3.3-1-6.5-1.4-9.7-1.1c-2.5,0.2-4.9,0.8-7.2,1.8
	c-1.5,0.6-3,1.4-4.5,2.3c-1.6,0.9-3.2,1.6-4.7,2.2c-1.5,0.6-3.1,1.1-4.6,1.4c-1.2,0.2-2.5,0.4-3.7,0.5c-4.1,0.2-8.1-0.6-12-2.4
	c-1.1-0.5-2.2-1.1-3.3-1.8c-3.8-2.1-7.4-3.4-11-3.9c-6-0.9-11.8,0.4-17.4,3.9c-0.3,0.2-0.6,0.3-0.8,0.4c-9.3,4.8-18,5-26.1,0.4
	C114.3,248.3,113.9,248,113.4,247.7z"/>
<path class="st1" d="M112.3,247.7c0.1,0,0.3,0,0.4,0l-0.4-0.4L112.3,247.7 M93.4,230.8l-0.5,0.5c0.5,2.1,1.2,4,2.2,5.8L93.4,230.8
	 M102.3,232.2l2.2,10.6l8.1-7.2L102.3,232.2z"/>
<path class="st4" d="M84.5,236.9c0.2,0.6,0.5,1.3,0.7,2c0.9,2.2,2.2,4.4,3.6,6.4c0.4,0.5,0.8,1,1.2,1.5c2.9,3.5,6.2,6.1,10,7.9
	c0.7,0.4,1.4,0.7,2.2,1c2.2,0.8,4.5,1.4,7,1.6c1.3,0.1,2.7,0.1,4.1,0.1v-4.1c-0.9,0-1.9,0-2.8,0c-3.4-0.3-6.6-1.2-9.4-2.7
	c-0.4-0.2-0.7-0.4-1.1-0.5c-1.4-0.8-2.6-1.7-3.8-2.7c-1.1-0.9-2.2-2-3.1-3.2c-2.2-2.5-3.8-5.3-4.8-8.3c-1-2.8-1.5-5.9-1.6-9.1h-4.1
	C82.8,230.3,83.4,233.7,84.5,236.9z"/>
<path class="st5" d="M113.4,340v-82.7c-1.4,0.1-2.8,0-4.1-0.1c-2.5-0.2-4.8-0.8-7-1.6c-0.8-0.3-1.5-0.6-2.2-1
	c-3.8-1.8-7.1-4.4-10-7.9c-0.4-0.5-0.8-1-1.2-1.5c-1.5-2-2.7-4.1-3.6-6.4c-0.2-0.7-0.5-1.4-0.7-2c-1.1-3.1-1.7-6.5-1.8-10.2H0V340"
	/>
<path class="st3" d="M95,237.1c0.6,1.2,1.4,2.3,2.3,3.4c0.9,1.1,1.8,2,2.7,2.7c1,0.9,2.1,1.6,3.3,2.2c2.6,1.4,5.6,2.2,8.9,2.3
	l0.1-0.4l0.4,0.4c0.2,0,0.4,0,0.6,0v-21.1H92.3c0.1,1.7,0.2,3.2,0.5,4.7l0.5-0.5L95,237.1 M104.5,242.8l-2.2-10.6l10.3,3.5
	L104.5,242.8z"/>
<path class="st2" d="M97.4,240.5c-0.9-1.1-1.7-2.2-2.3-3.4c-1-1.8-1.7-3.7-2.2-5.8c-0.3-1.5-0.5-3-0.5-4.7h-5.5
	c0.1,3.2,0.6,6.3,1.6,9.1c1,3.1,2.6,5.8,4.8,8.3c0.9,1.2,2,2.2,3.1,3.2c1.2,1.1,2.5,2,3.8,2.7c0.4,0.2,0.7,0.4,1.1,0.5
	c2.8,1.5,6,2.4,9.4,2.7c0.9,0,1.9,0,2.8,0v-5.5c-0.2,0-0.4,0-0.6,0c-0.2,0-0.3,0-0.4,0c-3.4-0.1-6.3-0.9-8.9-2.3
	c-1.2-0.6-2.3-1.3-3.3-2.2C99.2,242.5,98.2,241.5,97.4,240.5z"/>
<g transform="matrix( 1, 0, 0, 1, 0,0) ">
	<g>
		<g id="Layer0_34_FILL">
			<path class="st1" d="M102.3,218.3l-9.7-14.4l-4.4,9.2c0,2.1,0.3,4.1,0.9,6.2L102.3,218.3 M96.3,187.8c-0.3,2.1-0.9,4.3-1.8,6.4
				l4.3,2.8l0.7-10.8L96.3,187.8 M113.4,207.5v-6.2l-5.1,4.3L113.4,207.5 M113.4,171.7l-11.1,2.2l11.1,12.5V171.7 M113.4,149.3
				v-14.2l-1-1.1l-5.3,16.6L113.4,149.3 M88.8,161.9L88.8,161.9c0.6,2.8,1.8,5.5,3.5,8.1c0.1,0.1,0.1,0.2,0.2,0.3l3.3-9.7
				L88.8,161.9 M89.7,147.6l2.7,1.8l0.6-8.8c-0.2,0.4-0.5,0.7-0.7,1.1C91.2,143.7,90.4,145.7,89.7,147.6 M95.8,133.8l1.9,0.5l-1.2-5
				C96.3,130.8,96.1,132.3,95.8,133.8 M102.3,118.8l2.2,10.6l8.1-7.2L102.3,118.8z"/>
			<path class="st5" d="M85.1,118.5c-0.6-1.7-1.4-3.4-2.4-5.1H0v113.3h82.7c-1.5-2.5-2.7-5-3.4-7.5c-1.2-4.6-1.1-9.4,0.5-14.3
				c0.7-2.1,1.7-4.3,2.8-6.5c2.1-3.2,3.4-6.6,3.9-10.1c0.7-4.7,0-9.4-2-14.3c-0.5-1.1-1-2.2-1.5-3.4c-0.1-0.2-0.2-0.4-0.4-0.5
				c-0.8-1.2-1.4-2.4-1.9-3.6c-0.4-0.9-0.7-1.7-1-2.6c-2.3-7-1.3-14.4,2.9-22.1c2.1-3.4,3.5-6.8,4-10.4c0.3-2.4,0.3-4.8-0.1-7.2
				C86.3,122.2,85.8,120.4,85.1,118.5z"/>
			<path class="st4" d="M88.9,121.9c-0.5-2.8-1.2-5.7-2.1-8.6h-4.1c0.9,1.7,1.7,3.4,2.4,5.1c0.7,1.9,1.2,3.8,1.5,5.7
				c0.4,2.4,0.4,4.8,0.1,7.2c-0.5,3.5-1.9,7-4,10.4c-4.3,7.7-5.2,15.1-2.9,22.1c0.2,0.8,0.6,1.7,1,2.6c0.5,1.2,1.2,2.4,1.9,3.6
				c0.1,0.2,0.2,0.4,0.4,0.5c0.5,1.1,1,2.2,1.5,3.4c2.1,4.9,2.7,9.7,2,14.3c-0.5,3.5-1.8,6.8-3.9,10.1c-1.2,2.2-2.1,4.3-2.8,6.5
				c-1.6,5-1.8,9.7-0.5,14.3c0.7,2.5,1.8,5,3.4,7.5h4.1c-0.3-0.8-0.6-1.5-0.8-2.3c-0.5-1.5-0.8-3.1-1.1-4.6
				c-1-5.4-0.8-10.9,0.5-16.7c0.4-1.5,0.8-3.1,1.3-4.7c1.2-3.2,2-6.5,2.4-9.8c0.4-4.4,0.1-9-1.1-13.8c-0.4-1.5-0.8-3.1-1.3-4.7
				c-0.9-2.4-1.6-4.8-1.9-7.3c-0.3-1.7-0.5-3.3-0.5-5c-0.1-1.4,0-2.7,0.1-4.2c0.2-2.8,0.6-5.7,1.4-8.5c0.2-1.1,0.6-2.2,1-3.3
				c0-0.1,0-0.1,0-0.2c1.2-3.1,1.9-6.3,2.3-9.7C89.5,128.7,89.4,125.3,88.9,121.9z"/>
			<path class="st2" d="M96.5,129.4c0.3-5.1-1.1-10.5-4.2-16h-5.5c0.9,2.9,1.7,5.8,2.1,8.6c0.5,3.4,0.5,6.8,0.2,10.1
				c-0.4,3.3-1.1,6.5-2.3,9.7c0,0.1,0,0.1,0,0.2c-0.4,1.1-0.7,2.2-1,3.3c-0.8,2.8-1.2,5.7-1.4,8.5c-0.1,1.4-0.1,2.8-0.1,4.2
				c0.1,1.7,0.2,3.3,0.5,5c0.4,2.5,1,4.9,1.9,7.3c0.5,1.6,1,3.2,1.3,4.7c1.1,4.8,1.5,9.4,1.1,13.8c-0.4,3.4-1.2,6.6-2.4,9.8
				c-0.5,1.6-1,3.2-1.3,4.7c-1.4,5.8-1.5,11.4-0.5,16.7c0.2,1.5,0.6,3.1,1.1,4.6c0.2,0.8,0.5,1.5,0.8,2.3h5.5
				c-1.5-2.4-2.6-4.9-3.3-7.3c-0.6-2.1-0.9-4.1-0.9-6.2c0-3.8,0.9-7.8,2.7-11.8c0.5-1,1-2,1.5-2.9v-0.1c0.9-1.4,1.6-2.7,2.2-4.2
				c0.9-2.1,1.5-4.3,1.8-6.4c0.4-3.3,0.1-6.7-0.8-10.1c-0.6-2.3-1.6-4.6-2.7-6.9c-0.1-0.2-0.2-0.4-0.3-0.5c-0.1-0.1-0.1-0.1-0.2-0.3
				c-1.7-2.6-2.8-5.3-3.5-8v-0.1c-1.1-4.2-0.9-8.5,0.4-12.8c0.1-0.5,0.3-1,0.5-1.5c0.6-1.9,1.5-3.9,2.6-5.9c0.2-0.4,0.5-0.7,0.7-1.1
				c1.2-2.2,2.2-4.5,2.7-6.8C96.1,132.3,96.3,130.8,96.5,129.4z"/>
			<path class="st3" d="M92.3,113.3c3.1,5.5,4.5,10.9,4.2,16l1.2,5l-1.9-0.5c-0.6,2.3-1.5,4.6-2.7,6.8l-0.6,8.8l-2.7-1.8
				c-0.2,0.5-0.4,1-0.5,1.5c-1.3,4.4-1.4,8.6-0.4,12.8l6.9-1.4l-3.3,9.7c0.1,0.2,0.1,0.4,0.3,0.5c1.2,2.3,2.1,4.6,2.7,6.9
				c0.9,3.4,1.2,6.8,0.8,10.1l3.2-1.6L98.8,197l-4.3-2.8c-0.6,1.4-1.3,2.8-2.2,4.2v0.1c-0.5,0.9-1,1.9-1.5,2.9
				c-1.8,4-2.7,7.9-2.7,11.8l4.4-9.2l9.7,14.4l-13.3,1c0.6,2.5,1.7,4.9,3.3,7.3h21.1v-19.2l-5.1-1.9l5.1-4.3v-14.9l-11.1-12.5
				l11.1-2.2v-22.4l-6.3,1.3l5.3-16.6l1,1.1v-21.8H92.3 M104.5,129.4l-2.2-10.6l10.3,3.5L104.5,129.4z"/>
		</g>
	</g>
</g>
<g transform="matrix( 1, 0, 0, 1, 0,0) ">
	<g>
		<g id="Layer0_35_FILL">
			<path class="st1" d="M168.8,224.5l1.9,2.2H184l1.9-5.7L168.8,224.5 M226.8,207.5v-6.2l-5.1,4.3L226.8,207.5 M113.4,201.3v6.2
				l11.1,4.3l-2.8-17.3L113.4,201.3 M119.5,170.4l-6.1,1.2v14.6l0.5,0.6L119.5,170.4 M124,147l-10.6-11.8v14.1L124,147 M226.8,149.3
				v-14.2l-1-1.1l-5.3,16.6L226.8,149.3 M226.8,171.7l-11.1,2.2l11.1,12.5V171.7 M180.3,124.1l3.7-10.8h-13.3L180.3,124.1
				 M206,203.9l-7.6,15.7l17.4-1.2L206,203.9 M153.8,225.7l5.5-16.5l-17.1,3.5L153.8,225.7 M165.3,184.8l10.7,0.5l-4.9-9.7
				L165.3,184.8 M168.9,199l-6,9l10.8,0.6L168.9,199 M191.1,203.6l-9.7,4.9l9.1,5.9L191.1,203.6 M195.8,190.9l-14.8-9.3l-0.5,17.4
				L195.8,190.9 M212.9,186.2l-9.7,4.8l9,6L212.9,186.2 M142,180.4l1.3,17.4l14.4-9.8L142,180.4 M139,215.2l-10.3-3.5l2.2,10.6
				L139,215.2 M137.6,181.9l-10.6,2.2l7.2,8.1L137.6,181.9 M128.9,155.1l-0.6,17.4l15.3-8.1L128.9,155.1 M133.4,149l4.6-9.8
				l-10.9,1.1L133.4,149 M129.8,131.4l8.7-15.1h-17.4L129.8,131.4 M226,122.3l-10.3-3.5l2.2,10.6L226,122.3 M206.5,138.6l-9.7,5
				l8.9,5.8L206.5,138.6 M181.5,151.2l8.7-15.1h-17.4L181.5,151.2 M209.1,160.5L192,164l11.5,13L209.1,160.5 M185.5,171.1l0.7-10.8
				l-9.7,4.9L185.5,171.1 M151.5,150.5l5.6-16.5l-17.1,3.5L151.5,150.5 M167.2,140.3l-5.9,9l10.8,0.6L167.2,140.3 M155.3,171.7
				l17.5-0.6l-9.3-14.8L155.3,171.7 M146.4,117.8l2.2,10.6l8.1-7.2L146.4,117.8 M206.8,117.5l-12.4,12.2l16.7,4.6L206.8,117.5z"/>
			<path class="st3" d="M184,113.3l-3.7,10.8l-9.6-10.8h-57.3v21.9L124,147l-10.6,2.3v22.4l6.1-1.2l-5.6,16.5l-0.5-0.6v15l8.2-6.8
				l2.8,17.3l-11.1-4.3v19.2h57.3l-1.9-2.2l17.1-3.5l-1.9,5.7h42.8v-19.2l-5.1-1.9l5.1-4.3v-14.9l-11.1-12.5l11.1-2.2v-22.4
				l-6.3,1.3l5.3-16.6l1,1.1v-21.8H184 M194.4,129.7l12.4-12.2l4.3,16.8L194.4,129.7 M148.6,128.4l-2.2-10.6l10.3,3.5L148.6,128.4
				 M172.7,171.1l-17.5,0.6l8.1-15.4L172.7,171.1 M161.2,149.3l5.9-9l4.9,9.7L161.2,149.3 M157.1,134.1l-5.6,16.5l-11.5-13
				L157.1,134.1 M186.2,160.3l-0.7,10.8l-9-5.9L186.2,160.3 M192,164l17.1-3.5l-5.6,16.5L192,164 M190.2,136.2l-8.7,15.1l-8.7-15.1
				H190.2 M196.8,143.5l9.7-5l-0.7,10.8L196.8,143.5 M215.7,118.8l10.3,3.5l-8.1,7.2L215.7,118.8 M138.5,116.3l-8.7,15.1l-8.7-15.1
				H138.5 M138,139.2l-4.6,9.8l-6.3-8.8L138,139.2 M128.3,172.6l0.6-17.4l14.7,9.3L128.3,172.6 M126.9,184.1l10.6-2.2l-3.5,10.3
				L126.9,184.1 M128.7,211.8l10.3,3.5l-8.1,7.2L128.7,211.8 M143.3,197.7l-1.3-17.4l15.7,7.5L143.3,197.7 M203.1,191l9.7-4.8
				l-0.7,10.8L203.1,191 M181,181.6l14.8,9.3l-15.3,8.1L181,181.6 M181.3,208.4l9.7-4.9l-0.6,10.8L181.3,208.4 M162.9,208.1l6-9
				l4.8,9.7L162.9,208.1 M176,185.3l-10.7-0.5l5.8-9.1L176,185.3 M159.3,209.2l-5.5,16.5l-11.6-13L159.3,209.2 M198.3,219.6
				l7.6-15.7l9.7,14.4L198.3,219.6z"/>
		</g>
	</g>
</g>
<path class="st1" d="M226.8,201.3v6.2l11.1,4.3l-2.8-17.3L226.8,201.3 M240.3,184.1l3.7,4.2c-0.1-0.8-0.2-1.7-0.3-2.5
	c-0.1-0.8-0.1-1.6,0-2.4L240.3,184.1 M251.9,215.7c0-0.2,0-0.4,0-0.5l-9.8-3.4l2.2,10.6L251.9,215.7 M248.6,168.9
	c0.4-0.6,0.7-1.3,1-1.9c0.9-1.9,1.6-4,2-6l-9.3-5.8l-0.6,17.4L248.6,168.9 M232.9,170.4l-6.1,1.2v14.6l0.5,0.6L232.9,170.4
	 M226.8,135.2v14.1l10.6-2.3L226.8,135.2 M246.8,149l2.3-4.9c-0.4-0.8-0.8-1.7-1.2-2.5c-0.4-0.6-0.8-1.3-1.2-2l-6.2,0.6L246.8,149
	 M243.2,131.4l0.7-1.2c-0.2-1.6-0.2-3.2,0-4.8c0.1-0.6,0.1-1.3,0.3-2c0.4-2.3,1.2-4.7,2.2-7.1h-11.9L243.2,131.4z"/>
<path class="st2" d="M243.9,125.5c-0.2,1.6-0.2,3.2,0,4.8c0.3,3.2,1.2,6.3,2.8,9.4c0.4,0.7,0.7,1.4,1.2,2c0.5,0.8,0.9,1.7,1.2,2.5
	c0.7,1.5,1.3,3,1.8,4.5c1.2,4.3,1.5,8.4,0.7,12.3c-0.4,2.1-1.1,4.1-2,6c-0.3,0.6-0.6,1.3-1,1.9c-0.2,0.4-0.5,0.7-0.7,1.1
	c-1.4,2.6-2.5,5.2-3.2,7.8c-0.5,1.8-0.8,3.7-0.9,5.6c-0.1,0.8-0.1,1.6,0,2.4c0.1,0.8,0.1,1.7,0.3,2.5c0.3,2.3,1,4.6,2,6.8
	c0.5,1.1,1.1,2.2,1.8,3.3c0.8,1.5,1.5,3,2.1,4.5c1.7,4.2,2.3,8.3,1.9,12.3c0,0.2,0,0.4,0,0.5c-0.5,3.8-1.8,7.4-4.1,11h5.5
	c1.7-4.4,2.5-8.9,2.6-13.6c0-0.1,0-0.2,0-0.4c-0.1-4.7-0.9-9.4-2.6-14.3c-1.6-4.1-2.4-8.4-2.5-12.8c-0.1-1.2,0-2.4,0.1-3.6
	c0.1-0.9,0.1-1.7,0.3-2.6c0.4-3,1.1-6.1,2.1-9.3c0.2-0.6,0.5-1.2,0.7-1.8c0.3-0.9,0.6-1.8,0.8-2.7c0.2-0.7,0.3-1.4,0.4-2.2
	c0.8-4.4,0.8-8.9,0.1-13.5c-0.4-2.7-1.1-5.4-2-8.1c-1.2-3.2-2-6.4-2.3-9.7c-0.1-0.8-0.2-1.7-0.2-2.5c-0.2-5.2,0.6-10.6,2.5-16.1
	h-5.5c-0.5,1-1,2-1.5,3c-1.1,2.4-1.8,4.8-2.2,7.1C244,124.1,243.9,124.8,243.9,125.5z"/>
<path class="st3" d="M243.9,130.2l-0.7,1.2l-8.7-15.1h11.9c0.5-1,1-2,1.5-3h-21.1v21.9l10.6,11.8l-10.6,2.3v22.4l6.1-1.2l-5.6,16.5
	l-0.5-0.6v15l8.2-6.8l2.8,17.3l-11.1-4.3v19.2h21.1c2.2-3.5,3.6-7.2,4.1-11l-7.6,6.7l-2.2-10.6l9.8,3.4c0.4-4-0.3-8.1-1.9-12.3
	c-0.6-1.5-1.3-3-2.1-4.5c-0.7-1.1-1.3-2.2-1.8-3.3c-1.1-2.2-1.7-4.5-2-6.8l-3.7-4.2l3.5-0.7c0.1-1.9,0.4-3.7,0.9-5.6
	c0.7-2.6,1.8-5.2,3.2-7.8c0.2-0.4,0.5-0.7,0.7-1.1l-6.9,3.6l0.6-17.4l9.3,5.8c0.8-4,0.5-8.1-0.7-12.3c-0.5-1.5-1.1-3-1.8-4.5
	l-2.3,4.9l-6.3-8.8l6.2-0.6C245.1,136.6,244.2,133.4,243.9,130.2z"/>
<path class="st4" d="M257.4,113.3h-4.1c-1.8,5.5-2.7,10.9-2.5,16.1c0,0.8,0.1,1.7,0.2,2.5c0.3,3.3,1.1,6.6,2.3,9.7
	c0.9,2.8,1.6,5.5,2,8.1c0.7,4.7,0.7,9.2-0.1,13.5c-0.1,0.8-0.3,1.5-0.4,2.2c-0.2,0.9-0.5,1.8-0.8,2.7c-0.2,0.6-0.5,1.2-0.7,1.8
	c-1.1,3.2-1.8,6.3-2.1,9.3c-0.1,0.8-0.2,1.7-0.3,2.6c-0.1,1.2-0.1,2.4-0.1,3.6c0.1,4.4,0.9,8.7,2.5,12.8c1.7,4.9,2.5,9.7,2.6,14.3
	c0,0.1,0,0.2,0,0.4c-0.1,4.7-0.9,9.3-2.6,13.6h4.1c1.7-2.6,2.8-5.3,3.5-8c0.5-2,0.7-4,0.7-6c0-0.4,0-0.8,0-1.2
	c-0.2-2.8-0.9-5.5-1.9-8.3c-0.6-1.6-1.4-3.2-2.3-4.9c-0.2-0.2-0.3-0.5-0.4-0.8c-0.1-0.2-0.2-0.3-0.3-0.4c-2.8-4.9-3.9-9.9-3.3-15.1
	c0-0.4,0-0.7,0.1-1c0.5-3.5,1.8-7.2,3.9-11c0.2-0.2,0.4-0.5,0.5-0.8c1.1-1.8,1.9-3.7,2.5-5.5l0.8-2.9c0.5-3.1,0.5-6.2-0.1-9.5
	c-0.6-2.8-1.6-5.6-3.1-8.5c-0.2-0.4-0.4-0.8-0.6-1.2c-0.9-1.5-1.7-3-2.3-4.5c-0.3-0.8-0.6-1.5-0.8-2.3c-0.8-2.6-1.2-5.3-1-8
	C253.5,122.5,254.9,117.9,257.4,113.3z"/>
<path class="st5" d="M340.2,113.3h-82.7c-2.5,4.6-3.9,9.1-4.1,13.5c-0.2,2.7,0.1,5.4,1,8c0.2,0.8,0.5,1.5,0.8,2.3
	c0.6,1.5,1.4,3,2.3,4.5c0.2,0.4,0.4,0.7,0.6,1.2c1.5,2.9,2.5,5.7,3.1,8.5c0.6,3.2,0.6,6.4,0.1,9.5l-0.8,2.9
	c-0.6,1.8-1.4,3.7-2.5,5.5c-0.2,0.3-0.4,0.6-0.5,0.8c-2.1,3.8-3.4,7.4-3.9,11c-0.1,0.3-0.1,0.6-0.1,1c-0.6,5.2,0.5,10.2,3.3,15.1
	c0.1,0.1,0.1,0.3,0.3,0.4c0.1,0.3,0.3,0.6,0.4,0.8c0.9,1.7,1.7,3.3,2.3,4.9c1,2.8,1.6,5.5,1.9,8.3c0,0.4,0,0.7,0,1.2
	c0,2-0.2,4-0.7,6c-0.6,2.7-1.8,5.4-3.5,8h82.7"/>
<polygon class="st5" points="342.5,342.5 340.2,226.7 226.6,340.2 "/>
</svg>
