<?xml version="1.0" encoding="utf-8"?>
<!-- Generator: Adobe Illustrator 22.1.0, SVG Export Plug-In . SVG Version: 6.00 Build 0)  -->
<svg version="1.1" id="Layer_1" xmlns="http://www.w3.org/2000/svg" xmlns:xlink="http://www.w3.org/1999/xlink" x="0px" y="0px"
	 viewBox="0 0 64 64" style="enable-background:new 0 0 64 64;" xml:space="preserve">
<style type="text/css">
	.st0{fill:#2CC46C;}
	.st1{fill:#2ECC71;}
</style>
<g transform="matrix( 1, 0, 0, 1, 0,0) ">
	<g>
		<g id="Layer0_243_FILL">
			<path class="st0" d="M31.3,62.7l1.1,1.3h7.5l1.1-3.2L31.3,62.7 M0,49.6v3.5l6.3,2.4l-1.6-9.8L0,49.6 M3.4,32.2L0,33v8.3l0.3,0.3
				L3.4,32.2 M0,12.4v7.9L6,19L0,12.4 M57.8,34.2l6.3,7V33L57.8,34.2 M64,53.1v-3.5L61.1,52L64,53.1 M64,20.3v-8l-0.6-0.6l-3,9.3
				L64,20.3 M32.3,0l5.4,6.1L39.8,0H32.3 M15,13.6l6.5,7.4l3.2-9.3L15,13.6 M25.9,54.1l-9.7,2l6.6,7.4L25.9,54.1 M38.2,38.5
				l-0.3,9.9l8.7-4.6L38.2,38.5 M29.3,40.4l6,0.3l-2.8-5.4L29.3,40.4 M31.3,48.4l-3.4,5.1l6.1,0.4L31.3,48.4 M14.4,57.5l-5.8-1.9
				l1.3,6L14.4,57.5 M11.7,44.5l2-5.8l-6,1.3L11.7,44.5 M16.2,37.9l0.8,9.8l8.1-5.5L16.2,37.9 M8.8,23.6l-0.3,9.9l8.7-4.6L8.8,23.6
				 M11.3,20.1l2.6-5.5l-6.2,0.6L11.3,20.1 M33.5,32.6l-5.3-8.4L23.7,33L33.5,32.6 M33.6,12.9l4.9,8.5l4.9-8.5H33.6 M30.3,15.2
				L27,20.3l6.1,0.4L30.3,15.2 M50.7,43.9l5.1,3.4l0.4-6.1L50.7,43.9 M52.3,51.1L47.9,60l9.8-0.7L52.3,51.1 M43.5,57l0.3-6.1
				l-5.5,2.8L43.5,57 M47.1,17l5.1,3.3l0.4-6.1L47.1,17 M40.7,32.6l0.4-6.1l-5.5,2.8L40.7,32.6 M50.9,36l3.2-9.3l-9.7,2L50.9,36
				 M57.8,3.1l1.3,6L63.6,5L57.8,3.1 M55.2,11.9l-2.5-9.5l-7,6.9L55.2,11.9 M14.2,1.7H4.3l4.9,8.5L14.2,1.7 M24.4,4.5l-5.8-2l1.3,6
				L24.4,4.5z"/>
			<path class="st1" d="M32.3,0H0v12.4L6,19l-6,1.3V33l3.4-0.7l-3.1,9.3L0,41.2v8.4l4.7-3.9l1.6,9.8L0,53.1V64h32.3l-1.1-1.3l9.7-2
				L39.8,64H64V53.1L61.1,52l2.9-2.4v-8.4l-6.3-7L64,33V20.3L60.4,21l3-9.3l0.6,0.6V0H39.8l-2.1,6.1L32.3,0 M18.7,2.5l5.8,2l-4.5,4
				L18.7,2.5 M4.3,1.7h9.8l-4.9,8.5L4.3,1.7 M52.7,2.4l2.5,9.5l-9.5-2.6L52.7,2.4 M59,9.1l-1.3-6L63.6,5L59,9.1 M54.1,26.6L50.9,36
				l-6.5-7.4L54.1,26.6 M41.1,26.5l-0.4,6.1l-5.1-3.4L41.1,26.5 M52.2,20.4L47.1,17l5.5-2.8L52.2,20.4 M43.8,51L43.5,57l-5.2-3.3
				L43.8,51 M47.9,60l4.3-8.9l5.5,8.1L47.9,60 M55.8,47.2l-5.1-3.4l5.5-2.7L55.8,47.2 M27,20.3l3.3-5.1l2.8,5.4L27,20.3 M38.4,21.4
				l-4.9-8.5h9.8L38.4,21.4 M28.3,24.2l5.3,8.4L23.7,33L28.3,24.2 M13.9,14.6l-2.6,5.5l-3.6-4.9L13.9,14.6 M8.4,33.5l0.3-9.9
				l8.3,5.3L8.4,33.5 M16.9,47.6l-0.8-9.8l8.8,4.3L16.9,47.6 M13.7,38.7l-2,5.8l-4-4.5L13.7,38.7 M8.7,55.6l5.8,1.9l-4.5,4.1
				L8.7,55.6 M27.9,53.5l3.4-5.1l2.7,5.5L27.9,53.5 M35.3,40.6l-6-0.3l3.3-5.1L35.3,40.6 M37.8,48.4l0.3-9.9l8.3,5.3L37.8,48.4
				 M16.3,56.1l9.7-2l-3.1,9.3L16.3,56.1 M21.5,21L15,13.6l9.7-1.9L21.5,21z"/>
		</g>
	</g>
</g>
</svg>
