<?xml version="1.0" encoding="utf-8"?>
<!-- Generator: Adobe Illustrator 22.1.0, SVG Export Plug-In . SVG Version: 6.00 Build 0)  -->
<svg version="1.1" id="Layer_1" xmlns="http://www.w3.org/2000/svg" xmlns:xlink="http://www.w3.org/1999/xlink" x="0px" y="0px"
	 viewBox="0 0 340.2 340.2" style="enable-background:new 0 0 340.2 340.2;" xml:space="preserve">
<style type="text/css">
	.st0{fill:#875C30;}
	.st1{fill:#35B66B;}
	.st2{fill:#39C272;}
	.st3{fill:#43CD7D;}
</style>
<path class="st0" d="M25.2,5 M25.2,5H315"/>
<path class="st1" d="M61.7,46.8l-12.8-17l17-12.8l12.8,17L61.7,46.8 M265.7,63.8V42.5H287v21.3H265.7 M299.8,106.8l8.2-19.7
	l19.7,8.2l-8.2,19.7L299.8,106.8 M202.5,119.3l8,19.4l-19.7,8l-8-19.4L202.5,119.3 M243.2,314.9l-31.9-2.7l2.7-31.6l31.9,2.7
	L243.2,314.9 M307.7,183.1l-12.2,29.2l-29.2-12.5l12.2-29.2L307.7,183.1 M119.9,98.1l-31.4-4.8l4.8-31.6l31.4,4.8L119.9,98.1
	 M44.4,291l-11.2-18.1l18.1-11.2l11.2,18.1L44.4,291 M89.3,284.1l20.2,7.2l-7.2,19.9L82.1,304L89.3,284.1"/>
<path class="st2" d="M89.3,284.1L82.1,304l20.2,7.2l7.2-19.9L89.3,284.1 M61.7,46.8l17-12.8L65.9,17l-17,12.8L61.7,46.8 M340.2,0
	v340.2H0V0H340.2 M299.8,106.8l19.7,8.2l8.2-19.7L308,87.2L299.8,106.8 M265.7,63.8H287V42.5h-21.3V63.8 M314.6,277.4l-21.3-1.9
	l-1.9,21.3l21.3,1.9L314.6,277.4 M307.7,183.1l-29.2-12.5l-12.2,29.2l29.2,12.5L307.7,183.1 M243.2,314.9l2.7-31.6l-31.9-2.7
	l-2.7,31.6L243.2,314.9 M202.5,119.3l-19.7,8l8,19.4l19.7-8L202.5,119.3 M166.1,50.2l11.7,17.5l17.8-11.7l-11.7-17.5L166.1,50.2
	 M119.9,98.1l4.8-31.6l-31.4-4.8l-4.8,31.6L119.9,98.1 M30.8,161.8L55.5,182l20.2-24.7L51,137.1L30.8,161.8 M25.8,126.5l15.9-14.1
	L27.4,96.7l-15.9,14.1L25.8,126.5 M44.4,291l18.1-11.2l-11.2-18.1l-18.1,11.2L44.4,291 M179.4,213.4l-29.8,11.2l11.2,30l29.8-11.2
	L179.4,213.4"/>
<path class="st3" d="M179.4,213.4l11.2,30l-29.8,11.2l-11.2-30L179.4,213.4 M314.6,277.4l-1.9,21.3l-21.3-1.9l1.9-21.3L314.6,277.4
	 M166.1,50.2l17.8-11.7l11.7,17.5l-17.8,11.7L166.1,50.2 M25.8,126.5l-14.4-15.7l15.9-14.1l14.4,15.7L25.8,126.5 M30.8,161.8
	L51,137.1l24.7,20.2L55.5,182L30.8,161.8"/>
</svg>
