<?xml version="1.0" encoding="utf-8"?>
<!-- Generator: Adobe Illustrator 22.1.0, SVG Export Plug-In . SVG Version: 6.00 Build 0)  -->
<svg version="1.1" id="Layer_1" xmlns="http://www.w3.org/2000/svg" xmlns:xlink="http://www.w3.org/1999/xlink" x="0px" y="0px"
	 viewBox="0 0 64 64" style="enable-background:new 0 0 64 64;" xml:space="preserve">
<style type="text/css">
	.st0{fill:#C48647;}
	.st1{fill:#B17940;}
	.st2{fill:#BB8044;}
</style>
<g transform="matrix( 1, 0, 0, 1, 0,0) ">
	<g>
		<g id="Layer0_242_FILL">
			<path class="st0" d="M2.1,34.1L0,34.4v5.5l2.7-0.4L2.1,34.1 M61.3,40.2l2.7-0.3v-5.5l-3.3,0.4L61.3,40.2 M8,61.5l-0.8-5.4L1.8,57
				l0.8,5.3L8,61.5 M13.2,45.4L8.6,47l1.6,4.6l4.6-1.5L13.2,45.4 M12.2,42.7l3.2-4.4l-4.4-3.1l-3.2,4.3L12.2,42.7 M3,3.9l2.3,5
				l4.9-2.3L8,1.7L3,3.9 M32.2,48.4l2.2,4.9l5-2.2l-2.3-5L32.2,48.4 M30.7,24l5.4,0.6l0.5-5.4l-5.4-0.6L30.7,24 M53.2,30.2l-1.9,5.1
				l5.2,2l1.9-5.1L53.2,30.2 M46.4,11.6L42,8.5l-3.2,4.4l4.4,3.1L46.4,11.6z"/>
			<path class="st1" d="M0.1,9.2L0.1,9.2l-0.1,8l1.8-0.4L0.1,9.2 M48.8,60.2l-9.6-1.1L38.7,64h9.7L48.8,60.2 M64,9.2L56.5,11
				l1.8,7.6l5.8-1.3V9.2 M47.7,5.7L48.3,0h-9.7l-0.5,4.6L47.7,5.7 M42.8,44.2l2.3,7.4l7.4-2.4l-2.3-7.4L42.8,44.2 M27.2,57.7
				l2.2-9.8l-9.8-2.2l-2.2,9.8L27.2,57.7 M35.3,36.1l-2.4-7.5L25.5,31l2.4,7.5L35.3,36.1 M18.2,31.7l2.5-9.9l-9.8-2.5l-2.5,9.9
				L18.2,31.7 M44.7,29.6l-4.2,3.5l3.5,4.2l4.3-3.4L44.7,29.6 M50.4,27.7l3.8-4l-4-3.8l-3.8,4L50.4,27.7 M60.1,55.5l0.6-5.5
				l-5.4-0.5L54.7,55L60.1,55.5 M26.2,9.2l-6.9-6.4l-6.4,6.9l6.9,6.4L26.2,9.2z"/>
			<path class="st2" d="M48.3,0l-0.7,5.8l-9.5-1.1L38.7,0H0v9.3h0.1l1.8,7.6L0,17.3v17.1l2.1-0.3l0.6,5.4L0,39.9V64h38.7l0.6-4.9
				l9.6,1.1L48.4,64H64V39.9l-2.7,0.3l-0.7-5.4l3.3-0.4V17.3l-5.8,1.3L56.5,11L64,9.2V0H48.3 M42,8.5l4.4,3.2L43.3,16l-4.4-3.1
				L42,8.5 M19.3,2.9l6.9,6.4l-6.3,6.9l-6.9-6.4L19.3,2.9 M60.7,50l-0.6,5.5L54.7,55l0.6-5.5L60.7,50 M54.2,23.8l-3.8,4l-4-3.8
				l3.8-4L54.2,23.8 M51.3,35.3l1.9-5.1l5.1,1.9l-1.9,5.1L51.3,35.3 M40.4,33.1l4.2-3.5l3.5,4.2l-4.3,3.4L40.4,33.1 M36.1,24.6
				L30.7,24l0.5-5.4l5.4,0.6L36.1,24.6 M20.7,21.8l-2.5,9.9l-9.8-2.6l2.5-9.9L20.7,21.8 M32.9,28.6l2.4,7.5l-7.4,2.4L25.5,31
				L32.9,28.6 M29.4,48l-2.2,9.8l-9.7-2.1l2.2-9.8L29.4,48 M34.3,53.3l-2.2-4.9l4.9-2.3l2.3,5L34.3,53.3 M45.1,51.6l-2.3-7.4
				l7.4-2.4l2.3,7.4L45.1,51.6 M5.3,8.9L3,3.9l5-2.2l2.2,4.9L5.3,8.9 M15.3,38.4l-3.2,4.4l-4.4-3.2l3.2-4.3L15.3,38.4 M8.6,47
				l4.6-1.6l1.6,4.6l-4.6,1.5L8.6,47 M7.2,56.1L8,61.5l-5.3,0.8L1.8,57L7.2,56.1z"/>
		</g>
	</g>
</g>
</svg>
