<?xml version="1.0" encoding="utf-8"?>
<!-- Generator: Adobe Illustrator 22.1.0, SVG Export Plug-In . SVG Version: 6.00 Build 0)  -->
<svg version="1.1" id="Layer_1" xmlns="http://www.w3.org/2000/svg" xmlns:xlink="http://www.w3.org/1999/xlink" x="0px" y="0px"
	 viewBox="0 0 64 64" style="enable-background:new 0 0 64 64;" xml:space="preserve">
<style type="text/css">
	.st0{fill:#2CC46C;}
	.st1{fill:#31D978;}
	.st2{fill:#2ECC71;}
	.st3{fill:#B17940;}
	.st4{fill:#BB8044;}
</style>
<g transform="matrix( 1, 0, 0, 1, 0,0) ">
	<g>
		<g id="Layer0_23_FILL">
			<path class="st0" d="M-9-24.8c-0.9,1-1.6,2.2-2,3.5l4.8-0.4l-2.4-3.5C-8.8-25.1-8.9-25-9-24.8 M-2.3-28.7L0-27.9v-1.1
				C-0.8-28.9-1.6-28.9-2.3-28.7z"/>
			<path class="st1" d="M-2.3-28.7c0.8-0.2,1.5-0.2,2.3-0.2V-32c-2,0-3.8,0.3-5.4,0.8c-0.7,0.3-1.4,0.6-2.1,1c-0.5,0.3-1,0.6-1.5,1
				c-0.5,0.4-1,0.8-1.5,1.3c-0.4,0.3-0.7,0.7-1,1.1c-1.5,1.7-2.5,3.6-3,5.8c-0.3,1.3-0.5,2.6-0.5,4.1h3.1c0-1.6,0.3-3,0.8-4.3
				c0.5-1.3,1.1-2.4,2-3.5c0.1-0.2,0.3-0.3,0.4-0.5c0.2-0.2,0.4-0.5,0.7-0.7c0.2-0.2,0.3-0.3,0.5-0.4c1.2-1,2.5-1.7,4-2.1
				C-3.1-28.6-2.8-28.7-2.3-28.7z"/>
			<path class="st2" d="M0-27.9l-2.3-0.9c-0.4,0-0.8,0.1-1.2,0.3c-1.5,0.4-2.8,1.1-4,2.1c-0.2,0.1-0.3,0.3-0.5,0.4
				c-0.2,0.2-0.5,0.4-0.7,0.7l2.4,3.5l-4.8,0.4c-0.5,1.3-0.8,2.8-0.8,4.3H0V-27.9z"/>
			<path class="st3" d="M0-34.3c-2.8-0.1-5.3,0.4-7.5,1.5c-2.1,1-4,2.5-5.7,4.5c-1.8,2.1-3,4.6-3.6,7.4c-0.3,1.2-0.5,2.6-0.5,4h2.3
				c0-1.5,0.2-2.8,0.5-4.1c0.6-2.1,1.6-4,3-5.8c0.3-0.4,0.6-0.7,1-1.1c0.5-0.5,1-0.9,1.5-1.3c0.5-0.4,1-0.7,1.5-1
				c0.7-0.4,1.4-0.7,2.1-1C-3.8-31.8-2-32,0-32V-34.3z"/>
			<path class="st4" d="M0-34.3V-81h-64v64h46.7c0-1.4,0.2-2.7,0.5-4c0.6-2.8,1.8-5.3,3.6-7.4c1.6-2,3.5-3.5,5.7-4.5
				C-5.3-33.9-2.8-34.4,0-34.3z"/>
		</g>
	</g>
</g>
<g transform="matrix( 1, 0, 0, 1, 0,0) ">
	<g>
		<g id="Layer0_24_FILL">
			<path class="st0" d="M6.3-25.5L5.3-31c-1.8,0.3-3.6,1-5.3,2.1v1.1L6.3-25.5 M62.8-28.3l1.2,0.5v-1.1
				C63.6-28.7,63.2-28.5,62.8-28.3 M25.8-26.7c-0.4,0.1-0.9,0.1-1.3,0.2l-8.3,1.6l6.6,7.4L25.8-26.7 M34.1-27.2l-1.1-2.3
				c-0.3,0.1-0.7,0.3-0.9,0.5c-1.1,0.6-2.1,1.1-3.2,1.5L34.1-27.2 M39.8-17l1.1-3.2l-9.7,2l1.1,1.3H39.8 M9.9-19.4l4.5-4l-5.8-2
				L9.9-19.4 M43.5-24l0.3-6.1l-5.5,2.8L43.5-24 M54.4-26.6c-1.2-0.1-2.3-0.4-3.4-0.8L47.9-21l9.8-0.7L54.4-26.6z"/>
			<path class="st2" d="M47.9-21l3.1-6.3c-1-0.4-2.1-0.9-3.1-1.6c-0.6-0.3-1.1-0.6-1.7-0.8c-0.5-0.3-1-0.5-1.5-0.6
				c-2.1-0.7-4.1-1-6.1-0.9c-1.8,0.1-3.5,0.6-5.3,1.5c-0.2,0.1-0.3,0.2-0.5,0.3l1.1,2.3l-5.2-0.3c-0.3,0.1-0.5,0.2-0.8,0.3
				c-0.8,0.2-1.5,0.4-2.3,0.5l-3,9.2l-6.6-7.4l8.3-1.6c-2.2,0.1-4.4-0.3-6.5-1.3c-0.7-0.3-1.4-0.7-2.1-1.1c-1.1-0.6-2.1-1.1-3.2-1.4
				c-1.1-0.4-2.1-0.6-3.2-0.8c-1.4-0.2-2.8-0.2-4.3,0.1l0.9,5.5L0-27.9V-17h32.3l-1.1-1.3l9.7-2L39.8-17H64v-10.8l-1.2-0.5
				c-0.9,0.4-1.7,0.8-2.5,1c-1.9,0.6-3.8,0.8-5.6,0.7c-0.1,0-0.2,0-0.3,0l3.3,4.8L47.9-21 M43.8-30.1L43.5-24l-5.2-3.3L43.8-30.1
				 M14.4-23.5l-4.5,4l-1.3-6L14.4-23.5z"/>
			<path class="st1" d="M32.4-32.2C32.3-32.1,32.1-32,32-32c-0.1,0-0.2,0.1-0.3,0.1c-0.3,0.1-0.7,0.2-1,0.4
				c-0.6,0.1-1.1,0.3-1.7,0.4c-3.6,0.8-7,0.8-10.2,0c-1-0.2-1.9-0.5-2.8-0.8c-0.6-0.2-1.2-0.4-1.8-0.5c-1.8-0.5-3.6-0.8-5.4-0.9
				c-1.3-0.1-2.6,0-3.8,0.2s-2.5,0.4-3.7,0.8C0.9-32.3,0.4-32.2,0-32v3.1C1.7-30,3.5-30.7,5.3-31c1.4-0.3,2.8-0.3,4.3-0.1
				c1.1,0.1,2.1,0.4,3.2,0.8c1.1,0.4,2.1,0.8,3.2,1.4c0.7,0.4,1.3,0.8,2.1,1.1c2.1,0.9,4.3,1.3,6.5,1.3c0.4,0,0.9-0.1,1.3-0.2
				c0.7-0.1,1.5-0.3,2.3-0.5c0.2-0.1,0.5-0.2,0.8-0.3c1-0.4,2.1-0.8,3.2-1.5c0.3-0.2,0.6-0.4,0.9-0.5c0.2-0.1,0.3-0.2,0.5-0.3
				c1.7-0.9,3.5-1.4,5.3-1.5c2-0.2,4,0.1,6.1,0.9c0.5,0.2,1,0.4,1.5,0.6c0.5,0.2,1.1,0.5,1.7,0.8c1,0.6,2,1.2,3.1,1.6
				c1.1,0.4,2.2,0.7,3.4,0.8c0.1,0,0.2,0,0.3,0c1.8,0.1,3.7-0.1,5.6-0.7c0.8-0.3,1.7-0.6,2.5-1c0.4-0.2,0.8-0.4,1.2-0.6V-32
				c-1.3,0.4-2.6,0.8-3.8,1c-1.7,0.3-3.4,0.5-5,0.5c-1.5-0.1-2.9-0.3-4.3-0.6c-1-0.2-1.9-0.5-2.8-0.8c-1.4-0.5-2.7-0.8-4.1-1
				c-1.6-0.3-3.1-0.4-4.5-0.4c-0.5,0-1,0-1.5,0.1c-0.1,0-0.1,0-0.2,0C35.9-33.2,34.1-32.8,32.4-32.2z"/>
			<path class="st3" d="M64-32v-2.3c-4.1,2.3-8,2.9-11.7,1.9c-1.5-0.4-2.9-1-4.3-1.9c-1.3-0.7-2.6-1.3-3.8-1.7
				c-0.4-0.1-0.9-0.3-1.3-0.3c-1.7-0.4-3.3-0.4-4.9-0.2c-2.1,0.3-4.1,1-6,2.2c-0.9,0.5-1.8,0.9-2.7,1.3c-3.6,1.3-7,1.4-10.2,0.3
				c-0.6-0.2-1.3-0.5-1.9-0.8c-0.1-0.1-0.3-0.1-0.3-0.2c-0.3-0.2-0.6-0.3-0.9-0.5c-0.9-0.5-1.8-0.9-2.8-1.3c0,0-0.1,0-0.1,0
				c-4.6-1.7-9-1.3-13.2,1.3v2.3c0.4-0.2,0.9-0.3,1.3-0.5c1.2-0.4,2.4-0.6,3.7-0.8s2.5-0.2,3.8-0.2c1.8,0.1,3.6,0.4,5.4,0.9
				c0.6,0.1,1.2,0.3,1.8,0.5c0.9,0.3,1.8,0.6,2.8,0.8c3.2,0.8,6.6,0.8,10.2,0c0.6-0.1,1.1-0.3,1.7-0.4c0.3-0.1,0.7-0.3,1-0.4
				c0.1,0,0.2-0.1,0.3-0.1c0.1,0,0.3-0.1,0.4-0.2c1.7-0.6,3.5-1,5.3-1.2c0,0,0.1,0,0.2,0c0.5,0,1-0.1,1.5-0.1c1.5,0,3,0.1,4.5,0.4
				c1.3,0.2,2.7,0.6,4.1,1c0.9,0.3,1.8,0.6,2.8,0.8c1.4,0.3,2.8,0.5,4.3,0.6c1.6,0,3.3-0.1,5-0.5C61.4-31.2,62.7-31.6,64-32z"/>
			<path class="st4" d="M64-34.3V-81H0v46.7c4.1-2.6,8.5-3,13.2-1.3c0,0,0.1,0,0.1,0c0.9,0.4,1.8,0.8,2.8,1.3
				c0.3,0.2,0.6,0.3,0.9,0.5c0.1,0.1,0.2,0.1,0.3,0.2c0.6,0.3,1.3,0.6,1.9,0.8c3.2,1.2,6.6,1.1,10.2-0.3c0.9-0.4,1.8-0.8,2.7-1.3
				c1.9-1.2,3.9-1.9,6-2.2c1.6-0.2,3.2-0.2,4.9,0.2c0.4,0.1,0.9,0.2,1.3,0.3c1.2,0.4,2.5,0.9,3.8,1.7c1.4,0.9,2.8,1.5,4.3,1.9
				C56-31.4,59.9-32,64-34.3z"/>
		</g>
	</g>
</g>
<path class="st0" d="M75.4-20.7c-0.5-1.5-1.2-2.9-2.3-4.1c-0.1-0.1-0.3-0.3-0.4-0.4l1.2,5.8L75.4-20.7 M70.3-25.5l-0.3-2
	c-1.7-1-3.7-1.5-5.9-1.5v1.1L70.3-25.5z"/>
<path class="st2" d="M69.9-27.5l0.3,2L64-27.9V-17h11.9c0-1.3-0.2-2.5-0.5-3.7l-1.5,1.3l-1.2-5.8c-0.4-0.4-0.8-0.8-1.2-1.1
	C71-26.8,70.5-27.2,69.9-27.5z"/>
<path class="st1" d="M64.8-32c-0.3,0-0.5,0-0.8,0v3.1c2.2-0.1,4.2,0.4,5.9,1.5c0.5,0.3,1.1,0.7,1.6,1.1c0.4,0.3,0.8,0.7,1.2,1.1
	c0.1,0.1,0.2,0.3,0.4,0.4c1.1,1.2,1.8,2.6,2.3,4.1c0.3,1.1,0.5,2.4,0.5,3.7H79c0-2.1-0.4-4.1-1.1-5.9c-0.1-0.3-0.3-0.6-0.4-0.9
	c-0.5-1.1-1.2-2.1-2.1-3c-1.2-1.4-2.5-2.5-3.9-3.4c-0.7-0.4-1.4-0.7-2.2-1C67.9-31.7,66.4-32,64.8-32z"/>
<path class="st3" d="M67.3-34.1c-1.1-0.2-2.2-0.2-3.3-0.2v2.3c0.3,0,0.5,0,0.8,0c1.6,0,3.1,0.3,4.5,0.8c0.8,0.3,1.5,0.6,2.2,1
	c1.4,0.8,2.7,2,3.9,3.4c0.8,0.9,1.5,2,2.1,3c0.1,0.3,0.3,0.6,0.4,0.9c0.7,1.8,1.1,3.8,1.1,5.9h2.3c-0.1-4.4-1.5-8.2-4.2-11.3
	c-0.5-0.6-1-1.1-1.5-1.6c-0.7-0.7-1.5-1.3-2.3-1.8c-0.6-0.4-1.3-0.8-1.9-1c-0.8-0.4-1.7-0.7-2.6-1C68.4-33.9,67.8-34,67.3-34.1z"/>
<path class="st4" d="M128-81H64v46.7c1.1,0,2.2,0,3.3,0.2c0.5,0.1,1.1,0.2,1.6,0.3c0.9,0.2,1.8,0.5,2.6,1c0.6,0.3,1.3,0.7,1.9,1
	c0.8,0.5,1.5,1.1,2.3,1.8c0.5,0.5,1,1,1.5,1.6c2.7,3.1,4.1,6.9,4.2,11.3H128"/>
<path class="st3" d="M65.4,62c-0.5,0-0.9,0-1.4,0v2.3c1.5,0,2.8-0.1,4.1-0.4c1.2-0.3,2.3-0.6,3.4-1.1c0.2-0.1,0.3-0.1,0.5-0.3
	c0.3-0.1,0.6-0.3,0.9-0.4c1.6-1,3-2.2,4.3-3.8c0.2-0.3,0.4-0.5,0.7-0.8c1-1.3,1.7-2.7,2.3-4.2c0.7-2,1.1-4.1,1.2-6.4H79
	c-0.1,3.9-1.3,7.2-3.6,9.9c-1.2,1.4-2.5,2.5-3.9,3.3c-1.6,0.9-3.3,1.5-5.1,1.8C66,61.9,65.7,62,65.4,62z"/>
<path class="st2" d="M75.8,48.7c0.1-0.5,0.1-1.1,0.1-1.7H64v11.9c0.2,0,0.5,0,0.7,0c2.6-0.1,4.9-0.9,6.8-2.5
	c0.3-0.2,0.6-0.5,0.9-0.8c0.2-0.2,0.5-0.5,0.7-0.8c0.3-0.3,0.6-0.7,0.8-1.1c0.1-0.1,0.2-0.3,0.3-0.4C75,52,75.5,50.4,75.8,48.7z"/>
<path class="st1" d="M75.9,47c0,0.6-0.1,1.2-0.1,1.7c-0.2,1.7-0.8,3.3-1.6,4.7c-0.1,0.1-0.2,0.2-0.3,0.4c-0.2,0.4-0.5,0.7-0.8,1.1
	c-0.2,0.3-0.5,0.6-0.7,0.8c-0.3,0.3-0.6,0.5-0.9,0.8c-1.9,1.6-4.2,2.5-6.8,2.5c-0.2,0-0.5,0-0.7,0V62c0.5,0,0.9,0,1.4,0
	c0.3,0,0.6-0.1,1-0.1c1.9-0.2,3.6-0.8,5.1-1.8c1.4-0.8,2.7-1.9,3.9-3.3c2.3-2.7,3.5-6,3.6-9.9H75.9z"/>
<path class="st4" d="M128,47H81.3c-0.1,2.3-0.5,4.4-1.2,6.4c-0.6,1.5-1.3,2.9-2.3,4.2c-0.2,0.2-0.4,0.5-0.7,0.8
	c-1.3,1.5-2.7,2.8-4.3,3.8c-0.3,0.2-0.6,0.3-0.9,0.4c-0.2,0.1-0.3,0.2-0.5,0.3c-1.1,0.5-2.2,0.9-3.4,1.1c-1.3,0.3-2.7,0.4-4.1,0.4
	V111"/>
<path class="st0" d="M50.6,57.6c1.3-0.5,2.7-0.9,4-1l-1.9-7.3l-7,6.9L50.6,57.6 M42.8,60.9l0.6-1.1h-9.5c2.2,1,4.5,1.5,6.8,1.4
	C41.3,61.2,42,61.1,42.8,60.9 M37.8,53.1l2.1-6.1h-7.5L37.8,53.1 M24.4,51.4l-5.8-1.9l1.3,6L24.4,51.4 M63.6,52l-5.8-1.9l1.3,6
	L63.6,52 M4.3,48.7l4.9,8.5l4.9-8.5H4.3z"/>
<path class="st2" d="M0,58.9c0.3,0.2,0.5,0.3,0.8,0.5c4.6,2.6,9.5,2.5,14.8-0.3c0.1-0.1,0.3-0.1,0.4-0.3c3.1-2,6.4-2.7,9.8-2.2
	c2,0.3,4.1,1,6.2,2.2c0.6,0.4,1.2,0.7,1.8,1h9.5l-0.6,1.1c0.9-0.2,1.7-0.5,2.6-0.8c0.9-0.3,1.8-0.8,2.7-1.3c0.8-0.5,1.7-1,2.6-1.3
	l-4.9-1.4l7-6.9l1.9,7.3c1.8-0.2,3.6,0,5.5,0.6c1.3,0.4,2.6,1,3.9,1.7V47H39.8l-2.1,6.1L32.3,47H0V58.9 M9.3,57.2l-4.9-8.5h9.8
	L9.3,57.2 M57.8,50.1l5.8,1.9L59,56.1L57.8,50.1 M18.7,49.5l5.8,1.9l-4.5,4.1L18.7,49.5z"/>
<path class="st4" d="M64,111V64.3c-0.7-0.4-1.3-0.7-2-1c-1.6-0.6-3.1-1.1-4.6-1.3c-1.7-0.2-3.3-0.1-4.9,0.3c-1.5,0.4-3,1-4.5,2
	c-0.1,0.1-0.2,0.1-0.3,0.1c-2.9,1.5-5.6,2.3-8.3,2.3c-0.7,0-1.4-0.1-2.1-0.3c-0.3,0-0.5-0.1-0.8-0.1c-0.2-0.1-0.3-0.1-0.4-0.2
	c-1.4-0.4-2.8-1-4.2-1.8c-0.3-0.1-0.5-0.3-0.8-0.4c-0.5-0.3-1-0.5-1.5-0.7c-2.1-0.9-4.1-1.3-6.1-1.2c-1,0-2,0.1-2.9,0.4
	c-0.4,0.1-0.9,0.2-1.3,0.3c-0.6,0.2-1.3,0.5-1.8,0.8c-0.5,0.3-1,0.6-1.5,0.9c-1.4,0.8-2.8,1.4-4.2,1.8c-0.3,0.1-0.6,0.1-0.9,0.2
	c0,0-0.1,0-0.1,0c0,0-0.1,0-0.1,0.1c-2.1,0.4-4.1,0.4-6.1-0.1c-1.6-0.4-3.2-1-4.7-2V111"/>
<path class="st3" d="M0,62v2.3c1.5,1,3,1.6,4.7,2c2,0.5,4,0.5,6.1,0.1c0,0,0.1-0.1,0.1-0.1c0,0,0.1,0,0.1,0c0.3-0.1,0.6-0.1,0.9-0.2
	c1.4-0.4,2.8-1,4.2-1.8c0.5-0.3,1-0.6,1.5-0.9c0.6-0.3,1.2-0.5,1.8-0.8c0.4-0.2,0.9-0.3,1.3-0.3c0.9-0.2,1.9-0.4,2.9-0.4
	c2-0.1,4,0.3,6.1,1.2c0.5,0.2,1,0.4,1.5,0.7c0.3,0.1,0.5,0.3,0.8,0.4c1.3,0.8,2.7,1.4,4.2,1.8c0.1,0,0.3,0.1,0.4,0.2
	c0.2,0.1,0.5,0.1,0.8,0.1c0.7,0.1,1.4,0.2,2.1,0.3c2.7,0,5.4-0.7,8.3-2.3c0.1,0,0.2-0.1,0.3-0.1c1.5-0.9,3-1.6,4.5-2
	c1.6-0.4,3.3-0.5,4.9-0.3c1.5,0.2,3,0.6,4.6,1.3c0.7,0.3,1.3,0.6,2,1V62c-0.5-0.2-1-0.3-1.4-0.4c-1.9-0.5-3.7-0.8-5.5-0.9
	c-3.2-0.2-6.2,0.3-9.1,1.4c-2.3,0.8-4.5,1.2-6.7,1.4c-2.1,0.1-4.1,0-6-0.4c-1.1-0.2-2.3-0.6-3.3-1c-2.8-0.9-5.4-1.4-8-1.4
	c-0.6,0-1.2,0-1.8,0c-1.5,0.1-2.9,0.4-4.3,0.8c-0.6,0.2-1.2,0.4-1.8,0.6c-0.1,0-0.1,0-0.2,0.1c-0.9,0.3-1.8,0.6-2.7,0.8
	c-1.6,0.4-3.2,0.6-4.7,0.6C6.8,63.5,5,63.3,3.3,63c-0.6-0.1-1.2-0.3-1.8-0.4C1,62.4,0.5,62.2,0,62z"/>
<path class="st1" d="M0,58.9V62c0.5,0.2,1,0.4,1.6,0.6c0.6,0.2,1.2,0.3,1.8,0.4c1.7,0.3,3.5,0.5,5.3,0.4c1.5-0.1,3.1-0.3,4.7-0.6
	c0.9-0.2,1.8-0.4,2.7-0.8c0,0,0.1-0.1,0.2-0.1c0.6-0.2,1.2-0.4,1.8-0.6c1.4-0.4,2.8-0.6,4.3-0.8c0.6,0,1.2,0,1.8,0
	c2.6,0,5.2,0.5,8,1.4c1.1,0.4,2.2,0.8,3.3,1c1.9,0.4,3.9,0.5,6,0.4c2.2-0.2,4.4-0.6,6.7-1.4c2.9-1.1,5.9-1.6,9.1-1.4
	c1.8,0.1,3.6,0.4,5.5,0.9c0.5,0.1,0.9,0.3,1.4,0.4v-3.1c-1.3-0.7-2.7-1.3-3.9-1.7c-1.9-0.6-3.7-0.8-5.5-0.6c-1.4,0.1-2.8,0.5-4,1
	c-0.9,0.3-1.7,0.8-2.6,1.3c-0.9,0.5-1.8,0.9-2.7,1.3c-0.9,0.3-1.7,0.6-2.6,0.8c-0.7,0.1-1.4,0.2-2.1,0.3c-2.3,0.1-4.6-0.3-6.8-1.4
	c-0.6-0.3-1.3-0.6-1.8-1c-2.1-1.2-4.2-1.9-6.2-2.2c-3.4-0.5-6.7,0.2-9.8,2.2c-0.2,0.1-0.3,0.2-0.4,0.3C10.3,61.9,5.4,62,0.8,59.4
	C0.5,59.2,0.3,59.1,0,58.9z"/>
<path class="st0" d="M-0.6,58.9c0.1,0,0.1,0,0.3,0l-0.2-0.2L-0.6,58.9 M-11.3,49.4l-0.3,0.3c0.3,1.2,0.7,2.3,1.3,3.3L-11.3,49.4
	 M-6.3,50.1l1.3,6l4.5-4.1L-6.3,50.1z"/>
<path class="st3" d="M-16.3,52.7c0.1,0.4,0.3,0.8,0.4,1.1c0.5,1.3,1.2,2.5,2.1,3.6c0.2,0.3,0.5,0.6,0.7,0.9c1.6,2,3.5,3.4,5.7,4.4
	c0.4,0.2,0.8,0.4,1.3,0.6c1.2,0.5,2.5,0.8,4,0.9c0.7,0.1,1.5,0.1,2.3,0.1V62c-0.5,0-1.1,0-1.6,0c-1.9-0.2-3.7-0.7-5.3-1.5
	c-0.2-0.1-0.4-0.2-0.6-0.3c-0.8-0.4-1.5-0.9-2.2-1.6c-0.6-0.5-1.2-1.1-1.8-1.8c-1.2-1.4-2.1-3-2.7-4.7c-0.6-1.6-0.9-3.3-0.9-5.1
	h-2.3C-17.3,49.1-16.9,51-16.3,52.7z"/>
<path class="st4" d="M0,111V64.3c-0.8,0-1.6,0-2.3-0.1c-1.4-0.1-2.7-0.4-4-0.9c-0.4-0.2-0.9-0.4-1.3-0.6c-2.1-1-4-2.5-5.7-4.4
	c-0.2-0.3-0.5-0.6-0.7-0.9c-0.8-1.1-1.5-2.3-2.1-3.6c-0.1-0.4-0.3-0.8-0.4-1.1c-0.6-1.8-1-3.7-1-5.8H-64v64"/>
<path class="st2" d="M-10.3,52.9c0.4,0.7,0.8,1.3,1.3,1.9s1,1.1,1.5,1.6c0.6,0.5,1.2,0.9,1.8,1.3c1.5,0.8,3.2,1.2,5.1,1.3l0-0.2
	l0.2,0.2c0.1,0,0.2,0,0.3,0V47h-11.9c0,0.9,0.1,1.8,0.3,2.6l0.3-0.3L-10.3,52.9 M-5,56.1l-1.3-6l5.8,1.9L-5,56.1z"/>
<path class="st1" d="M-9,54.8c-0.5-0.6-0.9-1.2-1.3-1.9c-0.6-1-1-2.1-1.3-3.3c-0.2-0.8-0.3-1.7-0.3-2.6H-15c0,1.8,0.3,3.6,0.9,5.1
	c0.6,1.7,1.5,3.3,2.7,4.7c0.5,0.7,1.1,1.3,1.8,1.8c0.7,0.6,1.4,1.1,2.2,1.6c0.2,0.1,0.4,0.2,0.6,0.3c1.6,0.8,3.4,1.3,5.3,1.5
	c0.5,0,1.1,0,1.6,0v-3.1c-0.1,0-0.3,0-0.3,0c-0.1,0-0.2,0-0.3,0c-1.9-0.1-3.6-0.5-5.1-1.3c-0.7-0.3-1.3-0.8-1.8-1.3
	C-8,55.9-8.5,55.4-9,54.8z"/>
<g transform="matrix( 1, 0, 0, 1, 0,0) ">
	<g>
		<g id="Layer0_34_FILL">
			<path class="st0" d="M-6.3,42.3l-5.5-8.2l-2.5,5.2c0,1.2,0.2,2.3,0.5,3.5L-6.3,42.3 M-9.7,25c-0.2,1.2-0.5,2.4-1,3.6l2.4,1.6
				l0.4-6.1L-9.7,25 M0,36.1v-3.5L-2.9,35L0,36.1 M0,15.9l-6.3,1.2L0,24.2V15.9 M0,3.3v-8l-0.5-0.6l-3,9.4L0,3.3 M-13.8,10.4
				L-13.8,10.4c0.4,1.6,1,3.1,1.9,4.6c0,0.1,0.1,0.1,0.1,0.2l1.8-5.5L-13.8,10.4 M-13.3,2.3l1.5,1l0.3-4.9c-0.1,0.2-0.3,0.4-0.4,0.6
				C-12.5,0.1-13,1.2-13.3,2.3 M-10-5.5l1.1,0.3L-9.5-8C-9.6-7.1-9.8-6.3-10-5.5 M-6.3-13.9l1.3,6l4.5-4L-6.3-13.9z"/>
			<path class="st4" d="M-16-14.1c-0.4-1-0.8-1.9-1.3-2.9H-64v64h46.7c-0.9-1.4-1.5-2.8-1.9-4.3c-0.7-2.6-0.6-5.3,0.3-8.1
				c0.4-1.2,0.9-2.4,1.6-3.7c1.2-1.8,1.9-3.7,2.2-5.7c0.4-2.6,0-5.3-1.2-8.1c-0.3-0.6-0.5-1.3-0.8-1.9c-0.1-0.1-0.1-0.2-0.2-0.3
				c-0.4-0.7-0.8-1.3-1.1-2.1c-0.2-0.5-0.4-1-0.5-1.4c-1.3-4-0.8-8.1,1.7-12.5c1.2-1.9,1.9-3.8,2.3-5.8c0.2-1.3,0.2-2.7,0-4.1
				C-15.3-12-15.5-13-16-14.1z"/>
			<path class="st3" d="M-13.8-12.2c-0.3-1.6-0.7-3.2-1.2-4.8h-2.3c0.5,1,1,1.9,1.3,2.9c0.4,1.1,0.7,2.1,0.9,3.2
				c0.2,1.4,0.2,2.7,0,4.1c-0.3,2-1.1,3.9-2.3,5.8c-2.4,4.4-3,8.5-1.7,12.5c0.1,0.5,0.3,0.9,0.5,1.4c0.3,0.7,0.7,1.4,1.1,2.1
				c0.1,0.1,0.1,0.2,0.2,0.3c0.3,0.6,0.6,1.3,0.8,1.9c1.2,2.8,1.5,5.5,1.2,8.1c-0.3,2-1,3.9-2.2,5.7c-0.7,1.2-1.2,2.5-1.6,3.7
				c-0.9,2.8-1,5.5-0.3,8.1c0.4,1.4,1,2.8,1.9,4.3h2.3c-0.2-0.4-0.3-0.9-0.5-1.3c-0.3-0.9-0.5-1.7-0.6-2.6c-0.6-3-0.5-6.2,0.3-9.4
				c0.2-0.9,0.5-1.8,0.8-2.7c0.7-1.8,1.1-3.7,1.3-5.6c0.2-2.5,0-5.1-0.6-7.8c-0.2-0.9-0.5-1.7-0.8-2.7c-0.5-1.3-0.9-2.7-1.1-4.1
				c-0.2-0.9-0.3-1.9-0.3-2.8c0-0.8,0-1.6,0.1-2.3c0.1-1.6,0.4-3.2,0.8-4.8c0.1-0.6,0.3-1.2,0.5-1.8c0,0,0-0.1,0-0.1
				c0.7-1.8,1.1-3.6,1.3-5.4C-13.5-8.3-13.5-10.2-13.8-12.2z"/>
			<path class="st1" d="M-9.5-8c0.2-2.9-0.6-5.9-2.4-9.1H-15c0.5,1.6,0.9,3.3,1.2,4.8c0.3,1.9,0.3,3.8,0.1,5.7
				C-13.9-4.6-14.3-2.8-15-1c0,0,0,0.1,0,0.1c-0.2,0.6-0.4,1.2-0.5,1.8c-0.4,1.6-0.7,3.2-0.8,4.8c-0.1,0.8-0.1,1.6-0.1,2.3
				c0,0.9,0.1,1.9,0.3,2.8c0.2,1.4,0.6,2.8,1.1,4.1c0.3,0.9,0.5,1.8,0.8,2.7c0.6,2.7,0.8,5.3,0.6,7.8c-0.2,1.9-0.6,3.8-1.3,5.6
				c-0.3,0.9-0.5,1.8-0.8,2.7c-0.8,3.3-0.9,6.4-0.3,9.4c0.1,0.9,0.3,1.7,0.6,2.6c0.1,0.4,0.3,0.9,0.5,1.3h3.1
				c-0.9-1.4-1.5-2.8-1.8-4.2c-0.3-1.2-0.5-2.3-0.5-3.5c0-2.2,0.5-4.4,1.5-6.7c0.3-0.6,0.5-1.1,0.8-1.6V31c0.5-0.8,0.9-1.5,1.3-2.3
				c0.5-1.2,0.8-2.4,1-3.6c0.2-1.9,0.1-3.8-0.4-5.7c-0.4-1.3-0.9-2.6-1.6-3.9c-0.1-0.1-0.1-0.2-0.1-0.3c0,0-0.1-0.1-0.1-0.2
				c-0.9-1.5-1.6-3-1.9-4.5v-0.1c-0.6-2.4-0.5-4.8,0.2-7.3c0.1-0.3,0.2-0.5,0.3-0.8c0.4-1.1,0.8-2.2,1.4-3.3
				c0.1-0.2,0.3-0.4,0.4-0.6c0.7-1.3,1.2-2.6,1.5-3.8C-9.8-6.3-9.6-7.1-9.5-8z"/>
			<path class="st2" d="M-11.9-17c1.7,3.1,2.5,6.2,2.4,9.1l0.7,2.8L-10-5.5c-0.3,1.3-0.8,2.6-1.5,3.8l-0.3,4.9l-1.5-1
				c-0.1,0.3-0.2,0.6-0.3,0.8c-0.7,2.5-0.8,4.9-0.2,7.3l3.9-0.8l-1.8,5.5c0,0.1,0.1,0.2,0.1,0.3c0.7,1.3,1.2,2.6,1.6,3.9
				c0.5,1.9,0.7,3.8,0.4,5.7l1.8-0.9l-0.4,6.1l-2.4-1.6c-0.3,0.8-0.8,1.6-1.3,2.3V31c-0.3,0.5-0.6,1.1-0.8,1.6
				c-1,2.3-1.5,4.5-1.5,6.7l2.5-5.2l5.5,8.2l-7.5,0.5c0.4,1.4,1,2.8,1.8,4.2H0V36.1L-2.9,35L0,32.6v-8.4l-6.3-7.1L0,15.9V3.3L-3.5,4
				l3-9.4L0-4.7V-17H-11.9 M-5-7.9l-1.3-6l5.8,2L-5-7.9z"/>
		</g>
	</g>
</g>
<g transform="matrix( 1, 0, 0, 1, 0,0) ">
	<g>
		<g id="Layer0_35_FILL">
			<path class="st0" d="M31.3,45.7l1.1,1.3h7.5l1.1-3.2L31.3,45.7 M64,36.1v-3.5L61.1,35L64,36.1 M0,32.6v3.5l6.3,2.4l-1.6-9.8
				L0,32.6 M3.4,15.2L0,15.9v8.2l0.3,0.4L3.4,15.2 M6,2L0-4.7v8L6,2 M64,3.3v-8l-0.6-0.6l-3,9.4L64,3.3 M64,15.9l-6.3,1.2l6.3,7.1
				V15.9 M37.8-10.9l2.1-6.1h-7.5L37.8-10.9 M52.3,34.1L47.9,43l9.8-0.7L52.3,34.1 M22.8,46.4l3.1-9.3l-9.7,1.9L22.8,46.4
				 M29.3,23.3l6,0.3l-2.8-5.5L29.3,23.3 M31.3,31.4l-3.4,5.1l6.1,0.3L31.3,31.4 M43.8,33.9l-5.5,2.8l5.2,3.4L43.8,33.9 M46.5,26.8
				l-8.3-5.3l-0.3,9.8L46.5,26.8 M56.2,24.1l-5.5,2.7l5.1,3.4L56.2,24.1 M16.2,20.8l0.8,9.8l8.1-5.6L16.2,20.8 M14.4,40.5l-5.8-2
				l1.3,6L14.4,40.5 M13.7,21.7l-6,1.3l4,4.6L13.7,21.7 M8.8,6.6l-0.3,9.8l8.7-4.6L8.8,6.6 M11.3,3.1l2.6-5.6L7.8-1.8L11.3,3.1
				 M9.3-6.8l4.9-8.5H4.3L9.3-6.8 M63.6-11.9l-5.8-2l1.3,6L63.6-11.9 M52.6-2.8L47.1,0l5.1,3.3L52.6-2.8 M38.4,4.4l4.9-8.5h-9.8
				L38.4,4.4 M54.1,9.6l-9.7,1.9l6.5,7.3L54.1,9.6 M40.7,15.6l0.4-6.1l-5.5,2.8L40.7,15.6 M21.5,4l3.2-9.3l-9.7,2L21.5,4 M30.3-1.8
				L27,3.3l6.1,0.3L30.3-1.8 M23.7,15.9l9.8-0.3l-5.3-8.3L23.7,15.9 M18.7-14.5l1.3,6l4.5-4.1L18.7-14.5 M52.7-14.7l-7,6.9l9.5,2.6
				L52.7-14.7z"/>
			<path class="st2" d="M39.8-17l-2.1,6.1L32.3-17H0v12.3L6,2L0,3.3v12.6l3.4-0.7l-3.1,9.3L0,24.2v8.5l4.7-3.8l1.6,9.8L0,36.1V47
				h32.3l-1.1-1.3l9.7-1.9L39.8,47H64V36.1L61.1,35l2.9-2.4v-8.4l-6.3-7.1l6.3-1.2V3.3L60.4,4l3-9.4L64-4.7V-17H39.8 M45.7-7.8
				l7-6.9l2.5,9.5L45.7-7.8 M19.9-8.5l-1.3-6l5.8,1.9L19.9-8.5 M33.5,15.6l-9.8,0.3l4.6-8.7L33.5,15.6 M27,3.3l3.3-5.1l2.8,5.5
				L27,3.3 M24.7-5.3L21.5,4L15-3.4L24.7-5.3 M41.1,9.5l-0.4,6.1l-5.1-3.3L41.1,9.5 M44.4,11.6l9.7-1.9l-3.2,9.3L44.4,11.6
				 M43.3-4.1l-4.9,8.5l-4.9-8.5H43.3 M47.1,0l5.5-2.8l-0.4,6.1L47.1,0 M57.8-13.9l5.8,2l-4.6,4L57.8-13.9 M14.2-15.3L9.3-6.8
				l-4.9-8.5H14.2 M13.9-2.4l-2.6,5.6l-3.6-5L13.9-2.4 M8.4,16.4l0.3-9.8l8.3,5.3L8.4,16.4 M7.7,22.9l6-1.3l-2,5.8L7.7,22.9
				 M8.7,38.6l5.8,2l-4.5,4L8.7,38.6 M16.9,30.6l-0.8-9.8l8.8,4.3L16.9,30.6 M50.7,26.8l5.5-2.7l-0.4,6.1L50.7,26.8 M38.2,21.5
				l8.3,5.3l-8.7,4.6L38.2,21.5 M38.3,36.7l5.5-2.8L43.5,40L38.3,36.7 M27.9,36.5l3.4-5.1l2.7,5.4L27.9,36.5 M35.3,23.6l-6-0.3
				l3.3-5.2L35.3,23.6 M25.9,37.1l-3.1,9.3l-6.6-7.3L25.9,37.1 M47.9,43l4.3-8.8l5.5,8.2L47.9,43z"/>
		</g>
	</g>
</g>
<path class="st0" d="M64,32.6v3.5l6.3,2.4l-1.6-9.8L64,32.6 M71.6,22.9l2.1,2.4c-0.1-0.5-0.1-0.9-0.1-1.4c0-0.5,0-0.9,0-1.3
	L71.6,22.9 M78.2,40.8c0-0.1,0-0.2,0-0.3l-5.6-1.9l1.3,6L78.2,40.8 M76.3,14.4c0.2-0.4,0.4-0.7,0.6-1.1c0.5-1.1,0.9-2.2,1.1-3.4
	l-5.3-3.3l-0.4,9.8L76.3,14.4 M67.4,15.2L64,15.9v8.2l0.3,0.4L67.4,15.2 M64-4.7v8L70,2L64-4.7 M75.3,3.1l1.3-2.8
	c-0.2-0.5-0.4-0.9-0.7-1.4c-0.2-0.4-0.4-0.8-0.6-1.2l-3.5,0.3L75.3,3.1 M73.3-6.8l0.4-0.6c-0.1-0.9-0.1-1.8,0-2.7
	c0-0.4,0.1-0.8,0.2-1.2c0.2-1.3,0.6-2.6,1.3-4h-6.7L73.3-6.8z"/>
<path class="st1" d="M73.6-10.2c-0.1,0.9-0.1,1.8,0,2.7c0.2,1.8,0.7,3.6,1.6,5.3c0.2,0.4,0.4,0.8,0.6,1.2c0.3,0.5,0.5,0.9,0.7,1.4
	c0.4,0.8,0.7,1.7,1,2.5c0.7,2.4,0.8,4.7,0.4,7c-0.2,1.2-0.6,2.3-1.1,3.4c-0.2,0.4-0.4,0.7-0.6,1.1c-0.1,0.2-0.3,0.4-0.4,0.6
	c-0.8,1.5-1.4,2.9-1.8,4.4c-0.3,1-0.5,2.1-0.5,3.2c0,0.4,0,0.9,0,1.3c0,0.5,0.1,0.9,0.1,1.4c0.2,1.3,0.6,2.6,1.1,3.8
	c0.3,0.6,0.6,1.3,1,1.8c0.5,0.9,0.9,1.7,1.2,2.6c0.9,2.4,1.3,4.7,1.1,6.9c0,0.1,0,0.2,0,0.3c-0.3,2.1-1,4.2-2.3,6.2H79
	c0.9-2.5,1.4-5,1.4-7.7c0-0.1,0-0.1,0-0.2c0-2.6-0.5-5.3-1.4-8.1c-0.9-2.3-1.4-4.8-1.4-7.3c0-0.7,0-1.4,0-2.1c0-0.5,0.1-1,0.2-1.4
	c0.2-1.7,0.6-3.5,1.2-5.2c0.1-0.3,0.3-0.7,0.4-1c0.2-0.5,0.3-1,0.5-1.5c0.1-0.4,0.2-0.8,0.3-1.3c0.4-2.5,0.4-5,0-7.7
	c-0.2-1.5-0.6-3-1.1-4.6c-0.7-1.8-1.1-3.6-1.3-5.5c-0.1-0.5-0.1-0.9-0.1-1.4c-0.1-2.9,0.4-6,1.4-9.1h-3.1c-0.3,0.6-0.6,1.1-0.8,1.7
	c-0.6,1.4-1,2.7-1.3,4C73.7-10.9,73.7-10.5,73.6-10.2z"/>
<path class="st2" d="M73.6-7.5l-0.4,0.6l-4.9-8.5h6.7c0.3-0.6,0.5-1.1,0.8-1.7H64v12.3L70,2l-6,1.3v12.6l3.4-0.7l-3.1,9.3L64,24.2
	v8.5l4.6-3.8l1.6,9.8L64,36.1V47h11.9c1.3-2,2-4.1,2.3-6.2l-4.3,3.8l-1.3-6l5.6,1.9c0.2-2.3-0.2-4.6-1.1-6.9
	c-0.3-0.8-0.7-1.7-1.2-2.6c-0.4-0.6-0.7-1.2-1-1.8c-0.6-1.3-1-2.6-1.1-3.8l-2.1-2.4l2-0.4c0-1.1,0.2-2.1,0.5-3.2
	c0.4-1.5,1-2.9,1.8-4.4c0.1-0.2,0.3-0.4,0.4-0.6l-3.9,2l0.4-9.8L78,9.9c0.4-2.2,0.3-4.6-0.4-7c-0.3-0.9-0.6-1.7-1-2.5l-1.3,2.8
	l-3.6-5l3.5-0.3C74.3-3.9,73.8-5.7,73.6-7.5z"/>
<path class="st3" d="M81.3-17H79c-1,3.1-1.5,6.2-1.4,9.1c0,0.5,0,0.9,0.1,1.4C77.9-4.6,78.3-2.8,79-1c0.5,1.6,0.9,3.1,1.1,4.6
	c0.4,2.6,0.4,5.2,0,7.7c-0.1,0.4-0.2,0.8-0.3,1.3c-0.1,0.5-0.3,1-0.5,1.5c-0.1,0.3-0.3,0.7-0.4,1c-0.6,1.8-1,3.5-1.2,5.2
	c-0.1,0.5-0.1,0.9-0.2,1.4c-0.1,0.7-0.1,1.3,0,2.1c0,2.5,0.5,4.9,1.4,7.3c0.9,2.8,1.4,5.5,1.4,8.1c0,0.1,0,0.1,0,0.2
	c0,2.7-0.5,5.2-1.4,7.7h2.3c0.9-1.5,1.6-3,1.9-4.5c0.3-1.1,0.4-2.3,0.4-3.4c0-0.2,0-0.4,0-0.7c-0.1-1.6-0.5-3.1-1-4.7
	c-0.4-0.9-0.8-1.8-1.3-2.8c-0.1-0.1-0.2-0.3-0.3-0.4c-0.1-0.1-0.1-0.2-0.2-0.3c-1.6-2.8-2.2-5.6-1.8-8.6c0-0.2,0-0.4,0.1-0.6
	c0.3-2,1-4.1,2.2-6.2c0.1-0.1,0.2-0.3,0.3-0.4c0.6-1,1.1-2.1,1.4-3.1l0.4-1.6c0.3-1.7,0.3-3.5-0.1-5.4c-0.3-1.6-0.9-3.2-1.8-4.8
	c-0.1-0.2-0.2-0.4-0.3-0.7c-0.5-0.8-1-1.7-1.3-2.6c-0.2-0.4-0.3-0.9-0.4-1.3c-0.5-1.5-0.6-3-0.6-4.5C79.1-11.9,79.9-14.4,81.3-17z"
	/>
<path class="st4" d="M128-17H81.3c-1.4,2.6-2.2,5.2-2.3,7.7c-0.1,1.5,0.1,3,0.6,4.5C79.7-4.4,79.8-4,80-3.6c0.3,0.9,0.8,1.7,1.3,2.6
	c0.1,0.2,0.3,0.4,0.3,0.7c0.8,1.6,1.4,3.2,1.8,4.8c0.3,1.8,0.4,3.6,0.1,5.4L83,11.4c-0.3,1-0.8,2.1-1.4,3.1
	c-0.1,0.2-0.2,0.3-0.3,0.4c-1.2,2.1-1.9,4.2-2.2,6.2c0,0.2-0.1,0.3-0.1,0.6c-0.3,2.9,0.3,5.8,1.8,8.6c0,0.1,0.1,0.2,0.2,0.3
	c0.1,0.2,0.1,0.3,0.3,0.4c0.5,0.9,0.9,1.8,1.3,2.8c0.6,1.6,0.9,3.1,1,4.7c0,0.2,0,0.4,0,0.7c0,1.1-0.1,2.3-0.4,3.4
	c-0.4,1.5-1,3-1.9,4.5H128"/>
</svg>
