<?xml version="1.0" encoding="utf-8"?>
<!-- Generator: Adobe Illustrator 22.1.0, SVG Export Plug-In . SVG Version: 6.00 Build 0)  -->
<svg version="1.1" id="Layer_1" xmlns="http://www.w3.org/2000/svg" xmlns:xlink="http://www.w3.org/1999/xlink" x="0px" y="0px"
	 viewBox="0 0 64 64" style="enable-background:new 0 0 64 64;" xml:space="preserve">
<style type="text/css">
	.st0{fill:#FFE272;}
	.st1{fill:#FFCC00;}
	.st2{fill:#DAAE03;}
	.st3{fill:#FFFFFF;}
	.st4{fill:#E5B700;}
</style>
<path class="st0" d="M0,10.9V9c0-1.3,0.7-2,1.9-2H6h20h12h20h4c1.3,0,2,0.6,2,1.9v2C64,9.6,63.3,9,62,9H1.9C0.7,9,0,9.6,0,10.9
	 M6,3.9V2.1C6,0.7,6.7,0,8.1,0h15.9C25.3,0,26,0.7,26,2.1v1.9C26,2.7,25.3,2,23.9,2H8.1C6.7,2,6,2.7,6,3.9 M38,3.9V2.1
	C38,0.7,38.7,0,40.1,0h15.9C57.3,0,58,0.7,58,2.1v1.9C58,2.7,57.3,2,55.9,2H40.1C38.7,2,38,2.7,38,3.9"/>
<path class="st1" d="M38,3.9C38,2.7,38.7,2,40.1,2h15.9c1.3,0,2,0.7,2.1,1.9V7H38V3.9 M0,10.9C0,9.6,0.7,9,1.9,9H62v53H0V10.9 M26,7
	H6V3.9C6,2.7,6.7,2,8.1,2h15.9c1.3,0,2,0.7,2.1,1.9V7 M10.1,14.8C9.5,14.3,8.8,14,8.1,14H7.9c-0.8,0-1.5,0.3-2.1,0.8
	C5.3,15.5,5,16.2,5,16.9V17c0,0.8,0.3,1.5,0.9,2.1C6.4,19.7,7.1,20,7.9,20h0.1c0.8,0,1.5-0.3,2.1-0.9c0.6-0.5,0.9-1.2,0.9-2.1v-0.1
	C11,16.2,10.7,15.5,10.1,14.8 M28.1,21.4c-0.6,0.7-1,1.5-1.1,2.4L27,24.7l1.1,13.8c0,0.7,0.4,1.3,1.1,1.8c0.7,0.5,1.5,0.8,2.4,0.8
	s1.7-0.3,2.4-0.8c0.7-0.5,1.1-1.1,1.1-1.8l1-13.8v-0.9c-0.1-0.9-0.5-1.7-1.1-2.4c-0.9-1-2-1.4-3.4-1.4S29.1,20.5,28.1,21.4 M56.1,14
	h-0.1c-0.8,0-1.5,0.3-2.1,0.8c-0.5,0.6-0.8,1.3-0.9,2.1V17c0,0.8,0.3,1.5,0.9,2.1c0.6,0.6,1.3,0.9,2.1,0.9h0.1
	c0.8,0,1.5-0.3,2.1-0.9c0.6-0.5,0.9-1.2,0.9-2.1v-0.1c0-0.8-0.3-1.5-0.9-2.1C57.5,14.3,56.8,14,56.1,14 M28.3,45.8l-0.1,0.7
	c0,1,0.3,1.8,0.9,2.4c0.7,0.7,1.4,1.1,2.4,1.1s1.7-0.3,2.3-1.1c0.7-0.7,1-1.5,1-2.4l-0.1-0.7c-0.1-0.7-0.4-1.3-0.9-1.9
	c-0.6-0.7-1.4-1-2.3-1s-1.7,0.3-2.4,1C28.6,44.5,28.3,45.2,28.3,45.8 M59,53.9c0-0.8-0.3-1.5-0.9-2.1c-0.6-0.6-1.3-0.8-2.1-0.8h-0.1
	c-0.8,0-1.5,0.3-2.1,0.8c-0.5,0.6-0.8,1.3-0.9,2.1V54c0,0.8,0.3,1.5,0.9,2.1c0.6,0.6,1.3,0.9,2.1,0.9h0.1c0.8,0,1.5-0.3,2.1-0.9
	C58.7,55.5,59,54.8,59,53.9L59,53.9 M5,54c0,0.8,0.3,1.5,0.9,2.1C6.4,56.7,7.1,57,7.9,57h0.1c0.8,0,1.5-0.3,2.1-0.9
	c0.6-0.5,0.9-1.2,0.9-2.1v-0.1c0-0.8-0.3-1.5-0.9-2.1C9.5,51.3,8.8,51,8.1,51H7.9c-0.8,0-1.5,0.3-2.1,0.8C5.3,52.5,5,53.2,5,54L5,54
	"/>
<path class="st2" d="M5,54L5,54c0-0.8,0.3-1.5,0.9-2.2C6.4,51.3,7.1,51,7.9,51h0.1c0.8,0,1.5,0.3,2.1,0.8c0.6,0.6,0.9,1.3,0.9,2.1
	V54c0,0.8-0.3,1.5-0.9,2.1C9.5,56.7,8.8,57,8.1,57H7.9c-0.8,0-1.5-0.3-2.1-0.9C5.3,55.5,5,54.8,5,54 M10.1,14.8
	c0.6,0.6,0.9,1.3,0.9,2.1V17c0,0.8-0.3,1.5-0.9,2.1C9.5,19.7,8.8,20,8.1,20H7.9c-0.8,0-1.5-0.3-2.1-0.9C5.3,18.5,5,17.8,5,17v-0.1
	c0-0.8,0.3-1.5,0.9-2.1C6.4,14.3,7.1,14,7.9,14h0.1C8.8,14,9.5,14.3,10.1,14.8 M56.1,14c0.8,0,1.5,0.3,2.1,0.8
	c0.6,0.6,0.9,1.3,0.9,2.1V17c0,0.8-0.3,1.5-0.9,2.1c-0.6,0.6-1.3,0.9-2.1,0.9h-0.1c-0.8,0-1.5-0.3-2.1-0.9C53.3,18.5,53,17.8,53,17
	v-0.1c0-0.8,0.3-1.5,0.9-2.1c0.6-0.5,1.3-0.8,2.1-0.8H56.1 M59,53.9L59,53.9c0,0.9-0.3,1.6-0.9,2.1c-0.6,0.6-1.3,0.9-2.1,0.9h-0.1
	c-0.8,0-1.5-0.3-2.1-0.9C53.3,55.5,53,54.8,53,54v-0.1c0-0.8,0.3-1.5,0.9-2.1c0.6-0.5,1.3-0.8,2.1-0.8h0.1c0.8,0,1.5,0.3,2.1,0.8
	C58.7,52.5,59,53.2,59,53.9"/>
<path class="st3" d="M28.1,21.4c0.9-1,2-1.4,3.4-1.4s2.4,0.5,3.4,1.4c0.6,0.7,1,1.5,1.1,2.4v0.9l-1,13.8c-0.1,0.7-0.4,1.3-1.1,1.8
	c-0.7,0.5-1.4,0.8-2.4,0.8s-1.7-0.3-2.4-0.8c-0.7-0.5-1-1.1-1.1-1.8L27,24.7l0.1-0.9C27.2,22.9,27.5,22.2,28.1,21.4 M28.3,45.8
	c0.1-0.7,0.4-1.3,0.9-1.9c0.7-0.7,1.4-1,2.4-1s1.7,0.3,2.3,1c0.5,0.6,0.9,1.2,0.9,1.9l0.1,0.7c0,1-0.3,1.8-1,2.4
	c-0.6,0.7-1.4,1.1-2.3,1.1s-1.7-0.3-2.4-1.1c-0.6-0.7-0.9-1.5-0.9-2.4L28.3,45.8"/>
<path class="st4" d="M62,9c1.3,0,2,0.6,2,1.9V64H0v-2h62V9"/>
</svg>
