<?xml version="1.0" encoding="utf-8"?>
<!-- Generator: Adobe Illustrator 22.1.0, SVG Export Plug-In . SVG Version: 6.00 Build 0)  -->
<svg version="1.1" id="Layer_1" xmlns="http://www.w3.org/2000/svg" xmlns:xlink="http://www.w3.org/1999/xlink" x="0px" y="0px"
	 viewBox="0 0 340.2 340.2" style="enable-background:new 0 0 340.2 340.2;" xml:space="preserve">
<style type="text/css">
	.st0{fill:#E74C3C;}
	.st1{fill:#AF392D;}
	.st2{fill:#809395;}
	.st3{fill:#BDD6DB;}
</style>
<g transform="matrix( 1, 0, 0, 1, 0,0) ">
	<g>
		<g id="Layer0_260_FILL">
			<path class="st0" d="M159,232.1l-0.8-10v-0.8l-2.5-35.5c-3.7,10-6.8,22.9-9.5,38.6L159,232.1 M167.8,87.2
				c-9.5,10-14.7,25.9-15.5,47.6h31C182.5,113.1,177.3,97.2,167.8,87.2 M176.6,232.1l12.8-7.8c-2.7-15.7-5.8-28.5-9.5-38.6
				l-2.5,35.5v0.8L176.6,232.1z"/>
			<path class="st1" d="M155.8,185.8l-10-1.3c-3.7,10.2-6.8,22.9-9.3,38.3c-0.5,1.8-0.3,3.8,0.8,5.8c0.8,1.8,2.1,3.3,3.8,4.3
				l8.5,5.3l9.5-6l-12.8-7.8C148.9,208.7,152.1,195.8,155.8,185.8 M190.1,184.6l-10.3,1.3c3.7,10,6.8,22.9,9.5,38.6l-12.8,7.8l9.8,6
				l8.3-5.3c1.7-1,3-2.4,4-4.3c0.8-2,1.1-3.9,0.8-5.8C196.7,207.5,193.6,194.8,190.1,184.6 M183.3,134.8h10v-0.3
				c-1-24.9-7.1-42.9-18.3-54.1c-1.3-1.5-2.8-2.4-4.5-2.8c-1.8-0.5-3.6-0.5-5.3,0c-1.8,0.3-3.4,1.3-4.8,2.8
				c-11.2,11.2-17.3,29.2-18.3,54.1v0.3h10c0.8-21.7,6-37.6,15.5-47.6C177.3,97.2,182.5,113.1,183.3,134.8z"/>
			<path class="st2" d="M142.3,134.8c0,0.2,0,0.4,0,0.8l3.5,49.1l10,1.3l-3.5-51.1H142.3 M176.1,249.9c2.7,0,5-0.9,7-2.8
				c1.8-1.8,2.8-4,3-6.5l0.3-2.5l-9.8-6l-0.5,7.8h-16.5l-0.5-7.8l-9.5,6v2.5c0.2,2.5,1.3,4.7,3.3,6.5c1.8,1.8,4.1,2.8,6.8,2.8H176.1
				 M193.3,134.8h-10l-3.5,51.1l10.3-1.3l3.3-49.1C193.3,135.2,193.3,134.9,193.3,134.8z"/>
			<path class="st3" d="M177.3,222.1v-0.8l2.5-35.5l3.5-51.1h-31l3.5,51.1l2.5,35.5v0.8l0.8,10l0.5,7.8h16.5l0.5-7.8L177.3,222.1z"
				/>
		</g>
	</g>
</g>
</svg>
