<?xml version="1.0" encoding="utf-8"?>
<!-- Generator: Adobe Illustrator 22.1.0, SVG Export Plug-In . SVG Version: 6.00 Build 0)  -->
<svg version="1.1" id="Layer_1" xmlns="http://www.w3.org/2000/svg" xmlns:xlink="http://www.w3.org/1999/xlink" x="0px" y="0px"
	 viewBox="0 0 64 64" style="enable-background:new 0 0 64 64;" xml:space="preserve">
<style type="text/css">
	.st0{fill:#FFCC00;}
	.st1{fill:#D7AC00;}
</style>
<path class="st0" d="M54.7,31.5c0-6.3-2.2-11.7-6.7-16.1C43.6,11,38.2,8.8,32,8.8S20.3,11,15.8,15.4c-4.4,4.5-6.6,9.8-6.6,16.1
	c0,6.3,2.2,11.7,6.6,16.1c4.5,4.4,9.8,6.6,16.1,6.6S43.6,52,48,47.6C52.5,43.2,54.7,37.8,54.7,31.5 M62.3,31.5
	c0,8.4-3,15.6-8.9,21.5c-5.9,5.9-13,8.9-21.4,8.9c-8.4,0-15.6-3-21.5-8.9c-5.9-5.9-8.9-13.1-8.9-21.5c0-8.4,3-15.5,8.9-21.5
	C16.4,4.2,23.6,1.2,32,1.2c8.4,0,15.5,3,21.4,8.9C59.3,16,62.3,23.1,62.3,31.5 M37.8,20.9c1.2,0.4,2.4,0.9,3.4,1.6l0.2,0.3l0,0.3
	l-2.1,4.5l-0.2,0.2l-0.2,0.1l-0.3,0c-0.8-0.5-1.6-0.9-2.4-1.2l-2.4-0.8h0l-2-0.3l-1.5,0.3c-0.3,0.2-0.4,0.5-0.4,0.8v0
	c0,0.4,0.2,0.8,0.6,1l2,0.9l2.8,0.8c1,0.3,2,0.8,2.9,1.3c0.9,0.5,1.7,1.2,2.3,2.2c0.6,0.9,0.9,2.1,0.9,3.6c0,1.4-0.3,2.7-1,3.7
	c-0.7,1-1.6,1.8-2.7,2.4h0c-1,0.5-2.1,0.9-3.4,1.1V48l-0.2,0.4l-0.3,0.1h-4.2l-0.4-0.1L29.1,48v-4.5c-1.3-0.3-2.6-0.6-3.8-1.2
	c-1.3-0.6-2.5-1.3-3.6-2.2l-0.2-0.3v-0.4l2.2-4.4l0.2-0.2l0.3,0l0.3,0.1c0.7,0.7,1.5,1.2,2.4,1.7l0,0c0.9,0.5,1.8,0.8,2.7,1.1
	l2.5,0.4l1.8-0.4c0.3-0.2,0.5-0.6,0.5-1c0-0.5-0.2-0.8-0.6-1.1c-0.5-0.4-1.2-0.7-2-0.9L29.1,34l-2.9-1.2c-0.9-0.5-1.7-1.2-2.4-2.1
	c-0.6-0.9-0.9-2-0.9-3.5v0c0-1.9,0.6-3.4,1.8-4.6c1.1-1.1,2.6-1.9,4.4-2.3v-4.4l0.1-0.4c0.1-0.1,0.3-0.1,0.4-0.1h4.2l0.3,0.1
	l0.2,0.4v4.1C35.5,20.2,36.7,20.5,37.8,20.9"/>
<path class="st1" d="M37.8,20.9c-1.1-0.4-2.3-0.7-3.5-0.9v-4.1l-0.2-0.4l-0.3-0.1h-4.2c-0.1,0-0.3,0-0.4,0.1l-0.1,0.4v4.4
	c-1.8,0.4-3.3,1.2-4.4,2.3c-1.2,1.2-1.8,2.7-1.8,4.6v0c0,1.4,0.3,2.6,0.9,3.5c0.6,0.9,1.4,1.5,2.4,2.1l2.9,1.2l2.8,0.8
	c0.8,0.2,1.5,0.5,2,0.9c0.4,0.3,0.6,0.6,0.6,1.1c0,0.4-0.2,0.8-0.5,1l-1.8,0.4l-2.5-0.4c-0.9-0.3-1.8-0.6-2.7-1.1l0,0
	c-0.9-0.5-1.7-1-2.4-1.7l-0.3-0.1l-0.3,0l-0.2,0.2l-2.2,4.4v0.4l0.2,0.3c1,0.9,2.2,1.6,3.6,2.2c1.2,0.5,2.5,0.9,3.8,1.2V48l0.1,0.4
	l0.4,0.1h4.2l0.3-0.1l0.2-0.4v-4.4c1.2-0.2,2.4-0.6,3.4-1.1h0c1.1-0.6,2-1.4,2.7-2.4c0.7-1,1-2.3,1-3.7c0-1.5-0.3-2.6-0.9-3.6
	c-0.6-0.9-1.4-1.7-2.3-2.2c-0.9-0.5-1.9-0.9-2.9-1.3l-2.8-0.8l-2-0.9c-0.4-0.3-0.6-0.6-0.6-1v0c0-0.3,0.1-0.6,0.4-0.8l1.5-0.3l2,0.3
	h0l2.4,0.8c0.8,0.3,1.6,0.7,2.4,1.2l0.3,0l0.2-0.1l0.2-0.2l2.1-4.5l0-0.3l-0.2-0.3C40.2,21.9,39.1,21.3,37.8,20.9 M54.7,31.5
	c0,6.3-2.2,11.7-6.7,16.1c-4.4,4.4-9.8,6.6-16.1,6.6S20.3,52,15.8,47.6c-4.4-4.4-6.6-9.8-6.6-16.1c0-6.3,2.2-11.7,6.6-16.1
	C20.3,11,25.7,8.8,32,8.8S43.6,11,48,15.4C52.5,19.9,54.7,25.2,54.7,31.5"/>
</svg>
