<?xml version="1.0" encoding="utf-8"?>
<!-- Generator: Adobe Illustrator 22.1.0, SVG Export Plug-In . SVG Version: 6.00 Build 0)  -->
<svg version="1.1" id="Layer_1" xmlns="http://www.w3.org/2000/svg" xmlns:xlink="http://www.w3.org/1999/xlink" x="0px" y="0px"
	 viewBox="0 0 340.2 340.2" style="enable-background:new 0 0 340.2 340.2;" xml:space="preserve">
<style type="text/css">
	.st0{fill:#C06A29;}
</style>
<path class="st0" d="M272.9,72.2v201.1c0,4.1-1.4,7.5-4.3,10.4c-2.9,2.6-6.2,4-10.1,4h-57.5c-4.1,0-7.5-1.3-10.4-4
	c-2.6-2.9-4-6.3-4-10.4V72.6c0-4.1,1.3-7.5,4-10.4c2.9-2.9,6.3-4.3,10.4-4.3h57.5c3.8,0,7.2,1.4,10.1,4.3
	C271.5,65,272.9,68.4,272.9,72.2"/>
<path class="st0" d="M153.7,62.2c2.9,2.9,4.3,6.2,4.3,10.1v201.1c0,4.1-1.4,7.5-4.3,10.4c-2.9,2.6-6.2,4-10.1,4H86.2
	c-4.1,0-7.5-1.3-10.4-4c-2.6-2.9-4-6.3-4-10.4V72.6c0-4.1,1.3-7.5,4-10.4c2.9-2.9,6.3-4.3,10.4-4.3h57.5
	C147.5,57.9,150.8,59.3,153.7,62.2"/>
</svg>
