<?xml version="1.0" encoding="utf-8"?>
<!-- Generator: Adobe Illustrator 22.1.0, SVG Export Plug-In . SVG Version: 6.00 Build 0)  -->
<svg version="1.1" id="Layer_1" xmlns="http://www.w3.org/2000/svg" xmlns:xlink="http://www.w3.org/1999/xlink" x="0px" y="0px"
	 viewBox="0 0 340.2 340.2" style="enable-background:new 0 0 340.2 340.2;" xml:space="preserve">
<style type="text/css">
	.st0{fill:#C06A29;}
</style>
<path class="st0" d="M284.6,55.3v229.3c0,4.6-1.6,8.6-4.9,11.9c-3.3,3-7.1,4.5-11.5,4.5h-65.5c-4.6,0-8.6-1.5-11.9-4.5
	c-3-3.3-4.5-7.2-4.5-11.9V55.7c0-4.6,1.5-8.6,4.5-11.9c3.3-3.3,7.2-4.9,11.9-4.9h65.5c4.4,0,8.2,1.6,11.5,4.9
	C282.9,47.1,284.6,50.9,284.6,55.3"/>
<path class="st0" d="M148.6,43.8c3.3,3.3,4.9,7.1,4.9,11.5v229.3c0,4.6-1.6,8.6-4.9,11.9c-3.3,3-7.1,4.5-11.5,4.5H71.6
	c-4.6,0-8.6-1.5-11.9-4.5c-3-3.3-4.5-7.2-4.5-11.9V55.7c0-4.6,1.5-8.6,4.5-11.9c3.3-3.3,7.2-4.9,11.9-4.9h65.5
	C141.5,38.9,145.3,40.5,148.6,43.8"/>
</svg>
