<?xml version="1.0" encoding="utf-8"?>
<!-- Generator: Adobe Illustrator 22.1.0, SVG Export Plug-In . SVG Version: 6.00 Build 0)  -->
<svg version="1.1" id="Layer_1" xmlns="http://www.w3.org/2000/svg" xmlns:xlink="http://www.w3.org/1999/xlink" x="0px" y="0px"
	 viewBox="0 0 64 64" style="enable-background:new 0 0 64 64;" xml:space="preserve">
<style type="text/css">
	.st0{fill:#2E2B22;}
	.st1{fill:#1A7B44;}
	.st2{fill:#27AF60;}
	.st3{fill:#464133;}
	.st4{fill:#403C2F;}
	.st5{fill:#2ECC71;}
	.st6{fill:#17703E;}
	.st7{fill:#23A158;}
	.st8{fill:#209350;}
</style>
<path class="st0" d="M10.8,19l2-2c0.5-0.4,0.9-0.6,1.4-0.6l2.1,0l2,0l0,2l-4,0.1l-2,2l0,2l0.4,24l0,2l2,2l4-0.1l0,2l-2,0"/>
<path class="st0" d="M16.8,52.3l-2.1,0c-0.5,0-1-0.2-1.4-0.6l-2-2"/>
<path class="st0" d="M46.2,15.7l2,0c0.6,0,1,0.2,1.4,0.6l2,2c0.4,0.3,0.6,0.8,0.6,1.4l0.5,28c0,0.6-0.2,1-0.6,1.4l-2,2
	c-0.4,0.4-0.8,0.6-1.4,0.6l-2,0l-2,0l0-2l4-0.1l2-2l0-2l-0.4-24l0-2l-2-2l-4,0.1l0-2L46.2,15.7"/>
<path class="st1" d="M45.6,14.4c0.4,0.3,0.6,0.8,0.6,1.4"/>
<polyline class="st1" points="46.2,15.7 44.2,15.8 40.2,15.9 37.2,15.9 37.2,13.9 "/>
<path class="st1" d="M16.8,52.3l2,0l4-0.1l4-0.1l10-0.2l4-0.1l4-0.1l2,0c0,0.6-0.2,1-0.6,1.4c-0.4,0.4-0.8,0.6-1.4,0.6l-26,0.5
	c-0.6,0-1-0.2-1.5-0.6C17.1,53.3,16.9,52.9,16.8,52.3"/>
<polyline class="st1" points="25.2,14.1 25.2,16.1 22.2,16.2 18.2,16.2 "/>
<path class="st1" d="M18.2,16.2l-2,0c0-0.6,0.2-1.1,0.5-1.4"/>
<path class="st2" d="M18.2,16.2l4-0.1l0.6,36l-4,0.1l0-2l-0.1-4l-2,0l-0.4-24l2,0l-0.1-4L18.2,16.2 M26.8,52.1l0-2l10-0.2l0,2
	L26.8,52.1 M40.8,51.8l-0.6-36l4-0.1l0,2l0.1,4l2,0l0.4,24l-2,0l0.1,4l0,2L40.8,51.8"/>
<path class="st3" d="M18.8,50.2l-4,0.1l-2-2l0-2l4-0.1l2,0L18.8,50.2 M12.3,22.3l0-2l2-2l4-0.1l0.1,4l-2,0L12.3,22.3 M50.7,45.7l0,2
	l-2,2l-4,0.1l-0.1-4l2,0L50.7,45.7 M50.3,21.7l-4,0.1l-2,0l-0.1-4l4-0.1l2,2L50.3,21.7"/>
<path class="st4" d="M50.3,21.7l0.4,24l-4,0.1l-0.4-24L50.3,21.7 M12.7,46.3l-0.4-24l4-0.1l0.4,24L12.7,46.3"/>
<path class="st5" d="M26.8,52.1l-4,0.1l-0.6-36l3-0.1l0.2,12c0,0.6,0.2,1,0.5,1.4l1.5,1.5l0.1,5.1c0,0.6,0.2,1,0.5,1.4
	c0.5,0.4,0.9,0.6,1.5,0.6l4-0.1c0.6,0,1-0.2,1.4-0.6c0.4-0.4,0.6-0.8,0.6-1.4l-0.1-5.1l1.4-1.5c0.4-0.4,0.6-0.8,0.6-1.4l-0.2-12
	l3-0.1l0.6,36l-4,0.1l0-2l-10,0.2L26.8,52.1"/>
<path class="st6" d="M37.2,13.9l0,2l0.2,12c0,0.6-0.2,1-0.6,1.4l-1.4,1.5l0.1,5.1c0,0.6-0.2,1-0.6,1.4c-0.4,0.4-0.8,0.6-1.4,0.6
	l-4,0.1c-0.6,0-1-0.2-1.5-0.6c-0.3-0.4-0.5-0.8-0.5-1.4L27.5,31L26,29.5c-0.3-0.4-0.5-0.8-0.5-1.4l-0.2-12l0-2"/>
<polyline class="st6" points="27.1,10.1 27.4,28.1 29.5,30 29.6,36 33.6,36 33.5,30 "/>
<polyline class="st6" points="33.5,30 35.4,27.9 35.1,9.9 "/>
<path class="st7" d="M35.1,9.9l0.3,18l-2,2"/>
<path class="st7" d="M33.5,30l-4,0.1l-2-2l-0.3-18"/>
<path class="st8" d="M33.5,30l0.1,6l-4,0.1l-0.1-6L33.5,30"/>
</svg>
