<?xml version="1.0" encoding="utf-8"?>
<!-- Generator: Adobe Illustrator 22.1.0, SVG Export Plug-In . SVG Version: 6.00 Build 0)  -->
<svg version="1.1" id="Layer_1" xmlns="http://www.w3.org/2000/svg" xmlns:xlink="http://www.w3.org/1999/xlink" x="0px" y="0px"
	 viewBox="0 0 1920 1080" style="enable-background:new 0 0 1920 1080;" xml:space="preserve">
<style type="text/css">
	.st0{fill:#291732;}
	.st1{fill:url(#SVGID_1_);}
	.st2{fill:#40334E;}
	.st3{fill:url(#SVGID_2_);}
	.st4{fill:#539FFF;}
	.st5{fill:url(#SVGID_3_);}
	.st6{fill:url(#SVGID_4_);}
	.st7{fill:url(#SVGID_5_);}
	.st8{fill:url(#SVGID_6_);}
	.st9{fill:url(#SVGID_7_);}
	.st10{fill:url(#SVGID_8_);}
	.st11{fill:url(#SVGID_9_);}
	.st12{fill:url(#SVGID_10_);}
	.st13{fill:url(#SVGID_11_);}
	.st14{fill:url(#SVGID_12_);}
	.st15{fill:url(#SVGID_13_);}
	.st16{fill:url(#SVGID_14_);}
	.st17{fill:url(#SVGID_15_);}
	.st18{fill:url(#SVGID_16_);}
	.st19{fill:url(#SVGID_17_);}
	.st20{fill:url(#SVGID_18_);}
	.st21{fill:#FFFFFF;}
	.st22{fill:url(#SVGID_19_);}
	.st23{fill:url(#SVGID_20_);}
	.st24{fill:url(#SVGID_21_);}
	.st25{fill:#999999;}
	.st26{fill:url(#SVGID_22_);}
	.st27{fill:url(#SVGID_23_);}
	.st28{fill:url(#SVGID_24_);}
	.st29{fill:url(#SVGID_25_);}
	.st30{fill:url(#SVGID_26_);}
	.st31{fill:url(#SVGID_27_);}
	.st32{fill:url(#SVGID_28_);}
	.st33{fill:#362843;}
	.st34{fill:url(#SVGID_29_);}
	.st35{fill:url(#SVGID_30_);}
	.st36{fill:url(#SVGID_31_);}
	.st37{fill:url(#SVGID_32_);}
	.st38{fill:url(#SVGID_33_);}
	.st39{fill:#C2C6E4;}
	.st40{fill:url(#SVGID_34_);}
	.st41{fill:url(#SVGID_35_);}
	.st42{fill:url(#SVGID_36_);}
	.st43{fill:url(#SVGID_37_);}
	.st44{fill:url(#SVGID_38_);}
	.st45{fill:url(#SVGID_39_);}
	.st46{fill:url(#SVGID_40_);}
	.st47{fill:url(#SVGID_41_);}
	.st48{fill:url(#SVGID_42_);}
	.st49{fill:url(#SVGID_43_);}
	.st50{fill:url(#SVGID_44_);}
	.st51{fill:url(#SVGID_45_);}
	.st52{fill:url(#SVGID_46_);}
	.st53{fill:url(#SVGID_47_);}
	.st54{fill:url(#SVGID_48_);}
	.st55{fill:url(#SVGID_49_);}
	.st56{fill:url(#SVGID_50_);}
	.st57{fill:url(#SVGID_51_);}
	.st58{fill:url(#SVGID_52_);}
	.st59{fill:url(#SVGID_53_);}
	.st60{fill:url(#SVGID_54_);}
	.st61{fill:url(#SVGID_55_);}
	.st62{fill:url(#SVGID_56_);}
	.st63{fill:url(#SVGID_57_);}
	.st64{fill:url(#SVGID_58_);}
	.st65{fill:url(#SVGID_59_);}
	.st66{fill:url(#SVGID_60_);}
	.st67{fill:url(#SVGID_61_);}
	.st68{fill:#444444;}
	.st69{fill:url(#SVGID_62_);}
	.st70{fill:url(#SVGID_63_);}
	.st71{fill:url(#SVGID_64_);}
	.st72{fill:url(#SVGID_65_);}
	.st73{fill:url(#SVGID_66_);}
	.st74{fill:url(#SVGID_67_);}
	.st75{fill:url(#SVGID_68_);}
	.st76{fill:url(#SVGID_69_);}
	.st77{fill:url(#SVGID_70_);}
	.st78{fill:url(#SVGID_71_);}
	.st79{fill:url(#SVGID_72_);}
	.st80{fill:url(#SVGID_73_);}
	.st81{fill:url(#SVGID_74_);}
	.st82{fill:none;stroke:#FFFFFF;stroke-width:0.5;stroke-linecap:round;stroke-linejoin:round;}
	.st83{fill:url(#SVGID_75_);}
	.st84{fill:url(#SVGID_76_);}
	.st85{fill:url(#SVGID_77_);}
	.st86{fill:url(#SVGID_78_);}
</style>
<g>
	<path class="st0" d="M1043.6,381.4l-4.4-13.7c-3.4-7.7-7.8-13-13.1-15.8c-8.5-4.4-21.5-8.5-39-12.2c-16.1-3.4-28.9-5-38.7-5H948
		c-9.9,0-22.8,1.7-38.5,4.8c-17.3,3.5-30.2,7.5-38.6,12.1c-5.6,3-10,8.2-13.4,16c-1.1,2.4-2.1,5.1-3.1,8.3l-1.7,5.5
		c-1.2,3.1-1.9,7.7-2.4,13.9l-1.9,65.8c-0.6,1.9-1,4.2-1,6.8c0,2.1,0.3,3.7,0.8,4.5l-0.1,14.5l0.1,0.3c0,0.1-0.1,0.2-0.1,0.3
		l-0.7,24.5l-1.6,0.9c-5,3-8.1,5.2-9.6,7c-1.3,1.4-1.9,2.8-1.9,4v0.4c0.2,0.5,0.3,1.1,0.3,1.6c0,0.2,0.1,0.3,0.2,0.6l0.6,0.2
		l11.8-3.2v21.9c0,46.8,0.4,91.8,1.3,134.8c0.1,0.4,0.1,0.7,0.2,0.9c-0.1,1.3-0.3,5.2-0.8,11.9l-0.3,14.9c0,20.3,0.5,34.4,1.6,42.5
		l5.3,34.4c1.7,11.4,3.1,18.8,4.2,22.3v0.2c1.6,6.3,3.9,10.8,7,13.2c2.2,1.6,7.1,3.6,14.8,5.7c16.7,4.9,39.3,7.5,67.7,7.5l0,0h0.2
		c28.2,0,50.7-2.6,67.4-7.5c7.5-2.2,12.5-4.2,14.7-5.7c3.1-2.4,5.4-6.8,7.1-13.2c0-0.1,0.1-0.1,0.1-0.2V807c1.1-3.5,2.3-10.9,4-22.2
		l5.4-34.4l1.5-42.5l-1-27.7c0.8-43,1.3-88,1.4-134.9v-21.8l11.8,3.2l0.5-0.2c0-0.1,0.1-0.3,0.2-0.6c0.1-0.5,0.2-1.1,0.3-1.6V524
		c0-1.3-0.6-2.7-2-4.1c-1.5-1.8-4.7-4.1-9.5-6.9l-1.5-0.9l-0.8-24.5c0,0,0-0.1-0.1-0.3c0.1,0,0.1-0.1,0.1-0.3l-0.1-14.5
		c0.6-0.9,0.8-2.5,1-4.5c0-2.7-0.3-4.9-1.1-6.8l-1.9-65.8C1045.6,389.2,1044.8,384.5,1043.6,381.4z"/>
	<g>
		<g>
			<g>
				<path class="st0" d="M1043.6,381.4l-4.4-13.7c-3.4-7.7-7.8-13-13.1-15.8c-8.5-4.4-21.5-8.5-39-12.2c-16.1-3.4-28.9-5-38.7-5H948
					c-9.9,0-22.8,1.7-38.5,4.8c-17.3,3.5-30.2,7.5-38.6,12.1c-5.6,3-10,8.2-13.4,16c-1.1,2.4-2.1,5.1-3.1,8.3l-1.7,5.5
					c-1.2,3.1-1.9,7.7-2.4,13.9l-1.9,65.8c-0.6,1.9-1,4.2-1,6.8c0,2.1,0.3,3.7,0.8,4.5l-0.1,14.5l0.1,0.3c0,0.1-0.1,0.2-0.1,0.3
					l-0.7,24.5l1.1-0.7l0.7-23.6l8,5.6l0,0l0.3,0.2l0.3,0.3h0.1v3.8l-0.2,0.2l-0.1,9.3c-0.1,0-0.2,0-0.3,0.1l0.1-13.4l-0.2-0.3
					l-0.2,0.3l-0.2,13.6c-2.3,0.9-5.1,2.2-8.3,4l-2.6,1.6c-5,3-8.1,5.2-9.6,7c-1.3,1.4-1.9,2.8-1.9,4v0.4c0.2,0.5,0.3,1.1,0.3,1.6
					c0,0.2,0.1,0.3,0.2,0.6l0.6,0.2l11.8-3.2v21.9c0,46.8,0.4,91.8,1.3,134.8c0.1,0.4,0.1,0.7,0.2,0.9c-0.1,1.3-0.3,5.2-0.8,11.9
					l-0.3,14.9c0,20.3,0.5,34.4,1.6,42.5l5.3,34.4c1.7,11.4,3.1,18.8,4.2,22.3v0.2c1.6,6.3,3.9,10.8,7,13.2
					c2.2,1.6,7.1,3.6,14.8,5.7c16.7,4.9,39.3,7.5,67.7,7.5l0,0h0.2c28.2,0,50.7-2.6,67.4-7.5c7.5-2.2,12.5-4.2,14.7-5.7
					c3.1-2.4,5.4-6.8,7.1-13.2c0-0.1,0.1-0.1,0.1-0.2V807c1.1-3.5,2.3-10.9,4-22.2l5.4-34.4l1.5-42.5l-1-27.7
					c0.8-43,1.3-88,1.4-134.9v-21.8l11.8,3.2l0.5-0.2c0-0.1,0.1-0.3,0.2-0.6c0.1-0.5,0.2-1.1,0.3-1.6V524c0-1.3-0.6-2.7-2-4.1
					c-1.5-1.8-4.7-4.1-9.5-6.9l-2.6-1.6c-3.3-1.8-6-3.1-8.2-4l-0.2-13.6l-0.2-0.2v-0.1l-0.3,0.3l0.2,13.4c-0.1,0-0.2,0-0.4-0.1
					l-0.1-9.3l-0.2-0.2V494h0.1l0.3-0.3l0.3-0.2h0.1v0.2v-0.3l8-5.5l0.6,23.6l1.2,0.7l-0.8-24.5c0,0,0-0.1-0.1-0.3
					c0.1,0,0.1-0.1,0.1-0.3l-0.1-14.5c0.6-0.9,0.8-2.5,1-4.5c0-2.7-0.3-4.9-1.1-6.8l-1.9-65.8
					C1045.6,389.2,1044.8,384.5,1043.6,381.4z M1017.3,349.1c0.1,0,0.2,0,0.3,0.1c3,1.1,5.6,2.3,7.9,3.6l0.5,0.3
					c4.9,2.8,9,7.8,12,14.9c1,2.3,1.9,5,2.7,8.3l1.7,5.6c0.8,1.8,1.4,3.5,1.5,4.9c-1.9-6.3-4.1-11.7-6.3-16.1
					c-1.1-2.6-2.9-4.9-5.5-7c0.6,0.7,1.2,1.6,1.7,2.4c1.4,1.6,2.5,3.4,3.4,5.2c2.5,4.8,5,11,7.2,18.3l1.7,33l1.1,64.6l-7.9,5.3
					l0.1-3.5c-0.5-26.9-1.3-49.9-2.1-69.2c-0.5-10.4-1.2-19.6-2-27.6c-0.2,0-0.3,0-0.4,0c-0.1-0.9-0.3-1.7-0.4-2.5
					c1,8.7,1.8,18.8,2.2,30.1c1.1,22.2,1.8,45.2,2.2,69.3l0.3,3.5l-0.8,0.5l0.1-4.3c0-7.6-0.3-13.9-1.1-18.9l-0.6-1.6
					c0.2-2.9,0.3-6,0.4-9.4c-0.1-4.9-0.3-11.7-1-20.2l-0.7-16.5c-0.1-7.1-0.8-16.4-2-27.9c-0.5-4.8-1.1-9.2-1.6-12.9
					c-0.3-0.7-0.6-1.3-0.8-1.9c0.6,4.1,1.3,8.9,1.8,14.3c1.3,11.8,2,21.2,2,28.3l1.7,36.7c0,2,0,4-0.1,5.8c0,1-0.1,2-0.1,2.9
					c-0.1,0-0.1-0.1-0.1-0.2c-4.2-24-9.4-46-15.5-65.6c-5.7-18.5-10.9-31.2-15.5-38.3l0,0c-0.1-0.1-0.1-0.1-0.1-0.1l0,0l-0.3-0.1
					v0.4c4.6,6.8,9.7,19.6,15.5,38.2c6,19.7,11,40.6,15,62.8l0.3,0.2c0.3,1.8,0.5,2.8,0.6,3.1c-0.4,6-1.4,10.7-2.9,13.9l0,0
					c-0.2,0.5-0.4,0.9-0.7,1.3c-0.1,0.4-0.3,0.7-0.5,1c-1.9-2.7-4.7-4.9-8.1-6.9c-5.6-3.3-13.2-5.8-22.9-7.5
					c-12.6-2.4-30.2-3.5-53.1-3.5h-0.1c-22.1,0-39.6,1.2-52.6,3.6c-8.1,1.4-14.8,3.5-20.1,5.9c-1.4,0.7-2.6,1.4-3.8,2.2
					c-3.1,1.8-5.4,3.9-7.1,6.2c-0.2-0.4-0.4-0.8-0.6-1.2l0.4-1.2c1.5-19,5.4-41.7,11.9-68.2c8.7-35,18.4-55.8,29.1-62.3
					c0.3-0.1,0.5-0.3,0.8-0.4l0.1-0.3l-0.1-0.5c-0.1,0-0.1,0.1-0.2,0.1l0.2-0.2v0.1l0.8,0.7h0.2l2.2,0.4h1.1l31.2-4.2
					c2.5-0.6,4-1,4.4-1.4h4.7c0.5,0.4,2,0.8,4.5,1.4l31.2,4.2h1l0.6-0.1l1.8-0.3l0.7-0.6l0.1,0.4l0.1,0.3
					c11,5.9,20.9,26.8,29.8,62.7c3.1,12.5,5.8,25.9,8.1,40.3c0-0.3,0-0.3,0-0.1s0.1,0.4,0.1,0.6c0.2,1.2,0.4,2.4,0.5,3.5
					c1.2,6.9,2,12.9,2.5,17.8c0.3,2.3,0.5,4.4,0.6,6.1l0.3,1.4l0.2-1.5c-0.1-1.7-0.3-3.7-0.5-5.7c-0.5-4.7-1.4-10.5-2.4-17.1
					c-0.2-1.5-0.4-3-0.7-4.5c-2.3-14.4-5.2-28.1-8.3-40.8c-8.3-33.6-17.8-54.5-28.3-62.7l2.7,0.9l5.3,1.7l3,1.6
					c-0.6-0.5-1.2-1-1.7-1.4l-1-0.6c-2.2-0.9-3-1.2-2.2-0.7l-7.7-2.5h-0.3c0,0,0,0,0.1,0c0.1-0.1,0.1-0.1,0.1-0.2c0,0,0,0,0-0.1
					c0-0.5-0.4-1-1.3-1.5c0-0.1,0-0.1-0.1-0.2c0,0,0-0.1-0.1-0.2l0.2,0.1l2.6,0.8l0.2-0.1l0.1,0.1v0.1c2.5,0.7,4.4,1.3,5.8,1.7
					c-0.2-0.2-0.4-0.5-0.6-0.7c-1.6-0.5-3.2-1-5-1.5l-0.3-0.1v-0.1l-7.1-1.7v-0.1l0.1-0.1c-2.2-3.3-8.2-5.9-18.3-7.8
					c-7.2-1.3-13.4-1.9-18.8-1.9h-0.2c-5.4,0-11.6,0.6-18.7,1.9c-10,1.8-16.2,4.4-18.4,7.8l0.1,0.1h-0.2l-6.8,1.8v0.1l-0.5,0.1
					c-2.6,0.8-5,1.5-7.3,2.2c-0.2,0.3-0.4,0.5-0.6,0.7c0.1,0,0.3-0.1,0.5-0.1l4.1-1.3c0.6-0.2,1.8-0.6,3.7-1.1l0.1-0.1l0,0
					c0.2,0,0.3-0.1,0.4-0.1c-0.1,0-0.2,0.1-0.3,0.2h0.1c0.8-0.3,1.7-0.5,2.6-0.7c0-0.1,0.1-0.1,0.1-0.1L907,348
					c-0.8,0.6-1.4,1.2-1.4,1.7l0.1,0.3l0,0h-0.2l-7.5,2.5c-0.5,0-0.8,0.1-1.3,0.2c-1,0.5-1.9,1-3,1.6l-3.5,1.6
					c-0.6,0.4-1.3,0.9-1.9,1.4l7.6-3.7l9.7-3.1c-0.1,0.1-0.3,0.3-0.3,0.3c-0.4,0.2-0.7,0.4-1.1,0.6c-0.5,0.4-1,0.7-1.5,1.1
					c-9.9,7.8-19,28.2-27.3,61.2c-3.2,12.8-6,26.4-8.3,40.8c-2,11.8-3.2,20.9-3.7,27.4v1.2c-0.2-0.4-0.3-0.7-0.4-1
					c-2.2-4.6-3.3-12.3-3.3-22.7l1.7-37c0-5.5,0.5-12.6,1.3-21c0.2-2.4,0.5-4.7,0.7-7.3c0.8-7.6,1.7-13.8,2.6-18.7
					c-0.3,0.3-0.5,0.7-0.7,1c-0.8,4.8-1.7,10.8-2.4,18.1c-0.2,1.4-0.3,2.8-0.5,4.2c-1,9.7-1.5,17.6-1.5,23.7l-1,16.5
					c-0.5,8.5-0.7,15.2-0.7,20.2c0,3.5,0.1,6.7,0.3,9.6c-0.1,0.3-0.3,0.8-0.5,1.4c-0.8,4.9-1.2,11.3-1.2,18.9l0.1,4.3l-0.7-0.4
					l2.4-72.9c0.7-15.6,1.9-28.8,3.6-39.5c-0.3,0.6-0.5,1.2-0.7,1.9c-1.6,10.3-2.7,22.8-3.4,37.6c-1,19.3-1.7,42.3-2.1,69.2
					c-0.1,1.8-0.1,2.9,0,3.5l-7.8-5.3l1-64.6l1.7-32.5l4.5-13.6l1.1-2.2c0,0.2-0.1,0.5-0.1,0.7c0.2-1.3,0.6-2.7,1.1-3.9
					c-0.5,0.8-1.4,2.6-2.4,5.1l-3.8,11.1c0.3-1.9,0.8-3.7,1.6-5.4l1.7-5.6c1-3.3,1.9-6,3-8.4c3.3-6.9,7.2-12,11.8-14.8
					c0-0.2,0-0.3,0-0.4l0.2,0.3c0.3-0.2,0.6-0.4,0.8-0.5c2.2-1.2,4.6-2.4,7.5-3.5l0.2-0.5v0.4c7.8-3.1,18.1-5.9,30.9-8.5
					c15.5-3.1,28.2-4.7,38-4.8h0.2c9.5,0,22.2,1.7,38.4,5c12.6,2.6,22.8,5.4,30.6,8.4l0,0L1017.3,349.1z M990.1,349.5
					c0.1,0,0.1,0.1,0.1,0.2c-0.1,0-0.1,0,0,0.1c-0.1,0.3-0.3,0.6-0.8,0.8l-2.2,0.4l-32-4.3c-2.6-0.6-4.3-1.3-5.2-2.2
					c-0.5-0.5-0.8-1-0.8-1.4c-0.1-0.4,0.1-0.6,0.5-0.7c0.3-0.1,0.5-0.2,0.7-0.2c0,0.1-0.1,0.3-0.2,0.5c0.2,1,0.8,1.7,2,2l34,4.7
					l1.3-0.2c0.3-0.3,0.4-0.5,0.4-0.7l-0.5-1.1l0,0l1.7,0.8C989.7,348.8,990,349.1,990.1,349.5z M985.6,347.2l-0.1-0.1l-0.2,0.2v1.3
					l-2-0.7v-1.2l-0.2-0.3l-0.4,0.3v1l-1.9-0.4v-1.1l-0.3-0.3l-0.3,0.3v1l-2-0.4v-1.1l-0.3-0.3l-0.2,0.3v1l-2.1-0.4v-1.1l-0.2-0.2
					l-0.2,0.2v1.1l-2.1-0.3V345l-0.3-0.3l-0.2,0.3v1l-2.1-0.3v-1.2l-0.2-0.2l-0.3,0.2v1.2c0,0-0.1-0.1-0.2-0.1l-1.9-0.2v-1.2
					l-0.2-0.2l-0.3,0.2v1.2l-2-0.2v-1.3l-0.2-0.2l-0.3,0.2v1.2l-2.1-0.3v-1.2l-0.2-0.2l-0.3,0.2v1.2l-2.1-0.2v-1.2l-0.2-0.3
					l-0.3,0.3v1.1l-2-0.1v-1.2l-0.2-0.3l-0.2,0.3v1.1l-2-0.1v-1.4l-0.4-0.2l-0.2,0.2v1.4l-1.9-0.1v-1.5l-0.3-0.2l-0.2,0.2v1.5
					c-0.6-0.4-1.1-0.8-1-1.3l0.2-0.3v-0.3h0.3c5,0,11.3,0.6,18.8,1.8l14.6,2.8l2.1,1c0.2,0.2,0.5,0.5,0.6,0.9l-0.2,0.2
					c-0.2,0.1-0.5,0.1-0.7,0.2c-0.2,0-0.2,0-0.3,0h-0.4v-1.7L985.6,347.2z M980.7,348.3v-0.5l1.9,0.4v0.4L980.7,348.3z M978.1,347.3
					l1.5,0.3c0.2,0,0.3,0,0.5,0.1v0.5l-2-0.3V347.3z M948.1,337h0.1c5.9,0,12.2,0.7,18.9,1.9c9.4,1.8,15.3,4.2,17.5,7.2l-14.4-2.6
					c-6.7-1.2-13-1.8-18.9-1.8H951l-1.6,0.2l-0.1,0.1l0,0l-0.1-0.1h-2v0.1c-0.1,0-0.1,0-0.1,0L947,342l-1.5-0.2h-0.3
					c-6.1,0-12.5,0.6-19.1,1.8l-14.3,2.6c2.2-3.1,8-5.5,17.6-7.2C936,337.7,942.3,337,948.1,337z M934.4,343.6l-0.2-0.2l-0.3,0.2
					v1.2l-2,0.3v-1.2l-0.3-0.2l-0.2,0.2v1.3l-2,0.2v-1.2l-0.4-0.2l-0.2,0.2v1.2l-2.1,0.3v-1.2l-0.3-0.2l-0.2,0.2v1.2l-2,0.3v-1
					l-0.3-0.3l-0.2,0.3v1.1l-2.1,0.3v-1.1l-0.3-0.2l-0.2,0.2v1.1l-2.1,0.4v-1l-0.2-0.3l-0.3,0.3v1.1l-2,0.4v-1l-0.2-0.3l-0.3,0.3
					v1.1l-2.1,0.4v-1l-0.3-0.3l-0.2,0.3v1.2l-2,0.7v-1.3l-0.2-0.2l-0.3,0.2v1.7h-0.3c-0.4,0-0.8-0.1-1.1-0.2l-0.3-0.2
					c0.2-0.3,0.4-0.6,0.6-0.9l2.2-1l14.5-2.8c7.8-1.2,14.2-1.8,19-1.8h0.2v0.3l0.2,0.3c0,0.5-0.3,1-1.1,1.3v-1.5l-0.2-0.2l-0.3,0.2
					v1.5l-1.9,0.1v-1.4l-0.2-0.2l-0.3,0.2v1.4l-2,0.1v-1.1l-0.2-0.3l-0.2,0.3v1.2l-2,0.1v-1.1l-0.4-0.3l-0.2,0.3v1.2l-2.1,0.2V343.6
					z M931.9,346.1v-0.6l2-0.2v0.5L931.9,346.1z M931.4,345.5v0.7l-2,0.2v-0.6L931.4,345.5z M934.4,345.7v-0.5l2.1-0.1v0.3
					L934.4,345.7z M926.1,346.1v0.8l-2,0.3v-0.8L926.1,346.1z M926.6,346.9v-0.8c0.1,0,0.2,0,0.3-0.1l1.8-0.2v0.7L926.6,346.9z
					 M921.4,346.8l2.1-0.3v0.8l-2.1,0.2V346.8z M918.3,347.3v0.6l-2,0.3v-0.5c0.1-0.1,0.3-0.1,0.5-0.1L918.3,347.3z M915.7,347.8
					v0.5l-2.1,0.3v-0.4L915.7,347.8z M920.9,347.6l-2.1,0.3v-0.7l2.1-0.3V347.6z M906.2,349.7c0-0.4,0.3-0.9,1.1-1.4l1.8-0.8
					c-0.4,0.3-0.7,0.7-0.7,1.1c0,0.1,0.1,0.2,0.2,0.3c0.1,0.1,0.2,0.2,0.3,0.4l1.4,0.2l33.9-4.7c1.4-0.4,2-1.1,2-2
					c0-0.1,0-0.3-0.2-0.5c0.2,0,0.5,0.1,0.7,0.2c0.4,0.1,0.6,0.3,0.6,0.7c0,0.4-0.3,0.9-1,1.4c-0.7,0.9-2.5,1.6-5.1,2.2l-32.1,4.3
					l-2.2-0.4C906.4,350.3,906.2,350.1,906.2,349.7z M972.9,346.5l2.1,0.3v0.7l-2.1-0.2V346.5z M975.4,346.9l2.1,0.3v0.7l-2.1-0.3
					V346.9z M967.6,346.5v-0.7l2.1,0.3v0.8L967.6,346.5z M970.3,346.1l2.1,0.3v0.8l-2.1-0.3V346.1z M961.9,345.3v0.4l-2.1-0.3v-0.3
					L961.9,345.3z M962.4,345.8v-0.5l2.1,0.2v0.6L962.4,345.8z M965.1,345.5l2,0.3v0.6l-2-0.3V345.5z M957.3,345.1V345l2,0.1v0.4
					l-1.4-0.2C957.8,345.1,957.5,345,957.3,345.1z M948.7,342.5c0,0.2-0.1,0.4-0.2,0.7c0,0.4,0.3,1,1.1,1.8c0,0.1,0.2,0.2,0.4,0.4
					h-3.6l0.5-0.4c0.6-0.8,1-1.4,1-1.8c0-0.2-0.1-0.4-0.2-0.7H948.7z M937.2,345.4V345l2-0.1v0.2c-0.2-0.1-0.4,0-0.7,0.1
					L937.2,345.4z M947.9,466.9h0.1c22.2,0,39.8,1.1,52.9,3.5c9.8,1.8,17.5,4.4,23.1,7.7c3.4,2,5.9,4.3,7.8,6.7c0,0.1,0,0.1,0,0.1
					h-0.1c-1.1,7.6-4.3,22.1-9.7,43.3c-0.1,0.2-0.1,0.3-0.1,0.6l-5.6,22.2l-0.1,0.6l-0.1,0.3h-0.1c0,0.2-0.1,0.3-0.1,0.4l0.1,0.1
					l-1.5,8.1v0.5l-3.3,37.2c0,0.1,0,0.3-0.1,0.5l-0.5,29.5l0.6,37.2l1.5,23.5l1.5,12.7c0,0.3,0,0.6,0.1,0.8l-6.3,1.7l-2.9,0.5
					c-6.8,1.1-15.5,2.1-26.2,2.8l-15,0.7c-0.1,0.1-0.3,0.1-0.5,0.1h-31.3l-15.3-0.8c-10.9-0.7-19.7-1.7-26.3-2.8l-2.6-0.5l-5.6-1.5
					H882c0,0,0,0,0.1,0c0-0.1,0-0.2,0-0.2l-0.5,0.3l-0.2,1.4l-0.1,0.5l-2.1,15.6c-0.1,0-0.1,0.2-0.1,0.5l-6.1,42.5
					c-1.2-0.9-1.7-2.1-1.7-3.7l5.5-38.9V720l4.3-35.5c0-0.3,0-0.5,0.1-0.9l1.2-18.5c0.4-10.5,0.7-20.3,0.7-29.5l-0.7-22.5l0.2,21.8
					c0,0.1,0.1,0.3,0.1,0.5v0.3c0,7.7-0.3,17.6-1,29.5l-3.6,41.5l-2,13.3v0.5l-5.4,38.9v0.2c-0.1,1.6,0.6,3,2.1,4h0.1l0.1,0.1h-0.2
					l-6,7.1l-1.2,1.5l-3.7-52.1l-0.2-0.3l-0.2,0.3l3.7,52.6l0.2,0.1c-0.4,0.9-0.8,2.4-1.4,4.5c-2.5-28-3.8-50-4-66.2l1.7,3
					c1,1.4,1.9,2.2,2.9,2.2c0.7,0,1.5-0.5,2.2-1.4l2-4.5l0.7-2c2.4-8.1,4.4-17.4,5.9-28.1c0-0.1,0-0.3,0.1-0.5l1.6-14.1
					c0,0,0-0.2,0.1-0.5l1.6-43.5c0-0.1,0-0.3,0.1-0.5l-0.2-22.6c-0.2-8.9-0.5-16.5-1.2-22.7v-0.7c-0.4-5.5-1.1-10.2-1.8-14.1v-0.5
					c-1.1-5.7-2.2-10.9-3.4-15.3l-3-10.1c-4.3-15.6-7.6-27.8-9.8-36.6c0.2-2.2,1-5,2.4-8.5c2,11,5,23.8,8.9,38.6l0.5,1.8
					c0,0.1,0.2,0.3,0.2,0.6c3.2,12.3,5.4,22.1,6.9,29.6c-0.1,0.1,0,0.3,0.1,0.5l2.1,16.4v0.8c0.6,8.1,1.1,17.2,1.3,27.2
					c0,0.2,0.1,0.3,0.2,0.6l-0.8-27.2c-0.1-0.2-0.1-0.4-0.1-0.7l-2.2-17.1c0-0.1-0.1-0.3-0.1-0.5c-1.5-8.1-3.8-18.1-7-30.1
					c0-0.2,0-0.4-0.1-0.6l-0.3-1.6c-3.9-14.1-7-27.2-9-39.3h-0.2h0.1l1.7-3.4c0-0.4,0.1-0.7,0.4-0.7c0.1,0,0.1,0,0.1-0.1
					c0.1-0.2,0.2-0.4,0.4-0.5c1.5-2.1,3.6-3.9,6.1-5.5c1.8-1.1,3.7-2.2,5.9-3.1c4.9-2.2,11-4,18.2-5.2
					C908,468.2,925.6,467.1,947.9,466.9z M1036.6,470c0-0.4,0-0.7,0.1-1c0.8,5.4,1.3,12.2,1.3,19.9l-0.2,5.4l-0.7,3.1l0.1-0.5
					c-0.8-4.3-2.3-8.2-4.8-12v-0.2C1034.5,481.8,1036,476.9,1036.6,470z M1048.5,468c0,1.2-0.1,2.4-0.5,3.4v-8.2L1048.5,468z
					 M1042.8,512.2h0.3c0,0,0.1,0,0.2,0l2.7,0.7c4.2,1.7,7.4,3.1,9.4,4.3c1.8,1.2,3.3,2.3,4.2,3.3l0.2,0.3h0.1
					c1,1.2,1.5,2.3,1.5,3.3l-0.8-0.2h-0.4v-0.2l-17.2-4.9c-0.6-0.3-1-0.9-1.1-1.8c-0.1-0.7-0.4-1.3-0.8-1.9h0.1l0.4-2
					C1041.8,512.6,1042.2,512.4,1042.8,512.2L1042.8,512.2z M1046.3,512.4l-3-0.7c-1.1,0-1.8,0.4-2.1,1.1l-0.6,1.8l-2.1-1.4
					c0.2-2.2,0.8-3.8,1.9-4.7l7.5,3.8c0.2,0,0.4,0.2,0.6,0.4l5.4,3.3C1053,515.3,1050.5,514.1,1046.3,512.4z M1034,488.9L1034,488.9
					h-0.1c-0.5,2.9-1.1,5.9-1.8,9.3c-0.5,2.9-1.3,5.9-2,9.2c-1.4,6.3-3.2,13.3-5.2,20.8l-0.5,2.2c-0.1,0.1-0.2,0.3-0.2,0.6
					c-3.3,12.8-5.5,22.6-6.7,29.5c-0.1,0.1-0.2,0.3-0.2,0.5l-2.1,16.3c0,0.2,0,0.5-0.1,0.8c-0.6,8-1.1,17.2-1.3,27.3l-0.5,30.4
					c0,9.3,0.3,19.2,0.8,29.6l1.1,17.9c0.7,8.5,1.6,16.3,2.6,23.6l1.9,13.2v0.4l5.4,39.1c0,1.6-0.5,2.8-1.6,3.7l-6.2-42.7l-0.1-0.4
					l-3.9-31.1c0-0.2,0-0.3-0.1-0.5l-1.3-22.5l-0.5-59.8c0.1-0.1,0.1-0.3,0.1-0.6l0.8-17.2c0-0.1,0-0.3,0.1-0.5l2.5-26.7
					c0.1-0.1,0.1-0.3,0.1-0.5l1.4-8.1l0.1-0.1l5.8-23.1c0-0.2,0-0.3,0.1-0.5c5.5-21.6,8.7-35.8,9.7-43L1034,488.9z M1037.4,498.4
					l0.4-1.8v1.3c-0.1,0.1-0.1,0.2-0.1,0.3c-1.5,7-3.7,16-6.9,27l0.1,0.1l0.1,0.2l0.4-0.1l0.1-0.7l6.4-25.3l0.1,7.7l-0.7,0.5
					l-0.6,1.8l-0.1,2.9c0,1.9,0.1,3.2,0.3,4.1c0.3,1.3,0.6,2.3,1.2,2.9l-0.8,0.6l-5.6,4.9l-0.2,0.7c3.4-2.9,5.4-4.6,6-5.2V604h-0.2
					c-3.6,3.2-8.3,5.8-14.2,8c-0.1,0.1-0.3,0.2-0.6,0.2l-4.4,1.4l0.1-15.1c0.2-9.7,0.6-17.5,1.2-23.4v-0.5c0.5-5.2,1.1-9.8,1.8-13.6
					v-0.5c1.1-5.7,2.2-10.9,3.5-15.2l1.9-6.9c1.3-4.5,2.5-8.9,3.6-12.9c3.3-11.5,5.6-20.4,7.3-26.8V498.4z M1036.7,498.2
					c0,0,0,0.1,0,0.2c-1.4,5.8-3.6,14.2-6.7,25.2c-1.1,4-2.2,8.3-3.6,13.1l-2.4,8.4c-1.4,4.6-2.4,9.9-3.4,15.3
					c-0.1,0.1-0.1,0.3-0.1,0.5l-1.8,13.8v0.5c-0.5,6.5-1,14.2-1.1,23.2l-0.1,15.5l1.6,51.7l0.8,7.9v0.1h0.1l0.6,5.6
					c0,0,0.1,0.2,0.1,0.5c1.5,10.4,3.2,18.8,5.1,25.4l1.6,5c0.7,2.2,1.5,3.8,2.2,4.5c0.6,0.9,1.4,1.4,2.1,1.4c0.8,0,1.8-0.8,2.7-2.2
					c0-0.4,0-0.8,0-1.2l-0.4,0.9c-0.8,1.4-1.7,2.1-2.3,2.1l-1.3-0.7c0.6,0,1.4-0.6,2.4-1.8l2.5-4.2h0.7v0.6l-1.7,3.1v1.2l1.7-3.1
					l0.3-0.7l0.1-0.1c5.8-3.2,9.3-7.8,10.6-14l0.4,11.8c0,20.1-0.5,34.1-1.7,42.2l-5.3,34.1l-0.2-0.2h-0.2c-0.1,0-0.3,0.1-0.4,0.3
					c-0.2,0.4-0.4,0.8-0.4,1.2l-6.7,15c-1.2,2.6-3.3,5.2-6.3,7.9c1.4-2.2,2.6-6.1,3.9-12c1-4.7,1.7-9.2,2-13.3l2.7-36.1
					c1.2-18.5,1.7-30.8,1.7-36.6l-0.2-0.2l-0.3,0.7c-0.1,5.7-0.6,16.8-1.7,33.1l-2.3,33.1c-0.4-2.1-0.8-3.6-1.4-4.5l0.3-0.1
					c1.6-12.9,2.7-30.5,3.3-52.7l-0.1,0.1c-0.8,21.8-2,39.2-3.7,52.1l-1-1.5l-6.1-7.1h-0.2c0-0.1,0.1-0.1,0.1-0.1h0.1
					c1.4-1,2.1-2.5,2.1-4.2l-5.5-39.1v-0.4l-1.9-13.2c-1-5.9-1.8-13.8-2.5-23.8c0-0.2-0.1-0.4-0.1-0.6l-1.1-17
					c-0.5-10.4-0.7-20.3-0.7-29.6l0.3-29.8c0-0.1,0-0.3,0.1-0.6c0.2-10.4,0.6-19.7,1.4-27.9c-0.1-0.1,0-0.4,0.1-0.7l2.1-15.8v-0.5
					c1.8-9.4,4-19.1,6.7-28.9c0-0.1,0-0.3,0.1-0.7l0.7-2.4c1.7-6.6,3.3-12.9,4.7-18.7c1-4.1,1.8-7.9,2.6-11.6c0.5-3,1.2-5.7,1.6-8.3
					C1035.8,493.3,1036.5,496.1,1036.7,498.2z M1037.4,509.5l0.4-1.7c0-0.1,0.2-0.2,0.3-0.2h0.1l1.6,0.6c-1.3,1.3-1.8,3-1.8,5
					c0,2.3,0.6,4.2,1.9,5.6h-1.3c-0.4-0.2-0.8-1.2-1.2-2.7l-0.3-4L1037.4,509.5z M1038.5,513.8c1.7,1,2.5,2.1,2.9,3.2
					c0.2,0.9,0.6,1.6,1.2,2.1l2.4,0.9c1.3,0.3,6.8,1.9,16.4,4.5l0.1-0.1c0,0.1,0,0.1,0,0.2c-0.2,0.5-0.3,1-0.3,1.4l-0.1,0.3h-0.1
					l-1.3-0.2l-15.9-4.3c-0.5-0.2-0.8-0.3-1.3-0.5c-0.2-0.2-0.3-0.4-0.4-0.8l-0.7-1.1l-0.6-0.2
					C1039.3,517.9,1038.5,516,1038.5,513.8z M1039.4,519.5h0.4c0.3,0,0.7,0.1,1.3,0.3c0.2,0.2,0.4,0.6,0.5,0.9l0.6,1.1l5.7,1.7
					l0.3,60.6l-0.5,14.9v0.7c-0.2,25.4-0.5,50.4-1.1,75.2c0,0.9,0,1.9-0.1,2.9l0.6,15.9c-0.7,7.1-4.2,12.5-10.4,15.9l2.4-105
					l-0.2-0.2l0.1-0.1h0.1c3.6-1.4,6.4-2.9,8.5-4.5V599c-2,1.8-4.8,3.4-8.5,4.7L1039.4,519.5z M1038,519.9l-0.1-0.1
					c0.3-0.2,0.6-0.3,0.8-0.3l-0.1,84.4h-0.6V519.9z M1037.8,604.3h1.1l-0.2,0.2l-2.3,104.2h-0.5L1037.8,604.3z M1022.4,612.9
					l0.5-0.3c5.8-2.1,10.7-4.7,14.5-8l-1.2,60.5c-0.1,1.2-0.1,2.3-0.1,3.5l-9.6,3.1c-0.1,0-0.3,0.1-0.5,0.2l-5.4,1.4l-0.7-7.5
					c-0.1-0.1-0.2-0.3-0.1-0.5l-1.7-51.1L1022.4,612.9z M1021.4,679.6c-0.1-0.1-0.1-0.3-0.2-0.5l-0.6-5.2l15.5-4.7l-0.8,39.9
					c-1.1,1.8-1.9,3.2-2.6,4.2c-0.7,1.1-1.4,1.6-2,1.6c-0.1,0-0.3-0.1-0.5-0.2c-0.7-0.9-1.4-2.3-2-4.3l-2.1-6.9
					C1024.1,696.1,1022.6,688.2,1021.4,679.6z M848.4,471.3l-0.5-3.2V468l0.5-4.8V471.3z M859.6,470v-0.9l0.1-0.1c0,0.4,0,0.7,0,1
					c0.7,6.8,2.1,11.8,4.2,14.7v0.2c-2.4,3.8-4,7.7-4.6,12l0.1,0.5l-0.7-3.1l-0.3-5.4C858.4,481.1,858.8,474.8,859.6,470z
					 M858.7,497.9v-1.3l0.4,1.8v0.1c1.7,7,5.1,19.6,10.3,37.9l2.4,8.8c1.3,4.4,2.4,9.5,3.5,15.2v0.5c0.7,3.9,1.3,8.4,1.8,13.8v0.6
					c0.5,6.5,1,14.1,1.1,23.1l0.3,15.1L873,612c0,0-0.2-0.1-0.5-0.2c-5.3-2.1-9.7-4.7-13.4-7.8H859v-83.9c0.6,0.6,2.6,2.4,6.1,5.3
					h0.3v-0.4C861.7,511.1,859.4,502,858.7,497.9z M853.1,511.7l-2.9,0.7c-3.7,1.5-6.3,2.7-7.8,3.5l5.5-3.3c0.2-0.2,0.4-0.3,0.6-0.4
					l7.5-3.8c1.2,1.1,1.8,2.7,1.8,4.7l-2,1.4l-0.5-1.8C854.9,512.1,854.1,511.7,853.1,511.7z M853.4,512.2l0.2-0.4l-0.1,0.4
					c0.6,0.2,1.1,0.4,1.4,0.8l0.4,2h0.1c-0.5,0.6-0.8,1.2-1,1.9c-0.1,0.9-0.4,1.5-1,1.8l-17.2,4.9l-1.4,0.4c0-1,0.5-2.1,1.5-3.3h0.1
					c0,0,0.1-0.1,0.1-0.2c0.8-0.9,2.3-2,4.4-3.4c1.9-1.2,5-2.6,9.3-4.3l2.7-0.7C853.2,512.2,853.3,512.2,853.4,512.2z M858.1,507.6
					h0.1c0.1,0,0.2,0.1,0.4,0.2l0.4,1.7l0.2,2.8l-0.3,4c-0.4,1.5-0.8,2.5-1.3,2.7h-1.3c1.3-1.5,1.9-3.4,1.9-5.6c0-2.1-0.5-3.8-1.8-5
					L858.1,507.6z M859.1,507.6l-0.8-0.5l0.1-7.7l6.4,25.3l-5.6-4.9l-1-0.6c0.5-0.6,0.8-1.6,1.2-2.9c0.2-0.9,0.3-2.2,0.3-4.1
					l-0.1-2.9L859.1,507.6z M855.1,516.9c0.2-1.1,1.2-2.2,2.7-3.2c0,2.2-0.7,4-2.2,5.4c-0.1,0-0.2,0.1-0.4,0.2l-1,1.1
					c0,0.4-0.1,0.6-0.3,0.8c-0.4,0.2-0.8,0.3-1.4,0.5l-15.9,4.3l-1.2,0.2h-0.1l-0.1-0.3c-0.1-0.4-0.2-0.9-0.3-1.4
					c-0.1-0.1-0.1-0.1-0.1-0.2l0.1,0.1c9.6-2.7,15.1-4.3,16.5-4.5l2.3-0.9C854.4,518.5,854.8,517.8,855.1,516.9z M857.6,519.5
					c0.3,0,0.5,0.1,0.8,0.3l0,0l0.2-0.1c-0.1,0-0.2,0.1-0.3,0.2v84.1h-0.6L857.6,519.5z M854.9,520.7c0.1-0.3,0.3-0.7,0.5-0.9
					c0.4-0.2,0.8-0.3,1.2-0.3h0.5l0.1,84.3c-3.8-1.4-6.6-3-8.6-4.7v0.7c2,1.7,4.9,3.2,8.6,4.5h0.1l0.1,0.1l-0.1,0.2l2.2,105
					c-6-3.4-9.4-8.5-10.3-15.3l0.4-9.1l0.7,5.4l-0.1,0.1c0.1,1.9,0.6,3.5,1.5,4.7l0.8,0.5c0.4,0,0.7-0.3,1.1-0.8l0.5-2l0.3-5.9
					c0-1,0-2,0-2.9c-0.3-4.9-1.2-8.7-2.6-11.3c-0.1-0.2-0.2-0.4-0.4-0.7c-0.2-0.1-0.4-0.3-0.6-0.3l-0.5,0.2l-0.3,0.5l-0.1,3.6
					l-0.2,1.5v3.7l-1.6-97.4l0.3-60.6l5.7-1.7L854.9,520.7z M857.5,604.3h1.2l2,104.4H860l-2.3-104.2L857.5,604.3z M872.8,612.3
					c0,0.1,0.2,0.2,0.5,0.3l5.1,1.5l-2.5,58.7l-15.1-4.5l-0.4,0.1l0.1,0.3l8.6,2.7c0,0.1,0.2,0.2,0.5,0.3l6.1,1.7h0.1l-0.7,6.1
					c0,0.1-0.1,0.3-0.1,0.5c-1.4,10.1-3.2,19-5.4,26.6l-1.3,3.7c-0.6,2-1.3,3.4-2,4.3l-0.5,0.2c-0.5,0-1.3-0.5-2-1.6
					c-0.6-1-1.5-2.4-2.5-4.2l-0.8-40.2v-0.3c-0.4-21.3-0.8-42.5-1.3-63.8C862.8,607.9,867.4,610.5,872.8,612.3z M851.2,673l-0.3-0.1
					v0.2l-0.3,0.1c0,0.1,0,0.3-0.1,0.6c0-0.5,0.1-0.8,0.2-1.2h0.2l0.2,0.2l0.4,0.6l1,2.2L851.2,673z M851.1,673.7l1.3,3l-0.8,1.7
					l-0.4,3.5v0.9l0.4,3.9c0.2,0.9,0.6,1.5,1.5,1.8c0,0-0.1,0.1-0.2,0.2c0,0.1-0.2,0.2-0.4,0.2h-1.2l-0.2,0.2l0.2,0.2h1.2
					c0.4,0,0.7-0.1,1-0.3l0.6-1.8l-0.2,6l-0.5,2c-0.1,0.1-0.3,0.3-0.5,0.4l-0.4-0.4l-0.1-0.2l0.3,0.2l0.1-0.5
					c-1.6-2.1-2.4-6.3-2.4-12.9C850.1,678.3,850.4,675.6,851.1,673.7z M851.6,681.8l0.3-3.4l0.5-1.1c0.7,2.1,1.1,4.5,1.1,6.8
					l-0.2,2.9l-0.1,0.8c-0.5-0.2-1-0.7-1.2-1.4c-0.1-0.5-0.3-1.7-0.4-3.8V681.8z M881.8,704.6l0.1-0.7l0.1-1l3.5,1l2.2,0.5
					c6.4,1.3,16.1,2.4,29,3.3L948,709l28.6-1.1c0.1,0,0.2-0.1,0.5-0.2l1.8-0.1c13.4-0.9,23-2,29.2-3.2l6.2-1.6c0,0.1,0,0.3,0.1,0.5
					v0.1l2.2,16.5c0.1,0,0.1,0.2,0.1,0.4l6.1,42.9l0.1,0.1c-1.6,1.2-3.3,2.2-5.2,3.3c-14.8,8.1-38,12.2-69.9,12.2
					c-35.8-0.2-60.7-5.3-74.6-15.4l0.1-0.1l6.1-42.7V720L881.8,704.6z M860.8,709.3l2.5,4.2c1.1,1.2,1.9,1.8,2.4,1.8l-1.2,0.7
					c-0.7,0-1.5-0.7-2.4-2.1l-2.1-4v-0.6H860.8z M859.6,710.2l0.1,0.1l-0.2,0.2c0,5.8,0.5,18.1,1.8,36.6l2.6,36.1l2,13.3
					c1.3,5.5,2.5,9.6,3.9,12c-3.1-2.7-5.2-5.3-6.3-7.9l-6.6-15l-0.4-1.2c-0.1-0.1-0.3-0.3-0.5-0.3h-0.2l-0.2,0.2l-5.3-34.1
					c-1.1-8.1-1.7-22.2-1.7-42.2l0.5-11.5C850.4,702.5,853.9,707.2,859.6,710.2z M866,773.6l-0.3-0.2l1.5-2.4l6.1-7.1v-0.1l0,0
					c14.2,10.2,39.1,15.3,74.6,15.4h0.5c32-0.1,55.4-4.3,70.1-12.5c1.6-0.9,3.2-2,4.6-3v0.1l6.2,7.1l0.5,0.9l0.8,1.5l-0.3,0.2
					c-0.4,4.5-1.8,12.2-4,23c-2.3,10.2-11.2,17.4-26.5,21.8c-12.2,3.2-29.4,4.7-51.7,4.7c-8,0-15.5-0.2-22.3-0.6
					c-0.8-0.1-1.8-0.1-2.6-0.2l-2-0.2c-9.7-0.8-18-2.1-24.6-3.8c-15.4-4.4-24.3-11.6-26.5-21.8C867.8,786.3,866.5,778.7,866,773.6z
					 M864.4,780.7c0-2.6,0.3-4.8,1.1-6.7c0.5,5.6,2,13.3,4.1,22.7c2.3,10.4,11.3,17.8,26.9,22.1c7.9,2.2,18.3,3.6,31,4.4
					c0.2,0,0.3,0,0.4,0c6.1,0.4,13,0.5,20.3,0.5c22.5,0,39.7-1.6,51.8-4.8c15.5-4.3,24.5-11.7,26.8-22.1c2.2-9.5,3.6-17.1,4.1-22.8
					c0.7,2.1,1.1,4.4,1.1,6.8l-0.1,2.4c-0.4,4.3-1.1,8.7-2,13.3c-1.5,6.6-3,11-4.5,13.1l-1.7,1.3c-4.3,2.9-9.2,5-14.5,6.7
					c6.2-2.6,10.9-5.3,14-8.3v-0.5h-0.4c-4.4,4.5-11.2,8.1-20.1,10.6c-5.6,1.8-13.6,3.3-24.2,4.7c-5.6,0.7-13.9,1.3-24.8,1.6v-0.9
					h-5.5v0.1H948v-0.1h-5.2v0.9c-9.6-0.1-17.9-0.7-24.7-1.6c-10.6-1.5-18.7-3-24.3-4.7c-8.9-2.5-15.6-6-20.1-10.6h-0.3l-0.1,0.5
					c3,2.9,7.6,5.6,14,8.3c-5.4-1.7-10.3-4-14.4-6.7l-1.7-1.3c-1.7-2.1-3.2-6.4-4.5-13.1c-1.1-4.6-1.7-9.1-2-13.3L864.4,780.7z
					 M856.9,786.6l6.1,14.2c2,4.2,5.2,7.5,9.5,10.4c6.1,4,13,6.8,20.6,8.5c1.2,0.4,2.5,0.8,4,1.3l3.8,1.3l-1.8-0.2l-8.5-1.7
					c-7.1-1.7-11.4-2.8-13.1-3.5c-8.3-3.2-13.8-7.4-16.4-12.8C859.2,800.2,857.7,794.4,856.9,786.6z M860.6,804.4
					c-0.5-1.2-1.1-2.6-1.6-4.1c0.5,1.4,1.1,2.8,1.7,4.1c2.5,5.4,8.1,9.9,16.7,13.2c0.4,0.1,4.9,1.3,13.2,3.4
					c1.7,0.4,3.6,0.8,5.8,1.2c2.2,0.3,4.6,0.7,7.5,1.1l0.1-0.4l-4.3-1.5c4.7,1.1,10.8,2.1,18.4,3.2c6.2,0.8,14.6,1.4,24.9,1.7
					l0.1-0.1l0.5,0.2c-13.8-0.2-27.1-1.2-39.8-3c-2.4-0.4-5-0.8-7.4-1.2c-2-0.4-4-0.7-5.9-1.1c-11.5-2.2-19.8-5.3-24.7-9.4
					C863.7,809.8,861.9,807.4,860.6,804.4z M866.5,819.7c-2.7-2-5-6.2-6.8-12.7v-0.2c-0.5-1.4-1.3-4.7-2.2-10c1.5,6.9,4.1,12,7.9,15
					c5,4.2,13.3,7.3,24.7,9.5c0.7,1.8,2,3.1,3.9,3.9c1.2,0.5,4,1.2,8.3,2c3.5,0.7,11,1.3,22.6,2.1l23.5,1l23.6-1
					c11.1-0.8,18.5-1.5,22-2.1c4.1-0.7,6.9-1.4,8.3-2c1.8-0.8,3.2-2.1,3.9-3.9c11.5-2.3,19.8-5.4,24.6-9.5c3.8-3.1,6.4-8.1,7.9-15.1
					c-0.7,4.5-1.5,7.9-2.2,10.1v0.2c-1.6,6.3-3.9,10.5-6.7,12.7c-2,1.6-6.9,3.4-14.4,5.5c-16.4,5-38.8,7.4-67.3,7.4h-0.1
					c-28.3,0-50.8-2.4-67.3-7.4C873.3,823.1,868.4,821.3,866.5,819.7z M943.4,825.6v-0.4h4.5v-0.1l0.1,0.1h5v0.4H943.4z
					 M948.1,826.3H948c-1.4,0-2.7-0.2-4-0.5h8.2l-0.4,0.1L948.1,826.3z M948,826.8L948,826.8l1.9-0.1c20.1-0.1,38.6-1.8,55.7-5.2
					c-0.5,1.4-1.7,2.5-3.4,3.3c-1.5,0.6-4.2,1.3-8.3,2c-3.3,0.6-10.6,1.3-21.9,2l-23.5,1.1l-23.6-1.1c-11.6-0.7-19.1-1.4-22.4-2
					c-4-0.6-6.8-1.2-8.2-2c-1.8-0.8-3-1.9-3.5-3.3c17.5,3.5,36.1,5.1,55.5,5.2L948,826.8z M952.6,826.2l0.6-0.2v0.1
					c10.5-0.3,18.8-0.9,25.2-1.7c7.5-1.1,13.6-2.1,18.3-3.2l-4.2,1.5l0.1,0.4c2.7-0.4,5.2-0.8,7.4-1.1h0.1c2.1-0.4,4.1-0.8,5.8-1.2
					c8.2-2.1,12.7-3.3,13.1-3.4c8.6-3.3,14.2-7.7,16.8-13.2c0.2-0.6,0.5-1.2,0.7-1.8c-0.2,0.6-0.4,1.2-0.7,1.8
					c-1.4,3.2-3.1,5.5-5.2,7.2c-5,4.1-13.2,7.2-24.6,9.4c-2,0.4-4,0.7-5.9,1.1C984.5,824.7,968.7,826,952.6,826.2z M1039.6,786.6
					c-1,7.8-2.3,13.6-4.3,17.6c-2.5,5.3-8,9.6-16.5,12.8c-1.7,0.7-6,1.8-13,3.5l-8.6,1.7l-1.9,0.2l3.9-1.3c1.5-0.5,2.9-0.9,4-1.3
					c7.6-1.7,14.4-4.5,20.6-8.5c4.3-2.9,7.6-6.2,9.6-10.4L1039.6,786.6z"/>
				
					<linearGradient id="SVGID_1_" gradientUnits="userSpaceOnUse" x1="6922.2505" y1="352.9608" x2="33473.1563" y2="352.9608" gradientTransform="matrix(1.800000e-03 -6.700000e-03 4.900000e-03 1.300000e-03 827.0672 452.9547)">
					<stop  offset="0" style="stop-color:#FFFFFF"/>
					<stop  offset="0.3412" style="stop-color:#4D415C"/>
					<stop  offset="0.7451" style="stop-color:#FFFFFF"/>
				</linearGradient>
				<path class="st1" d="M1017.3,349.1l0.3,0.2l2.6,4.7c0.5,0.7,1.1,1.3,1.7,1.7c0.3,0.2,0.7,0.4,1.1,0.6l1.7,0.5
					c0.4,0,0.6-0.3,0.7-0.7c0.2-0.9,0.3-1.9,0.3-3.1l0.1-0.1l0.2,0.1l-0.5-0.3c-2.3-1.3-5-2.5-7.9-3.6
					C1017.5,349.1,1017.4,349.1,1017.3,349.1z"/>
				<path class="st2" d="M1017.6,349.3l-0.3-0.2l-0.1-0.1l0,0v0.4l2.7,4.7c0.3,0.5,0.6,0.9,1.1,1.3c0.5,0.5,1.2,0.9,1.8,1.2l1.6,0.3
					l0.3,0.1c0.5,0.2,0.8-0.2,1.1-0.9c0.2-0.9,0.3-1.9,0.3-3.1l-0.2-0.1l-0.1,0.1c0,1.2-0.1,2.2-0.3,3.1c-0.1,0.4-0.3,0.7-0.7,0.7
					l-1.7-0.5c-0.3-0.2-0.7-0.4-1.1-0.6c-0.6-0.4-1.2-1-1.7-1.7L1017.6,349.3z"/>
				
					<radialGradient id="SVGID_2_" cx="-933.0233" cy="-810.7036" r="953.9194" gradientTransform="matrix(0 9.833881e-02 -0.1051 0 899.953 431.9278)" gradientUnits="userSpaceOnUse">
					<stop  offset="0" style="stop-color:#CAD4FF"/>
					<stop  offset="0.8314" style="stop-color:#0F194E"/>
					<stop  offset="1" style="stop-color:#5386C7"/>
				</radialGradient>
				<path class="st3" d="M1017.2,349.4V349c-7.8-3-18.1-5.8-30.6-8.4c-16.2-3.4-28.9-5-38.4-5H948c-9.8,0.1-22.5,1.8-38,4.8
					c-12.8,2.6-23,5.4-30.9,8.5v0.4l0.1,0.1l-2.6,4.7c-0.2,0.1-0.3,0.3-0.4,0.5c7.9-2.5,15.4-5.3,22.4-8.4c0.8,0.1,1.1,0.4,0.7,0.9
					c-1,1.2-1.9,2.3-3,3.4c2.3-0.7,4.7-1.4,7.3-2.2l0.5-0.1v-0.1l6.8-1.8h0.2l-0.1-0.1c2.2-3.4,8.3-6,18.4-7.8
					c7.1-1.3,13.3-1.9,18.7-1.9h0.2c5.4,0,11.6,0.6,18.8,1.9c10,1.9,16.1,4.5,18.3,7.8l-0.1,0.2l7.1,1.7v0.1l0.3,0.1
					c1.8,0.5,3.4,1,5,1.5c-0.7-0.9-1.6-1.8-2.3-2.7c-0.3-0.5,0-0.8,0.8-0.9c7.7,3.4,16,6.4,24.8,9.2c-0.4-0.4-0.7-0.8-1.1-1.3
					L1017.2,349.4z"/>
				<path class="st4" d="M1001,353.3c-0.1,0-0.2-0.1-0.2-0.1c-0.1-0.1-0.1-0.1-0.2-0.1l-0.4-0.3c0.3,0.2,0.5,0.2,0.5,0
					c-0.8-0.7-1.7-1.5-2.4-2.3c-1.4-0.4-3.3-1-5.8-1.7v0.1l-0.3-0.2c0,0,0.2,0,0.3,0.1v-0.1l-0.1-0.1l-0.2,0.1l-2.6-0.8l-0.1,0.1
					c0.1,0.1,0.1,0.1,0.1,0.2c0.8,0.5,1.3,1,1.3,1.5c0,0.1,0,0.1,0,0.1c0,0.1,0,0.1-0.1,0.2h0.2l7.7,2.5c-0.7-0.5,0-0.2,2.2,0.7
					C1000.9,353.3,1001,353.3,1001,353.3z M992.6,349.1L992.6,349.1C992.6,349,992.6,349,992.6,349.1L992.6,349.1z"/>
				<path d="M992.6,349L992.6,349L992.6,349C992.6,349,992.6,349,992.6,349z"/>
				
					<radialGradient id="SVGID_3_" cx="27915.7051" cy="1595.9418" r="8298.0723" gradientTransform="matrix(4.628597e-03 -4.330984e-03 1.996650e-02 1.868268e-02 811.1016 506.6891)" gradientUnits="userSpaceOnUse">
					<stop  offset="0" style="stop-color:#6F7173"/>
					<stop  offset="1" style="stop-color:#FFFFFF"/>
				</radialGradient>
				<path class="st5" d="M1000.8,353.2c0,0,0.1,0.1,0.2,0.1C1001,353.3,1000.9,353.3,1000.8,353.2l1,0.6c0.5,0.4,1.1,0.9,1.7,1.4
					c2.6,2.1,5.7,4,8.9,5.5c4.1,2.7,7.3,5.2,9.7,7.6c0.1,0.1,0.2,0.2,0.3,0.3c3.6,3,6.4,6.6,8.7,11.2c0.2,0.6,0.5,1.2,0.8,1.9
					c1,2.5,1.8,5.2,2.5,8.2c0.1,0.8,0.3,1.6,0.4,2.5c-0.4-7.7-1.2-13.3-2.2-16.7c-2.9-7.2-7.4-12.3-13.5-15.2
					C1013.1,357.4,1006.9,354.9,1000.8,353.2z"/>
				
					<radialGradient id="SVGID_4_" cx="6094.7778" cy="-3760.9707" r="954.519" gradientTransform="matrix(3.457834e-02 0 0 3.235500e-02 806.3947 491.0915)" gradientUnits="userSpaceOnUse">
					<stop  offset="0.3059" style="stop-color:#FFFFFF"/>
					<stop  offset="0.7725" style="stop-color:#6C866D"/>
					<stop  offset="1" style="stop-color:#FFFFFF"/>
				</radialGradient>
				<path class="st6" d="M1000.7,352.8c0,0.2-0.2,0.2-0.5,0l0.4,0.3c0.1,0,0.1,0,0.2,0.1c6.1,1.8,12.3,4.3,18.3,7.2
					c6.1,3,10.7,8,13.5,15.2c1.1,3.5,1.8,9,2.2,16.7c0.1,0,0.2,0,0.4,0c2.7,0.3,4-0.5,3.8-2.5c0-2.7-0.3-5.5-0.6-8.5
					c-0.1-0.2-0.1-0.4-0.1-0.6c-0.3-1.9-0.6-3.8-1.1-5.7c-0.7-3.3-1.9-6.2-3.4-8.9c-0.5-0.8-1.1-1.7-1.7-2.4c-2-2.8-4.7-4.9-7.8-6.8
					l-1.6-0.3c-0.6-0.3-1.3-0.7-1.8-1.2c-8.9-2.8-17.1-5.8-24.8-9.2c-0.8,0.1-1.2,0.4-0.8,0.9c0.7,0.9,1.6,1.8,2.3,2.7
					c0.2,0.2,0.4,0.5,0.6,0.7C999,351.3,999.9,352.1,1000.7,352.8z"/>
				
					<linearGradient id="SVGID_5_" gradientUnits="userSpaceOnUse" x1="-1355.3953" y1="-6512.1943" x2="265.4218" y2="-6512.1943" gradientTransform="matrix(0 8.090000e-02 -2.530000e-02 0 849.5791 460.6344)">
					<stop  offset="0" style="stop-color:#534866"/>
					<stop  offset="1" style="stop-color:#82869B"/>
				</linearGradient>
				<path class="st7" d="M1004.7,363.5l0.3,0.1c-3.3-6.1-6.6-10-9.8-11.8l-2.7-0.9c10.6,8.2,20,29.1,28.3,62.7
					c3.2,12.8,6,26.4,8.3,40.8c0.3,1.6,0.5,3.1,0.7,4.5c1.1,6.6,1.9,12.4,2.4,17.1c0.2,2.1,0.4,4.1,0.5,5.7l0.5,0.2
					c1.5-3.3,2.4-7.9,2.9-13.9c-0.1-0.3-0.3-1.3-0.6-3.1l-0.3-0.2c-4-22.2-9-43.1-15-62.8c-5.8-18.6-10.9-31.3-15.5-38.2V363.5z"/>
				
					<linearGradient id="SVGID_6_" gradientUnits="userSpaceOnUse" x1="2850.6914" y1="8133.0361" x2="4459.98" y2="8133.0361" gradientTransform="matrix(1.220000e-02 -4.560000e-02 2.310000e-02 6.200000e-03 796.2424 477.6899)">
					<stop  offset="0" style="stop-color:#0F0033"/>
					<stop  offset="0.1486" style="stop-color:#423769"/>
					<stop  offset="0.297" style="stop-color:#6D6797"/>
					<stop  offset="0.4437" style="stop-color:#908DBC"/>
					<stop  offset="0.588" style="stop-color:#ACABD9"/>
					<stop  offset="0.7294" style="stop-color:#BFC1EE"/>
					<stop  offset="0.8664" style="stop-color:#CBCEFB"/>
					<stop  offset="0.9944" style="stop-color:#CFD2FF"/>
				</linearGradient>
				<path class="st8" d="M1005.1,363.7L1005.1,363.7c4.7,7,9.8,19.8,15.5,38.3c6.1,19.6,11.3,41.5,15.5,65.6c0,0.1,0,0.2,0.1,0.2
					c0-0.9,0.1-1.9,0.1-2.9c0.1-1.9,0.1-3.9,0.1-5.8l-1.7-36.7c0-7.1-0.7-16.5-2-28.3c-0.5-5.4-1.2-10.3-1.8-14.3
					c-2.2-4.5-5.1-8.2-8.7-11.2c-0.1-0.1-0.2-0.2-0.3-0.3c-2.4-2.4-5.6-4.9-9.7-7.6c-3.2-1.6-6.2-3.5-8.9-5.5l-3-1.6l-5.3-1.7
					c3.3,1.8,6.6,5.6,9.8,11.8l0,0C1005,363.6,1005,363.6,1005.1,363.7z"/>
				
					<linearGradient id="SVGID_7_" gradientUnits="userSpaceOnUse" x1="11190.8086" y1="557.8079" x2="11215.6328" y2="557.8079" gradientTransform="matrix(1.280000e-02 0 0 1 848.9015 -209)">
					<stop  offset="0" style="stop-color:#626366"/>
					<stop  offset="0.4275" style="stop-color:#A7A9AC"/>
					<stop  offset="1" style="stop-color:#58595B"/>
				</linearGradient>
				<path class="st9" d="M992.5,348.8c-0.1-0.1-0.3-0.1-0.3-0.1L992.5,348.8L992.5,348.8z"/>
				
					<linearGradient id="SVGID_8_" gradientUnits="userSpaceOnUse" x1="4714.4688" y1="-916.0906" x2="6409.9429" y2="-916.0906" gradientTransform="matrix(3.380000e-02 6.000000e-03 -1.190000e-02 6.720000e-02 810.7755 430.4897)">
					<stop  offset="0.1137" style="stop-color:#FFFFFF"/>
					<stop  offset="1" style="stop-color:#373047"/>
				</linearGradient>
				<path class="st10" d="M990.3,350.4l-0.7,0.6l-1.8,0.3c4.3,7.7,8.2,16,11.9,24.7c2.5,6.2,4.9,12.8,7.1,19.5
					c0.8,2.6,1.7,5.1,2.4,7.7c6,18.5,12.4,35.4,19.2,50.9c-2.3-14.4-5.1-27.9-8.1-40.3c-8.9-35.9-18.8-56.8-29.8-62.7l-0.1-0.3
					L990.3,350.4z"/>
				
					<linearGradient id="SVGID_9_" gradientUnits="userSpaceOnUse" x1="4668.7832" y1="-931.245" x2="6384.7539" y2="-931.245" gradientTransform="matrix(3.380000e-02 6.000000e-03 -1.190000e-02 6.720000e-02 792.4752 425.0898)">
					<stop  offset="0" style="stop-color:#FFFFFF"/>
					<stop  offset="1" style="stop-color:#5856A9"/>
				</linearGradient>
				<path class="st11" d="M987.2,351.4h-1l-31.2-4.2c-2.5-0.6-4-1-4.5-1.4h-4.7c-0.4,0.4-1.9,0.8-4.4,1.4l-31.2,4.2
					c14.7,0.2,25.8-0.9,33.1-3.2l0,0c2.4-0.6,5-0.8,7.5-0.7c13.9,2,25.7,6,35.4,12.3c9.8,13.3,20.8,41.6,33,84.9
					c-2.7-14.7-6-28.6-9.9-41.5c-0.7-2.6-1.6-5.1-2.4-7.7c-2.2-6.7-4.5-13.3-7.1-19.5c-3.7-8.7-7.6-17-11.9-24.7L987.2,351.4z"/>
				
					<radialGradient id="SVGID_10_" cx="-933.0193" cy="-810.7075" r="953.9113" gradientTransform="matrix(0 9.833881e-02 -0.1051 0 899.953 431.9278)" gradientUnits="userSpaceOnUse">
					<stop  offset="0" style="stop-color:#CAD4FF"/>
					<stop  offset="0.8314" style="stop-color:#0F194E"/>
					<stop  offset="1" style="stop-color:#5386C7"/>
				</radialGradient>
				<path class="st12" d="M1024.7,357l-0.3-0.1c3.2,1.9,5.8,4.1,7.8,6.8c2.6,2.1,4.4,4.5,5.5,7c2.2,4.5,4.4,9.8,6.3,16.1
					c-0.1-1.5-0.6-3.2-1.5-4.9l-1.7-5.6c-0.8-3.3-1.8-6-2.7-8.3c-3.1-7.1-7.2-12.2-12-14.9c0,1.2-0.1,2.2-0.3,3.1
					C1025.5,356.8,1025.2,357.2,1024.7,357z"/>
				<linearGradient id="SVGID_11_" gradientUnits="userSpaceOnUse" x1="1054.649" y1="429.351" x2="1037.8098" y2="429.351">
					<stop  offset="0" style="stop-color:#000032"/>
					<stop  offset="0.4275" style="stop-color:#8286CF"/>
					<stop  offset="1" style="stop-color:#0F174E"/>
				</linearGradient>
				<path class="st13" d="M1037.3,371.4c-0.8-1.9-2-3.7-3.4-5.2c1.5,2.7,2.6,5.6,3.4,8.9c0.4,2,0.7,3.9,1.1,5.7c0,0.2,0,0.4,0.1,0.6
					c0.3,3,0.6,5.8,0.6,8.5c0.2,2-1.1,2.8-3.8,2.5c0.8,8,1.5,17.2,2,27.6c0.8,19.3,1.6,42.3,2.1,69.2l-0.1,3.5l7.9-5.3l-1.1-64.6
					l-1.7-33C1042.2,382.3,1039.8,376.2,1037.3,371.4z"/>
				
					<linearGradient id="SVGID_12_" gradientUnits="userSpaceOnUse" x1="1424.9904" y1="32290.4277" x2="3045.1511" y2="32290.4277" gradientTransform="matrix(0 -6.150000e-02 6.100000e-03 0 838.5549 567.2915)">
					<stop  offset="0" style="stop-color:#14236F"/>
					<stop  offset="1" style="stop-color:#4E68E1"/>
				</linearGradient>
				<path class="st14" d="M1034.4,389.8c-0.7-3-1.6-5.7-2.5-8.2c0.5,3.7,1.1,8,1.6,12.9c1.2,11.5,1.9,20.8,2,27.9l0.7,16.5
					c0.6,8.5,0.8,15.2,1,20.2c-0.1,3.4-0.2,6.5-0.4,9.4l0.6,1.6c0.7,4.9,1.1,11.3,1.1,18.9l-0.1,4.3l0.8-0.5l-0.3-3.5
					c-0.4-24.1-1.2-47.2-2.2-69.3C1036.2,408.6,1035.4,398.5,1034.4,389.8z"/>
				<path class="st4" d="M905.7,350L905.7,350l-0.1-0.3c0-0.5,0.5-1.1,1.4-1.7l0,0c-1,0.2-1.8,0.4-2.6,0.7h-0.1
					c0.1-0.1,0.2-0.2,0.3-0.2c-0.1,0-0.2,0.1-0.4,0.1l0,0l-0.1,0.1c-1.9,0.5-3.1,0.9-3.7,1.1l-4.1,1.3l-0.5,0.1
					c-1.7,1.6-3.3,3.1-5,4.4c-0.1,0.1-0.2,0.2-0.4,0.3l3.5-1.6c1.1-0.6,2-1.1,3-1.6c0.4-0.1,0.7-0.2,1.3-0.2l7.5-2.5H905.7z
					 M903.9,349l-0.4,0.1c0.1-0.1,0.3-0.2,0.4-0.3V349z"/>
				<path d="M903.5,349.1l0.4-0.1v-0.2C903.8,348.9,903.6,349,903.5,349.1z"/>
				
					<linearGradient id="SVGID_13_" gradientUnits="userSpaceOnUse" x1="-1126.7721" y1="-672.3289" x2="491.9951" y2="-672.3289" gradientTransform="matrix(0 9.950000e-02 -8.210000e-02 0 850.6039 414.3702)">
					<stop  offset="0" style="stop-color:#D1D3D4"/>
					<stop  offset="1" style="stop-color:#58595B"/>
				</linearGradient>
				<path class="st15" d="M905.9,350.3L905.9,350.3l-0.2,0.1C905.8,350.4,905.8,350.3,905.9,350.3L905.9,350.3z"/>
				
					<linearGradient id="SVGID_14_" gradientUnits="userSpaceOnUse" x1="928.2256" y1="1263.7081" x2="2551.282" y2="1263.7081" gradientTransform="matrix(9.500000e-03 -0.104 0.9934 9.110000e-02 -319.2293 499.4245)">
					<stop  offset="0.1294" style="stop-color:#496FB8"/>
					<stop  offset="1" style="stop-color:#171C6A"/>
				</linearGradient>
				<path class="st16" d="M905.9,350.3L905.9,350.3l0.1,0.5l-0.1,0.3c-0.3,0.1-0.5,0.3-0.8,0.4c-10.7,6.5-20.4,27.3-29.1,62.3
					c-6.6,26.5-10.5,49.2-11.9,68.2l-0.4,1.2c0.2,0.4,0.4,0.8,0.6,1.2c1.7-2.4,4-4.5,7.1-6.2c1.2-0.8,2.4-1.5,3.8-2.2
					c5.3-2.5,11.9-4.5,20.1-5.9c13-2.4,30.5-3.6,52.6-3.6h0.1c22.8,0,40.5,1.1,53.1,3.5c9.7,1.7,17.3,4.3,22.9,7.5
					c3.5,2,6.2,4.3,8.1,6.9c0.2-0.3,0.4-0.6,0.5-1l-0.3-1.4c-0.1-1.8-0.3-3.9-0.6-6.1c-1.4,0.2-2.9-0.4-4.1-1.7
					c-18.2-7.5-39.3-11.7-63.4-12.7c-34.8-2.6-62.7-0.6-83.6,5.9c-5.4,1.3-8,0.2-7.9-3.2c0.1-0.4,0.1-0.8,0.1-1.2
					c3.5-29.6,9.7-56.1,18.9-79.5c4.4-11.5,9.6-22.2,15.4-32.2c0-0.1-0.1-0.3-0.1-0.4h-0.2L905.9,350.3z"/>
				
					<linearGradient id="SVGID_15_" gradientUnits="userSpaceOnUse" x1="-936.9879" y1="-7015.9365" x2="669.614" y2="-7015.9365" gradientTransform="matrix(1.540000e-02 5.740000e-02 -2.440000e-02 6.500000e-03 715.2165 451.5521)">
					<stop  offset="0" style="stop-color:#ACC4FF"/>
					<stop  offset="0.2471" style="stop-color:#69679D"/>
					<stop  offset="1" style="stop-color:#000032"/>
				</linearGradient>
				<path class="st17" d="M904.3,351.4c0.3-0.2,0.6-0.4,1.1-0.6c0,0,0.2-0.2,0.3-0.3l-9.7,3.1l-7.6,3.7c-1.9,1.2-3.9,2.4-6.1,3.5
					c-4,2.7-7.3,5.2-9.7,7.6c-0.1,0.1-0.2,0.2-0.3,0.3c-2.3,1.9-4.3,4.2-6,6.8c-1,4.8-1.8,11.1-2.6,18.7c-0.2,2.6-0.5,4.9-0.7,7.3
					c-1.7,39.7-0.7,53.3,3.2,40.9c3.3-23.1,8.5-43.8,15.4-61.9c7.1-15.2,14.3-24.5,21.5-28C903.4,352.1,903.8,351.8,904.3,351.4z"/>
				
					<linearGradient id="SVGID_16_" gradientUnits="userSpaceOnUse" x1="-2550.3713" y1="-1003.6191" x2="-957.442" y2="-1003.6191" gradientTransform="matrix(-2.600000e-02 6.210000e-02 -6.490000e-02 -2.720000e-02 859.5632 480.7733)">
					<stop  offset="0" style="stop-color:#92A2D2"/>
					<stop  offset="0.8483" style="stop-color:#000035"/>
				</linearGradient>
				<path class="st18" d="M907.1,351.4c0.1,0.3,0.2,0.5,0.2,0.8c26.5,9.5,43.1,26.2,50.1,50.1c14.2,32.5,34.8,47.1,62,43.5
					c4.3,11.3,7.6,15.3,9.7,12.3c-0.1-1.1-0.3-2.3-0.5-3.5c0-0.2-0.1-0.4-0.1-0.6s0-0.2,0,0.1c-6.9-15.5-13.2-32.4-19.2-50.9
					c3.9,13,7.2,26.8,9.9,41.5c-12.2-43.3-23.1-71.7-33-84.9c-9.7-6.2-21.5-10.3-35.4-12.3c-2.5-0.1-5.1,0.1-7.5,0.7l0,0
					c-7.3,2.3-18.4,3.4-33.1,3.2h-1.1L907,351C907,351.1,907.1,351.3,907.1,351.4z M951.6,350.1c0,0.1,0,0.1,0.1,0.1
					c0.8,0.4,1.6,1.2,2.3,2.6c0.6,1.4,0,3.2-1.8,5.2c-1.9,2.1-4.9,2.1-8.9,0c-1.9-1.3-2.5-3-2.1-4.7c0.4-1.9,1.3-2.6,2.6-2.2
					c0.3-0.3,0.6-0.7,1-1c1-0.7,2-1.1,3.4-1.1C949.6,349,950.6,349.4,951.6,350.1z"/>
				
					<radialGradient id="SVGID_17_" cx="-28939.6211" cy="-5205.0981" r="1229.839" gradientTransform="matrix(0 5.095275e-03 -5.445408e-03 0 774.7448 503.9645)" gradientUnits="userSpaceOnUse">
					<stop  offset="0" style="stop-color:#FFFFFF"/>
					<stop  offset="0.7451" style="stop-color:#58595B"/>
				</radialGradient>
				<path class="st19" d="M951.7,350.2c-0.1,0-0.1,0-0.1-0.1c-1-0.7-2-1.1-3.4-1.1c-1.4,0-2.4,0.4-3.4,1.1c-0.3,0.3-0.6,0.7-1,1
					c-0.3,0.5-0.4,1.1-0.4,1.8c0,1.1,0.4,2.1,1.4,2.8c1.1,0.8,2.1,1.2,3.4,1.2c1.4,0,2.4-0.4,3.4-1.2c1-0.7,1.4-1.7,1.5-2.8
					C952.9,351.8,952.5,350.9,951.7,350.2z M951.5,350.2c0.8,0.8,1.3,1.7,1.4,2.7c-0.1,1-0.5,1.9-1.4,2.6c-1,0.7-2,1.1-3.3,1.1
					c-1.2,0-2.2-0.4-3.1-1.1c-1-0.7-1.4-1.6-1.4-2.6c0-1,0.4-1.9,1.4-2.7c0.8-0.7,1.9-1,3.1-1C949.4,349.2,950.5,349.5,951.5,350.2z
					"/>
				<path class="st4" d="M952.8,352.9c-0.1-1-0.5-1.9-1.4-2.7c-1-0.7-2-1-3.3-1c-1.2,0-2.2,0.3-3.1,1c-1,0.8-1.4,1.7-1.4,2.7
					c0,1,0.4,1.9,1.4,2.6c0.8,0.7,1.9,1.1,3.1,1.1c1.3,0,2.3-0.4,3.3-1.1C952.3,354.7,952.7,353.9,952.8,352.9z M948.2,349.6
					c2.7,0,4,1.1,4,3.3c0,0.9-0.4,1.7-1.2,2.3c-0.8,0.7-1.7,1-2.9,1c-1.1,0-2-0.3-2.7-1c-0.7-0.6-1.2-1.4-1.2-2.3
					c0-0.9,0.4-1.7,1.2-2.3C946.2,349.9,947.1,349.6,948.2,349.6z"/>
				
					<radialGradient id="SVGID_18_" cx="-22228.918" cy="-3355.2441" r="2267.6365" gradientTransform="matrix(0 6.538936e-03 -6.988274e-03 0 776.0828 503.8039)" gradientUnits="userSpaceOnUse">
					<stop  offset="0" style="stop-color:#FFFFFF"/>
					<stop  offset="0.7451" style="stop-color:#58595B"/>
				</radialGradient>
				<path class="st20" d="M952.2,352.9c0-2.2-1.3-3.3-4-3.3c-1.1,0-2,0.3-2.7,1c-0.7,0.6-1.2,1.4-1.2,2.3c0,0.9,0.4,1.7,1.2,2.3
					c0.7,0.7,1.7,1,2.7,1c1.2,0,2-0.3,2.9-1C951.8,354.5,952.2,353.8,952.2,352.9z M950.6,354.9c0.1,0,0.1-0.1,0.2-0.1
					c0.1-0.2,0.3-0.4,0.6-0.5c-0.2,0.2-0.4,0.3-0.5,0.5C950.8,354.8,950.7,354.9,950.6,354.9z"/>
				<path class="st21" d="M954,352.8c-0.7-1.4-1.5-2.2-2.3-2.6c0.8,0.7,1.3,1.6,1.4,2.7c-0.1,1.1-0.5,2.1-1.5,2.8
					c-1,0.8-2,1.2-3.4,1.2c-1.3,0-2.3-0.4-3.4-1.2c-1-0.7-1.4-1.7-1.4-2.8c0-0.7,0.1-1.3,0.4-1.8c-1.4-0.4-2.2,0.3-2.6,2.2
					c-0.4,1.8,0.2,3.5,2.1,4.7c4,2.1,7,2.1,8.9,0C954,355.9,954.6,354.1,954,352.8z"/>
				
					<linearGradient id="SVGID_19_" gradientUnits="userSpaceOnUse" x1="-503.907" y1="781.5789" x2="1138.2863" y2="781.5789" gradientTransform="matrix(3.490000e-02 0.1298 -0.9645 0.2592 1688.2185 208.7093)">
					<stop  offset="0" style="stop-color:#BEC1F0"/>
					<stop  offset="0.5333" style="stop-color:#000638"/>
				</linearGradient>
				<path class="st22" d="M907.3,352.2c0-0.3-0.1-0.5-0.2-0.8c-5.8,10-11,20.8-15.4,32.2c-9.2,23.4-15.4,49.9-18.9,79.5
					c0,0.4,0,0.8-0.1,1.2c-0.1,3.4,2.5,4.4,7.9,3.2c20.9-6.5,48.8-8.5,83.6-5.9c24.1,1,45.2,5.1,63.4,12.7c-1.8-1.7-3.5-4.6-5.1-8.9
					c-8.6-7.7-18.7-12.2-30.6-13.3c-48.7-3.7-77.4-6.2-85.8-7.7c-14.8-0.7-20-15.6-15.5-44.7C893.1,382.4,898.7,366.6,907.3,352.2z
					 M948.6,456.3h-0.1v-0.1L948.6,456.3z M983.7,451.5l-0.1,0.1L983.7,451.5L983.7,451.5z"/>
				
					<linearGradient id="SVGID_20_" gradientUnits="userSpaceOnUse" x1="6949.6577" y1="-2454.6582" x2="8681.1592" y2="-2454.6582" gradientTransform="matrix(2.530000e-02 0 0 2.850000e-02 679.5957 439.2654)">
					<stop  offset="0.3059" style="stop-color:#FFFFFF"/>
					<stop  offset="0.7725" style="stop-color:#7FA7AA"/>
					<stop  offset="1" style="stop-color:#FFFFFF"/>
				</linearGradient>
				<path class="st23" d="M896.2,351.1c-0.2,0-0.4,0.1-0.5,0.1c0.2-0.2,0.4-0.4,0.6-0.7c1.1-1.1,2-2.2,3-3.4
					c0.3-0.5,0.1-0.8-0.7-0.9c-7,3.1-14.5,5.9-22.4,8.4c-0.2,0.1-0.4,0.2-0.6,0.2c-1.1,0.4-2.1,0.7-3.2,1c-0.4,0.2-0.8,0.4-1.2,0.7
					c-0.2,0-0.2,0.1-0.3,0.1c-5.9,3.3-10,8-12.3,14.2l0.1,0.1c-0.1,0-0.1,0.1-0.2,0.2c-0.4,1.2-0.8,2.6-1.1,3.9
					c-1.2,5.3-1.8,10.3-1.9,14.8c-0.1,2,1.3,2.8,4.2,2.5l1.7-11.5c1.1-7,4-12.6,8.7-16.7c4.5-3.9,11.5-6.7,20.6-8.6
					c1.7-1.3,3.3-2.8,5-4.4L896.2,351.1z"/>
				
					<linearGradient id="SVGID_21_" gradientUnits="userSpaceOnUse" x1="-1127.339" y1="-1336.1957" x2="493.2932" y2="-1336.1957" gradientTransform="matrix(0 9.950000e-02 -8.210000e-02 0 850.6039 414.3702)">
					<stop  offset="0" style="stop-color:#BCC5F0"/>
					<stop  offset="0.8078" style="stop-color:#000030"/>
				</linearGradient>
				<path class="st24" d="M1022.5,465.3c1.6,4.3,3.3,7.2,5.1,8.9c1.3,1.3,2.7,1.9,4.1,1.7c-0.5-4.9-1.4-10.9-2.5-17.8
					c-2.1,3.1-5.4-1-9.7-12.3c-27.3,3.6-47.9-11-62-43.5c-7-23.9-23.6-40.6-50.1-50.1c-8.6,14.4-14.2,30.3-16.8,47.4
					c-4.4,29.1,0.7,44,15.5,44.7c8.5,1.5,37.1,4.1,85.8,7.7C1003.8,453.1,1013.9,457.6,1022.5,465.3z"/>
				<path class="st25" d="M1033.4,482.1l-0.5-0.2L1033.4,482.1L1033.4,482.1z"/>
				<path class="st4" d="M1033.4,482.1l-0.5-0.2l-0.2,1.5C1032.9,483,1033.1,482.6,1033.4,482.1z"/>
				<path class="st2" d="M879.1,349.3v-0.4v-0.4l-0.2,0.5l-2.7,5c-0.2,0.3-0.4,0.6-0.6,0.8c0.2,0,0.4-0.1,0.6-0.2
					c0.1-0.2,0.2-0.4,0.4-0.5l2.6-4.7L879.1,349.3z"/>
				
					<linearGradient id="SVGID_22_" gradientUnits="userSpaceOnUse" x1="19709.8867" y1="352.763" x2="21441.3066" y2="352.763" gradientTransform="matrix(-1.000000e-03 -8.500000e-03 4.700000e-03 -6.000000e-04 689.3542 456.4762)">
					<stop  offset="0" style="stop-color:#FFFFFF"/>
					<stop  offset="0.3412" style="stop-color:#4D415C"/>
					<stop  offset="0.7451" style="stop-color:#FFFFFF"/>
				</linearGradient>
				<path class="st26" d="M878.9,349c-2.9,1.1-5.3,2.3-7.5,3.5c-0.2,0.1-0.5,0.3-0.8,0.5l0.2,0.1c0,1.2,0.1,2.2,0.2,3.1
					c0.1,0.1,0.1,0.2,0.2,0.4c0.3-0.3,0.7-0.5,1.2-0.7c1.1-0.3,2.1-0.6,3.2-1c0.2-0.2,0.4-0.5,0.6-0.8L878.9,349z"/>
				<path class="st2" d="M870.8,356.6c0.1,0,0.1-0.1,0.3-0.1c-0.1-0.2-0.1-0.3-0.2-0.4c-0.1-0.9-0.2-1.9-0.2-3.1l-0.2-0.1l-0.2-0.3
					c0,0.1,0,0.2,0,0.4c0.1,1.2,0.1,2.3,0.4,3.1C870.7,356.3,870.8,356.5,870.8,356.6z"/>
				
					<radialGradient id="SVGID_23_" cx="1170.979" cy="-7940.2871" r="953.9202" gradientTransform="matrix(4.991624e-03 4.670669e-03 -1.860514e-02 1.740886e-02 719.0419 501.2046)" gradientUnits="userSpaceOnUse">
					<stop  offset="8.627000e-02" style="stop-color:#B2B4B6"/>
					<stop  offset="1" style="stop-color:#FFFFFF"/>
				</radialGradient>
				<path class="st27" d="M888.4,357.2c0.6-0.5,1.3-1,1.9-1.4c0.2-0.1,0.3-0.2,0.4-0.3c-9.1,1.9-16.1,4.7-20.6,8.6
					c-4.6,4.2-7.6,9.7-8.7,16.7l-1.7,11.5c0.6-3.7,1.6-7,2.9-10c0.2-0.7,0.4-1.3,0.7-1.9c0.6-1.4,1.4-2.8,2.1-4.1
					c0.2-0.3,0.4-0.7,0.7-1c1.7-2.7,3.7-4.9,6-6.8c0.1-0.1,0.2-0.2,0.3-0.3c2.4-2.4,5.7-4.9,9.7-7.6
					C884.5,359.6,886.5,358.4,888.4,357.2z"/>
				
					<radialGradient id="SVGID_24_" cx="-933.0145" cy="-810.7119" r="953.9238" gradientTransform="matrix(0 9.833881e-02 -0.1051 0 899.953 431.9278)" gradientUnits="userSpaceOnUse">
					<stop  offset="0" style="stop-color:#CAD4FF"/>
					<stop  offset="0.8314" style="stop-color:#0F194E"/>
					<stop  offset="1" style="stop-color:#5386C7"/>
				</radialGradient>
				<path class="st28" d="M870.7,356.1c-0.3-0.8-0.3-1.9-0.4-3.1c-4.6,2.9-8.6,7.9-11.8,14.8c-1.1,2.4-2,5.1-3,8.4l-1.7,5.6
					c-0.7,1.8-1.3,3.6-1.6,5.4l3.8-11.1c1.1-2.6,1.9-4.4,2.4-5.1c0.1-0.1,0.1-0.2,0.2-0.2l-0.1-0.1c2.2-6.2,6.3-11,12.3-14.2
					C870.8,356.5,870.7,356.3,870.7,356.1z"/>
				<linearGradient id="SVGID_25_" gradientUnits="userSpaceOnUse" x1="846.1754" y1="433.0576" x2="864.7442" y2="433.721">
					<stop  offset="0" style="stop-color:#170032"/>
					<stop  offset="1" style="stop-color:#6886CF"/>
				</linearGradient>
				<path class="st29" d="M857.4,375c0-0.2,0.1-0.5,0.1-0.7l-1.1,2.2l-4.5,13.6l-1.7,32.5l-1,64.6l7.8,5.3c-0.1-0.6-0.1-1.7,0-3.5
					c0.4-26.9,1.2-49.9,2.1-69.2c0.6-14.7,1.8-27.3,3.4-37.6c-1.3,3-2.2,6.3-2.9,10c-3,0.3-4.3-0.5-4.2-2.5
					C855.6,385.3,856.2,380.4,857.4,375z"/>
				
					<linearGradient id="SVGID_26_" gradientUnits="userSpaceOnUse" x1="-1400.239" y1="-28906.6113" x2="219.9218" y2="-28906.6113" gradientTransform="matrix(0 7.810000e-02 -6.000000e-03 0 687.9231 476.2269)">
					<stop  offset="0" style="stop-color:#14236F"/>
					<stop  offset="1" style="stop-color:#4E68E1"/>
				</linearGradient>
				<path class="st30" d="M865.4,376.4c-0.7,1.3-1.5,2.7-2.1,4.1c-1.7,10.7-2.9,23.8-3.6,39.5l-2.4,72.9l0.7,0.4l-0.1-4.3
					c0-7.6,0.3-13.9,1.2-18.9c0.2-0.6,0.4-1.1,0.5-1.4c-0.2-2.9-0.3-6.1-0.3-9.6c0-4.9,0.2-11.7,0.7-20.2l1-16.5
					c0-6.1,0.5-14,1.5-23.7c0.2-1.4,0.3-2.8,0.5-4.2C863.7,387.2,864.6,381.2,865.4,376.4z"/>
				
					<linearGradient id="SVGID_27_" gradientUnits="userSpaceOnUse" x1="2320.1108" y1="3038.6057" x2="3967.1135" y2="3038.6057" gradientTransform="matrix(6.010000e-02 -5.340000e-02 1.640000e-02 1.850000e-02 632.3398 539.6229)">
					<stop  offset="0" style="stop-color:#496FB8"/>
					<stop  offset="1" style="stop-color:#0A0332"/>
				</linearGradient>
				<path class="st31" d="M862.8,401.4c-0.7,8.4-1.3,15.4-1.3,21l-1.7,37c0,10.5,1.1,18.1,3.3,22.7c0.1,0.3,0.2,0.6,0.4,1v-1.2
					c0.5-6.5,1.7-15.6,3.7-27.4c2.3-14.4,5.2-28.1,8.3-40.8c8.2-33,17.3-53.4,27.3-61.2c-7.2,3.5-14.4,12.8-21.5,28
					c-7,18.1-12.2,38.8-15.4,61.9C862,454.7,861.1,441.1,862.8,401.4z"/>
				
					<linearGradient id="SVGID_28_" gradientUnits="userSpaceOnUse" x1="20801.1152" y1="7509.1401" x2="21998.8066" y2="7509.1401" gradientTransform="matrix(1.800000e-03 -6.600000e-03 2.290000e-02 6.200000e-03 760.0479 437.9103)">
					<stop  offset="0" style="stop-color:#FFFFFF"/>
					<stop  offset="0.7451" style="stop-color:#58595B"/>
				</linearGradient>
				<path class="st32" d="M990.2,349.7c0-0.1,0-0.2-0.1-0.2c-0.1-0.4-0.4-0.7-1.1-1.2l-1.7-0.8l0,0l0.5,1.1c0,0.2-0.1,0.4-0.4,0.7
					l-1.3,0.2l-34-4.7c-1.2-0.3-1.8-1-2-2c0.1-0.2,0.2-0.4,0.2-0.5c-0.2,0-0.4,0.1-0.7,0.2c-0.4,0.1-0.6,0.3-0.5,0.7
					c0,0.4,0.3,0.9,0.8,1.4c0.8,0.9,2.5,1.6,5.2,2.2l32,4.3l2.2-0.4C989.9,350.4,990.1,350.1,990.2,349.7
					C990.1,349.7,990.1,349.7,990.2,349.7z"/>
				<path class="st4" d="M985.5,347.1l0.1,0.1l0.2,0.1v1.7h0.4c0.1,0,0.1,0,0.3,0c0.2-0.1,0.5-0.1,0.7-0.2l0.2-0.2
					c-0.1-0.4-0.4-0.7-0.6-0.9l-2.1-1l-14.6-2.8c-7.5-1.2-13.8-1.8-18.8-1.8H951v0.3l-0.2,0.3c-0.1,0.5,0.3,0.9,1,1.3v-1.5l0.2-0.2
					l0.3,0.2v1.5l1.9,0.1v-1.4l0.2-0.2l0.4,0.2v1.4l2,0.1v-1.1l0.2-0.3l0.2,0.3v1.2l2,0.1v-1.1l0.3-0.3l0.2,0.3v1.2l2.1,0.2v-1.2
					l0.3-0.2l0.2,0.2v1.2l2.1,0.3v-1.2l0.3-0.2l0.2,0.2v1.3l2,0.2v-1.2l0.3-0.2l0.2,0.2v1.2l1.9,0.2c0.1,0,0.2,0.1,0.2,0.1v-1.2
					l0.3-0.2l0.2,0.2v1.2l2.1,0.3v-1l0.2-0.3l0.3,0.3v1.1l2.1,0.3v-1.1l0.2-0.2l0.2,0.2v1.1l2.1,0.4v-1l0.2-0.3l0.3,0.3v1.1l2,0.4
					v-1l0.3-0.3l0.3,0.3v1.1l1.9,0.4v-1l0.4-0.3l0.2,0.3v1.2l2,0.7v-1.3L985.5,347.1z"/>
				<path class="st33" d="M980.7,347.8v0.5l1.9,0.3v-0.4L980.7,347.8z"/>
				<path class="st33" d="M979.6,347.6l-1.5-0.3v0.6l2,0.3v-0.5C979.9,347.6,979.8,347.6,979.6,347.6z"/>
				
					<linearGradient id="SVGID_29_" gradientUnits="userSpaceOnUse" x1="-7005.9214" y1="-1786.7396" x2="-5282.376" y2="-1786.7396" gradientTransform="matrix(-1.290000e-02 2.240000e-02 -3.650000e-02 -2.100000e-02 805.0602 443.9836)">
					<stop  offset="0" style="stop-color:#FFFFFF"/>
					<stop  offset="0.3529" style="stop-color:#4958B1"/>
					<stop  offset="0.7451" style="stop-color:#FFFFFF"/>
				</linearGradient>
				<path class="st34" d="M948.2,337h-0.1c-5.8,0-12,0.7-18.6,1.9c-9.6,1.7-15.4,4.2-17.6,7.2l14.3-2.6c6.7-1.2,13-1.8,19.1-1.8h0.3
					l1.5,0.2l0.1,0.1l0.1-0.1h2l0.1,0.1l0.1-0.1l1.6-0.2h0.3c5.9,0,12.3,0.6,18.9,1.8l14.4,2.6c-2.2-3.1-8.1-5.4-17.5-7.2
					C960.3,337.7,954.1,337,948.2,337z"/>
				<path class="st4" d="M934.2,343.4l0.2,0.2v1.2l2.1-0.2v-1.2l0.2-0.3l0.4,0.3v1.1l2-0.1v-1.2l0.2-0.3l0.2,0.3v1.1l2-0.1v-1.4
					l0.3-0.2l0.2,0.2v1.4l1.9-0.1v-1.5l0.3-0.2l0.2,0.2v1.5c0.7-0.3,1.1-0.8,1.1-1.3l-0.2-0.3v-0.3h-0.2c-4.9,0-11.2,0.6-19,1.8
					l-14.5,2.8l-2.2,1c-0.2,0.3-0.4,0.6-0.6,0.9l0.3,0.2c0.2,0.1,0.6,0.2,1.1,0.2h0.3v-1.7l0.3-0.2l0.2,0.2v1.3l2-0.7v-1.2l0.2-0.3
					l0.3,0.3v1l2.1-0.4v-1.1l0.3-0.3l0.2,0.3v1l2-0.4v-1.1l0.3-0.3l0.2,0.3v1l2.1-0.4v-1.1l0.2-0.2l0.3,0.2v1.1l2.1-0.3V345l0.2-0.3
					l0.3,0.3v1l2-0.3v-1.2l0.2-0.2l0.3,0.2v1.2l2.1-0.3v-1.2l0.2-0.2l0.4,0.2v1.2l2-0.2v-1.3l0.2-0.2l0.3,0.2v1.2l2-0.3v-1.2
					L934.2,343.4z"/>
				<path class="st33" d="M931.9,345.5v0.6l2-0.3v-0.5L931.9,345.5z"/>
				<path class="st33" d="M931.4,346.2v-0.7l-2,0.3v0.6L931.4,346.2z"/>
				<path class="st33" d="M934.4,345.2v0.5l2.1-0.3v-0.3L934.4,345.2z"/>
				<path class="st33" d="M926.1,346.9v-0.8l-2,0.3v0.8L926.1,346.9z"/>
				<path class="st33" d="M926.6,346.1v0.8l2.1-0.4v-0.7l-1.8,0.2C926.8,346.1,926.7,346.1,926.6,346.1z"/>
				<path class="st33" d="M923.6,346.5l-2.1,0.3v0.7l2.1-0.2V346.5z"/>
				<path class="st33" d="M918.3,347.9v-0.6l-1.5,0.3c-0.2,0-0.4,0-0.5,0.1v0.5L918.3,347.9z"/>
				<path class="st33" d="M915.7,348.3v-0.5l-2.1,0.4v0.4L915.7,348.3z"/>
				<path class="st33" d="M918.8,347.9l2.1-0.3v-0.7l-2.1,0.3V347.9z"/>
				
					<linearGradient id="SVGID_30_" gradientUnits="userSpaceOnUse" x1="10710.6523" y1="9212.2158" x2="10829.042" y2="9212.2158" gradientTransform="matrix(-1.000000e-03 -6.500000e-03 2.340000e-02 -3.500000e-03 721.7306 447.0345)">
					<stop  offset="0" style="stop-color:#FFFFFF"/>
					<stop  offset="0.7451" style="stop-color:#58595B"/>
				</linearGradient>
				<path class="st35" d="M907.3,348.3c-0.7,0.5-1.1,1-1.1,1.4c0,0.4,0.2,0.6,0.7,0.9l2.2,0.4l32.1-4.3c2.5-0.6,4.3-1.3,5.1-2.2
					c0.6-0.5,1-1,1-1.4c0-0.4-0.2-0.6-0.6-0.7c-0.2-0.1-0.5-0.2-0.7-0.2c0.2,0.2,0.2,0.4,0.2,0.5c0,0.9-0.6,1.6-2,2l-33.9,4.7
					l-1.4-0.2c-0.1-0.2-0.2-0.3-0.3-0.4c-0.1-0.1-0.2-0.2-0.2-0.3c0-0.4,0.3-0.8,0.7-1.1L907.3,348.3z"/>
				<path class="st33" d="M975,346.8l-2.1-0.3v0.8l2.1,0.2V346.8z"/>
				<path class="st33" d="M977.6,347.2l-2.1-0.3v0.7l2.1,0.3V347.2z"/>
				<path class="st33" d="M967.6,345.8v0.7l2.1,0.4v-0.8L967.6,345.8z"/>
				<path class="st33" d="M972.4,346.4l-2.1-0.3v0.8l2.1,0.3V346.4z"/>
				<path class="st33" d="M961.9,345.7v-0.4l-2.1-0.2v0.3L961.9,345.7z"/>
				<path class="st33" d="M962.4,345.3v0.5l2.1,0.3v-0.6L962.4,345.3z"/>
				<path class="st33" d="M967.1,345.8l-2-0.3v0.6l2,0.3V345.8z"/>
				<path class="st33" d="M957.3,345v0.2c0.2-0.1,0.5,0,0.6,0.1l1.4,0.2V345L957.3,345z"/>
				<path class="st4" d="M948.5,343.2c0.1-0.3,0.2-0.5,0.2-0.7h-1.1c0.1,0.3,0.2,0.5,0.2,0.7c0,0.4-0.3,1-1,1.8l-0.5,0.4h3.6
					c-0.2-0.2-0.4-0.3-0.4-0.4C948.8,344.2,948.5,343.6,948.5,343.2z"/>
				<path class="st33" d="M937.2,345v0.4l1.3-0.2c0.3-0.1,0.5-0.2,0.7-0.1V345L937.2,345z"/>
				<path class="st4" d="M926.2,477.8l0.1,0.2c0.4-0.1,0.8-0.1,1.2-0.1L926.2,477.8z"/>
				<linearGradient id="SVGID_31_" gradientUnits="userSpaceOnUse" x1="879.2216" y1="512.6199" x2="990.4836" y2="512.6199">
					<stop  offset="0" style="stop-color:#001820"/>
					<stop  offset="1" style="stop-color:#707B80"/>
				</linearGradient>
				<path class="st36" d="M926.3,478l-0.1-0.2c-11.1-4.8-27.5-5.5-49-2.1c-2.2,0.9-4.1,2-5.9,3.1c-2.5,1.7-4.6,3.5-6.1,5.5
					c-0.2,0.1-0.3,0.3-0.4,0.5c0,0.1,0,0.1,0,0.1c1,7.5,4.2,22,9.7,43c-0.1,0.3,0,0.5,0.1,0.6l5.8,23.2l1.5-0.4
					c0.2-0.1,0.4-0.1,0.6-0.1c9.9-2.1,22.4-3.5,37.5-4.3l7-0.2c25.6-4.4,45.1-6.4,58.5-6.4c-31-1.5-62.9-0.2-95.7,3.7
					c-2.6,0.3-5.6-1.4-8.9-5.2L870,494.5c3.4-8.3,12.4-13.1,26.7-14.4C906.5,479.1,916.4,478.4,926.3,478z"/>
				<linearGradient id="SVGID_32_" gradientUnits="userSpaceOnUse" x1="895.9633" y1="509.3505" x2="1040.8373" y2="509.3505">
					<stop  offset="0" style="stop-color:#001820"/>
					<stop  offset="1" style="stop-color:#707B80"/>
				</linearGradient>
				<path class="st37" d="M926.2,477.8l1.3,0.1c4.4-0.2,8.8-0.3,13.2-0.5c14.8-0.4,36.1,0.8,63.9,3.7c10.6,1.5,17,5.7,19.6,12.8
					l-9.1,40.9c-0.8,4.3-3.4,6.7-7.6,7.2c-7.2-0.6-14.4-1.2-21.7-1.5c-0.1-0.1-0.2-0.1-0.3-0.1c-13.4,0-33,2.1-58.5,6.4l21.6-0.6
					l27.3,0.8c15,0.8,27.6,2.2,37.6,4.3c0.2,0,0.4,0.1,0.6,0.1l2,0.5c0.1-0.1,0.1-0.2,0.2-0.3l0.1-0.6l5.6-22.2c0-0.3,0-0.4,0.1-0.6
					c5.4-21.3,8.7-35.7,9.7-43.3l0.1-0.1c-1.9-2.5-4.4-4.7-7.8-6.7c-5.6-3.4-13.3-5.9-23.1-7.7c-13.1-2.4-30.8-3.5-52.9-3.5h-0.1
					c-22.3,0.2-39.8,1.3-52.5,3.6c-7.2,1.3-13.3,3.1-18.2,5.2C898.7,472.2,915.1,472.9,926.2,477.8z"/>
				
					<linearGradient id="SVGID_33_" gradientUnits="userSpaceOnUse" x1="-3216.5061" y1="-856.3841" x2="-1557.3672" y2="-856.3841" gradientTransform="matrix(-3.930000e-02 5.020000e-02 -7.020000e-02 -5.500000e-02 860.7508 626.324)">
					<stop  offset="0" style="stop-color:#001820"/>
					<stop  offset="1" style="stop-color:#707B80"/>
				</linearGradient>
				<path class="st38" d="M1016.1,551.8l0.1-0.3c-0.1,0.1-0.1,0.2-0.2,0.3H1016.1z"/>
				<path class="st39" d="M1015.9,552.2c0-0.1,0.1-0.2,0.1-0.4l-2-0.5c-0.2,0-0.4-0.1-0.6-0.1c-10-2.1-22.6-3.5-37.6-4.3l-27.3-0.8
					l-21.6,0.6l-7,0.2c-15.1,0.8-27.6,2.2-37.5,4.3c-0.2,0-0.4,0-0.6,0.1l-1.5,0.4l-5.8-23.2c-0.1-0.1-0.2-0.3-0.1-0.6
					c-5.5-21.1-8.8-35.5-9.7-43c0,0,0,0,0-0.1c0,0.1,0,0.1-0.1,0.1c-0.3,0-0.4,0.3-0.4,0.7c1.2,7.5,4.3,21.7,9.6,42.6
					c0.1,0.2,0.1,0.3,0.1,0.6l5.9,23.4l0.1,0.1l1.4,8.1c0,0.1,0,0.3,0.1,0.5l2,18.9c0,0.1,0,0.3,0.1,0.5l0.4,7.3
					c0,0.1,0.1,0.3,0.2,0.5l1.2,46.4c0,0.1,0,0.3-0.1,0.6l-2,53.2c-0.1,0.1-0.1,0.3-0.1,0.5l-1.5,13.7l0.5-0.3c0-0.3,0-0.6,0.1-0.8
					l1.4-12.7l1.5-23.6l0.5-54.7l-0.1-0.4l-0.3-11.5c0-0.2,0-0.3-0.1-0.5l-1.2-18.3l-2.1-18.9v-0.5l-1.4-8.2l1.4-0.4
					c0.2,0,0.3,0,0.6-0.1c9.9-2,22.4-3.5,37.5-4.3l28.5-0.7l27.3,0.7c14.9,0.7,27.5,2.2,37.6,4.3L1015.9,552.2z"/>
				
					<radialGradient id="SVGID_34_" cx="945.7992" cy="-291.3193" r="953.9192" gradientTransform="matrix(9.511313e-02 8.899747e-02 -0.1193 0.1117 793.9835 606.6534)" gradientUnits="userSpaceOnUse">
					<stop  offset="0" style="stop-color:#47517E"/>
					<stop  offset="1" style="stop-color:#0D0032"/>
				</radialGradient>
				<path class="st40" d="M1016,552.3l-0.1-0.1c-0.3,0.5-0.5,0.9-0.8,1.4c0.3-0.5,0.5-0.9,0.8-1.4l-2.5-0.5
					c-10.1-2.1-22.7-3.6-37.6-4.3l-27.3-0.7l-28.5,0.7c-15.1,0.8-27.6,2.3-37.5,4.3c-0.3,0.1-0.4,0.1-0.6,0.1l-1.4,0.4l1.4,8.2v0.5
					l2.1,18.9l1.2,18.3c0.1,0.2,0.1,0.3,0.1,0.5l0.3,11.5l0.1,0.4l-0.5,54.7l-1.5,23.6l-1.4,12.7c-0.1,0.2-0.1,0.5-0.1,0.8l0.7-0.5
					c0.2,0,0.4,0,0.5-0.1c0.2,0,0.3-0.1,0.5,0c-0.2-0.1-0.3,0-0.5,0c-0.1,0.1-0.3,0.1-0.5,0.1l-0.7,0.5c0,0,0,0.1,0,0.2h0.1l5.6,1.5
					l2.6,0.5c6.7,1.1,15.4,2.1,26.3,2.8l15.3,0.8h31.3c0.2,0,0.4,0,0.5-0.1l15-0.7c10.7-0.7,19.4-1.7,26.2-2.8l2.9-0.5l6.3-1.7
					c-0.1-0.2-0.1-0.5-0.1-0.8l-1.5-12.7l-1.5-23.5l-0.6-37.2l0.5-29.5c0.1-0.2,0.1-0.4,0.1-0.5l3.3-37.2v-0.5L1016,552.3z"/>
				<path class="st4" d="M985.8,540.3l-0.3,0.1c0.1,0,0.2,0,0.3,0.1C985.8,540.4,985.8,540.4,985.8,540.3z"/>
				
					<radialGradient id="SVGID_35_" cx="-94.41" cy="-86.1941" r="953.4684" gradientTransform="matrix(0 0.1535 -0.164 0 858.3963 645.9139)" gradientUnits="userSpaceOnUse">
					<stop  offset="0" style="stop-color:#6886B3"/>
					<stop  offset="1" style="stop-color:#120A3F"/>
				</radialGradient>
				<path class="st41" d="M864.2,485.6l-1.7,3.4h0.1c2,12.1,5.1,25.1,9,39.3l0.3,1.6c0.1,0.2,0.1,0.4,0.1,0.6c3.2,12,5.5,22,7,30.1
					c0,0.2,0.1,0.4,0.1,0.5l2.2,17.1c0,0.3,0,0.5,0.1,0.7l0.8,27.2c-0.1-0.3-0.2-0.4-0.2-0.6c-0.2-10-0.6-19.1-1.3-27.2v-0.8
					l-2.1-16.4c-0.1-0.2-0.2-0.4-0.1-0.5c-1.5-7.5-3.7-17.3-6.9-29.6c0-0.3-0.2-0.5-0.2-0.6l-0.5-1.8c-3.9-14.7-6.9-27.6-8.9-38.6
					c-1.5,3.5-2.2,6.3-2.4,8.5c2.2,8.8,5.5,21,9.8,36.6l3,10.1c1.2,4.5,2.3,9.6,3.4,15.3v0.5c0.7,4,1.4,8.6,1.8,14.1v0.7
					c0.6,6.2,1,13.8,1.2,22.7l0.2,22.6c-0.1,0.2-0.1,0.4-0.1,0.5l-1.6,43.5c-0.1,0.3-0.1,0.5-0.1,0.5l-1.6,14.1
					c-0.1,0.2-0.1,0.4-0.1,0.5c-1.5,10.7-3.5,20-5.9,28.1l-0.7,2l-2,4.5c-0.7,0.9-1.5,1.4-2.2,1.4c-1,0-1.9-0.8-2.9-2.2l-1.7-3
					c0.2,16.1,1.5,38.2,4,66.2c0.5-2.1,1-3.6,1.4-4.5l-0.2-0.1l-3.7-52.6l0.2-0.3l0.2,0.3l3.7,52.1l1.2-1.5l6-7.1h0.2l-0.1-0.1h-0.1
					c-1.5-1-2.2-2.4-2.1-4v-0.2l5.4-38.9V720l2-13.3l3.6-41.5c0.6-11.9,1-21.8,1-29.5v-0.3c0-0.2-0.1-0.4-0.1-0.5l-0.2-21.8
					l0.7,22.5c0,9.2-0.3,19-0.7,29.5l-1.2,18.5c-0.1,0.4-0.1,0.6-0.1,0.9l-4.3,35.5v0.5l-5.5,38.9c0,1.6,0.5,2.8,1.7,3.7l6.1-42.5
					c0-0.3,0-0.5,0.1-0.5l2.1-15.6l0.1-0.5l0.2-1.4h-1.2h1.2l1.5-13.7c0-0.2,0-0.4,0.1-0.5l2-53.2c0.1-0.3,0.1-0.5,0.1-0.6
					l-1.2-46.4c-0.1-0.2-0.2-0.4-0.2-0.5l-0.4-7.3c-0.1-0.2-0.1-0.4-0.1-0.5l-2-18.9c-0.1-0.2-0.1-0.4-0.1-0.5l-1.4-8.1l-0.1-0.1
					l-5.9-23.4c0-0.3,0-0.4-0.1-0.6C868.5,507.2,865.3,493.1,864.2,485.6z"/>
				<path class="st4" d="M882,702.4h0.2h-0.1C882,702.4,882,702.4,882,702.4z"/>
				
					<linearGradient id="SVGID_36_" gradientUnits="userSpaceOnUse" x1="14724.5361" y1="483.2447" x2="16456.0293" y2="483.2447" gradientTransform="matrix(0 -1.050000e-02 3.200000e-03 0 842.3445 587.9251)">
					<stop  offset="0" style="stop-color:#14236F"/>
					<stop  offset="1" style="stop-color:#4E68E1"/>
				</linearGradient>
				<path class="st42" d="M1036.6,470c-0.6,6.8-2.1,11.8-4.2,14.7v0.2c2.4,3.8,3.9,7.7,4.8,12l-0.1,0.5l0.7-3.1l0.2-5.4
					c0-7.7-0.4-14.4-1.3-19.9C1036.6,469.4,1036.6,469.6,1036.6,470z"/>
				<path class="st21" d="M1043.1,512.2h-0.3l0,0l0.5,1.8c0.2,0.4,1,0.7,2,1c2.3,0.7,5,1.7,7.8,3c4.1,1.9,6.4,3.7,6.9,5.3l0.2,0.3
					v0.2h0.4c-0.7-2.2-3.2-4.3-7.4-6.1c-2.5-1.2-5.1-2.1-7.8-2.9c-1.1-0.3-1.6-0.6-1.8-1l-0.2-1.1L1043.1,512.2L1043.1,512.2z"/>
				
					<linearGradient id="SVGID_37_" gradientUnits="userSpaceOnUse" x1="-20602.291" y1="518.0527" x2="-19779.873" y2="518.0527" gradientTransform="matrix(0 7.300000e-03 -1.060000e-02 0 871.6875 611.4748)">
					<stop  offset="0" style="stop-color:#CE8B3D"/>
					<stop  offset="0.4275" style="stop-color:#FFCE7B"/>
					<stop  offset="1" style="stop-color:#CE8B3D"/>
				</linearGradient>
				<path class="st43" d="M1043.3,512.2c-0.1,0-0.2,0-0.2,0l0,0l0.3,0.5l0.2,1.1c0.2,0.4,0.7,0.7,1.8,1c2.7,0.8,5.3,1.7,7.8,2.9
					c4.2,1.9,6.7,4,7.4,6.1l0.8,0.2c0-1-0.5-2.1-1.5-3.3h-0.1l-0.2-0.3c-1-1-2.4-2.1-4.2-3.3c-2-1.2-5.2-2.6-9.4-4.3L1043.3,512.2z"
					/>
				
					<radialGradient id="SVGID_38_" cx="-11088.7422" cy="-15287.0146" r="953.9166" gradientTransform="matrix(0 1.112468e-02 -1.188914e-02 0 868.9645 643.9164)" gradientUnits="userSpaceOnUse">
					<stop  offset="0" style="stop-color:#F5F6F6"/>
					<stop  offset="1" style="stop-color:#191C74"/>
				</radialGradient>
				<path class="st44" d="M1041.6,513l-0.4,2h-0.1c0.4,0.6,0.7,1.2,0.8,1.9c0.1,0.9,0.4,1.5,1.1,1.8l17.2,4.9l-0.2-0.3
					c-0.4-1.7-2.7-3.5-6.9-5.3c-2.9-1.3-5.5-2.3-7.8-3c-1.1-0.3-1.8-0.6-2-1l-0.5-1.8C1042.2,512.4,1041.8,512.6,1041.6,513z"/>
				<path class="st33" d="M1043.3,511.7l3,0.7c4.2,1.8,6.8,3,7.6,3.5l-5.4-3.3c-0.2-0.2-0.4-0.4-0.6-0.4l-7.5-3.8
					c-1.1,1-1.7,2.6-1.9,4.7l2.1,1.4l0.6-1.8C1041.5,512.1,1042.2,511.7,1043.3,511.7z"/>
				
					<linearGradient id="SVGID_39_" gradientUnits="userSpaceOnUse" x1="424.7045" y1="15477.1377" x2="2045.478" y2="15477.1377" gradientTransform="matrix(0 -0.1712 1.300000e-02 0 821.4835 835.754)">
					<stop  offset="0" style="stop-color:#FFFFFF"/>
					<stop  offset="0.5843" style="stop-color:#3D6FD4"/>
					<stop  offset="1" style="stop-color:#23086A"/>
				</linearGradient>
				<path class="st45" d="M1033.9,488.9h0.1l-1.8-3.4c-1.1,7.2-4.2,21.5-9.7,43c-0.1,0.2-0.1,0.3-0.1,0.5l-5.8,23.1l-0.1,0.1
					l-1.4,8.1c0,0.2,0,0.4-0.1,0.5l-2.5,26.7c-0.1,0.2-0.1,0.4-0.1,0.5l-0.8,17.2c0,0.3,0,0.5-0.1,0.6l0.5,59.8l1.3,22.5
					c0.1,0.2,0.1,0.3,0.1,0.5l3.9,31.1l0.1,0.4l6.2,42.7c1.1-0.9,1.6-2.1,1.6-3.7l-5.4-39.1v-0.4l-1.9-13.2
					c-1.1-7.3-1.9-15.1-2.6-23.6l-1.1-17.9c-0.5-10.4-0.8-20.3-0.8-29.6l0.5-30.4c0.2-10.1,0.6-19.3,1.3-27.3
					c0.1-0.3,0.1-0.6,0.1-0.8l2.1-16.3c0-0.2,0.1-0.4,0.2-0.5c1.2-6.8,3.4-16.7,6.7-29.5c0-0.3,0.1-0.5,0.2-0.6l0.5-2.2
					c2-7.5,3.8-14.4,5.2-20.8c0.7-3.3,1.5-6.3,2-9.2C1032.8,494.9,1033.4,491.8,1033.9,488.9z"/>
				
					<linearGradient id="SVGID_40_" gradientUnits="userSpaceOnUse" x1="-8813.9199" y1="10875.3193" x2="-7082.4331" y2="10875.3193" gradientTransform="matrix(-2.200000e-02 0 0 -1.140000e-02 852.8907 679.1136)">
					<stop  offset="0" style="stop-color:#0B1A22"/>
					<stop  offset="0.7098" style="stop-color:#757E84"/>
					<stop  offset="1" style="stop-color:#45525A"/>
				</linearGradient>
				<path class="st46" d="M1037.8,496.6l-0.4,1.8v0.2c-1.7,6.4-4,15.3-7.3,26.8c-1.1,4-2.3,8.3-3.6,12.9l-1.9,6.9
					c-1.3,4.4-2.4,9.5-3.5,15.2v0.5c-0.7,3.9-1.3,8.4-1.8,13.6v0.5c-0.5,5.9-1,13.7-1.2,23.4l-0.1,15.1l4.4-1.4
					c0.3,0,0.5-0.1,0.6-0.2c5.8-2.2,10.6-4.8,14.2-8h0.2v-83.9c-0.6,0.6-2.6,2.4-6,5.2l-0.4,0.1l-0.1-0.2l-0.1-0.1
					c3.2-11,5.4-20,6.9-27c0-0.1,0-0.2,0.1-0.3V496.6z"/>
				
					<linearGradient id="SVGID_41_" gradientUnits="userSpaceOnUse" x1="-2211.6418" y1="512.0698" x2="14896.7334" y2="512.0698" gradientTransform="matrix(6.000000e-03 -3.400000e-03 1.900000e-03 3.300000e-03 839.6373 609.7498)">
					<stop  offset="0" style="stop-color:#F5F6F6"/>
					<stop  offset="1" style="stop-color:#5A4F69"/>
				</linearGradient>
				<path class="st47" d="M1036.7,509.4l0.6-1.8l0.7-0.5l-0.1-7.7l-6.4,25.3h0.1l5.6-4.9l0.8-0.6c-0.5-0.6-0.8-1.6-1.2-2.9
					c-0.2-0.9-0.3-2.2-0.3-4.1L1036.7,509.4z"/>
				
					<radialGradient id="SVGID_42_" cx="-105.9077" cy="-237.0953" r="954.4966" gradientTransform="matrix(0 0.1509 -0.1613 0 986.8976 649.5839)" gradientUnits="userSpaceOnUse">
					<stop  offset="0" style="stop-color:#000032"/>
					<stop  offset="1" style="stop-color:#656DC5"/>
				</radialGradient>
				<path class="st48" d="M1036.7,498.4c0-0.1,0-0.2,0-0.2c-0.2-2.2-1-4.9-2.4-8.3c-0.4,2.6-1.1,5.3-1.6,8.3
					c-0.8,3.7-1.7,7.5-2.6,11.6c-1.4,5.8-3,12.1-4.7,18.7l-0.7,2.4c-0.1,0.4-0.1,0.6-0.1,0.7c-2.6,9.8-4.9,19.5-6.7,28.9v0.5
					l-2.1,15.8c-0.1,0.3-0.2,0.6-0.1,0.7c-0.7,8.2-1.2,17.5-1.4,27.9c-0.1,0.3-0.1,0.5-0.1,0.6l-0.3,29.8c0,9.3,0.2,19.2,0.7,29.6
					l1.1,17c0,0.2,0.1,0.4,0.1,0.6c0.7,10,1.6,17.9,2.5,23.8l1.9,13.2v0.4l5.5,39.1c0,1.7-0.7,3.2-2.1,4.2v0.1l6.1,7.1l1,1.5
					c1.7-13,2.9-30.4,3.7-52.1l0.1-0.1c-0.5,22.2-1.7,39.9-3.3,52.7l-0.3,0.1c0.5,0.9,1,2.4,1.4,4.5l2.3-33.1
					c1.1-16.3,1.6-27.4,1.7-33.1l0,0l-1.7,3.1v-1.2c0,0.4,0,0.8,0,1.2c-1,1.4-1.9,2.2-2.7,2.2c-0.7,0-1.5-0.5-2.1-1.4
					c-0.7-0.8-1.5-2.4-2.2-4.5l-1.6-5c-1.9-6.6-3.6-15-5.1-25.4c0-0.3-0.1-0.5-0.1-0.5l-0.6-5.6h-0.1v-0.1l-0.8-7.9l-1.6-51.7
					l0.1-15.5c0.1-9,0.5-16.7,1.1-23.2v-0.5l1.8-13.8c0-0.2,0-0.4,0.1-0.5c1-5.4,2-10.7,3.4-15.3l2.4-8.4c1.4-4.7,2.5-9.1,3.6-13.1
					C1033.1,512.7,1035.4,504.3,1036.7,498.4z"/>
				<linearGradient id="SVGID_43_" gradientUnits="userSpaceOnUse" x1="1055.7715" y1="752.3652" x2="1032.7579" y2="752.3652">
					<stop  offset="0" style="stop-color:#000A32"/>
					<stop  offset="0.4275" style="stop-color:#8286CF"/>
					<stop  offset="1" style="stop-color:#001732"/>
				</linearGradient>
				<path class="st49" d="M1047.7,708l-0.4-11.8c-1.3,6.2-4.8,10.9-10.6,14l-0.1,0.1l0.2,0.2c0,5.8-0.5,18.1-1.7,36.6l-2.7,36.1
					c-0.3,4.2-1.1,8.6-2,13.3c-1.3,5.8-2.5,9.8-3.9,12c3.1-2.7,5.2-5.3,6.3-7.9l6.7-15c0-0.4,0.2-0.8,0.4-1.2
					c0.1-0.2,0.3-0.3,0.4-0.3h0.2l0.2,0.2l5.3-34.1C1047.2,742.1,1047.7,728,1047.7,708z"/>
				<path class="st33" d="M1036.3,709.3h-0.7l-2.5,4.2c-1.1,1.2-1.8,1.8-2.4,1.8l1.3,0.7c0.6,0,1.5-0.7,2.3-2.1l0.4-0.9l1.7-3.1
					V709.3z"/>
				<path class="st25" d="M1037.8,507.8l-0.4,1.7l-0.2,2.8l0.3,4c0.3,1.5,0.7,2.5,1.2,2.7h1.3c-1.3-1.5-1.9-3.4-1.9-5.6
					c0-2.1,0.5-3.8,1.8-5l-1.6-0.6h-0.1C1038,507.6,1037.8,507.7,1037.8,507.8z"/>
				
					<linearGradient id="SVGID_44_" gradientUnits="userSpaceOnUse" x1="7745.0527" y1="-12676.5508" x2="14229.0488" y2="-12676.5508" gradientTransform="matrix(6.700000e-03 3.900000e-03 -6.600000e-03 1.140000e-02 861.3139 605.0888)">
					<stop  offset="0" style="stop-color:#0D0A4E"/>
					<stop  offset="0.1236" style="stop-color:#1251C7"/>
					<stop  offset="0.4275" style="stop-color:#FFFFFF"/>
					<stop  offset="1" style="stop-color:#446ACA"/>
				</linearGradient>
				<path class="st50" d="M1041.4,516.9c-0.3-1.1-1.2-2.2-2.9-3.2c0,2.3,0.7,4.2,2.2,5.4l0.6,0.2l0.7,1.1c0.1,0.4,0.2,0.6,0.4,0.8
					c0.4,0.2,0.7,0.3,1.3,0.5l15.9,4.3l1.3,0.2h0.1l0.1-0.3c0-0.4,0.1-0.9,0.3-1.4l-0.1-0.1c-9.6-2.7-15.1-4.3-16.4-4.5l-2.4-0.9
					C1042,518.5,1041.6,517.8,1041.4,516.9z"/>
				<linearGradient id="SVGID_45_" gradientUnits="userSpaceOnUse" x1="1054.649" y1="561.6125" x2="1037.8098" y2="561.6125">
					<stop  offset="0" style="stop-color:#000032"/>
					<stop  offset="0.4275" style="stop-color:#8286CF"/>
					<stop  offset="1" style="stop-color:#0F174E"/>
				</linearGradient>
				<path class="st51" d="M1039.8,519.5h-0.4l-0.1,84.3c3.7-1.4,6.4-3,8.5-4.7l0,0l0.5-14.9l-0.6,7.6v0.1c0,1.1-0.2,2.3-0.6,3.6
					l-0.7,1.3c-0.3,0.2-0.6,0.4-0.8,0.5l-1-0.7l-0.5-2c-0.4-2-0.6-4.5-0.6-7.5c0-5.5,0.7-9.7,2.3-12.7c0.2-0.4,0.4-0.6,0.5-0.7
					c0.2-0.3,0.4-0.4,0.5-0.4c0.3,0.1,0.5,0.2,0.6,0.3c0.2,0.4,0.4,1.4,0.4,3.1v0.9l0.2,1.3l0.3,5.3l-0.3-60.6l-5.7-1.7l-0.6-1.1
					c-0.1-0.3-0.3-0.7-0.5-0.9C1040.5,519.6,1040.1,519.5,1039.8,519.5z"/>
				<path class="st33" d="M1046.7,573.2c-0.1,0-0.3,0.1-0.5,0.4c-0.1,0.1-0.3,0.3-0.5,0.7c-1.6,3-2.3,7.1-2.3,12.7
					c0,3.1,0.2,5.5,0.6,7.5l0.5,2l1,0.7c0.2-0.1,0.5-0.3,0.8-0.5l0.7-1.3c0.4-1.3,0.6-2.5,0.6-3.6v-0.1l0.6-7.6l-0.3-5.3l-0.2-1.3
					v-0.9c0-1.7-0.2-2.7-0.4-3.1C1047.2,573.4,1047,573.3,1046.7,573.2z M1046.8,573.8c0.1,0,0.2,0.2,0.3,0.5c0,0.2,0.1,0.4,0.1,0.6
					l-0.2-0.5l-0.3-0.3h-0.3l-0.5,1.2l0.3-0.7c0.1-0.2,0.1-0.3,0.2-0.5c0.1,0,0.1-0.1,0.1-0.2l0.2-0.1H1046.8z M1046.3,579.7
					c-0.2-0.9-0.5-1.5-1-1.8l1.3-3.1c0.7,2.5,1.2,5.5,1.2,9.2c0,5.7-0.7,9.7-2.1,11.7v0.3h0.3l0.3-0.5l-0.2,0.6l-0.1,0.2
					c-0.1,0.1-0.3,0.2-0.5,0.3c-0.2-0.1-0.3-0.3-0.4-0.5l-0.6-1.9l-0.4-6l-0.1-2.5l0.2,2.5c0.1,0.8,0.3,1.4,0.6,1.8
					c0.2,0.2,0.4,0.3,1,0.3h1.1l0.4-0.3l-0.4-0.2h-1.1l-0.5-0.2l-0.1-0.1c0.7-0.3,1.3-0.9,1.5-1.8l0.2-4.3L1046.3,579.7z
					 M1045.2,578.4l0.6,1.4l0.4,3.7v0.3l-0.3,3.8c-0.2,0.7-0.6,1.3-1.2,1.6c-0.1-0.4-0.2-0.7-0.2-0.9l-0.2-3.8
					C1044.4,582.5,1044.7,580.4,1045.2,578.4z"/>
				<path class="st4" d="M1047.1,574.3c-0.1-0.3-0.2-0.5-0.3-0.5h-0.1l-0.2,0.1c0,0.1,0,0.2-0.1,0.2h0.3l0.3,0.3l0.2,0.5
					C1047.2,574.7,1047.1,574.5,1047.1,574.3z"/>
				
					<radialGradient id="SVGID_46_" cx="-9860.6338" cy="-14634.833" r="953.9256" gradientTransform="matrix(0 1.154929e-02 -1.234293e-02 0 865.2072 699.565)" gradientUnits="userSpaceOnUse">
					<stop  offset="0" style="stop-color:#FFFFFF"/>
					<stop  offset="0.6863" style="stop-color:#234F92"/>
				</radialGradient>
				<path class="st52" d="M1045.3,577.9c0.4,0.3,0.7,0.9,1,1.8l0.4,3.8l-0.2,4.3c-0.2,0.9-0.7,1.5-1.5,1.8l0.1,0.1l0.5,0.2h1.1
					l0.4,0.2l-0.4,0.3h-1.1c-0.5,0-0.7-0.1-1-0.3c-0.3-0.4-0.5-1-0.6-1.8h-0.1l0.4,6l0.6,1.9c0.1,0.2,0.2,0.4,0.4,0.5
					c0.2-0.1,0.4-0.2,0.5-0.3l0.1-0.2l-0.1-0.1h-0.3v-0.3c1.4-2,2.1-5.9,2.1-11.7c0-3.7-0.4-6.7-1.2-9.2L1045.3,577.9z"/>
				<path d="M1045.8,579.8l-0.6-1.4c-0.5,2-0.8,4.1-0.8,6l0.2,3.8c0,0.2,0.1,0.5,0.2,0.9c0.5-0.3,1-0.9,1.2-1.6l0.3-3.8v-0.3
					L1045.8,579.8z"/>
				<linearGradient id="SVGID_47_" gradientUnits="userSpaceOnUse" x1="1054.649" y1="654.6157" x2="1037.8098" y2="654.6157">
					<stop  offset="0" style="stop-color:#000032"/>
					<stop  offset="0.4275" style="stop-color:#8286CF"/>
					<stop  offset="1" style="stop-color:#0F174E"/>
				</linearGradient>
				<path class="st53" d="M1039.2,604.2l-0.1,0.1l0.2,0.2l-2.4,105c6.1-3.5,9.6-8.8,10.4-15.9l-0.6-15.9c0.1-1,0.1-2,0.1-2.9
					c0.5-24.7,0.8-49.7,1.1-75.2c-2,1.7-4.9,3.2-8.5,4.5H1039.2z M1045.1,672.4c0.2-0.2,0.3-0.3,0.5-0.3l0.5,0.2l0.5,12.9l-0.7,5.4
					l0.1,0.1l-0.7,3.6l-0.7,1.2l-0.8,0.5c-0.5,0-0.8-0.3-1.1-0.8l-0.5-2l-0.3-5.9c0-6.4,0.8-11.1,2.6-14.1
					C1044.6,672.9,1044.8,672.7,1045.1,672.4z"/>
				<path d="M1045.6,672.1c-0.2,0-0.3,0.1-0.5,0.3c-0.3,0.3-0.5,0.5-0.6,0.7c-1.8,3.1-2.6,7.7-2.6,14.1l0.3,5.9l0.5,2
					c0.2,0.5,0.5,0.8,1.1,0.8l0.8-0.5l0.7-1.2l0.7-3.6l-0.1-0.1l0.7-5.4l-0.5-12.9L1045.6,672.1z M1045.6,673.1v-0.2l-0.3,0.1
					l-1.3,2.5l1-2.1c0-0.1,0.1-0.2,0.2-0.4c0,0,0.1-0.1,0.2-0.2l0.2-0.2h0.1l0.1,0.4c0,0.1,0,0.2,0.1,0.2c0,0.2,0,0.3,0,0.4
					c0-0.1-0.1-0.2-0.1-0.4L1045.6,673.1z M1044,676.6l1.4-3c0.5,2,0.8,4.6,0.8,8v0.2c0,6.4-0.8,10.7-2.4,12.7l0.1,0.5l0.3-0.2
					c0.1,0,0.2-0.2,0.3-0.5c0,0.2-0.1,0.3-0.2,0.5c-0.1,0.1-0.1,0.2-0.2,0.2c-0.1,0.2-0.3,0.3-0.4,0.4c-0.2-0.1-0.4-0.3-0.4-0.4
					l-0.6-2l-0.3-8.4l0.2,2.4l0.6,1.8c0.2,0.2,0.5,0.3,0.8,0.3h1.2l0.3-0.2l-0.3-0.2h-1.2c-0.1,0-0.2-0.1-0.4-0.2l-0.2-0.2
					c0.7-0.3,1.3-0.9,1.6-1.8l0.4-3.9v-0.9l-0.4-3.5L1044,676.6z M1044.8,681.8v0.9c-0.1,2.1-0.2,3.3-0.4,3.8
					c-0.2,0.7-0.6,1.2-1.1,1.4l-0.2-0.8l-0.1-2.9c-0.1-2.4,0.3-4.7,1-6.8l0.5,1.1L1044.8,681.8z"/>
				<path class="st4" d="M1045.6,672.9v0.2l0.2,0.1h0.1c-0.1,0-0.1-0.1-0.1-0.2l-0.1-0.4h-0.1l-0.2,0.2c-0.1,0.1-0.2,0.2-0.2,0.2
					c-0.1,0.2-0.2,0.3-0.2,0.4l-1,2.1l1.3-2.5L1045.6,672.9z"/>
				
					<radialGradient id="SVGID_48_" cx="-8387.8252" cy="-14174.8271" r="953.9092" gradientTransform="matrix(0 1.188898e-02 -1.270595e-02 0 864.3795 784.0988)" gradientUnits="userSpaceOnUse">
					<stop  offset="0" style="stop-color:#FFFFFF"/>
					<stop  offset="0.6863" style="stop-color:#234F92"/>
				</radialGradient>
				<path class="st54" d="M1045.4,673.7l-1.4,3l1,1.7l0.4,3.5v0.9l-0.4,3.9c-0.3,0.9-0.8,1.5-1.6,1.8l0.2,0.2
					c0.2,0.1,0.3,0.2,0.4,0.2h1.2l0.3,0.2l-0.3,0.2h-1.2c-0.3,0-0.6-0.1-0.8-0.3l-0.6-1.8l-0.2-2.4l0.3,8.4l0.6,2
					c0,0.1,0.2,0.3,0.4,0.4c0.1-0.1,0.3-0.2,0.4-0.4c0.1,0,0.1-0.1,0.2-0.2h-0.1l-0.3,0.2l-0.1-0.5c1.6-2,2.4-6.2,2.4-12.7v-0.2
					C1046.3,678.3,1045.9,675.6,1045.4,673.7z"/>
				<path class="st33" d="M1044.8,682.6v-0.9l-0.3-3.4l-0.5-1.1c-0.6,2.1-1.1,4.5-1,6.8l0.1,2.9l0.2,0.8c0.4-0.2,0.8-0.7,1.1-1.4
					C1044.6,685.9,1044.7,684.7,1044.8,682.6z"/>
				<path class="st21" d="M1037.9,519.8l0.1,0.1v84.1h0.6l0.1-84.4C1038.5,519.5,1038.2,519.6,1037.9,519.8z"/>
				<path class="st21" d="M1038.9,604.3h-1.1l-2,104.4h0.5l2.3-104.2L1038.9,604.3z"/>
				
					<linearGradient id="SVGID_49_" gradientUnits="userSpaceOnUse" x1="-8813.9404" y1="3523.877" x2="-7082.4263" y2="3523.877" gradientTransform="matrix(-2.200000e-02 0 0 -1.140000e-02 852.8907 679.1136)">
					<stop  offset="0" style="stop-color:#0B1A22"/>
					<stop  offset="0.7098" style="stop-color:#757E84"/>
					<stop  offset="1" style="stop-color:#45525A"/>
				</linearGradient>
				<path class="st55" d="M1022.9,612.6l-0.5,0.3l-4.3,1.2l1.7,51.1c-0.1,0.2,0,0.4,0.1,0.5l0.7,7.5l5.4-1.4
					c0.2-0.1,0.4-0.2,0.5-0.2l9.6-3.1c0-1.2,0-2.3,0.1-3.5l1.2-60.5C1033.6,607.9,1028.7,610.6,1022.9,612.6z"/>
				
					<linearGradient id="SVGID_50_" gradientUnits="userSpaceOnUse" x1="-8813.9004" y1="-1121.2371" x2="-7082.4497" y2="-1121.2371" gradientTransform="matrix(-2.200000e-02 0 0 -1.140000e-02 852.8907 679.1136)">
					<stop  offset="0" style="stop-color:#0B1A22"/>
					<stop  offset="0.7098" style="stop-color:#757E84"/>
					<stop  offset="1" style="stop-color:#45525A"/>
				</linearGradient>
				<path class="st56" d="M1021.2,679.1c0.1,0.2,0.1,0.4,0.2,0.5c1.2,8.6,2.6,16.5,4.5,23.7l2.1,6.9c0.6,2,1.3,3.4,2,4.3
					c0.2,0.1,0.4,0.2,0.5,0.2c0.6,0,1.3-0.5,2-1.6c0.7-1,1.6-2.4,2.6-4.2l0.8-39.9l-15.5,4.7L1021.2,679.1z"/>
				
					<linearGradient id="SVGID_51_" gradientUnits="userSpaceOnUse" x1="-8930.2969" y1="483.2447" x2="-7197.1309" y2="483.2447" gradientTransform="matrix(0 1.750000e-02 -3.200000e-03 0 683.8557 569.5904)">
					<stop  offset="0" style="stop-color:#14236F"/>
					<stop  offset="1" style="stop-color:#4E68E1"/>
				</linearGradient>
				<path class="st57" d="M859.6,469.2v0.9c-0.8,4.7-1.3,11.1-1.3,18.9l0.3,5.4l0.7,3.1l-0.1-0.5c0.6-4.3,2.2-8.2,4.6-12v-0.2
					c-2.1-3-3.5-7.9-4.2-14.7c0-0.3,0-0.6,0-1L859.6,469.2z"/>
				
					<linearGradient id="SVGID_52_" gradientUnits="userSpaceOnUse" x1="-7468.0449" y1="9594.5654" x2="-5736.498" y2="9594.5654" gradientTransform="matrix(-2.490000e-02 0 0 -1.140000e-02 704.0487 664.513)">
					<stop  offset="0" style="stop-color:#0B1A22"/>
					<stop  offset="0.7098" style="stop-color:#757E84"/>
					<stop  offset="1" style="stop-color:#45525A"/>
				</linearGradient>
				<path class="st58" d="M858.7,496.6v1.3c0.7,4.1,3.1,13.2,6.8,27.2v0.4h-0.3c-3.5-3-5.5-4.7-6.1-5.3V604h0.1
					c3.7,3.1,8.1,5.7,13.4,7.8c0.3,0.1,0.5,0.2,0.5,0.2l5.4,1.6l-0.3-15.1c-0.1-9-0.5-16.6-1.1-23.1v-0.6c-0.5-5.4-1.1-10-1.8-13.8
					v-0.5c-1.1-5.7-2.2-10.9-3.5-15.2l-2.4-8.8c-5.2-18.3-8.6-30.9-10.3-37.9v-0.1L858.7,496.6z"/>
				<path class="st33" d="M850.2,512.4l2.9-0.7c1.1,0,1.8,0.4,2.2,1.1l0.5,1.8l2-1.4c0-2.1-0.6-3.7-1.8-4.7l-7.5,3.8
					c-0.2,0.1-0.4,0.2-0.6,0.4l-5.5,3.3C843.9,515,846.5,513.9,850.2,512.4z"/>
				<path class="st21" d="M853.6,511.8l-0.2,0.4l-0.1,0.4l-0.2,0.1l-0.3,1.1c-0.2,0.4-0.7,0.7-1.7,1c-2.9,0.8-5.4,1.7-7.9,2.9
					c-4.2,1.9-6.6,3.8-7.1,5.6l0.1,0.1l0.1,0.2c0.5-1.9,2.9-3.8,7.1-5.6c2.7-1.3,5.4-2.3,7.8-3c1-0.3,1.6-0.6,2-1l0.3-1.8
					L853.6,511.8z"/>
				
					<linearGradient id="SVGID_53_" gradientUnits="userSpaceOnUse" x1="-20602.291" y1="518.0527" x2="-19779.873" y2="518.0527" gradientTransform="matrix(0 7.300000e-03 -1.070000e-02 0 674.6597 611.4748)">
					<stop  offset="0" style="stop-color:#CE8B3D"/>
					<stop  offset="0.4275" style="stop-color:#FFCE7B"/>
					<stop  offset="1" style="stop-color:#CE8B3D"/>
				</linearGradient>
				<path class="st59" d="M853.4,512.2c-0.1,0-0.2,0-0.3,0l-2.7,0.7c-4.3,1.7-7.4,3.1-9.3,4.3c-2.1,1.4-3.6,2.5-4.4,3.4
					c0,0.1-0.1,0.2-0.1,0.2h-0.1c-1,1.2-1.5,2.3-1.5,3.3l1.4-0.4l-0.1-0.2l-0.1-0.1c0.5-1.9,2.9-3.8,7.1-5.6
					c2.5-1.2,5.1-2.1,7.9-2.9c1-0.3,1.5-0.6,1.7-1l0.3-1.1l0.2-0.1L853.4,512.2z"/>
				
					<radialGradient id="SVGID_54_" cx="-10772.9883" cy="-12443.2656" r="953.9252" gradientTransform="matrix(0 1.146437e-02 -1.225217e-02 0 693.2487 641.4487)" gradientUnits="userSpaceOnUse">
					<stop  offset="0" style="stop-color:#F5F6F6"/>
					<stop  offset="1" style="stop-color:#191C74"/>
				</radialGradient>
				<path class="st60" d="M855.4,514.9h-0.1l-0.4-2c-0.3-0.4-0.7-0.6-1.4-0.8l-0.3,1.8c-0.4,0.4-1.1,0.7-2,1c-2.4,0.7-5.1,1.7-7.8,3
					c-4.2,1.9-6.6,3.8-7.1,5.6l17.2-4.9c0.5-0.3,0.8-0.9,1-1.8C854.5,516.1,854.9,515.5,855.4,514.9z"/>
				<path class="st25" d="M858.2,507.6h-0.1l-1.6,0.6c1.3,1.3,1.8,3,1.8,5c0,2.3-0.6,4.2-1.9,5.6h1.3c0.4-0.2,0.8-1.2,1.3-2.7l0.3-4
					l-0.2-2.8l-0.4-1.7C858.5,507.7,858.4,507.6,858.2,507.6z"/>
				
					<linearGradient id="SVGID_55_" gradientUnits="userSpaceOnUse" x1="-9732.0664" y1="512.0698" x2="-8000.5757" y2="512.0698" gradientTransform="matrix(0 1.560000e-02 -3.700000e-03 0 684.7162 599.9081)">
					<stop  offset="0" style="stop-color:#F5F6F6"/>
					<stop  offset="1" style="stop-color:#5A4F69"/>
				</linearGradient>
				<path class="st61" d="M858.2,507.1l0.8,0.5l0.5,1.8l0.1,2.9c0,1.9-0.1,3.2-0.3,4.1c-0.3,1.3-0.6,2.3-1.2,2.9l1,0.6l5.6,4.9
					l-6.4-25.3L858.2,507.1z"/>
				
					<linearGradient id="SVGID_56_" gradientUnits="userSpaceOnUse" x1="10332.3027" y1="-6496.8062" x2="21374.5566" y2="-6496.8062" gradientTransform="matrix(7.700000e-03 0 0 1.320000e-02 661.668 605.7388)">
					<stop  offset="0" style="stop-color:#0D0A4E"/>
					<stop  offset="0.1236" style="stop-color:#1251C7"/>
					<stop  offset="0.4275" style="stop-color:#FFFFFF"/>
					<stop  offset="1" style="stop-color:#446ACA"/>
				</linearGradient>
				<path class="st62" d="M857.8,513.8c-1.6,1-2.5,2.1-2.7,3.2c-0.3,0.9-0.6,1.6-1.3,2.1l-2.3,0.9c-1.4,0.3-6.9,1.9-16.5,4.5v0.1
					c0.1,0.5,0.2,1,0.3,1.4l0.1,0.3h0.1l1.2-0.2l15.9-4.3c0.5-0.2,1-0.3,1.4-0.5c0.2-0.2,0.3-0.4,0.3-0.8l1-1.1
					c0.2-0.1,0.3-0.2,0.4-0.2C857.1,517.7,857.8,515.9,857.8,513.8z"/>
				<path class="st4" d="M858.5,519.8c-0.3-0.2-0.5-0.3-0.8-0.3l0.1,84.4h0.6v-84.1L858.5,519.8z"/>
				<linearGradient id="SVGID_57_" gradientUnits="userSpaceOnUse" x1="868.8582" y1="614.517" x2="847.5285" y2="614.517">
					<stop  offset="0" style="stop-color:#000032"/>
					<stop  offset="0.4275" style="stop-color:#8286CF"/>
					<stop  offset="1" style="stop-color:#0F174E"/>
				</linearGradient>
				<path class="st63" d="M855.4,519.8c-0.2,0.2-0.4,0.6-0.5,0.9l-0.7,1.1l-5.7,1.7l-0.3,60.6l0.3-5.3l0.2-1.3v-1l0.3-2.4
					c-0.1-0.2,0-0.3,0.2-0.6c0.2-0.2,0.3-0.3,0.5-0.3c0.2,0.1,0.4,0.3,0.5,0.4l0.6,0.7c1.4,2.6,2.1,6.9,2.3,12.7
					c0,3.1-0.2,5.5-0.7,7.5l-0.5,2l-0.8,0.7c-0.4-0.1-0.6-0.3-1-0.5c-0.7-1-1.2-2.6-1.3-4.8v-0.1l-0.7-7.6l1.6,97.4v-3.7l0.2-1.5
					l0.1-3.6l0.3-0.5l0.5-0.2c0.2,0,0.4,0.2,0.6,0.3c0.2,0.3,0.3,0.5,0.4,0.7c1.5,2.6,2.3,6.3,2.6,11.3c0,0.9,0,1.9,0,2.9l-0.3,5.9
					l-0.5,2c-0.3,0.5-0.6,0.8-1.1,0.8l-0.8-0.5c-0.8-1.3-1.4-2.9-1.5-4.7l0.1-0.1l-0.7-5.4l-0.4,9.1c0.8,6.8,4.2,12,10.3,15.3
					l-2.2-105l0.1-0.2l-0.1-0.1h-0.1c-3.7-1.4-6.6-2.9-8.6-4.5V599c2,1.8,4.8,3.4,8.6,4.7l-0.1-84.3h-0.5
					C856.2,519.5,855.8,519.6,855.4,519.8z"/>
				<path d="M849.2,573.5c-0.2,0.3-0.3,0.4-0.2,0.6l-0.3,2.4v1l-0.2,1.3l-0.3,5.3l0.7,7.6v0.1c0.1,2.3,0.5,3.9,1.3,4.8
					c0.3,0.2,0.5,0.4,1,0.5l0.8-0.7l0.5-2c0.5-2,0.7-4.5,0.7-7.5c-0.2-5.7-1-10.1-2.3-12.7l-0.6-0.7c-0.1-0.1-0.3-0.3-0.5-0.4
					C849.5,573.2,849.4,573.3,849.2,573.5z M848.6,584.3v-0.2c0-3.8,0.4-6.8,1.2-9.2l1.4,3.1c-0.5,0.3-0.8,0.9-1.1,1.8
					c-0.3,0.7-0.4,2-0.4,3.8l0.2,4.3c0.2,0.8,0.7,1.4,1.5,1.8c0,0-0.1,0.1-0.2,0.1l-0.3,0.2h-1.2l-0.3,0.2l0.3,0.3h1.2
					c0.3,0,0.6-0.1,0.8-0.3c0.3-0.4,0.5-1,0.6-1.8l0.2-2.5l-0.1,2.5l-0.4,6l-0.5,1.9c-0.2,0.2-0.3,0.4-0.4,0.5
					c-0.1,0-0.4-0.1-0.6-0.3l-0.1-0.2l-0.2-0.5l0.3,0.4h0.4l0.1-0.3C849.4,593.8,848.6,590,848.6,584.3z M849.9,573.9l0.4,0.7l0.8,2
					l-1.2-2.5h-0.3v0.2l-0.2,0.1c-0.1,0-0.2,0.2-0.2,0.5c0-0.5,0.1-0.8,0.3-1.1h0.1L849.9,573.9z M850.6,579.8l0.5-1.4
					c0.5,2.1,0.8,4.3,0.8,6.2l-0.2,3.6c-0.1,0.2-0.1,0.5-0.2,0.9c-0.5-0.3-1-0.9-1.2-1.6l-0.3-3.8v-0.6
					C850.1,581.8,850.3,580.7,850.6,579.8z"/>
				
					<radialGradient id="SVGID_58_" cx="-9630.6836" cy="-12109.291" r="953.9257" gradientTransform="matrix(0 1.180405e-02 -1.261520e-02 0 697.5035 699.6142)" gradientUnits="userSpaceOnUse">
					<stop  offset="0" style="stop-color:#FFFFFF"/>
					<stop  offset="0.6863" style="stop-color:#234F92"/>
				</radialGradient>
				<path class="st64" d="M848.6,584.1v0.2c0,5.7,0.7,9.6,2.3,11.5l-0.1,0.3h-0.4l-0.1,0.1l0.1,0.2c0.2,0.2,0.5,0.3,0.6,0.3
					c0.1-0.1,0.2-0.3,0.4-0.5l0.5-1.9l0.4-6h-0.1c-0.1,0.8-0.3,1.4-0.6,1.8c-0.2,0.2-0.5,0.3-0.8,0.3h-1.2l-0.3-0.3l0.3-0.2h1.2
					l0.3-0.2l0.2-0.1c-0.7-0.4-1.3-1-1.5-1.8l-0.2-4.3c0-1.8,0.1-3.1,0.4-3.8c0.2-0.9,0.5-1.5,1.1-1.8l-1.4-3.1
					C849.1,577.2,848.6,580.3,848.6,584.1z"/>
				<path class="st33" d="M851.2,578.4l-0.5,1.4c-0.3,0.9-0.5,2-0.5,3.4v0.6l0.3,3.8c0.2,0.7,0.6,1.3,1.2,1.6
					c0.1-0.4,0.1-0.7,0.2-0.9l0.2-3.6C852,582.7,851.7,580.5,851.2,578.4z"/>
				<path class="st4" d="M858.7,604.3h-1.2l0.2,0.2l2.3,104.2h0.6L858.7,604.3z"/>
				
					<linearGradient id="SVGID_59_" gradientUnits="userSpaceOnUse" x1="-7468.0449" y1="2260.4719" x2="-5736.5083" y2="2260.4719" gradientTransform="matrix(-2.490000e-02 0 0 -1.140000e-02 704.0487 664.513)">
					<stop  offset="0" style="stop-color:#0B1A22"/>
					<stop  offset="0.7098" style="stop-color:#757E84"/>
					<stop  offset="1" style="stop-color:#45525A"/>
				</linearGradient>
				<path class="st65" d="M873.4,612.6c-0.3-0.1-0.5-0.2-0.5-0.3c-5.4-1.9-10-4.5-13.7-7.7c0.4,21.3,0.8,42.5,1.3,63.8l0.4-0.1
					l15.1,4.5l2.5-58.7L873.4,612.6z"/>
				
					<linearGradient id="SVGID_60_" gradientUnits="userSpaceOnUse" x1="-7468.0449" y1="-2384.6758" x2="-5736.4873" y2="-2384.6758" gradientTransform="matrix(-2.490000e-02 0 0 -1.140000e-02 704.0487 664.513)">
					<stop  offset="0" style="stop-color:#0B1A22"/>
					<stop  offset="0.7098" style="stop-color:#757E84"/>
					<stop  offset="1" style="stop-color:#45525A"/>
				</linearGradient>
				<path class="st66" d="M869,671.4l-8.6-2.7h-0.1l0.8,40.2c1.1,1.8,1.9,3.2,2.5,4.2c0.7,1.1,1.5,1.6,2,1.6l0.5-0.2
					c0.7-0.9,1.4-2.3,2-4.3l1.3-3.7c2.2-7.6,4-16.5,5.4-26.6c0-0.2,0.1-0.4,0.1-0.5l0.7-6.1h-0.1l-6.1-1.7
					C869.2,671.6,869,671.5,869,671.4z"/>
				
					<radialGradient id="SVGID_61_" cx="-8720.3496" cy="-12514.4609" r="953.9108" gradientTransform="matrix(0 1.146437e-02 -1.225217e-02 0 698.5576 784.5406)" gradientUnits="userSpaceOnUse">
					<stop  offset="0" style="stop-color:#FFFFFF"/>
					<stop  offset="0.6863" style="stop-color:#234F92"/>
				</radialGradient>
				<path class="st67" d="M852.3,676.6l-1.3-3c-0.6,2-1,4.6-1,8c0,6.5,0.8,10.8,2.4,12.9l-0.1,0.5l-0.3-0.2l0.1,0.2l0.4,0.4
					c0.2-0.1,0.4-0.3,0.5-0.4l0.5-2l0.2-6l-0.6,1.8c-0.2,0.2-0.5,0.3-1,0.3h-1.2l-0.2-0.2l0.2-0.2h1.2c0.2,0,0.4-0.1,0.4-0.2
					c0.1-0.1,0.2-0.2,0.2-0.2c-0.8-0.3-1.3-0.9-1.5-1.8l-0.4-3.9v-0.9l0.4-3.5L852.3,676.6z"/>
				<path class="st68" d="M851.9,678.4l-0.3,3.4v0.9c0.1,2.1,0.3,3.3,0.4,3.8c0.2,0.7,0.6,1.2,1.2,1.4l0.1-0.8l0.2-2.9
					c0-2.4-0.3-4.7-1.1-6.8L851.9,678.4z"/>
				
					<radialGradient id="SVGID_62_" cx="-974.7094" cy="-1123.3965" r="1604.4873" gradientTransform="matrix(0 7.371164e-02 -7.877690e-02 0 817.6871 772.9075)" gradientUnits="userSpaceOnUse">
					<stop  offset="0" style="stop-color:#7D8991"/>
					<stop  offset="1" style="stop-color:#021822"/>
				</radialGradient>
				<path class="st69" d="M881.9,703.9l-0.1,0.7l3.1,13.3c-1.3,13.3-2.2,24.3-2.6,33.2c0.2,9.1,5.3,14.1,15.2,15.2
					c34.3,4,68.8,4,103.1,0c3.5-0.7,6.3-1.8,8.3-3.5c3.1-2.4,4.4-5.9,4-10.6c-0.8-12.7-1.8-25.1-2.7-37.4l4.2-11.5v-0.1
					c-0.1-0.2-0.1-0.4-0.1-0.5l-6.2,1.6c-6.1,1.2-15.7,2.3-29.2,3.2l-1.8,0.1c-0.3,0.1-0.4,0.2-0.5,0.2L948,709l-31.3-1.3
					c-12.9-0.9-22.5-2-29-3.3l-2.2-0.5l-3.5-1L881.9,703.9z"/>
				
					<radialGradient id="SVGID_63_" cx="-2122.9678" cy="-651.506" r="953.9206" gradientTransform="matrix(-1.116309e-02 4.670669e-02 -9.520388e-02 -1.995649e-02 889.2674 837.5749)" gradientUnits="userSpaceOnUse">
					<stop  offset="0.3412" style="stop-color:#111B21"/>
					<stop  offset="1" style="stop-color:#57646B"/>
				</radialGradient>
				<path class="st70" d="M879.6,720v0.5l-6.1,42.7l-0.1,0.1c14,10.1,38.8,15.2,74.6,15.4c31.8,0,55.1-4.1,69.9-12.2l-8.9-3.8
					c-2,1.7-4.9,2.8-8.3,3.5c-34.3,4-68.8,4-103.1,0c-9.9-1.1-15-6.1-15.2-15.2c0.4-8.9,1.4-20,2.6-33.2l-3.1-13.3L879.6,720z"/>
				
					<radialGradient id="SVGID_64_" cx="-2122.9761" cy="-651.5051" r="953.9155" gradientTransform="matrix(-1.116309e-02 4.670669e-02 -9.520388e-02 -1.995649e-02 889.2674 837.5749)" gradientUnits="userSpaceOnUse">
					<stop  offset="0.3412" style="stop-color:#151C21"/>
					<stop  offset="1" style="stop-color:#4E555B"/>
				</radialGradient>
				<path class="st71" d="M1016.8,720.3c0-0.2,0-0.4-0.1-0.4l-2.2-16.5l-4.2,11.5c1,12.3,1.9,24.7,2.7,37.4c0.4,4.6-1,8.2-4,10.6
					l8.9,3.8c1.9-1.1,3.6-2.1,5.2-3.3l-0.1-0.1L1016.8,720.3z"/>
				<path class="st4" d="M863.3,713.4l-2.5-4.2H860v0.6l2.1,4c1,1.4,1.7,2.1,2.4,2.1l1.2-0.7C865.2,715.2,864.4,714.6,863.3,713.4z"
					/>
				
					<linearGradient id="SVGID_65_" gradientUnits="userSpaceOnUse" x1="-13585.7646" y1="7962.7349" x2="-11816.2842" y2="7962.7349" gradientTransform="matrix(-1.400000e-02 1.000000e-03 -9.000000e-04 -1.220000e-02 691.1155 862.1993)">
					<stop  offset="0" style="stop-color:#000A32"/>
					<stop  offset="0.4275" style="stop-color:#8286CF"/>
					<stop  offset="1" style="stop-color:#001732"/>
				</linearGradient>
				<path class="st72" d="M859.7,710.3l-0.1-0.1c-5.7-3.1-9.2-7.7-10.5-13.7l-0.5,11.5c0,20.1,0.6,34.1,1.7,42.2l5.3,34.1l0.2-0.2
					h0.2c0.2,0,0.4,0.2,0.5,0.3l0.4,1.2l6.6,15c1.2,2.6,3.3,5.2,6.3,7.9c-1.4-2.4-2.6-6.4-3.9-12l-2-13.3l-2.6-36.1
					c-1.3-18.5-1.8-30.8-1.8-36.6L859.7,710.3z"/>
				
					<radialGradient id="SVGID_66_" cx="-390.4733" cy="399.9014" r="954.0073" gradientTransform="matrix(-5.127759e-02 0.1317 -0.2176 -7.422117e-02 958.2917 834.1153)" gradientUnits="userSpaceOnUse">
					<stop  offset="0" style="stop-color:#000032"/>
					<stop  offset="1" style="stop-color:#656DC5"/>
				</radialGradient>
				<path class="st73" d="M865.6,773.4l0.3,0.2c0.5,5,1.8,12.7,4.1,23c2.2,10.2,11.1,17.4,26.5,21.8c6.7,1.7,14.9,3,24.6,3.8
					c-16.1-1.6-27.2-8.1-33.5-19.5c-6.2-11.3-5.4-16.7,2.6-16.2c66.8,5,110.5-0.2,131-15.7c3.1-2,5.8-1.6,8.5,1.2l-0.5-0.9l-6.2-7.1
					v-0.1c-1.5,1-3.1,2.1-4.6,3c-14.7,8.2-38,12.4-70.1,12.5h-0.5c-35.5-0.1-60.4-5.2-74.6-15.4v0.1l-6.1,7.1L865.6,773.4z"/>
				
					<radialGradient id="SVGID_67_" cx="-652.9125" cy="-395.8708" r="954.0649" gradientTransform="matrix(0 7.056956e-02 -0.1292 0 853.0466 838.3986)" gradientUnits="userSpaceOnUse">
					<stop  offset="0" style="stop-color:#656DC5"/>
					<stop  offset="1" style="stop-color:#120A3F"/>
				</radialGradient>
				<path class="st74" d="M890.4,786.5c-8-0.5-8.9,4.9-2.6,16.2c6.3,11.4,17.4,17.9,33.5,19.5l2,0.2c0.8,0.1,1.8,0.1,2.6,0.2
					c6.8,0.4,14.3,0.6,22.3,0.6c22.3,0,39.5-1.6,51.7-4.7c15.3-4.4,24.2-11.6,26.5-21.8c2.2-10.9,3.6-18.6,4-23l0.3-0.2l-0.8-1.5
					c-2.6-2.8-5.4-3.2-8.5-1.2C1000.9,786.3,957.2,791.5,890.4,786.5z"/>
				<path class="st4" d="M865.4,774c-0.7,1.9-1.1,4.2-1.1,6.7l0.2,2.4c0.3,4.3,1,8.7,2,13.3c1.4,6.6,2.9,11,4.5,13.1l1.7,1.3
					c4.1,2.8,9,5,14.4,6.7c-6.3-2.7-11-5.4-14-8.3l0.1-0.5h0.3c4.4,4.5,11.2,8.1,20.1,10.6c5.6,1.8,13.7,3.3,24.3,4.7
					c6.9,0.9,15.1,1.5,24.7,1.6v-0.9h5.2l0.1,0.1v-0.1h5.5v0.9c10.9-0.3,19.2-0.9,24.8-1.6c10.6-1.5,18.6-3,24.2-4.7
					c8.9-2.5,15.6-6,20.1-10.6h0.4v0.5c-3.1,3-7.7,5.7-14,8.3c5.3-1.7,10.1-3.9,14.5-6.7l1.7-1.3c1.6-2.1,3.1-6.4,4.5-13.1
					c1-4.6,1.6-9.1,2-13.3l0.1-2.4c0-2.5-0.3-4.7-1.1-6.8c-0.5,5.7-1.9,13.4-4.1,22.8c-2.3,10.4-11.3,17.8-26.8,22.1
					c-12,3.3-29.3,4.8-51.8,4.8c-7.3,0-14.2-0.1-20.3-0.5c-0.1,0-0.2,0-0.4,0c-12.7-0.8-23-2.2-31-4.4
					c-15.6-4.3-24.6-11.7-26.9-22.1C867.4,787.3,866,779.7,865.4,774z"/>
				
					<radialGradient id="SVGID_68_" cx="-2510.1467" cy="-4576.2417" r="954.416" gradientTransform="matrix(0 2.861846e-02 -3.058504e-02 0 738.8576 876.2653)" gradientUnits="userSpaceOnUse">
					<stop  offset="0" style="stop-color:#FAA61A"/>
					<stop  offset="0.7451" style="stop-color:#A94011"/>
				</radialGradient>
				<path class="st75" d="M863,800.8l-6.1-14.2c0.8,7.8,2.3,13.6,4.3,17.6c2.5,5.3,8,9.6,16.4,12.8c1.7,0.7,6,1.8,13.1,3.5l8.5,1.7
					l1.8,0.2l-3.8-1.3c-1.5-0.5-2.9-0.9-4-1.3c-7.6-1.7-14.5-4.5-20.6-8.5C868.2,808.3,865,805,863,800.8z"/>
				<path class="st4" d="M860.7,804.4h-0.1c1.4,3.1,3.2,5.4,5.2,7.2c5,4.1,13.2,7.2,24.7,9.4c1.9,0.4,3.9,0.7,5.9,1.1l0,0
					c-2.2-0.4-4.1-0.8-5.8-1.2c-8.3-2.1-12.8-3.3-13.2-3.4C868.8,814.3,863.2,809.8,860.7,804.4z"/>
				<path class="st4" d="M943.6,826.2l-0.5-0.2l-0.1,0.1c-10.4-0.3-18.7-0.9-24.9-1.7c-7.6-1.1-13.7-2.1-18.4-3.2l4.3,1.5l-0.1,0.4
					l-0.1,0.1C916.6,825,929.8,826,943.6,826.2z"/>
				
					<radialGradient id="SVGID_69_" cx="-309.2259" cy="-949.1479" r="953.9207" gradientTransform="matrix(0 9.095066e-02 -9.720054e-02 0 890.4982 853.0717)" gradientUnits="userSpaceOnUse">
					<stop  offset="0" style="stop-color:#FFFFFF"/>
					<stop  offset="0.5225" style="stop-color:#4462B6"/>
					<stop  offset="0.8314" style="stop-color:#140532"/>
					<stop  offset="1" style="stop-color:#5B6ADE"/>
				</radialGradient>
				<path class="st76" d="M859.7,807c1.8,6.4,4,10.7,6.8,12.7c1.9,1.6,6.8,3.4,14.4,5.5c16.5,5,39,7.4,67.3,7.4h0.1
					c28.5,0,50.9-2.4,67.3-7.4c7.5-2.2,12.4-4,14.4-5.5c2.7-2.2,5.1-6.3,6.7-12.7v-0.2c0.7-2.2,1.5-5.5,2.2-10.1
					c-1.5,7-4.1,12.1-7.9,15.1c-4.9,4.1-13.1,7.2-24.6,9.5c-0.7,1.8-2.1,3.1-3.9,3.9c-1.5,0.6-4.2,1.3-8.3,2
					c-3.5,0.6-10.9,1.3-22,2.1l-23.6,1l-23.5-1c-11.6-0.8-19.1-1.4-22.6-2.1c-4.3-0.8-7.2-1.5-8.3-2c-1.9-0.8-3.2-2.1-3.9-3.9
					c-11.4-2.2-19.8-5.3-24.7-9.5c-3.8-3.1-6.4-8.1-7.9-15c1,5.2,1.7,8.6,2.2,10V807z"/>
				<path class="st4" d="M943.4,825.2v0.4h9.6v-0.4h-5l-0.1-0.1v0.1H943.4z"/>
				<path class="st4" d="M948,826.3h0.1l3.7-0.4l0.4-0.1H944C945.2,826.1,946.6,826.3,948,826.3z"/>
				
					<linearGradient id="SVGID_70_" gradientUnits="userSpaceOnUse" x1="-6448.9146" y1="-1350.6028" x2="-4732.1646" y2="-1350.6028" gradientTransform="matrix(-6.000000e-03 2.260000e-02 -6.410000e-02 -1.720000e-02 827.0775 928.3175)">
					<stop  offset="0" style="stop-color:#FFFFFF"/>
					<stop  offset="0.3412" style="stop-color:#4D415C"/>
					<stop  offset="0.7451" style="stop-color:#FFFFFF"/>
				</linearGradient>
				<path class="st77" d="M948,826.7L948,826.7h-1.7c-19.3-0.1-37.9-1.8-55.5-5.2c0.5,1.4,1.7,2.5,3.5,3.3c1.5,0.8,4.2,1.4,8.2,2
					c3.3,0.6,10.8,1.3,22.4,2l23.6,1.1l23.5-1.1c11.3-0.7,18.6-1.4,21.9-2c4.1-0.7,6.9-1.4,8.3-2c1.7-0.8,2.9-1.9,3.4-3.3
					c-17.1,3.5-35.6,5.1-55.7,5.2H948z"/>
				<path class="st4" d="M953.3,826l-0.6,0.2c16.1-0.2,31.9-1.6,47.5-4.2h-0.1c-2.2,0.3-4.7,0.7-7.4,1.1l-0.1-0.4l4.2-1.5
					c-4.6,1.1-10.8,2.1-18.3,3.2C972.1,825.2,963.7,825.8,953.3,826L953.3,826z"/>
				<path class="st4" d="M1035.8,804.4L1035.8,804.4c-2.6,5.4-8.2,9.9-16.8,13.2c-0.4,0.1-4.9,1.3-13.1,3.4
					c-1.7,0.4-3.7,0.8-5.8,1.2c1.9-0.4,3.9-0.7,5.9-1.1c11.4-2.2,19.7-5.3,24.6-9.4C1032.7,809.9,1034.4,807.5,1035.8,804.4z"/>
				
					<radialGradient id="SVGID_71_" cx="-2462.8684" cy="-5125.7876" r="953.9221" gradientTransform="matrix(0 2.904307e-02 -3.103883e-02 0 858.2123 876.0366)" gradientUnits="userSpaceOnUse">
					<stop  offset="0" style="stop-color:#FAA61A"/>
					<stop  offset="0.7451" style="stop-color:#A94011"/>
				</radialGradient>
				<path class="st78" d="M1035.3,804.2c2-4,3.4-9.8,4.3-17.6l-6.1,14.2c-2,4.2-5.3,7.5-9.6,10.4c-6.2,4-13,6.8-20.6,8.5
					c-1.2,0.4-2.5,0.8-4,1.3l-3.9,1.3l1.9-0.2l8.6-1.7c7-1.7,11.3-2.8,13-3.5C1027.2,813.8,1032.7,809.5,1035.3,804.2z"/>
				<path class="st21" d="M1038.4,494h-0.1v3.8l0.2,0.2l0.1,9.3c0.2,0.1,0.3,0.1,0.4,0.1l-0.2-13.4l-0.1-0.2L1038.4,494z"/>
				
					<linearGradient id="SVGID_72_" gradientUnits="userSpaceOnUse" x1="14030.5166" y1="702.5781" x2="21012.0684" y2="702.5781" gradientTransform="matrix(1.280000e-02 0 0 1 848.9015 -209)">
					<stop  offset="0" style="stop-color:#626366"/>
					<stop  offset="0.4275" style="stop-color:#A7A9AC"/>
					<stop  offset="1" style="stop-color:#58595B"/>
				</linearGradient>
				<path class="st79" d="M1039.2,493.7v-0.2h-0.1L1039.2,493.7L1039.2,493.7z"/>
				<linearGradient id="SVGID_73_" gradientUnits="userSpaceOnUse" x1="1054.649" y1="499.6598" x2="1037.8098" y2="499.6598">
					<stop  offset="0" style="stop-color:#000032"/>
					<stop  offset="0.4275" style="stop-color:#8286CF"/>
					<stop  offset="1" style="stop-color:#0F174E"/>
				</linearGradient>
				<path class="st80" d="M1039.2,493.4v0.3l0.2,0.2l0.2,13.6c2.2,0.9,5,2.2,8.2,4l-0.6-23.6L1039.2,493.4z"/>
				<linearGradient id="SVGID_74_" gradientUnits="userSpaceOnUse" x1="868.8582" y1="499.6598" x2="847.5285" y2="499.6598">
					<stop  offset="0" style="stop-color:#000032"/>
					<stop  offset="0.4275" style="stop-color:#8286CF"/>
					<stop  offset="1" style="stop-color:#0F174E"/>
				</linearGradient>
				<path class="st81" d="M857.3,493.6L857.3,493.6L857.3,493.6l-8-5.7l-0.7,23.6c3.3-1.8,6-3.1,8.3-4l0.2-13.6L857.3,493.6z"/>
				<path class="st4" d="M857.9,494l-0.3-0.3l-0.1,0.2l-0.1,13.4c0.1-0.1,0.2-0.1,0.3-0.1l0.1-9.3l0.2-0.2V494H857.9z"/>
				<path class="st82" d="M864.2,485.6c0-0.4,0.1-0.7,0.4-0.7c0.1,0,0.1,0,0.1-0.1c0.1-0.2,0.2-0.4,0.4-0.5"/>
				<path class="st82" d="M883.9,701.6c-0.2-0.1-0.3,0-0.5,0c-0.1,0.1-0.3,0.1-0.5,0.1l-0.7,0.5l-0.5,0.3h-1.2"/>
				<path class="st82" d="M1016.3,550.9l-0.1,0.6c-0.1,0.1-0.1,0.2-0.2,0.3c0,0.2-0.1,0.3-0.1,0.4c-0.3,0.5-0.5,0.9-0.8,1.4"/>
			</g>
		</g>
	</g>
	
		<linearGradient id="SVGID_75_" gradientUnits="userSpaceOnUse" x1="-4074.3069" y1="-429.4845" x2="-2420.2166" y2="-429.4845" gradientTransform="matrix(-2.910000e-02 3.850000e-02 -5.560000e-02 -4.200000e-02 793.4987 637.0017)">
		<stop  offset="0" style="stop-color:#001820"/>
		<stop  offset="1" style="stop-color:#707B80"/>
	</linearGradient>
	<path class="st83" d="M926.3,478l-0.1-0.2c-11.1-4.8-27.5-5.5-49-2.1c-2.2,0.9-4.1,2-5.9,3.1c-2.5,1.7-4.6,3.5-6.1,5.5
		c-0.2,0.1-0.3,0.3-0.4,0.5c0,0.1,0,0.1,0,0.1c1,7.5,4.2,22,9.7,43c-0.1,0.3,0,0.5,0.1,0.6l5.8,23.2l1.5-0.4
		c0.2-0.1,0.4-0.1,0.6-0.1c9.9-2.1,22.4-3.5,37.5-4.3l7-0.2c25.6-4.4,45.1-6.4,58.5-6.4c-31-1.5-62.9-0.2-95.7,3.7
		c-2.6,0.3-5.6-1.4-8.9-5.2L870,494.5c3.4-8.3,12.4-13.1,26.7-14.4C906.5,479.1,916.4,478.4,926.3,478z"/>
	
		<linearGradient id="SVGID_76_" gradientUnits="userSpaceOnUse" x1="-3514.6174" y1="914.4315" x2="-1773.1265" y2="914.4315" gradientTransform="matrix(-5.510000e-02 3.180000e-02 -2.830000e-02 -4.900000e-02 856.8318 633.6864)">
		<stop  offset="0" style="stop-color:#121B21"/>
		<stop  offset="1" style="stop-color:#647179"/>
	</linearGradient>
	<path class="st84" d="M927.5,477.9c-0.3,0-0.7,0-1.2,0.1c31.2,7.2,50.9,28,59.5,62.3c0,0.1,0,0.1,0,0.2c7.3,0.3,14.5,0.9,21.7,1.5
		c4.2-0.5,6.8-3,7.6-7.2l9.1-40.9c-2.5-7-9-11.3-19.6-12.8c-27.8-2.9-49.1-4.1-63.9-3.7C936.2,477.6,931.9,477.7,927.5,477.9z"/>
	
		<linearGradient id="SVGID_77_" gradientUnits="userSpaceOnUse" x1="-3197.1655" y1="20.1523" x2="-1518.6589" y2="20.1523" gradientTransform="matrix(-3.930000e-02 5.020000e-02 -7.020000e-02 -5.500000e-02 860.7508 626.324)">
		<stop  offset="0" style="stop-color:#001820"/>
		<stop  offset="1" style="stop-color:#707B80"/>
	</linearGradient>
	<path class="st85" d="M926.2,477.8l1.3,0.1c4.4-0.2,8.8-0.3,13.2-0.5c14.8-0.4,36.1,0.8,63.9,3.7c10.6,1.5,17,5.7,19.6,12.8
		l-9.1,40.9c-0.8,4.3-3.4,6.7-7.6,7.2c-7.2-0.6-14.4-1.2-21.7-1.5c-0.1-0.1-0.2-0.1-0.3-0.1c-13.4,0-33,2.1-58.5,6.4l21.6-0.6
		l27.3,0.8c15,0.8,27.6,2.2,37.6,4.3c0.2,0,0.4,0.1,0.6,0.1l2,0.5c0.1-0.1,0.1-0.2,0.2-0.3l0.1-0.6l5.6-22.2c0-0.3,0-0.4,0.1-0.6
		c5.4-21.3,8.7-35.7,9.7-43.3l0.1-0.1c-1.9-2.5-4.4-4.7-7.8-6.7c-5.6-3.4-13.3-5.9-23.1-7.7c-13.1-2.4-30.8-3.5-52.9-3.5h-0.1
		c-22.3,0.2-39.8,1.3-52.5,3.6c-7.2,1.3-13.3,3.1-18.2,5.2C898.7,472.2,915.1,472.9,926.2,477.8z"/>
	
		<radialGradient id="SVGID_78_" cx="-644.3625" cy="-1126.4951" r="953.9904" gradientTransform="matrix(1.806060e-02 6.292664e-02 -9.828962e-02 2.462716e-02 855.4822 575.4145)" gradientUnits="userSpaceOnUse">
		<stop  offset="0" style="stop-color:#9EA5AA"/>
		<stop  offset="1" style="stop-color:#0A1A22"/>
	</radialGradient>
	<path class="st86" d="M926.3,478c-9.9,0.5-19.8,1.2-29.6,2.1c-14.4,1.4-23.4,6.1-26.7,14.4l10.9,44.3c3.3,3.9,6.2,5.5,8.9,5.2
		c32.9-3.9,64.8-5.1,95.7-3.7l0.3-0.1C977.2,505.9,957.5,485.2,926.3,478z"/>
</g>
</svg>
